<?xml version="1.0" encoding="UTF-8"?>
<svg width="82px" height="100px" viewBox="0 0 82 100" version="1.1" xmlns="http://www.w3.org/2000/svg" xmlns:xlink="http://www.w3.org/1999/xlink">
    <g id="Page-1" stroke="none" stroke-width="1" fill="none" fill-rule="evenodd">
        <g id="Artboard" transform="translate(-9.000000, 0.000000)" fill="#3498DB">
            <path d="M15,15.6142218 C26.1767628,15.1010544 39.4155359,12.9006307 49.9224231,7 C58.0514107,11.5660777 67.8169901,13.9158442 77,14.9850753 L73.0871012,17.6668913 C65.2470173,16.4864475 57.0973936,14.3257426 49.9224231,10.6096481 C40.0695376,15.7127245 28.3784628,17.8829618 18.1747657,18.6106109 L18.1747657,53.879351 C18.1747657,59.8784844 20.2177275,65.850609 23.6274259,71.1983535 L21.0018946,73 C17.2572584,67.1629195 15,60.5854798 15,53.879351 L15,15.6142218 Z M84,22 L84,54.5655554 C84,72.8414811 67.317607,90.1591778 49.6033135,94 C41.3058946,92.2005534 33.2351812,87.4457768 27,81.0212149 L29.6204021,79.2043748 C35.17234,84.7972065 42.2439861,89.0127817 49.6033135,90.7600474 C65.9401761,86.8812755 80.8730285,70.8269864 80.8730285,54.5655554 L80.8730285,24.1678746 L84,22 Z M50,100 C29.3706923,96.2377835 9,76.4477971 9,54.1132935 L9,9.8206661 C22.0190769,9.92187747 38.8543077,7.76797293 50,0 C61.1456923,7.76797293 77.9793462,9.92187747 91,9.8206661 L91,54.1132935 C91,76.4477971 70.6261538,96.2377835 50,100 L50,100 Z M12,54.5000536 C12,62.9426446 15.1962545,71.0869444 20.3149969,78 L42.8718725,62.4587148 L28.666297,62.4587148 L60.9050615,40.2455456 L46.699486,40.2455456 L86,13.1661056 C74.2661946,12.7535753 60.2815946,10.4576856 49.8815349,4 C38.9542905,10.7829499 24.0715824,12.975707 12,13.2152919 L12,54.5000536 Z M23,80.2866153 C30.1292547,88.7410652 40.1713191,94.9723196 50.3951403,97 C69.5219121,93.2079537 88,74.7002453 88,54.4581289 L88,16 L57.3504725,37.1392782 L71.4522949,37.1392782 L39.4489924,59.2135599 L53.5508148,59.2135599 L23,80.2866153 Z" id="Fill-1"></path>
        </g>
    </g>
</svg>