                                <svg version="1.1" id="Layer_1" xmlns="http://www.w3.org/2000/svg"
                                    xmlns:xlink="http://www.w3.org/1999/xlink" x="0px" y="0px" viewBox="0 0 36 36"
                                    style="enable-background:new 0 0 36 36;" xml:space="preserve">
                                    <g>
                                        <g>
                                            <path style="fill:#F27466;"
                                                d="M27.043,25.394H9.09V12.246h17.953V25.394z M9.761,24.724h16.611V12.917H9.761V24.724z">
                                            </path>
                                            <g>
                                                <g>
                                                    <path style="fill:#F27466;"
                                                        d="M12.84,17.404l-1.879,1.256v-0.463l1.456-0.962v-0.02l-1.456-0.962v-0.464l1.879,1.256V17.404z">
                                                    </path>
                                                </g>
                                                <g>
                                                    <path style="fill:#F27466;"
                                                        d="M15.253,18.664v0.404H12.86v-0.404H15.253z"></path>
                                                </g>
                                            </g>
                                            <path style="fill:#F27466;" d="M9.359,12.581v1.662h17.281v-1.662H9.359z M10.429,13.877c-0.249,0-0.451-0.202-0.451-0.45
          c0-0.249,0.202-0.451,0.451-0.451c0.249,0,0.45,0.202,0.45,0.451C10.88,13.675,10.678,13.877,10.429,13.877z M11.668,13.877
          c-0.249,0-0.451-0.202-0.451-0.45c0-0.249,0.202-0.451,0.451-0.451c0.249,0,0.45,0.202,0.45,0.451
          C12.119,13.675,11.917,13.877,11.668,13.877z M12.963,13.877c-0.249,0-0.451-0.202-0.451-0.45c0-0.249,0.202-0.451,0.451-0.451
          c0.249,0,0.45,0.202,0.45,0.451C13.414,13.675,13.212,13.877,12.963,13.877z"></path>
                                        </g>
                                        <g>
                                            <path style="fill:#F27466;" d="M27.001,33.589H9L0,18L9,2.411h18.001L36,18L27.001,33.589z M9.774,32.247h16.451L34.451,18L26.225,3.753
          H9.774L1.549,18L9.774,32.247z"></path>
                                        </g>
                                    </g>
                                </svg>