<?xml version="1.0" encoding="utf-8"?>
<!-- Generator: Adobe Illustrator 18.1.1, SVG Export Plug-In . SVG Version: 6.00 Build 0)  -->
<!DOCTYPE svg PUBLIC "-//W3C//DTD SVG 1.1//EN" "http://www.w3.org/Graphics/SVG/1.1/DTD/svg11.dtd">
<svg version="1.1" id="Layer_1" xmlns="http://www.w3.org/2000/svg" xmlns:xlink="http://www.w3.org/1999/xlink" x="0px" y="0px"
	 viewBox="0 0 64 64" enable-background="new 0 0 64 64" xml:space="preserve">
<rect y="0" fill="#C0BFBF" width="64" height="64"/>
<path fill="#F3F3F3" d="M59.6,59.3c0,0,0.4,0.1-0.6,0V59c0-9.2-7-16.7-16.3-16.7h-0.1c-1.4,0-2.7-0.6-4-0.8c0-0.6,0-1.2,0.1-1.7
	c3.3-1.3,4.1-5.4,4.7-10c2.4-0.4,2.4-0.4,2.4-3.8c0-1.7,1.4-3.2-2-3.7c0-0.1,0-0.2,0-0.2c0-8.3-0.7-17.7-7-15c0,0,0.1-2.7-6.8-2.7
	c-9.1,0-9.8,7.4-9.8,17.7c0,0.1,0,0.2,0,0.2c-3.2,0.4-2,2-2,3.7c0,3.4,0,3.4,2.4,3.8c0.6,4.6,1.6,9.2,4.7,10
	c0.1,0.5,0.1,1.1,0.1,1.7c-1.4,0.2-2.7,0.8-4,0.8h-0.1C12,42.3,5,49.8,5,59v0.3c-1,0.2-0.6,0-0.6,0H5v2h54v-2H59.6z"/>
</svg>
