<?xml version="1.0" encoding="utf-8"?><!DOCTYPE svg PUBLIC "-//W3C//DTD SVG 1.1//EN" "http://www.w3.org/Graphics/SVG/1.1/DTD/svg11.dtd"><svg version="1.1" id="Layer_1" xmlns="http://www.w3.org/2000/svg" xmlns:xlink="http://www.w3.org/1999/xlink" x="0px" y="0px" width="40px" height="40px" viewBox="0 0 40 40" enable-background="new 0 0 40 40" xml:space="preserve"><path fill="#3480C2" d="M28.466,10.027H13.854c-4.511,0-5.674,5.598-5.891,8.875H0.982c-1.032,0-1.365,1.062-0.519,1.652 l15.125,10.552c0.251,0.179,0.785,0.179,1.039,0l15.125-10.552c0.846-0.591,0.512-1.652-0.521-1.652h-7.2l0.032-0.393 c0.272-2.731,1.271-6.667,4.402-6.667c2.873,0,7.771,0.14,9.773,8.637c0.276,1.173,2.042,0.758,1.765-0.415	C37.723,10.385,31.738,10.027,28.466,10.027"/></svg>