<?xml version="1.0" encoding="utf-8"?>
<!-- Generator: Adobe Illustrator 15.0.0, SVG Export Plug-In . SVG Version: 6.00 Build 0)  -->
<!DOCTYPE svg PUBLIC "-//W3C//DTD SVG 1.1//EN" "http://www.w3.org/Graphics/SVG/1.1/DTD/svg11.dtd">
<svg version="1.1" id="Layer_1" xmlns="http://www.w3.org/2000/svg" xmlns:xlink="http://www.w3.org/1999/xlink" x="0px" y="0px"
	 width="40px" height="40px" viewBox="0 0 40 40" enable-background="new 0 0 40 40" xml:space="preserve">
<path fill="#3580C3" d="M20.013,18.227c10.996,0,19.911-3.712,19.911-8.294c0-4.583-8.915-8.298-19.911-8.298
	c-10.994,0-19.91,3.715-19.91,8.298C0.103,14.514,9.02,18.227,20.013,18.227 M20.013,31.499c10.996,0,19.911-3.713,19.911-8.294
	c0-0.867-0.319-1.703-0.912-2.489c-2.537,3.366-10.084,5.806-18.999,5.806c-8.914,0-16.46-2.44-19-5.806
	c-0.591,0.786-0.91,1.622-0.91,2.489C0.103,27.786,9.02,31.499,20.013,31.499 M20.013,38.136c10.996,0,19.911-3.711,19.911-8.294
	c0-0.867-0.319-1.703-0.912-2.488c-2.537,3.365-10.084,5.806-18.999,5.806c-8.914,0-16.46-2.44-19-5.806
	c-0.591,0.785-0.91,1.621-0.91,2.488C0.103,34.425,9.02,38.136,20.013,38.136 M20.013,24.862c10.996,0,19.911-3.711,19.911-8.294
	c0-0.866-0.319-1.702-0.912-2.488c-2.537,3.366-10.084,5.805-18.999,5.805c-8.914,0-16.46-2.439-19-5.805
	c-0.591,0.786-0.91,1.622-0.91,2.488C0.103,21.151,9.02,24.862,20.013,24.862 M20.013,7.202c2.781,0,5.033,0.941,5.033,2.098
	c0,1.16-2.252,2.097-5.033,2.097c-2.78,0-5.031-0.938-5.031-2.097C14.982,8.143,17.233,7.202,20.013,7.202"/>
</svg>
