<?xml version="1.0" encoding="utf-8"?><svg version="1.1" id="Layer_1" xmlns="http://www.w3.org/2000/svg" xmlns:xlink="http://www.w3.org/1999/xlink" x="0px" y="0px" width="40px" height="40px" viewBox="0 0 40 40" enable-background="new 0 0 40 40" xml:space="preserve"><path xmlns="http://www.w3.org/2000/svg" d="m 24.7,5.8 c 2.8,0.9 5.3,2.7 7.1,5 H 27.9 C 27.1,9.1 26.1,7.4 24.7,5.8 z m -9.4,0 c -1.4,1.6 -2.4,3.3 -3.2,5 H 8.2 C 10,8.5 12.5,6.7 15.3,5.8 z M 18.9,19 h -6.4 c 0.1,-2.2 0.4,-4.2 1,-6 h 5.4 v 6 z m 8.6,0 h -6.4 v -6 h 5.4 c 0.6,1.8 0.9,3.7 1,6 z m -6.4,2.1 h 6.4 c -0.1,2.2 -0.4,4.2 -1,6 h -5.4 v -6 z m -8.5,0 H 19 v 6 h -5.4 c -0.6,-1.8 -1,-3.8 -1,-6 z m 2.7,13.1 C 12.5,33.3 10,31.5 8.2,29.2 h 3.9 c 0.8,1.8 1.8,3.4 3.2,5 z M 17.1,33 C 16,31.8 15.2,30.5 14.5,29.2 H 19 V 32 c -0.8,0.2 -1.4,0.5 -1.9,1 z m 5.7,0.2 c -0.5,-0.5 -1,-0.9 -1.7,-1.1 v -2.9 h 4.5 c -0.8,1.4 -1.7,2.7 -2.8,4 z m 1.9,1 c 1.4,-1.6 2.4,-3.3 3.2,-5 h 3.9 c -1.8,2.3 -4.2,4.1 -7.1,5 z M 10.4,21.1 c 0.1,2.2 0.4,4.2 0.9,6 H 6.8 C 6.2,26 5.8,24.9 5.5,23.6 c 1.1,-0.4 2,-1.4 2.4,-2.5 h 2.5 z M 6.8,13 h 4.5 c -0.5,1.8 -0.8,3.8 -0.9,6 H 8 C 7.7,17.7 6.8,16.6 5.6,16.1 5.9,15 6.3,13.9 6.8,13 z m 22.8,6 c -0.1,-2.2 -0.4,-4.2 -0.9,-6 h 4.5 c 0.6,1.1 1,2.2 1.3,3.5 -1.1,0.4 -2,1.4 -2.4,2.5 h -2.5 z m 3.6,8.1 h -4.5 c 0.5,-1.8 0.8,-3.8 0.9,-6 H 32 c 0.3,1.3 1.2,2.4 2.4,2.9 -0.2,1.1 -0.7,2.1 -1.2,3.1 z M 3.4,15.8 c -2,0.3 -3.4,2 -3.4,4 0,2 1.4,3.7 3.3,4 1.4,6.3 6.3,11.2 12.5,12.8 0.3,2 2,3.4 4,3.4 2,0 3.7,-1.4 4,-3.3 6.3,-1.4 11.2,-6.3 12.8,-12.5 1.9,-0.3 3.4,-2 3.4,-4 0,-2 -1.4,-3.7 -3.3,-4 C 35.3,10 30.4,5 24.2,3.4 23.9,1.4 22.2,0 20.2,0 18.2,0 16.5,1.4 16.2,3.3 10,4.8 5,9.6 3.4,15.8 z m 15.5,-5 h -4.5 c 0.7,-1.4 1.6,-2.7 2.8,-4 0.5,0.5 1,0.9 1.7,1.1 v 2.9 z m 6.7,0 H 21.1 V 8 c 0.7,-0.2 1.4,-0.5 1.9,-1 1,1.3 1.9,2.5 2.6,3.8 z" id="path3" style="fill:#3480c2"/></svg>