<?xml version="1.0" encoding="utf-8"?><!DOCTYPE svg PUBLIC "-//W3C//DTD SVG 1.1//EN" "http://www.w3.org/Graphics/SVG/1.1/DTD/svg11.dtd"><svg version="1.1" id="Layer_1" xmlns="http://www.w3.org/2000/svg" xmlns:xlink="http://www.w3.org/1999/xlink" x="0px" y="0px" width="40px" height="40px" viewBox="0 0 40 40" enable-background="new 0 0 40 40" xml:space="preserve"><path fill="#3480C2" d="M0.091,6.572c0,3.198,8.915,5.787,19.912,5.787c10.999,0,19.912-2.588,19.912-5.787 s-8.913-5.791-19.912-5.791C9.006,0.781,0.091,3.374,0.091,6.572 M39.915,19.939c-2.722,3.065-11.229,4.792-19.912,4.792 c-8.682,0-17.189-1.727-19.912-4.792v4.325c0.551,3.33,9.253,6.002,19.912,6.002c10.66,0,19.365-2.672,19.888-6.031L39.915,19.939z M0.091,28.688v3.898c0,3.66,8.915,6.633,19.912,6.633c10.999,0,19.912-2.973,19.912-6.633v-3.898 c-2.721,3.174-11.209,4.994-19.912,4.994C11.295,33.682,2.809,31.861,0.091,28.688 M0.091,15.67 c0.691,3.129,9.337,5.641,19.912,5.641c10.574,0,19.223-2.511,19.873-5.683l0.039-4.437c-2.726,2.952-11.251,4.586-19.912,4.586	S2.817,14.144,0.091,11.191V15.67z"/></svg>
