<?xml version="1.0" encoding="utf-8"?>
<!-- Generator: Adobe Illustrator 15.0.0, SVG Export Plug-In . SVG Version: 6.00 Build 0)  -->
<!DOCTYPE svg PUBLIC "-//W3C//DTD SVG 1.1//EN" "http://www.w3.org/Graphics/SVG/1.1/DTD/svg11.dtd">
<svg version="1.1" id="Layer_1" xmlns="http://www.w3.org/2000/svg" xmlns:xlink="http://www.w3.org/1999/xlink" x="0px" y="0px"
	 width="40px" height="40px" viewBox="0 0 40 40" enable-background="new 0 0 40 40" xml:space="preserve">
<path fill="#3498DB" d="M15.694,7.522V4.057H0.101v31.188h39.851V7.522H15.694z M38.22,33.512H1.833V5.789h12.128v3.465H38.22
	V33.512z"/>
<path fill="#3498DB" d="M7.031,12.72v17.326h25.99V12.72H7.031z M8.763,17.657l5.521,3.944l-5.521,4.468V17.657z M8.763,28.313
	l6.983-5.668l4.279,3.058l4.279-3.058l6.983,5.668H8.763z M31.288,26.069l-5.521-4.468l5.521-3.944V26.069z M31.288,15.53
	l-11.262,8.041L8.763,15.53v-1.078h22.525V15.53z"/>
</svg>
