<?xml version="1.0" encoding="utf-8"?><!DOCTYPE svg PUBLIC "-//W3C//DTD SVG 1.1//EN" "http://www.w3.org/Graphics/SVG/1.1/DTD/svg11.dtd"><svg version="1.1" id="Layer_1" xmlns="http://www.w3.org/2000/svg" xmlns:xlink="http://www.w3.org/1999/xlink" x="0px" y="0px" width="50px" height="35px" viewBox="0 0 50 35" enable-background="new 0 0 50 35" xml:space="preserve"><polygon fill="#3580C3" points="25.8,17.378 26.337,20.168 26.709,17.304 29.589,16.783 26.617,16.504 26.17,13.665 25.855,16.561 22.954,17.1"/><polygon fill="#3580C3" points="22.696,24.688 22.395,26.43 20.557,26.878 22.42,27.055 22.674,28.811 22.967,27.012 24.648,26.741 23.013,26.361"/><polygon fill="#3580C3" points="18.29,15.213 18.354,13.716 19.751,13.437 18.297,13.277 18.009,11.941 17.775,13.268 16.445,13.592 17.852,13.759"/><polygon fill="#3580C3" points="32.542,3.187 33.087,1.791 34.501,1.981 33.178,1.358 33.342,0 32.688,1.179 31.322,1.052 32.602,1.669"/><polygon fill="#3580C3" points="39.633,14.645 41.305,14.636 39.669,14.127 39.633,12.527 39.068,14 37.466,14.077 39.048,14.584 39.225,16.356"/><polygon fill="#3580C3" points="42.525,9.326 41.407,9.112 42.35,9.726 42.164,10.852 42.751,9.826 44.014,9.963 42.882,9.426 43.122,8.264"/><polygon fill="#3580C3" points="39.48,19.885 41.184,20.406 39.77,19.366 40.412,17.826 39.303,19.134 37.818,18.539 38.952,19.635 38.398,21.141"/><polygon fill="#3580C3" points="42.975,18.118 43.143,16.826 44.368,16.691 43.126,16.444 42.979,15.267 42.675,16.396 41.499,16.576 42.701,16.828"/><polygon fill="#3580C3" points="44.546,12.796 44.588,11.432 44.039,12.663 42.671,12.655 43.997,13.158 44.07,14.674 44.492,13.237 45.916,13.302"/><polygon fill="#3580C3" points="44.374,20.364 45.786,20.555 44.464,19.93 44.628,18.573 43.973,19.751 42.611,19.625 43.887,20.242 43.829,21.76"/><polygon fill="#3580C3" points="41.257,24.422 41.422,23.128 42.65,22.994 41.409,22.747 41.259,21.573 40.957,22.699 39.783,22.878 40.988,23.13"/><polygon fill="#3580C3" points="47.525,13.396 47.412,14.931 46.018,15.284 47.426,15.483 47.816,16.871 47.939,15.383 49.455,14.867 47.871,14.857"/><polygon fill="#3580C3" points="47.971,10.189 48.361,11.578 48.484,10.089 50,9.574 48.418,9.564 48.075,8.102 47.959,9.637 46.562,9.992"/><polygon fill="#3580C3" points="45.391,7.639 45.516,6.15 47.031,5.636 45.449,5.624 45.104,4.163 44.99,5.701 43.593,6.051 44.999,6.25"/><polygon fill="#3580C3" points="40.734,5.898 41.219,4.519 42.583,4.537 41.343,4.011 41.329,2.643 40.848,3.976 39.332,4.078 40.777,4.476"/><polygon fill="#3580C3" points="37.165,5.527 37.361,6.778 37.586,5.548 38.773,5.48 37.59,5.18 37.51,4.044 37.161,5.112 36.025,5.226"/><polygon fill="#3580C3" points="39.114,8.11 39.158,8.984 39.434,8.122 40.4,8.024 39.471,7.802 39.463,6.893 39.186,7.785 38.314,7.802"/><polygon fill="#3580C3" points="34.834,3.121 34.874,3.995 35.15,3.132 36.115,3.034 35.186,2.812 35.18,1.901 34.902,2.795 34.029,2.812"/><polygon fill="#3580C3" points="30.764,3.81 30.956,5.061 31.184,3.832 32.368,3.763 31.188,3.463 31.104,2.326 30.756,3.396 29.622,3.508"/><polygon fill="#3580C3" points="33.622,4.225 33.346,5.116 32.475,5.135 33.277,5.443 33.316,6.316 33.596,5.455 34.561,5.358 33.628,5.135"/><polygon fill="#3580C3" points="26.568,4.296 26.844,3.434 27.811,3.336 26.878,3.116 26.874,2.205 26.598,3.096 25.725,3.116 26.527,3.423"/><polygon fill="#3580C3" points="28.408,2.734 28.686,1.873 29.648,1.775 28.719,1.552 28.713,0.642 28.436,1.535 27.562,1.552 28.366,1.863"/><polygon fill="#3580C3" points="22.82,2.902 23.228,3.678 23.115,2.778 23.946,2.282 23.007,2.474 22.619,1.65 22.744,2.578 21.96,2.962"/><polygon fill="#3580C3" points="31.223,13.832 31.497,12.971 32.464,12.873 31.533,12.651 31.527,11.741 31.252,12.633 30.377,12.651 31.184,12.962"/><path fill="#3580C3" d="M36.043,22.027v-11.96h-8.359c-0.326-1.084-0.326-1.919-0.322-2.009c0.017-0.628-0.473-1.155-1.102-1.182 c-0.642-0.02-1.164,0.454-1.199,1.082c-0.044,0.752-0.176,1.446-0.348,2.109H1.586v23.494h34.457v-7.076 c4.879,3.938,9.979,8.048,10.254,8.246c0.166,0.119,0.365,0.172,0.576,0.172c0.537,0,1.158-0.34,1.541-0.791 c0.566-0.676,0.527-1.479-0.105-2.101C47.629,31.342,41.486,26.389,36.043,22.027z M26.277,12.598 c0.812,1.512,2.16,3.077,4.402,4.142c-1.74,0.864-3.303,2.269-4.299,4.797c-1.041-1.998-2.475-3.36-4.517-4.293 C23.834,16.209,25.341,14.62,26.277,12.598z M24.143,22.312l-0.14-0.112l0.05-0.037C24.084,22.213,24.114,22.264,24.143,22.312z M3.15,11.631h21.002c-1.132,2.416-3.26,4.017-6.216,4.508c-0.546,0.089-0.951,0.556-0.962,1.11 c-0.012,0.554,0.373,1.038,0.916,1.149c2.374,0.494,4.018,1.254,5.221,2.515l-4.297,3.069L3.15,12.795V11.631z M3.15,14.72 l10.473,7.48L3.15,30.677V14.72z M4.016,31.992l10.931-8.85l3.868,2.764l3.868-2.764l2.661,2.155 c0.044,0.158,0.096,0.295,0.139,0.463c0.128,0.513,0.589,0.871,1.113,0.871c0.023,0,0.047-0.004,0.07-0.004 c0.086-0.006,0.166-0.036,0.248-0.06l6.699,5.424H4.016z M34.479,30.677l-6.678-5.405c0.279-1.879,0.773-3.263,1.441-4.283 l4.965,4.014c0.09,0.072,0.182,0.145,0.271,0.219V30.677z M34.479,20.773l-2.58-2.063c0.797-0.371,1.668-0.614,2.58-0.829V20.773z M34.479,15.514c-0.299-0.053-0.584-0.114-0.854-0.183l0.854-0.611V15.514z M34.479,12.795L31.811,14.7 c-1.74-0.8-2.807-1.945-3.449-3.069h6.117V12.795z"/></svg>