<?xml version="1.0" encoding="utf-8"?><!DOCTYPE svg PUBLIC "-//W3C//DTD SVG 1.1//EN" "http://www.w3.org/Graphics/SVG/1.1/DTD/svg11.dtd"><svg version="1.1" id="Layer_1" xmlns="http://www.w3.org/2000/svg" xmlns:xlink="http://www.w3.org/1999/xlink" x="0px" y="0px" width="40px" height="40px" viewBox="0 0 40 40" enable-background="new 0 0 40 40" xml:space="preserve"><path fill="#3480C2" d="M0.479,5.093v29.232l20.975,3.888V1.202L0.479,5.093z M7.014,10.565l8.812-0.631l0.041,3.648h-5.391v3.549 h4.231v3.746l-4.281-0.254v3.393l5.448,0.414v3.793l-8.86-1.363V10.565z"/>	<path fill="#3480C2" d="M35.48,9.991h-4.975c-0.148,0-0.287,0.076-0.365,0.199l-4.17,6.386c-0.117,0.182-0.086,0.422,0.076,0.565 c0.159,0.144,0.402,0.148,0.569,0.012l4.786-3.935l1.636,0.001l-0.003,2.232l-0.678,1.028c-0.063,0.098-0.086,0.218-0.062,0.33 c0.025,0.115,0.094,0.214,0.189,0.277l1.076,0.7c0.072,0.047,0.156,0.07,0.237,0.07c0.118,0,0.235-0.047,0.323-0.139l1.68-1.816 c0.074-0.08,0.117-0.187,0.117-0.297v-5.175C35.92,10.189,35.723,9.991,35.48,9.991z"/>	<path fill="#3480C2" d="M29.064,17.279c-0.183-0.119-0.422-0.087-0.563,0.073c-0.146,0.163-0.151,0.404-0.015,0.571l3.935,4.787 l-0.001,1.638l-2.23-0.002l-1.027-0.68c-0.098-0.064-0.219-0.086-0.331-0.062c-0.114,0.023-0.214,0.092-0.276,0.19l-0.699,1.074 c-0.116,0.181-0.088,0.416,0.069,0.562l1.814,1.68c0.079,0.074,0.187,0.117,0.297,0.117h5.177c0.242,0,0.438-0.197,0.438-0.438 v-4.976c-0.002-0.149-0.076-0.287-0.199-0.367L29.064,17.279z"/>	<path fill="#3480C2" d="M37.473,7.099H22.783l0.023,23.506h14.666c1.127,0,2.041-0.924,2.041-2.06V9.158 C39.516,8.022,38.6,7.099,37.473,7.099z M38.348,28.546c0,0.491-0.393,0.894-0.875,0.894H23.975l-0.002-2.24 c0.09-0.031,0.17-0.092,0.223-0.172l4.169-6.387c0.118-0.182,0.086-0.422-0.073-0.565c-0.161-0.144-0.402-0.148-0.57-0.012 l-3.754,3.083l-0.004-3.751l1.04,0.677c0.072,0.05,0.155,0.073,0.238,0.073c0.122,0,0.241-0.05,0.327-0.147 c0.144-0.161,0.149-0.402,0.012-0.568l-1.62-1.97l-0.005-4.4l0.949,0.626c0.074,0.047,0.158,0.072,0.242,0.072 c0.03,0,0.06-0.003,0.09-0.008c0.115-0.025,0.215-0.094,0.277-0.191l0.697-1.075c0.117-0.179,0.089-0.415-0.068-0.561l-1.814-1.681 c-0.081-0.074-0.188-0.116-0.297-0.116h-0.078L23.95,8.265h13.522c0.481,0,0.875,0.401,0.875,0.894V28.546z"/></svg>