<?xml version="1.0" encoding="utf-8"?><!DOCTYPE svg PUBLIC "-//W3C//DTD SVG 1.1//EN" "http://www.w3.org/Graphics/SVG/1.1/DTD/svg11.dtd"><svg version="1.1" id="Layer_1" xmlns="http://www.w3.org/2000/svg" xmlns:xlink="http://www.w3.org/1999/xlink" x="0px" y="0px" width="40px" height="40px" viewBox="0 0 40 40" enable-background="new 0 0 40 40" xml:space="preserve"><path fill="#3480C2" d="M35.69,12.608L23.733,0.647c-0.354-0.349-0.831-0.571-1.361-0.582l-0.054,13.704l13.257,0.25h0.634	C36.259,13.473,36.061,12.982,35.69,12.608 M4.374,2.057v35.882c0,1.102,0.897,1.999,1.992,1.999h27.909 c1.104,0,1.998-0.897,1.998-1.999V16.51c0-0.272-0.227-0.498-0.498-0.498H21.317c-0.549,0-0.996-0.444-0.996-0.996V0.56 c0-0.274-0.224-0.498-0.498-0.498H6.366C5.271,0.062,4.374,0.957,4.374,2.057"/></svg>