<?xml version="1.0" encoding="utf-8"?><svg version="1.1" id="Layer_1" xmlns="http://www.w3.org/2000/svg" xmlns:xlink="http://www.w3.org/1999/xlink" x="0px" y="0px" width="40px" height="40px" viewBox="0 0 40 40" enable-background="new 0 0 40 40" xml:space="preserve"><path fill="#3580C3" d="M1.317,39.577h37.28c0.545,0,0.98-0.438,0.98-0.98V1.318c0-0.541-0.436-0.982-0.98-0.982H1.317 c-0.54,0-0.98,0.441-0.98,0.982v37.278C0.336,39.14,0.777,39.577,1.317,39.577 M4.26,4.261h31.393v25.506H4.26V4.261z M21.881,12.731c-0.606-2.606-2.942-4.545-5.733-4.545c-3.248,0-5.885,2.634-5.885,5.885c0,1.521,0.574,2.906,1.521,3.95 C9.824,18.238,8.3,19.901,8.3,21.92c0,2.167,1.758,3.924,3.924,3.924H27.92c2.169,0,3.925-1.757,3.925-3.924 c0-2.168-1.756-3.925-3.925-3.925c-0.184,0-0.368,0.014-0.544,0.039c0.346-0.586,0.544-1.268,0.544-2 c0-2.168-1.754-3.925-3.924-3.925C23.219,12.108,22.49,12.337,21.881,12.731"/></svg>