<?xml version="1.0" encoding="utf-8"?><!DOCTYPE svg PUBLIC "-//W3C//DTD SVG 1.1//EN" "http://www.w3.org/Graphics/SVG/1.1/DTD/svg11.dtd"><svg version="1.1" id="Layer_1" xmlns="http://www.w3.org/2000/svg" xmlns:xlink="http://www.w3.org/1999/xlink" x="0px" y="0px" width="40px" height="40px" viewBox="0 0 40 40" enable-background="new 0 0 40 40" xml:space="preserve"><path fill="#3480C2" d="M7.635,14.14c1.015-1.478,2.289-2.761,3.753-3.793L0.429,11.34l4.618,9.989 c0.162-1.828,0.649-3.565,1.403-5.149l7.305,4.217c-0.253,0.702-0.389,1.456-0.389,2.246c0,3.26,2.354,5.971,5.455,6.531v3.769 c-1.354,0.486-2.319,1.78-2.319,3.301c0,1.934,1.563,3.501,3.498,3.501c1.933,0,3.505-1.567,3.505-3.501 c0-1.521-0.973-2.812-2.327-3.301v-3.769c3.104-0.561,5.46-3.271,5.46-6.531c0-0.79-0.141-1.544-0.392-2.246l7.303-4.219 c0.756,1.584,1.244,3.32,1.402,5.152l4.619-9.989l-10.96-0.993c1.468,1.032,2.74,2.315,3.756,3.79l-7.306,4.218	c-0.973-1.152-2.334-1.966-3.883-2.243V7.681c1.836,0.144,3.573,0.613,5.16,1.356L20,0.043l-6.339,8.994 c1.59-0.74,3.332-1.212,5.16-1.356v8.431c-1.547,0.276-2.909,1.091-3.885,2.243L7.635,14.14z M20,18.366 c2.361,0,4.276,1.916,4.276,4.277c0,2.36-1.915,4.276-4.276,4.276s-4.275-1.916-4.275-4.276C15.725,20.281,17.64,18.366,20,18.366"/></svg>