<?xml version="1.0" encoding="utf-8"?>
<!-- Generator: Adobe Illustrator 15.0.0, SVG Export Plug-In . SVG Version: 6.00 Build 0)  -->
<!DOCTYPE svg PUBLIC "-//W3C//DTD SVG 1.1//EN" "http://www.w3.org/Graphics/SVG/1.1/DTD/svg11.dtd">
<svg version="1.1" id="Layer_1" xmlns="http://www.w3.org/2000/svg" xmlns:xlink="http://www.w3.org/1999/xlink" x="0px" y="0px"
	 width="40px" height="40px" viewBox="0 0 40 40" enable-background="new 0 0 40 40" xml:space="preserve">
<g>
	<polygon fill="#3B97D3" points="32.749,17.352 32.749,25.598 31.055,23.9 24.271,30.684 24.271,39.396 25.4,39.396 25.4,31.152 
		31.053,25.5 32.232,26.68 28.393,30.52 29.191,31.318 33.88,26.631 33.88,18.484 35.575,18.484 35.575,28.423 29.923,34.075 
		29.923,39.396 31.055,39.396 31.055,34.543 36.705,28.891 36.705,17.352 	"/>
	<polygon fill="#3B97D3" points="6.75,25.598 6.75,17.352 2.794,17.352 2.794,28.891 8.446,34.543 8.446,39.395 9.576,39.395 
		9.576,34.074 3.924,28.422 3.924,18.483 5.62,18.483 5.62,26.63 10.308,31.316 11.107,30.518 7.267,26.678 8.446,25.499 
		14.098,31.15 14.098,39.395 15.228,39.395 15.228,30.684 8.446,23.9 	"/>
	<path fill="#3B97D3" d="M24.848,22.958l0.23-0.099c0.208-0.086,0.445-0.217,0.605-0.312c0.133-0.075,0.385-0.226,0.574-0.368
		l0.2-0.15l0.022-0.25c0.045-0.498,0.059-1.271-0.355-2.247c-0.018-0.043-0.048-0.116-0.045-0.123
		c0.285-0.253,0.559-0.525,0.789-0.813c0.027,0.001,0.1,0.032,0.158,0.057c0.587,0.249,1.168,0.37,1.771,0.37
		c0.163,0,0.315-0.008,0.459-0.021l0.25-0.023l0.15-0.2c0.142-0.19,0.292-0.441,0.367-0.574c0.078-0.131,0.22-0.385,0.313-0.605
		l0.099-0.231l-0.104-0.229c-0.21-0.454-0.586-1.129-1.431-1.768c-0.035-0.026-0.094-0.07-0.103-0.083
		c0.121-0.363,0.22-0.736,0.275-1.1c0.024-0.012,0.103-0.022,0.167-0.03c1.035-0.127,1.697-0.525,2.105-0.813l0.207-0.145
		l0.028-0.25c0.028-0.235,0.032-0.528,0.032-0.681s-0.004-0.446-0.032-0.681l-0.028-0.25l-0.207-0.145
		c-0.408-0.288-1.072-0.686-2.123-0.816c-0.048-0.006-0.125-0.016-0.129-0.021c-0.08-0.383-0.182-0.766-0.312-1.091
		c0.016-0.024,0.079-0.071,0.129-0.11c0.832-0.628,1.208-1.304,1.418-1.758l0.104-0.228l-0.099-0.231
		c-0.088-0.206-0.218-0.443-0.312-0.606s-0.235-0.395-0.371-0.574l-0.149-0.2l-0.25-0.023c-0.144-0.012-0.296-0.021-0.46-0.021
		c-0.602,0-1.184,0.121-1.786,0.376c-0.043,0.018-0.116,0.05-0.122,0.046c-0.254-0.287-0.527-0.559-0.813-0.789
		c0.001-0.029,0.032-0.101,0.057-0.16c0.407-0.96,0.394-1.734,0.349-2.231l-0.022-0.25l-0.2-0.151
		c-0.191-0.144-0.441-0.293-0.574-0.369c-0.13-0.076-0.385-0.219-0.604-0.312l-0.231-0.098l-0.228,0.105
		c-0.455,0.21-1.13,0.585-1.769,1.429c-0.025,0.037-0.07,0.096-0.084,0.103c-0.365-0.121-0.738-0.221-1.1-0.275
		c-0.012-0.025-0.021-0.104-0.029-0.167c-0.127-1.034-0.525-1.697-0.813-2.106l-0.146-0.205l-0.249-0.03
		c-0.233-0.029-0.521-0.033-0.693-0.033c-0.149,0-0.436,0.004-0.669,0.033l-0.25,0.03l-0.144,0.205
		c-0.288,0.41-0.686,1.073-0.816,2.124c-0.005,0.046-0.015,0.125-0.021,0.129c-0.382,0.078-0.763,0.18-1.089,0.311
		c-0.024-0.016-0.071-0.078-0.11-0.13c-0.629-0.832-1.304-1.207-1.758-1.417l-0.227-0.105l-0.231,0.098
		c-0.22,0.093-0.474,0.235-0.606,0.312c-0.163,0.094-0.393,0.234-0.573,0.368l-0.201,0.151l-0.023,0.25
		c-0.044,0.498-0.057,1.271,0.355,2.247c0.019,0.043,0.048,0.115,0.045,0.123C13.133,5.38,12.861,5.652,12.63,5.94
		c-0.028-0.002-0.1-0.033-0.159-0.058c-0.588-0.249-1.168-0.37-1.772-0.37c-0.162,0-0.314,0.008-0.458,0.021l-0.25,0.022L9.84,5.756
		C9.697,5.947,9.547,6.198,9.472,6.33C9.395,6.463,9.252,6.718,9.16,6.936L9.061,7.167l0.101,0.227
		c0.209,0.454,0.585,1.13,1.43,1.768c0.035,0.026,0.094,0.071,0.102,0.084c-0.121,0.365-0.22,0.737-0.275,1.099
		c-0.025,0.013-0.103,0.023-0.167,0.031c-1.034,0.127-1.697,0.525-2.105,0.813l-0.206,0.145l-0.03,0.25
		c-0.029,0.235-0.034,0.527-0.034,0.681c0,0.154,0.005,0.446,0.034,0.681l0.03,0.25l0.206,0.145
		c0.408,0.288,1.072,0.686,2.123,0.816c0.047,0.005,0.125,0.015,0.13,0.02c0.075,0.369,0.175,0.742,0.311,1.091
		c-0.015,0.024-0.078,0.07-0.129,0.109c-0.832,0.629-1.208,1.304-1.417,1.758L9.06,17.363l0.099,0.231
		c0.093,0.218,0.235,0.473,0.312,0.606c0.094,0.163,0.234,0.394,0.368,0.573l0.151,0.201l0.251,0.025
		c0.144,0.013,0.296,0.021,0.458,0.021c0.606,0,1.185-0.121,1.789-0.376c0.045-0.019,0.12-0.05,0.123-0.046
		c0.253,0.286,0.526,0.558,0.814,0.788c-0.002,0.029-0.032,0.101-0.057,0.16c-0.406,0.959-0.393,1.733-0.349,2.231l0.023,0.248
		l0.2,0.151c0.19,0.144,0.442,0.294,0.574,0.369c0.132,0.076,0.388,0.22,0.606,0.312l0.231,0.1l0.227-0.105
		c0.455-0.209,1.13-0.586,1.769-1.432c0.028-0.038,0.075-0.1,0.083-0.102c0.364,0.121,0.737,0.221,1.1,0.275
		c0.012,0.025,0.022,0.104,0.03,0.167c0.127,1.035,0.525,1.697,0.813,2.106l0.144,0.205l0.25,0.029
		c0.236,0.028,0.528,0.033,0.681,0.033c0.154,0,0.447-0.005,0.681-0.029l0.249-0.029l0.146-0.205
		c0.288-0.408,0.685-1.071,0.815-2.123c0.006-0.047,0.017-0.125,0.021-0.129c0.383-0.079,0.765-0.182,1.09-0.312
		c0.023,0.017,0.071,0.078,0.109,0.131c0.629,0.83,1.305,1.207,1.759,1.416L24.848,22.958z M19.75,15.859
		c-1.981,0-3.594-1.614-3.594-3.594c0-1.982,1.613-3.594,3.594-3.594c1.982,0,3.594,1.612,3.594,3.594
		C23.344,14.245,21.732,15.859,19.75,15.859z"/>
</g>
</svg>
