<?xml version="1.0" encoding="utf-8"?><!DOCTYPE svg PUBLIC "-//W3C//DTD SVG 1.1//EN" "http://www.w3.org/Graphics/SVG/1.1/DTD/svg11.dtd"><svg version="1.1" id="Layer_1" xmlns="http://www.w3.org/2000/svg" xmlns:xlink="http://www.w3.org/1999/xlink" x="0px" y="0px" width="40px" height="40px" viewBox="0 0 40 40" enable-background="new 0 0 40 40" xml:space="preserve"><path fill="#3480C2" d="M39.715,19.049H28.843l-1.562,6.923c-0.142,0.617-0.67,1.071-1.303,1.114 c-0.631,0.042-1.215-0.34-1.433-0.934l-4.5-12.168l-3.839,17.003c-0.14,0.618-0.671,1.069-1.303,1.112 c-0.69,0.003-1.226-0.369-1.435-0.932l-3.074-8.321H0.609c1.348,9.55,9.551,16.894,19.469,16.894 c10.859,0,19.661-8.801,19.661-19.661L39.715,19.049z M0.417,19.988h10.969c0.603,0,1.135,0.375,1.343,0.935l1.748,4.727 l3.839-17.002c0.14-0.618,0.669-1.068,1.301-1.11c0.634-0.042,1.216,0.335,1.437,0.928l4.5,12.168l0.749-3.329 c0.147-0.65,0.727-1.115,1.398-1.115h11.653C37.55,7.195,29.605,0.416,20.078,0.416C9.248,0.416,0.466,9.17,0.417,19.988"/></svg>