<?xml version="1.0" encoding="utf-8"?>
<!-- Generator: Adobe Illustrator 15.0.0, SVG Export Plug-In . SVG Version: 6.00 Build 0)  -->
<!DOCTYPE svg PUBLIC "-//W3C//DTD SVG 1.1//EN" "http://www.w3.org/Graphics/SVG/1.1/DTD/svg11.dtd">
<svg version="1.1" id="Layer_1" xmlns="http://www.w3.org/2000/svg" xmlns:xlink="http://www.w3.org/1999/xlink" x="0px" y="0px"
	 width="40px" height="40px" viewBox="0 0 40 40" enable-background="new 0 0 40 40" xml:space="preserve">
<path fill="#3B97D3" d="M8.28,8.968v4.14c0,0.763,0.617,1.38,1.38,1.38h2.753v5.52H4.835c-0.367,0-0.69,0.323-0.69,0.69v6.21H1.38
	c-0.763,0-1.38,0.619-1.38,1.38v4.142c0,0.761,0.617,1.38,1.38,1.38h6.9c0.762,0,1.38-0.619,1.38-1.38v-4.142
	c0-0.761-0.619-1.38-1.38-1.38H5.526v-5.52h13.8v5.52h-2.766c-0.763,0-1.38,0.619-1.38,1.38v4.142c0,0.761,0.617,1.38,1.38,1.38h6.9
	c0.762,0,1.381-0.619,1.381-1.38v-4.142c0-0.761-0.619-1.38-1.381-1.38h-2.754v-5.52h13.8v5.52h-2.765
	c-0.764,0-1.381,0.619-1.381,1.38v4.142c0,0.761,0.617,1.38,1.381,1.38h6.899c0.762,0,1.381-0.619,1.381-1.38v-4.142
	c0-0.761-0.619-1.38-1.381-1.38h-2.755v-6.21c0-0.367-0.323-0.69-0.689-0.69H13.794v-5.52h2.767c0.761,0,1.38-0.618,1.38-1.38v-4.14
	c0-0.761-0.619-1.38-1.38-1.38h-6.9C8.897,7.588,8.28,8.207,8.28,8.968z"/>
</svg>
