<?xml version="1.0" encoding="utf-8"?>
<!-- Generator: Adobe Illustrator 15.0.0, SVG Export Plug-In . SVG Version: 6.00 Build 0)  -->
<!DOCTYPE svg PUBLIC "-//W3C//DTD SVG 1.1//EN" "http://www.w3.org/Graphics/SVG/1.1/DTD/svg11.dtd">
<svg version="1.1" id="Layer_1" xmlns="http://www.w3.org/2000/svg" xmlns:xlink="http://www.w3.org/1999/xlink" x="0px" y="0px"
	 width="40px" height="40px" viewBox="0 0 40 40" enable-background="new 0 0 40 40" xml:space="preserve">
<path fill="#3480C2" d="M33.803,19.715c0.209-0.681,0.319-1.406,0.319-2.157c0-4.079-3.307-7.386-7.386-7.386
	c-1.175,0-2.283,0.273-3.267,0.76c-1.324-3.921-5.033-6.745-9.4-6.745c-5.479,0-9.919,4.44-9.919,9.919
	c0,1.622,0.389,3.154,1.081,4.506c-2.886,1.395-4.876,4.349-4.876,7.769c0,4.762,3.859,8.622,8.622,8.622h23.149
	c4.273,0,7.735-3.462,7.735-7.734C39.861,23.572,37.269,20.48,33.803,19.715z M13.047,14.397c0.869-1.612,2.545-2.614,4.375-2.614
	c0.866,0,1.723,0.23,2.477,0.666c0.117,0.067,0.156,0.217,0.089,0.334l-0.393,0.681c-0.031,0.056-0.085,0.097-0.148,0.114
	c-0.063,0.017-0.129,0.008-0.186-0.024c-0.56-0.323-1.196-0.495-1.839-0.495c-1.442,0-2.76,0.85-3.362,2.167
	c-0.777,1.702-0.047,3.808,1.663,4.795l1.279,0.739v-3.218c0-0.135,0.109-0.245,0.245-0.245h0.786c0.135,0,0.245,0.11,0.245,0.245
	v4.369c0,0.197-0.107,0.384-0.278,0.483l-3.784,2.184c-0.038,0.022-0.081,0.033-0.122,0.033c-0.084,0-0.167-0.043-0.211-0.122
	l-0.393-0.681c-0.033-0.058-0.042-0.123-0.025-0.187c0.018-0.062,0.059-0.115,0.115-0.148l2.788-1.608l-1.256-0.726
	C12.714,19.757,11.79,16.733,13.047,14.397z M23.363,26.166l-0.393,0.681c-0.068,0.116-0.218,0.156-0.335,0.089l-2.788-1.608v1.449
	c0,2.763-2.156,5.075-4.807,5.156c-0.051,0.002-0.102,0.002-0.151,0.002c-1.326,0.001-2.572-0.516-3.51-1.452
	c-0.938-0.938-1.454-2.184-1.454-3.508c0-0.136,0.11-0.244,0.245-0.244h0.786c0.135,0,0.245,0.108,0.245,0.244
	c0,2.031,1.653,3.684,3.685,3.684c0.119,0,0.243-0.006,0.363-0.018c1.863-0.178,3.323-1.863,3.323-3.837v-1.477l-2.788,1.608
	c-0.117,0.068-0.267,0.028-0.334-0.089l-0.394-0.681c-0.032-0.057-0.041-0.123-0.024-0.186c0.016-0.063,0.058-0.117,0.114-0.149
	l3.783-2.184c0.17-0.099,0.39-0.098,0.559,0.001l3.783,2.183c0.058,0.032,0.098,0.086,0.114,0.149
	C23.404,26.043,23.396,26.109,23.363,26.166z M30.138,25.443c-0.331,1.312-1.159,2.408-2.331,3.086
	c-0.038,0.022-0.08,0.032-0.122,0.032c-0.084,0-0.166-0.044-0.212-0.121l-0.393-0.682c-0.033-0.056-0.041-0.123-0.025-0.187
	c0.017-0.062,0.058-0.116,0.114-0.147c0.897-0.519,1.539-1.396,1.759-2.41c0.224-1.027,0.009-2.068-0.605-2.931
	c-0.676-0.948-1.765-1.493-2.989-1.493c-0.701,0-1.391,0.185-1.995,0.534l-1.28,0.739l2.788,1.609
	c0.057,0.032,0.097,0.086,0.113,0.148s0.009,0.129-0.024,0.187l-0.394,0.68c-0.066,0.118-0.216,0.158-0.333,0.09l-3.783-2.184
	c-0.173-0.1-0.279-0.286-0.279-0.484v-4.368c0-0.135,0.108-0.246,0.245-0.246h0.785c0.136,0,0.244,0.11,0.244,0.246v3.218
	l1.256-0.725c0.802-0.462,1.715-0.707,2.643-0.707c1.76,0,3.34,0.857,4.227,2.292C30.258,22.774,30.468,24.132,30.138,25.443z"/>
</svg>
