<?xml version="1.0" encoding="UTF-8" standalone="no"?>
<!-- Created with Inkscape (http://www.inkscape.org/) -->

<svg
   xmlns:dc="http://purl.org/dc/elements/1.1/"
   xmlns:cc="http://creativecommons.org/ns#"
   xmlns:rdf="http://www.w3.org/1999/02/22-rdf-syntax-ns#"
   xmlns:svg="http://www.w3.org/2000/svg"
   xmlns="http://www.w3.org/2000/svg"
   xmlns:sodipodi="http://sodipodi.sourceforge.net/DTD/sodipodi-0.dtd"
   xmlns:inkscape="http://www.inkscape.org/namespaces/inkscape"
   width="40"
   height="41.417854"
   viewBox="0 0 10.583333 10.958474"
   version="1.1"
   id="svg8"
   inkscape:version="0.92.2 5c3e80d, 2017-08-06"
   sodipodi:docname="rms-castle.svg">
  <defs
     id="defs2" />
  <sodipodi:namedview
     id="base"
     pagecolor="#ffffff"
     bordercolor="#666666"
     borderopacity="1.0"
     inkscape:pageopacity="0.0"
     inkscape:pageshadow="2"
     inkscape:zoom="11.2"
     inkscape:cx="17.617543"
     inkscape:cy="20.724765"
     inkscape:document-units="mm"
     inkscape:current-layer="layer1"
     showgrid="false"
     units="px"
     fit-margin-top="0"
     fit-margin-left="0"
     fit-margin-right="0"
     fit-margin-bottom="0"
     inkscape:window-width="1881"
     inkscape:window-height="963"
     inkscape:window-x="1461"
     inkscape:window-y="6"
     inkscape:window-maximized="0" />
  <metadata
     id="metadata5">
    <rdf:RDF>
      <cc:Work
         rdf:about="">
        <dc:format>image/svg+xml</dc:format>
        <dc:type
           rdf:resource="http://purl.org/dc/dcmitype/StillImage" />
        <dc:title></dc:title>
      </cc:Work>
    </rdf:RDF>
  </metadata>
  <g
     inkscape:label="Layer 1"
     inkscape:groupmode="layer"
     id="layer1"
     transform="translate(-54.04457,-145.75195)">
    <path
       inkscape:connector-curvature="0"
       id="path91"
       d="m 75.794453,197.87852 v -37.76133 h 36.491337 36.49134 v 37.76133 37.76134 H 112.28579 75.794453 Z"
       style="fill:#fefefe;stroke-width:0.16933334" />
    <g
       id="g5262"
       transform="matrix(0.14548003,0,0,0.14548003,43.66171,126.66898)">
      <path
         style="fill:#3480c2;stroke-width:0.16933334"
         d="m 107.26833,206.28688 c -0.23284,-0.1637 -2.63314,-1.52559 -5.334,-3.02642 -2.700873,-1.50084 -8.643796,-4.81418 -13.206501,-7.36299 l -8.295828,-4.63421 -0.286652,-1.68211 c -0.157659,-0.92516 -0.562569,-3.2823 -0.899801,-5.23811 -0.337233,-1.95579 -0.910318,-5.30859 -1.273523,-7.45066 -0.363205,-2.14207 -0.934387,-5.49487 -1.269293,-7.45067 -0.618739,-3.61334 -1.344837,-7.88641 -1.947129,-11.45882 -0.183244,-1.08688 -1.020045,-5.99095 -1.859558,-10.89792 -0.839513,-4.90698 -1.526388,-8.9837 -1.526388,-9.0594 0,-0.14821 0.0091,-0.15037 2.794,-0.66158 1.024467,-0.18806 3.500967,-0.64504 5.503334,-1.01552 5.988182,-1.10794 9.624202,-1.77659 18.956516,-3.48605 4.884663,-0.89475 8.923263,-1.65232 8.974673,-1.68348 0.0514,-0.0312 0.66498,0.0529 1.36348,0.1868 2.20931,0.42352 23.48756,4.33199 29.88734,5.48982 2.04893,0.37069 4.0725,0.75262 4.49683,0.84874 l 0.7715,0.17477 -0.2267,1.30332 c -0.12469,0.71683 -0.68429,4.00842 -1.24356,7.31465 -0.55927,3.30624 -1.16323,6.84954 -1.34214,7.874 -0.3884,2.22407 -1.01977,5.93333 -3.71816,21.84401 -1.12145,6.61246 -2.16505,12.71474 -2.3191,13.56061 l -0.28009,1.53796 -0.77863,0.43005 c -0.42824,0.23652 -4.66482,2.60119 -9.41462,5.25482 -4.7498,2.65362 -10.3124,5.75729 -12.36134,6.89703 -2.04893,1.13974 -3.95393,2.21103 -4.23333,2.38063 -0.48558,0.29475 -0.52668,0.29522 -0.93133,0.0107 z m -7.958673,-11.92832 v -4.29315 l 1.481673,-0.2737 c 0.81491,-0.15053 2.72441,-0.50748 4.24332,-0.79322 l 2.76165,-0.51953 1.89501,0.35207 c 1.04226,0.19364 2.73322,0.50181 3.75768,0.68482 1.02447,0.18301 2.03412,0.37179 2.24367,0.41953 l 0.381,0.0868 v 4.33197 4.33197 l 0.71967,-0.42488 0.71966,-0.42488 0.0456,-3.74098 c 0.0344,-2.82592 0.0965,-3.74035 0.254,-3.73841 0.11464,0.001 1.04663,0.15792 2.0711,0.3478 1.02447,0.18988 2.24367,0.41326 2.70933,0.4964 0.46567,0.0831 1.81827,0.33306 3.00578,0.55537 l 2.1591,0.4042 2.28617,-1.29856 c 1.2574,-0.7142 2.32764,-1.34002 2.37833,-1.39071 0.0507,-0.0507 0.66589,-3.47321 1.36712,-7.60561 0.70123,-4.13241 1.69071,-9.95186 2.19884,-12.93213 0.50812,-2.98027 1.33817,-7.85707 1.84454,-10.83733 0.50636,-2.98027 1.14971,-6.75217 1.42966,-8.382 1.84452,-10.73873 1.80527,-9.69402 0.37141,-9.88537 -0.43172,-0.0576 -1.77554,-0.29315 -2.98628,-0.5234 -3.57039,-0.679 -6.76252,-1.2711 -9.652,-1.79031 -1.49013,-0.26776 -4.15713,-0.75244 -5.92667,-1.07706 -1.76953,-0.32462 -4.28413,-0.78557 -5.588,-1.02433 -2.40854,-0.44104 -6.5674,-1.21709 -7.40045,-1.38094 -0.43372,-0.0853 -0.95844,-0.006 -5.21488,0.78301 -0.9779,0.18139 -3.683003,0.678 -6.011343,1.10357 -2.32833,0.42558 -5.64303,1.03354 -7.365996,1.35102 -1.722967,0.31748 -5.037667,0.92699 -7.366,1.35446 -6.264476,1.15014 -7.553121,1.39869 -7.625176,1.47075 -0.03584,0.0358 1.151534,7.18673 2.638605,15.89088 4.206353,24.62067 4.903941,28.71598 5.262829,30.89638 0.183955,1.1176 0.399825,2.19217 0.479711,2.38792 0.08707,0.21335 1.063819,0.87339 2.438472,1.6478 l 2.293224,1.29187 5.036059,-0.92812 c 2.769836,-0.51047 5.059352,-0.92813 5.087832,-0.92813 0.0285,0 0.0525,1.69545 0.0534,3.76766 l 0.002,3.76767 0.63335,0.3735 c 0.34833,0.20543 0.69049,0.37688 0.76034,0.381 0.0699,0.004 0.127,-1.92442 0.127,-4.28565 z m -12.127059,-4.29325 c 0.05344,-0.35324 0.214793,-1.82337 0.35856,-3.26693 0.424852,-4.26595 0.713999,-6.78195 0.787896,-6.85584 0.03807,-0.0381 0.581186,-0.17451 1.206915,-0.30319 l 1.137688,-0.23396 v 5.30193 5.30194 l -0.381,0.0812 c -0.20955,0.0447 -0.8382,0.16342 -1.397,0.26389 -0.5588,0.10046 -1.1947,0.22103 -1.413112,0.26793 -0.373805,0.0803 -0.391409,0.0476 -0.299947,-0.557 z m 39.051062,0.31016 -1.43933,-0.27679 -0.0447,-5.38766 c -0.0422,-5.07777 -0.0276,-5.38293 0.254,-5.3056 0.1643,0.0451 0.60353,0.13087 0.97606,0.19053 1.22241,0.19578 1.21396,0.18734 1.32433,1.32184 0.14098,1.44911 0.75414,7.42168 0.8949,8.71692 0.13368,1.23009 0.28424,1.17334 -1.96523,0.74076 z m -5.67267,-1.04234 c -2.33957,-0.44498 -4.95108,-0.92801 -10.11766,-1.87138 l -1.98967,-0.3633 v -5.3147 c 0,-2.92309 0.0571,-5.31793 0.127,-5.32187 0.0699,-0.004 3.38455,0.58467 7.366,1.308 l 7.239,1.31517 v 5.38066 c 0,2.95937 -0.019,5.37389 -0.0423,5.3656 -0.0233,-0.008 -1.18533,-0.23247 -2.58233,-0.49818 z m -28.323413,-4.94223 0.04475,-5.28615 1.693333,-0.28792 c 0.931333,-0.15835 4.180887,-0.75138 7.22124,-1.31785 3.04035,-0.56646 5.57508,-1.02994 5.63275,-1.02994 0.0577,0 0.0847,2.38069 0.0601,5.29041 l -0.0447,5.2904 -1.10067,0.20597 c -0.60537,0.11328 -2.12937,0.39512 -3.38667,0.6263 -1.2573,0.23118 -3.962403,0.72924 -6.011333,1.10681 -2.048935,0.37757 -3.82167,0.68686 -3.939414,0.6873 -0.168947,6.8e-4 -0.204646,-1.1136 -0.169334,-5.28534 z m 33.488083,-6.34582 c -2.03342,-0.38736 -6.85189,-1.25915 -7.493,-1.35568 l -0.635,-0.0956 v -5.0577 c 0,-4.58265 0.0262,-5.05771 0.27878,-5.05771 0.15333,0 1.65828,0.26147 3.34433,0.58104 1.68606,0.31956 3.39448,0.63192 3.79651,0.69412 0.52509,0.0812 0.77311,0.21566 0.88067,0.4773 0.16839,0.40957 1.07709,9.42752 0.98656,9.79058 -0.0487,0.19534 -0.23745,0.19919 -1.15885,0.0237 z m -37.182821,-1.0257 c 0.332725,-3.45828 0.966045,-8.91905 1.043771,-8.99984 0.04802,-0.0499 7.906657,-1.53372 8.156707,-1.54009 0.0233,-6.7e-4 0.0423,2.24169 0.0423,4.98285 0,4.6013 -0.0228,4.99045 -0.29633,5.06899 -0.45877,0.13169 -8.663625,1.63109 -8.925507,1.63109 -0.07202,0 -0.08146,-0.51435 -0.02097,-1.143 z m 24.821491,-1.22946 c -1.35044,-0.26006 -3.2245,-0.60806 -4.1646,-0.77333 l -1.70927,-0.30049 -3.82221,0.70714 c -2.10222,0.38892 -3.942903,0.70714 -4.090403,0.70714 -0.23863,0 -0.26819,-0.55047 -0.26819,-4.99534 0,-3.13069 0.0616,-4.99533 0.16504,-4.99533 0.0908,0 1.557623,-0.26152 3.259673,-0.58116 1.70204,-0.31964 3.54673,-0.66253 4.09929,-0.76198 0.90131,-0.16222 1.38911,-0.11123 4.74134,0.49564 2.05516,0.37205 3.90811,0.71639 4.11766,0.7652 l 0.381,0.0888 v 5.07678 c 0,2.79222 -0.0572,5.06846 -0.127,5.0583 -0.0698,-0.0102 -1.2319,-0.23125 -2.58233,-0.49132 z m 10.32933,-9.75753 c -1.07103,-0.20985 -5.12308,-0.96394 -9.00454,-1.67576 l -7.0572,-1.29421 -2.42547,0.42673 c -1.334,0.2347 -5.359163,0.97114 -8.944793,1.63654 -3.758424,0.69746 -6.606284,1.15043 -6.72465,1.06958 -0.112925,-0.0771 -1.316439,-1.47373 -2.674479,-3.10356 l -2.46916,-2.96333 2.843811,-0.5439 c 2.371656,-0.45359 18.434351,-3.42015 20.127751,-3.71731 0.48046,-0.0843 1.57699,0.0974 8.87806,1.47106 1.44357,0.27161 3.69147,0.68386 4.99534,0.91612 5.27755,0.9401 9.59895,1.76454 9.68145,1.84703 0.0851,0.0851 -4.88402,6.11658 -5.14678,6.24702 -0.0726,0.036 -1.00831,-0.10616 -2.07934,-0.31601 z M 84.238991,151.66494 v -6.17744 l 0.381,-0.0767 c 0.20955,-0.0422 2.1336,-0.39212 4.275666,-0.77769 2.142067,-0.38557 4.028017,-0.73866 4.191,-0.78465 0.273914,-0.0773 0.296333,0.13504 0.296333,2.80646 0,2.19914 0.0506,2.89007 0.211664,2.89007 0.116413,0 1.392763,-0.22534 2.836333,-0.50075 1.44356,-0.27542 3.19617,-0.5998 3.894673,-0.72085 l 1.27,-0.22009 0.0462,-3.00448 0.0462,-3.00449 h 6.00743 6.00742 v 2.96333 c 0,1.62984 0.019,2.96493 0.0423,2.96689 0.0233,0.002 1.83304,0.33527 4.02167,0.74071 2.18863,0.40544 4.03648,0.70414 4.10633,0.66379 0.0699,-0.0403 0.127,-1.32618 0.127,-2.85738 0,-2.11968 0.0505,-2.78161 0.21167,-2.77396 0.11642,0.006 2.15477,0.37288 4.52966,0.81632 l 4.318,0.80626 0.0444,6.21102 c 0.0351,4.91281 -3.4e-4,6.21047 -0.16933,6.20839 -0.11757,-0.001 -1.47105,-0.23425 -3.00775,-0.51734 -1.53667,-0.28309 -4.01318,-0.73398 -5.50331,-1.00197 -1.49013,-0.268 -4.61433,-0.83937 -6.94267,-1.26972 -2.32833,-0.43035 -5.07022,-0.92895 -6.09309,-1.108 l -1.85977,-0.32555 -3.72824,0.68377 c -3.54395,0.64997 -5.862003,1.07026 -12.025566,2.18036 -1.490134,0.26838 -3.762156,0.68442 -5.04894,0.92452 -1.286783,0.24011 -2.372633,0.43656 -2.413,0.43656 -0.04037,0 -0.07339,-2.77985 -0.07339,-6.17744 z"
         id="path81"
         inkscape:connector-curvature="0" />
      <path
         style="fill:#1a4263;fill-opacity:1;stroke-width:0.16933334"
         d="m 107.60704,197.43919 v -8.99302 l 0.381,0.0927 c 0.35696,0.0868 1.00316,0.20772 6.096,1.14037 l 1.98967,0.36437 v 4.31376 c 0,2.37256 0.0571,4.28637 0.127,4.25289 0.0699,-0.0335 0.41275,-0.20634 0.762,-0.38414 l 0.635,-0.32328 v -3.77863 c 0,-2.07826 0.019,-3.77854 0.0423,-3.77841 0.086,5.1e-4 2.85335,0.50348 6.42192,1.16728 l 3.67026,0.68272 2.31232,-1.2856 c 1.42251,-0.79089 2.36792,-1.42381 2.45683,-1.64478 0.0795,-0.19755 0.37483,-1.73079 0.65632,-3.40719 0.51854,-3.08818 1.40903,-8.3239 3.6576,-21.50533 2.53299,-14.84868 3.47681,-20.36907 3.80534,-22.25723 0.18538,-1.06548 0.30632,-1.96798 0.26875,-2.00555 -0.0752,-0.0752 -1.32018,-0.31574 -7.62833,-1.4739 -2.32834,-0.42747 -5.64304,-1.03698 -7.36601,-1.35446 -1.72297,-0.31748 -5.03767,-0.92544 -7.366,-1.35102 -2.32833,-0.42557 -5.03343,-0.92271 -6.01133,-1.10474 -0.9779,-0.18204 -2.48285,-0.45708 -3.34434,-0.61122 l -1.56633,-0.28024 v -1.33315 c 0,-1.56422 -0.16675,-1.4919 2.30476,-0.99959 0.92101,0.18346 6.28467,1.17552 11.91924,2.20458 19.71983,3.60149 22.03882,4.03489 22.14212,4.13819 0.0638,0.0638 -0.1423,1.32534 -1.84169,11.273 -0.37389,2.18863 -0.93786,5.50333 -1.25327,7.366 -0.31541,1.86266 -0.80853,4.75826 -1.09583,6.43466 -1.07146,6.25211 -1.73207,10.12443 -2.54213,14.90134 -0.76346,4.50212 -1.88728,11.06137 -2.17486,12.69368 -0.11799,0.66972 -0.12455,0.67455 -3.41661,2.5105 -1.81411,1.01172 -4.28899,2.39638 -5.49972,3.07702 -7.57519,4.25856 -18.35559,10.25146 -18.44096,10.25146 -0.0556,0 -0.10105,-4.04686 -0.10105,-8.99302 z m 18.79601,-7.10218 c -0.88477,-0.17218 -1.62772,-0.31689 -1.65101,-0.32159 -0.0233,-0.005 -0.0423,-2.40645 -0.0423,-5.33723 0,-4.18704 0.0453,-5.31382 0.21167,-5.25933 0.11642,0.0381 0.64472,0.1544 1.174,0.25834 0.84444,0.16583 0.97377,0.24485 1.05573,0.645 0.0514,0.25081 0.28464,2.36101 0.51837,4.68935 0.23373,2.32833 0.46817,4.55718 0.52098,4.953 0.0528,0.39581 0.0342,0.71198 -0.0414,0.70259 -0.0756,-0.009 -0.86128,-0.15796 -1.74604,-0.33013 z m -6.51934,-1.18065 c -1.397,-0.26374 -4.445,-0.82926 -6.77333,-1.25672 -2.32834,-0.42746 -4.32859,-0.81161 -4.445,-0.85366 -0.16315,-0.0589 -0.21167,-1.28107 -0.21167,-5.33112 0,-2.89005 0.0571,-5.25324 0.127,-5.25153 0.16613,0.004 1.99258,0.33484 6.56167,1.18827 2.04893,0.38271 4.67783,0.86457 5.842,1.07081 l 2.11666,0.37499 0.0448,5.2854 0.0447,5.28541 -0.38341,-0.0162 c -0.21088,-0.009 -1.52641,-0.23194 -2.92341,-0.49568 z m 4.318,-11.43477 c -1.16417,-0.22055 -2.99297,-0.56098 -4.064,-0.7565 -1.07103,-0.19553 -2.08068,-0.39425 -2.24367,-0.4416 -0.27357,-0.0795 -0.29633,-0.46948 -0.29633,-5.07769 v -4.9916 l 0.55033,0.10004 c 5.74772,1.04476 7.58892,1.39482 7.64402,1.45334 0.1138,0.12086 1.11899,9.00251 1.11899,9.88715 0,0.32442 -0.12529,0.31641 -2.70934,-0.17314 z m -9.56733,-1.73051 c -0.18627,-0.0502 -1.82457,-0.36753 -3.64067,-0.70528 l -3.302,-0.6141 -0.0449,-5.04642 -0.0449,-5.04642 0.46821,0.0971 c 0.54161,0.11234 6.42489,1.19918 7.36854,1.36121 l 0.635,0.10904 v 4.98765 4.98767 l -0.55033,-0.0196 c -0.30269,-0.0108 -0.70274,-0.0607 -0.889,-0.11083 z m 8.55133,-10.11306 c -1.16417,-0.21805 -5.08636,-0.94214 -8.71599,-1.60908 -3.62963,-0.66694 -6.65858,-1.24924 -6.731,-1.294 -0.0724,-0.0448 -0.13168,-1.68661 -0.13168,-3.64855 v -3.56718 l 0.55034,0.1113 c 0.75539,0.15277 8.4417,1.57701 10.62566,1.96889 4.25809,0.76406 12.11033,2.2267 12.1461,2.26247 0.12101,0.121 -5.08198,6.11866 -5.32919,6.14315 -0.16367,0.0162 -1.25007,-0.14894 -2.41424,-0.367 z m 5.41867,-8.47925 c -1.16417,-0.2239 -3.37397,-0.63367 -4.91067,-0.91059 -6.18324,-1.11424 -8.54482,-1.54333 -12.10733,-2.19983 -2.04894,-0.37758 -3.7835,-0.68688 -3.85459,-0.68732 -0.0711,-5.1e-4 -0.10919,-2.57257 -0.0847,-5.71582 l 0.0446,-5.715 3.00174,-0.0462 3.00175,-0.0462 0.0463,2.9973 0.0463,2.9973 3.89467,0.72348 c 2.14206,0.39792 3.98991,0.72728 4.10633,0.73193 0.16137,0.006 0.21167,-0.67632 0.21167,-2.87345 v -2.88189 l 0.381,0.0836 c 0.6564,0.14393 4.88283,0.92043 6.477,1.18998 0.8382,0.14173 1.69545,0.29707 1.905,0.3452 l 0.381,0.0875 v 6.17744 c 0,4.83644 -0.0459,6.17444 -0.21167,6.16361 -0.11641,-0.008 -1.16416,-0.19704 -2.32833,-0.42094 z"
         id="path79"
         inkscape:connector-curvature="0" />
    </g>
  </g>
</svg>
