<?xml version="1.0" encoding="utf-8"?><svg version="1.1" id="Layer_1" xmlns="http://www.w3.org/2000/svg" xmlns:xlink="http://www.w3.org/1999/xlink" x="0px" y="0px" width="40px" height="40px" viewBox="0 0 40 40" enable-background="new 0 0 40 40" xml:space="preserve"><path fill-rule="evenodd" clip-rule="evenodd" fill="#3580C3" d="M30.343,28.309c-1.245,0.497-2.278,0.234-2.949-0.006 			c-0.229-0.081-0.437-0.205-0.619-0.33c0.096-0.166,0.133-0.371,0.082-0.585c-0.066-0.273-0.291-0.497-0.563-0.563 c-0.278-0.066-0.539,0.016-0.722,0.182l-3.72-2.139v-2.283c0-0.162-0.131-0.293-0.292-0.293h-6.791l-0.188-0.16l0.836-0.998 c0.328,0.027,0.597-0.267,0.516-0.604c-0.041-0.171-0.181-0.311-0.352-0.352c-0.353-0.086-0.66,0.213-0.599,0.562l-0.847,1.012 l-0.59-0.502l0.845-1.012c0.31,0.002,0.554-0.285,0.476-0.607c-0.042-0.172-0.182-0.312-0.353-0.352 c-0.363-0.089-0.682,0.23-0.595,0.594c0.001,0.004,0.003,0.007,0.004,0.01l-0.824,0.986l-0.57-0.484l0.815-0.98 c0.297-0.015,0.525-0.294,0.45-0.607c-0.042-0.172-0.181-0.312-0.352-0.352c-0.364-0.088-0.683,0.23-0.595,0.594 c0.003,0.012,0.009,0.021,0.013,0.031l-0.777,0.936l-0.562-0.478c-0.121-0.103-0.3-0.091-0.406,0.026l-1.397,1.533 c-0.054,0.061-0.081,0.139-0.075,0.219c0.005,0.079,0.043,0.153,0.105,0.204l3.024,2.512l-0.025,3.14 c0,0.078,0.03,0.154,0.085,0.209c0.055,0.056,0.13,0.087,0.208,0.087h4.614c0.162,0,0.293-0.132,0.293-0.293v-3.3 c0-0.162-0.131-0.293-0.293-0.293h-3.344c-0.162,0-0.293,0.131-0.293,0.293v1.871c0,0.162,0.132,0.293,0.293,0.293h1.356 c0.066,0.09,0.161,0.16,0.271,0.188c0.364,0.088,0.683-0.231,0.595-0.595c-0.041-0.171-0.181-0.312-0.352-0.353 c-0.203-0.049-0.389,0.032-0.502,0.174h-1.076v-1.286h2.759v2.716h-4.025l0.023-2.984c0-0.089-0.038-0.172-0.106-0.229 l-2.895-2.404l1-1.098l3.114,2.648c0.053,0.045,0.121,0.07,0.19,0.07h6.605v2.16c0,0.105,0.056,0.201,0.147,0.254l0.171,0.099 l-1.497,2.235c-0.333,0.006-0.569,0.33-0.451,0.656c0.061,0.166,0.215,0.289,0.389,0.312c0.358,0.044,0.629-0.283,0.534-0.621 l1.534-2.291l0.513,0.296l-0.867,1.31c-0.044,0.066-0.06,0.146-0.043,0.223c0.017,0.077,0.063,0.145,0.13,0.188l0.832,0.527 c0.003,0.044,0.012,0.089,0.029,0.135c0.059,0.164,0.214,0.288,0.389,0.311c0.37,0.047,0.651-0.307,0.524-0.658 c-0.06-0.164-0.214-0.288-0.389-0.311c-0.087-0.01-0.166,0.002-0.238,0.029l-0.582-0.369l0.724-1.092l2.203,1.268 c-0.004,0.077,0.001,0.157,0.021,0.239c0.066,0.272,0.289,0.497,0.563,0.563c0.034,0.008,0.068,0.014,0.102,0.018 c-0.027,0.24-0.122,0.484-0.38,0.661c-1.848,1.301-4.292,1.028-5.844,0.584c-0.085,0.004-0.434,0.388-0.511,0.387 c0,0-0.388,0.473-0.838,0.835c-0.45,0.36-1.34,0.464-1.34,0.464c-1.03,0.932-2.624,0.932-3.972,0.13 c-0.21,0.028-0.425,0.037-0.643,0.024c-0.162,0.005-0.344-0.021-0.541-0.076c-0.847-0.178-1.694-0.648-2.372-1.397 c-0.46-0.509-0.788-1.082-0.979-1.668c-0.24-0.551-0.364-1.144-0.32-1.754l2.681,2.439c0.054,0.049,0.125,0.076,0.197,0.076h6.257 v0.766h-2.469c-0.089-0.118-0.229-0.195-0.389-0.195c-0.27,0-0.488,0.219-0.488,0.488s0.218,0.488,0.488,0.488 c0.159,0,0.299-0.078,0.388-0.196h2.763c0.162,0,0.292-0.13,0.292-0.292V28.77c0-0.161-0.131-0.293-0.292-0.293h-6.437 l-3.357-3.055c-0.253-0.471-0.423-0.964-0.507-1.452l3.587,3.412c0.056,0.053,0.128,0.081,0.202,0.081 c0.039,0,0.078-0.008,0.116-0.024c0.107-0.046,0.177-0.151,0.177-0.269v-1.915c0-0.08-0.033-0.157-0.091-0.212l-1.949-1.848 C9.478,23.102,9.5,22.998,9.5,22.889c0-0.432-0.35-0.781-0.781-0.781c-0.432,0-0.781,0.35-0.781,0.781 c0,0.431,0.35,0.781,0.781,0.781c0.107,0,0.209-0.022,0.302-0.061l1.87,1.771v1.105L7.34,23.108 c0.034-0.893,0.368-1.719,1.019-2.308c0.067-0.061,0.138-0.113,0.209-0.167c0.039-0.063,0.076-0.128,0.113-0.19 c0.203-1.017,0.978-1.871,1.831-2.359c-0.073-0.748,0.301-1.715,0.841-2.203c0.783-0.709,1.687-1.116,2.711-1.067 c1.09-1.22,3.382-1.363,4.959-0.784l-3.193,3.887c-0.102,0.125-0.085,0.307,0.037,0.409l0.891,0.756 c0.055,0.046,0.122,0.069,0.189,0.069c0.083,0,0.164-0.033,0.222-0.101l3.558-4.093l0.416,0.329l-2.078,2.405 c-0.312-0.004-0.559,0.283-0.48,0.607c0.041,0.171,0.181,0.311,0.352,0.352c0.363,0.088,0.683-0.23,0.595-0.594 c0-0.002-0.001-0.004-0.002-0.006l1.047-1.211l1.47,0.954c0.049,0.032,0.104,0.048,0.159,0.048c0.08,0,0.159-0.033,0.216-0.096 l1.96-2.145c0.649,0.078,1.35,0.293,1.979,0.611l-2.905,3.57c-0.039,0.047-0.062,0.105-0.065,0.166l-0.133,2.156 c-0.007,0.104,0.041,0.203,0.128,0.261l1.98,1.33c0.003,0.048,0.012,0.097,0.028,0.146c0.061,0.166,0.215,0.289,0.389,0.312 c0.372,0.047,0.653-0.306,0.525-0.657c-0.06-0.165-0.214-0.289-0.389-0.311c-0.081-0.01-0.156,0.001-0.226,0.025l-1.843-1.237 l0.118-1.894l2.906-3.574c0.229,0.146,0.44,0.307,0.629,0.479L24.697,20.4c-0.102,0.124-0.086,0.307,0.037,0.41l0.891,0.755 c0.055,0.046,0.122,0.069,0.188,0.069c0.082,0,0.164-0.034,0.222-0.101l1.173-1.349l1.225,1l-0.716,0.931 c-0.355-0.026-0.621,0.314-0.496,0.657c0.06,0.164,0.214,0.289,0.389,0.311c0.341,0.043,0.602-0.252,0.543-0.573l0.735-0.956 l1,0.817l-0.715,0.931c-0.357-0.026-0.622,0.314-0.498,0.656c0.061,0.166,0.215,0.289,0.389,0.311 c0.342,0.044,0.604-0.252,0.544-0.572l0.918-1.193c0.097-0.126,0.076-0.306-0.047-0.406l-1.665-1.36l-0.002,0.003l-1.22-0.998 l1.208-1.389c1.115,0.524,1.178,1.314,1.437,2.125c0.234,0.144,0.472,0.299,0.642,0.525c0.759,0.676,1.035,1.639,0.856,2.924 C33.264,27.146,30.821,28.057,30.343,28.309L30.343,28.309L30.343,28.309z M23.708,15.469l-1.552,1.699l-1.195-0.776l0.825-0.954 c0.052-0.061,0.077-0.139,0.069-0.219c-0.008-0.079-0.046-0.152-0.109-0.201l-0.876-0.694c-0.122-0.097-0.299-0.081-0.402,0.038 l-3.552,4.086l-0.451-0.383l3.378-4.111C21.134,13.773,22.607,14.305,23.708,15.469L23.708,15.469L23.708,15.469z M25.783,20.932 l-0.45-0.382l2.57-3.13c0.16,0.207,0.283,0.428,0.362,0.656L25.783,20.932L25.783,20.932L25.783,20.932z M33.435,19.566 c0.204-0.668,0.313-1.377,0.313-2.111c0-3.992-3.236-7.229-7.229-7.229c-1.147,0-2.233,0.268-3.197,0.744 c-1.295-3.838-4.923-6.601-9.198-6.601c-5.36,0-9.705,4.345-9.705,9.706c0,1.587,0.381,3.086,1.057,4.408 c-2.824,1.365-4.771,4.256-4.771,7.602c0,4.66,3.777,8.438,8.437,8.438h22.654c4.18,0,7.567-3.388,7.567-7.568 C39.363,23.339,36.827,20.314,33.435,19.566L33.435,19.566L33.435,19.566z M33.435,19.566"/></svg>
