<?xml version="1.0" encoding="utf-8"?>
<!-- Generator: Adobe Illustrator 15.0.0, SVG Export Plug-In . SVG Version: 6.00 Build 0)  -->
<!DOCTYPE svg PUBLIC "-//W3C//DTD SVG 1.1//EN" "http://www.w3.org/Graphics/SVG/1.1/DTD/svg11.dtd">
<svg version="1.1" id="Layer_1" xmlns="http://www.w3.org/2000/svg" xmlns:xlink="http://www.w3.org/1999/xlink" x="0px" y="0px"
	 width="40px" height="40px" viewBox="0 0 40 40" enable-background="new 0 0 40 40" xml:space="preserve">
<path fill="#3B97D3" d="M4.662,6.35c0-0.215,0.229-0.353,0.418-0.252L6.202,6.69l11.903,6.303c0.259,0.137,0.42,0.406,0.42,0.698
	v14.684l3.081-0.467V13.848c0-0.292-0.16-0.561-0.42-0.697L9.617,7.026C9.361,6.903,9.198,6.68,9.284,6.472v-0.8
	c0-0.257,0.272-0.421,0.5-0.302l12.943,6.854c0.259,0.137,0.421,0.406,0.421,0.698v14.754l3.081-0.466V13.078
	c0-0.292-0.162-0.561-0.42-0.697L14.238,6.256c-0.205-0.108-0.334-0.322-0.334-0.555V4.902c0-0.257,0.274-0.422,0.501-0.302
	l12.945,6.853c0.257,0.137,0.419,0.406,0.419,0.698v14.825l3.081-0.468V12.308c0-0.292-0.162-0.562-0.42-0.699L18.86,5.486
	c-0.207-0.108-0.334-0.321-0.334-0.554V4.132c0-0.258,0.273-0.422,0.5-0.303l12.944,6.854c0.259,0.137,0.421,0.406,0.421,0.698
	v14.894l3.08-0.468v-14.27c0-0.292-0.16-0.561-0.42-0.697L23.48,4.716c-0.205-0.108-0.333-0.322-0.333-0.555V3.362
	c0-0.257,0.273-0.421,0.499-0.302l12.944,6.853c0.259,0.137,0.421,0.406,0.421,0.699v14.965l2.905-0.441
	c0.093-0.014,0.176,0.058,0.176,0.152v7.409c0,0.076-0.054,0.141-0.131,0.151l-26.174,3.967c-0.036-0.008-0.069-0.014-0.106-0.023
	L0.11,28.009c-0.044-0.027-0.07-0.076-0.07-0.128V20.25c0-0.123,0.135-0.196,0.237-0.129l13.751,8.898
	c0.037,0.008,0.07,0.016,0.106,0.023l2.851-0.432V14.619c0-0.292-0.161-0.561-0.42-0.697L6.621,8.657
	c-0.19-0.1-0.418,0.037-0.418,0.252v13.446l-1.541-0.995V7.62V6.35z"/>
</svg>
