<?xml version="1.0" encoding="utf-8"?><!DOCTYPE svg PUBLIC "-//W3C//DTD SVG 1.1//EN" "http://www.w3.org/Graphics/SVG/1.1/DTD/svg11.dtd"><svg version="1.1" id="Layer_1" xmlns="http://www.w3.org/2000/svg" xmlns:xlink="http://www.w3.org/1999/xlink" x="0px" y="0px" width="40px" height="40px" viewBox="0 0 40 40" enable-background="new 0 0 40 40" xml:space="preserve"><path fill="#3480C2" d="M37.37,14.448L25.411,2.489c-2.988-2.988-7.833-2.988-10.82,0L2.632,14.447 c-2.99,2.988-2.989,7.833,0,10.821L14.59,37.227c2.987,2.986,7.832,2.984,10.82,0l11.959-11.959 C40.354,22.279,40.357,17.435,37.37,14.448z M29.626,23.568l-6.562,6.529c-0.248,0.245-0.568,0.368-0.893,0.368	s-0.646-0.124-0.895-0.372c-0.492-0.494-0.489-1.293,0.005-1.785l4.396-4.373H11.232c-0.698,0-1.263-0.564-1.263-1.263 s0.565-1.261,1.263-1.261h17.504c0.51,0,0.973,0.309,1.168,0.779C30.1,22.665,29.989,23.208,29.626,23.568z M28.736,19.325H11.232 c-0.512,0-0.971-0.309-1.167-0.781c-0.195-0.473-0.085-1.016,0.276-1.376l6.565-6.532c0.495-0.491,1.293-0.49,1.785,0.005 c0.492,0.493,0.49,1.293-0.004,1.785l-4.395,4.375h14.446c0.695,0,1.261,0.564,1.261,1.261S29.434,19.325,28.736,19.325z"/></svg>