<?xml version="1.0" encoding="utf-8"?><!DOCTYPE svg PUBLIC "-//W3C//DTD SVG 1.1//EN" "http://www.w3.org/Graphics/SVG/1.1/DTD/svg11.dtd"><svg version="1.1" id="Layer_1" xmlns="http://www.w3.org/2000/svg" xmlns:xlink="http://www.w3.org/1999/xlink" x="0px" y="0px" width="40px" height="40px" viewBox="0 0 40 40" enable-background="new 0 0 40 40" xml:space="preserve"><path fill="#3480C2" d="M0,16.234c0,1.005,0.816,1.821,1.822,1.821h36.429c1.008,0,1.821-0.815,1.821-1.821V7.127 c0-1.007-0.813-1.822-1.821-1.822H1.822C0.816,5.305,0,6.12,0,7.127V16.234z M0,32.627c0,1.005,0.816,1.819,1.822,1.819h36.429 c1.008,0,1.821-0.814,1.821-1.819v-9.105c0-1.008-0.813-1.823-1.821-1.823H1.822C0.816,21.698,0,22.514,0,23.521V32.627z M30.966,11.68c0-1.508,1.225-2.732,2.731-2.732c1.508,0,2.733,1.224,2.733,2.732c0,1.509-1.226,2.732-2.733,2.732 C32.19,14.413,30.966,13.189,30.966,11.68 M30.966,28.072c0-1.507,1.225-2.73,2.731-2.73c1.508,0,2.733,1.224,2.733,2.73 c0,1.51-1.226,2.733-2.733,2.733C32.19,30.806,30.966,29.582,30.966,28.072"/></svg>