<?xml version="1.0" encoding="utf-8"?>
<!-- Generator: Adobe Illustrator 15.0.0, SVG Export Plug-In . SVG Version: 6.00 Build 0)  -->
<!DOCTYPE svg PUBLIC "-//W3C//DTD SVG 1.1//EN" "http://www.w3.org/Graphics/SVG/1.1/DTD/svg11.dtd">
<svg version="1.1" id="Layer_1" xmlns="http://www.w3.org/2000/svg" xmlns:xlink="http://www.w3.org/1999/xlink" x="0px" y="0px"
	 width="40px" height="40px" viewBox="0 0 40 40" enable-background="new 0 0 40 40" xml:space="preserve">
<path fill="#3480C2" d="M38.469,22.693c0.159-0.994,0.254-1.995,0.254-2.982c0-2.538-0.497-4.999-1.478-7.312
	c-0.946-2.239-2.301-4.248-4.025-5.971c-1.723-1.724-3.731-3.078-5.971-4.026c-3.282-1.388-6.954-1.794-10.467-1.203
	c-1.574-0.759-3.303-1.176-5.043-1.176c-3.107,0-6.028,1.21-8.225,3.408c-2.196,2.197-3.406,5.118-3.406,8.225
	c0,1.819,0.45,3.614,1.27,5.234c-0.144,0.943-0.229,1.89-0.229,2.822c0,2.534,0.498,4.995,1.479,7.313
	c0.944,2.236,2.298,4.245,4.024,5.972c1.728,1.728,3.737,3.082,5.971,4.025c2.315,0.98,4.776,1.478,7.314,1.478
	c0.955,0,1.917-0.088,2.868-0.235c1.644,0.847,3.466,1.311,5.312,1.311c3.104,0,6.024-1.21,8.224-3.407
	c2.196-2.195,3.406-5.116,3.406-8.225C39.745,26.119,39.293,24.319,38.469,22.693z M34.571,34.398
	c-1.727,1.726-4.02,2.676-6.456,2.676c-1.568,0-3.121-0.41-4.492-1.185c-0.048-0.027-0.101-0.029-0.15-0.05
	c-0.086-0.035-0.17-0.07-0.263-0.086c-0.085-0.014-0.166-0.008-0.251-0.004c-0.057,0.002-0.111-0.014-0.169-0.003
	c-3.134,0.554-6.323,0.188-9.194-1.028c-1.937-0.817-3.678-1.992-5.177-3.49c-1.497-1.497-2.671-3.239-3.489-5.178
	c-0.85-2.009-1.281-4.143-1.281-6.339c0-0.925,0.083-1.87,0.247-2.808c0.01-0.057-0.006-0.109-0.004-0.165
	c0.004-0.086,0.008-0.169-0.007-0.256c-0.015-0.088-0.046-0.166-0.079-0.248c-0.02-0.051-0.022-0.105-0.049-0.155
	c-0.751-1.35-1.148-2.88-1.148-4.425c0-2.44,0.95-4.733,2.673-6.458c1.725-1.725,4.018-2.675,6.458-2.675
	c1.483,0,2.963,0.37,4.281,1.071c0.036,0.019,0.076,0.018,0.112,0.034c0.083,0.035,0.167,0.061,0.257,0.077
	c0.082,0.015,0.159,0.019,0.24,0.018c0.043-0.001,0.083,0.015,0.128,0.009l0.09-0.023l0.001,0.008
	c3.15-0.601,6.473-0.261,9.425,0.988c1.941,0.822,3.684,1.996,5.177,3.491c1.497,1.495,2.671,3.236,3.491,5.178
	c0.85,2.004,1.28,4.137,1.28,6.338c0,0.977-0.091,1.971-0.271,2.956c-0.011,0.057,0.006,0.11,0.003,0.166
	c-0.004,0.088-0.01,0.173,0.005,0.261s0.047,0.165,0.079,0.246c0.021,0.053,0.022,0.109,0.051,0.16
	c0.756,1.356,1.155,2.893,1.155,4.442C37.245,30.383,36.296,32.676,34.571,34.398z"/>
<path fill="#3480C2" d="M20.01,30.932c-6.511,0-9.423-3.2-9.423-5.601c0-1.231,0.908-2.092,2.161-2.092c2.786,0,2.064,4,7.262,4
	c2.661,0,4.131-1.444,4.131-2.925c0-0.89-0.438-1.874-2.191-2.306l-5.791-1.447c-4.664-1.169-5.51-3.69-5.51-6.06
	c0-4.921,4.633-6.769,8.984-6.769c4.008,0,8.731,2.215,8.731,5.167c0,1.265-1.095,2-2.346,2c-2.378,0-1.94-3.29-6.729-3.29
	c-2.378,0-3.695,1.076-3.695,2.616c0,1.538,1.879,2.027,3.508,2.399l4.287,0.952c4.695,1.045,5.886,3.786,5.886,6.368
	C29.274,27.945,26.205,30.932,20.01,30.932z"/>
</svg>
