<?xml version="1.0" encoding="utf-8"?><svg version="1.1" id="Layer_1" xmlns="http://www.w3.org/2000/svg" xmlns:xlink="http://www.w3.org/1999/xlink" x="0px" y="0px" width="40px" height="40px" viewBox="0 0 40 40" enable-background="new 0 0 40 40" xml:space="preserve"><path fill="#3580C3" d="M21.137,14.231c0-0.682,0.34-1.363,0.795-1.363h16.584c0.455,0,0.795,0.567,0.795,1.363v6.703 c0,0.681-0.34,1.361-0.795,1.361H21.932c-0.455,0-0.795-0.566-0.795-1.361V14.231z"/><rect x="29.543" y="15.594" fill="#FFFFFF" width="1.361" height="3.976"/><circle fill="#FFFFFF" cx="34.654" cy="17.639" r="2.045"/><rect x="25.111" y="15.594" fill="#FFFFFF" width="1.363" height="3.976"/><path fill="#3580C3" d="M39.311,36.723c0,0.908-0.795,1.705-1.703,1.705H2.393c-0.909,0-1.704-0.797-1.704-1.705v-9.654 c0-0.908,0.795-1.703,1.704-1.703h35.215c0.908,0,1.703,0.795,1.703,1.703V36.723z"/><circle fill="#FFFFFF" cx="32.609" cy="31.839" r="3.749"/><rect x="24.057" y="28.09" fill="#FFFFFF" width="0.521" height="7.498"/><rect x="20.648" y="28.09" fill="#FFFFFF" width="0.522" height="7.498"/><rect x="13.832" y="28.09" fill="#FFFFFF" width="0.521" height="7.498"/><rect x="10.311" y="28.09" fill="#FFFFFF" width="0.521" height="7.498"/><rect x="17.24" y="28.09" fill="#FFFFFF" width="0.521" height="7.498"/><rect x="3.495" y="28.09" fill="#FFFFFF" width="0.521" height="7.498"/><rect x="6.903" y="28.09" fill="#FFFFFF" width="0.521" height="7.498"/><path fill="#3580C3" d="M21.137,2.913c0-0.682,0.34-1.363,0.795-1.363h16.584c0.455,0,0.795,0.568,0.795,1.363v6.703 c0,0.681-0.34,1.362-0.795,1.362H21.932c-0.455,0-0.795-0.567-0.795-1.362V2.913z"/><rect x="29.543" y="4.276" fill="#FFFFFF" width="1.361" height="3.976"/><circle fill="#FFFFFF" cx="34.654" cy="6.321" r="2.045"/><rect x="25.111" y="4.276" fill="#FFFFFF" width="1.363" height="3.976"/><path fill="#3580C3" d="M0.688,2.913c0-0.682,0.34-1.363,0.795-1.363h16.585c0.455,0,0.795,0.568,0.795,1.363v6.703 c0,0.681-0.34,1.362-0.795,1.362H1.483c-0.455,0-0.795-0.567-0.795-1.362V2.913z"/><rect x="9.094" y="4.276" fill="#FFFFFF" width="1.363" height="3.976"/><circle fill="#FFFFFF" cx="14.207" cy="6.321" r="2.045"/><rect x="4.664" y="4.276" fill="#FFFFFF" width="1.363" height="3.976"/><path fill="#3580C3" d="M0.688,14.231c0-0.682,0.34-1.363,0.795-1.363h16.585c0.455,0,0.795,0.567,0.795,1.363v6.703 c0,0.681-0.34,1.361-0.795,1.361H1.483c-0.455,0-0.795-0.566-0.795-1.361V14.231z"/><rect x="9.094" y="15.594" fill="#FFFFFF" width="1.363" height="3.976"/><circle fill="#FFFFFF" cx="14.207" cy="17.639" r="2.045"/><rect x="4.664" y="15.594" fill="#FFFFFF" width="1.363" height="3.976"/></svg>