<?xml version="1.0" standalone="no"?>
<!DOCTYPE svg PUBLIC "-//W3C//DTD SVG 20010904//EN"
 "http://www.w3.org/TR/2001/REC-SVG-20010904/DTD/svg10.dtd">
<svg version="1.0" xmlns="http://www.w3.org/2000/svg"
 width="923.000000pt" height="691.000000pt" viewBox="0 0 923.000000 691.000000"
 preserveAspectRatio="xMidYMid meet">
<metadata>
Created by potrace 1.13, written by Peter Selinger 2001-2015
</metadata>
<g transform="translate(0.000000,691.000000) scale(0.100000,-0.100000)"
fill="#000000" stroke="none">
<path d="M10 3460 l0 -3450 4610 0 4610 0 0 3450 0 3450 -4610 0 -4610 0 0
-3450z m8983 3360 c4 0 7 -58 7 -130 l0 -130 -4360 0 -4360 0 0 128 c0 71 2
131 4 133 3 3 6678 2 8709 -1z m-8293 -686 l0 -65 -37 3 c-41 3 -50 19 -38 65
5 20 11 24 30 20 21 -3 25 0 25 19 0 13 5 24 10 24 6 0 10 -29 10 -66z m550
56 c0 -5 -9 -10 -20 -10 -28 0 -25 -20 3 -21 21 -1 21 -1 -3 -8 -22 -6 -24
-12 -22 -44 2 -22 -1 -37 -7 -37 -6 0 -11 18 -11 40 0 31 -4 40 -17 41 -16 1
-16 2 -2 6 10 2 19 13 22 24 5 20 57 28 57 9z m300 -55 c0 -37 -4 -65 -10 -65
-5 0 -10 25 -10 55 0 42 -3 55 -15 55 -8 0 -15 5 -15 10 0 6 11 10 25 10 24 0
25 -2 25 -65z m240 -1 l0 -65 -37 3 c-41 3 -50 19 -38 65 5 20 11 24 30 20 21
-3 25 0 25 19 0 13 5 24 10 24 6 0 10 -29 10 -66z m2252 20 c31 1 32 0 33 -41
0 -24 -3 -43 -7 -43 -4 0 -8 18 -8 40 0 61 -45 52 -53 -10 -2 -19 -4 -3 -4 35
0 39 2 58 4 44 4 -23 9 -27 35 -25z m358 -19 c0 -36 -4 -65 -9 -65 -6 0 -7 15
-4 34 4 25 1 35 -12 40 -9 3 -21 4 -26 0 -16 -9 -10 -52 9 -64 16 -10 16 -11
-2 -8 -30 5 -42 32 -28 63 10 22 18 26 37 22 21 -3 25 0 25 19 0 13 2 24 5 24
3 0 5 -29 5 -65z m1210 55 c0 -5 -9 -10 -20 -10 -28 0 -25 -20 3 -21 l22 -2
-22 -4 c-19 -4 -23 -11 -23 -44 0 -21 -4 -39 -10 -39 -5 0 -10 18 -10 40 0 31
-4 40 -17 41 -16 1 -16 2 -2 6 10 2 19 13 22 24 5 20 57 28 57 9z m831 -33
l29 6 -2 -49 -1 -49 -4 43 c-6 61 -48 56 -56 -8 -2 -19 -4 -3 -4 35 0 39 2 58
4 43 4 -24 8 -27 34 -21z m779 33 c0 -5 -2 -10 -4 -10 -3 0 -8 5 -11 10 -3 6
-1 10 4 10 6 0 11 -4 11 -10z m201 -33 l29 6 -2 -49 -1 -49 -4 43 c-6 61 -48
56 -56 -8 -2 -19 -4 -3 -4 35 0 39 2 58 4 43 4 -24 8 -27 34 -21z m299 19 c0
-21 5 -24 27 -23 30 2 39 -17 29 -59 -5 -20 -13 -24 -41 -24 l-35 0 0 65 c0
37 4 65 10 65 6 0 10 -11 10 -24z m463 -22 c31 1 32 -1 35 -41 2 -26 -1 -43
-7 -43 -6 0 -11 18 -11 40 0 22 -4 40 -8 40 -19 0 -41 -27 -45 -55 -2 -16 -4
2 -4 40 0 39 2 58 4 44 4 -23 9 -27 36 -25z m-7880 -11 c3 -21 8 -46 12 -55 4
-11 3 -18 -4 -18 -6 0 -13 10 -15 23 -13 62 -15 87 -7 87 5 0 11 -17 14 -37z
m84 20 c-3 -10 -8 -35 -12 -55 -6 -36 -14 -46 -27 -32 -4 3 0 17 8 32 8 15 14
37 14 50 0 12 5 22 11 22 6 0 8 -8 6 -17z m1583 7 c0 -5 10 -11 23 -11 l22 -2
-22 -4 c-19 -4 -23 -11 -23 -38 0 -27 5 -35 23 -38 15 -4 12 -5 -8 -4 -27 2
-30 6 -33 40 -2 20 -8 37 -13 37 -11 0 12 29 24 30 4 0 7 -4 7 -10z m465 -11
c17 -1 16 -2 -5 -8 -19 -5 -25 -13 -25 -36 0 -23 6 -31 25 -36 23 -6 22 -7 -7
-8 -32 -1 -33 0 -33 39 0 31 -4 40 -17 41 -17 1 -17 2 0 6 9 2 17 10 17 16 0
8 4 7 12 -1 7 -7 21 -12 33 -13z m325 -2 c25 -4 25 -4 -2 -6 -25 -1 -28 -5
-28 -35 0 -30 4 -35 28 -39 25 -4 25 -4 -5 -6 -31 -1 -33 1 -33 34 0 23 -6 38
-15 41 -14 6 -13 8 2 19 10 7 20 10 23 5 3 -4 16 -10 30 -13z m330 -35 c10
-29 13 -52 9 -52 -5 0 -9 5 -9 10 0 6 -13 10 -30 10 -16 0 -30 -4 -30 -10 0
-5 -4 -10 -10 -10 -8 0 -1 26 25 98 9 25 28 6 45 -46z m760 35 c25 -4 25 -4
-2 -6 -25 -1 -28 -5 -28 -35 0 -30 4 -35 28 -39 25 -4 25 -4 -5 -6 -31 -1 -33
1 -33 34 0 23 -6 38 -15 41 -14 6 -13 8 2 19 10 7 20 10 23 5 3 -4 16 -10 30
-13z m1855 2 c17 -1 16 -2 -5 -8 -19 -5 -26 -15 -28 -38 -3 -28 0 -32 25 -36
27 -4 27 -4 -4 -6 -32 -1 -33 0 -33 39 0 31 -4 40 -17 41 -17 1 -17 2 0 6 9 2
17 10 17 16 0 8 4 7 12 -1 7 -7 21 -12 33 -13z m1825 11 c0 -5 10 -11 23 -11
l22 -2 -22 -4 c-19 -4 -23 -11 -23 -38 0 -27 5 -35 23 -38 15 -4 12 -5 -8 -4
-27 2 -30 6 -33 40 -2 26 -8 37 -20 38 -15 1 -15 2 1 6 9 2 17 9 17 14 0 5 5
9 10 9 6 0 10 -4 10 -10z m570 -13 c25 -4 25 -4 -2 -6 -25 -1 -28 -5 -28 -35
0 -30 4 -35 28 -39 25 -4 25 -4 -5 -6 -31 -1 -33 1 -33 34 0 23 -6 38 -15 41
-14 6 -13 8 2 19 10 7 20 10 23 5 3 -4 16 -10 30 -13z m-7640 -42 c0 -25 -4
-45 -9 -45 -5 0 -7 16 -5 35 2 29 -1 38 -19 45 -21 8 -21 9 6 9 26 1 27 -1 27
-44z m128 -2 c2 -26 -1 -43 -7 -43 -6 0 -11 18 -11 40 0 63 -43 50 -53 -15 -3
-23 -4 -19 -6 15 l-1 46 38 -1 c36 0 37 -1 40 -42z m210 38 c8 -5 12 -22 10
-42 -3 -29 -7 -34 -32 -37 -31 -4 -46 10 -46 44 0 37 36 56 68 35z m66 -33 c9
38 23 42 32 7 3 -14 11 -22 17 -18 7 4 8 0 4 -11 -4 -10 -7 -20 -7 -22 0 -3
-4 -2 -10 1 -5 3 -10 15 -10 26 0 10 -4 19 -10 19 -5 0 -10 -9 -10 -19 0 -18
-17 -38 -24 -30 -2 2 -6 24 -9 49 l-5 45 12 -40 13 -40 7 33z m129 35 c-30 -6
-29 -21 3 -33 16 -7 24 -16 22 -28 -4 -19 -45 -29 -59 -15 -6 6 2 8 21 5 40
-6 40 16 0 29 -46 16 -39 50 9 48 24 -2 24 -2 4 -6z m355 -33 c2 -19 8 -38 14
-41 5 -4 -11 -7 -36 -7 -25 -1 -48 3 -52 9 -9 16 16 39 43 39 15 0 23 5 20 13
-2 6 -16 12 -30 12 -14 -1 -23 3 -20 8 3 4 17 7 31 5 23 -3 28 -9 30 -38z m91
-7 l-2 -48 -6 39 c-4 26 -13 42 -26 47 -17 7 -16 8 8 8 26 1 27 -1 26 -46z
m229 35 c23 -23 13 -38 -24 -38 -24 0 -34 -4 -31 -12 2 -7 18 -13 35 -13 16 0
28 -3 25 -7 -8 -15 -61 -8 -67 8 -15 39 1 74 34 74 9 0 21 -5 28 -12z m445 -9
c5 -9 7 -28 3 -42 -12 -48 -86 -29 -86 22 0 18 32 42 53 39 11 -2 24 -10 30
-19z m190 14 c-30 -6 -29 -21 3 -33 16 -7 24 -16 22 -28 -4 -19 -45 -29 -59
-15 -6 6 2 8 21 5 40 -6 40 16 0 29 -46 16 -39 50 9 48 24 -2 24 -2 4 -6z
m245 -33 c2 -19 9 -38 15 -42 7 -4 -12 -8 -40 -8 -37 0 -53 4 -53 13 0 19 21
37 42 37 10 0 18 7 18 16 0 12 -7 15 -25 12 -13 -3 -22 -1 -19 4 3 5 18 8 32
6 23 -3 28 -9 30 -38z m112 29 c0 -5 -4 -7 -10 -4 -19 12 -49 -15 -53 -48 -3
-26 -4 -24 -5 13 -2 45 -2 45 33 47 20 2 35 -2 35 -8z m650 -1 c0 -5 -4 -7 -9
-4 -21 13 -41 -7 -41 -40 0 -19 -4 -34 -10 -34 -5 0 -10 19 -10 43 0 42 1 43
35 44 19 1 35 -3 35 -9z m108 -15 c3 -20 -1 -23 -28 -23 -21 0 -30 -4 -27 -12
2 -7 16 -13 30 -13 15 1 27 -3 27 -7 0 -13 -55 -9 -68 4 -17 17 -15 44 4 63
23 22 58 15 62 -12z m106 18 c4 -5 -2 -7 -12 -4 -10 2 -25 -3 -32 -12 -17 -21
-3 -47 31 -56 22 -6 22 -7 -6 -8 -51 -2 -73 40 -39 73 17 18 50 21 58 7z m104
-3 c22 -22 13 -38 -19 -38 -20 0 -29 -4 -26 -12 2 -7 16 -13 30 -13 15 1 27
-3 27 -7 0 -13 -55 -9 -68 4 -26 26 -7 78 28 78 9 0 21 -5 28 -12z m120 -35
c2 -26 -1 -43 -7 -43 -6 0 -11 18 -11 40 0 22 -4 40 -8 40 -19 0 -41 -27 -45
-55 -3 -22 -4 -18 -6 15 l-1 46 38 -1 c36 0 37 -1 40 -42z m432 8 c0 -22 5
-42 13 -44 6 -3 -9 -6 -35 -6 -33 -1 -48 3 -48 12 0 19 21 37 42 37 10 0 18 7
18 16 0 12 -7 15 -25 12 -14 -3 -25 -1 -25 3 0 5 14 9 30 9 28 0 30 -2 30 -39z
m110 27 c0 -5 -4 -7 -9 -4 -21 13 -41 -7 -41 -40 0 -19 -4 -34 -10 -34 -5 0
-10 19 -10 43 0 42 1 43 35 44 19 1 35 -3 35 -9z m156 -25 l7 -38 9 34 c7 26
12 31 21 22 9 -9 9 -14 1 -19 -6 -4 -14 -17 -18 -29 -10 -31 -24 -29 -32 5 -3
15 -8 35 -11 45 -2 9 0 17 6 17 5 0 13 -17 17 -37z m81 20 c-3 -10 -8 -31 -12
-47 -5 -23 -9 -26 -18 -16 -9 10 -9 14 1 17 6 3 12 18 12 34 0 16 5 29 11 29
6 0 8 -8 6 -17z m91 -23 c2 -19 8 -38 14 -41 5 -4 -11 -7 -36 -7 -25 -1 -48 3
-52 9 -9 16 16 39 43 39 15 0 23 5 20 13 -2 6 -16 12 -30 12 -14 -1 -23 3 -20
8 3 4 17 7 31 5 23 -3 28 -9 30 -38z m112 29 c0 -5 -4 -7 -10 -4 -19 12 -49
-15 -53 -48 -3 -26 -4 -24 -5 13 -2 45 -2 45 33 47 20 2 35 -2 35 -8z m98 -1
c23 -23 13 -38 -23 -38 -27 0 -33 -3 -28 -16 4 -11 15 -15 34 -12 15 3 26 1
23 -4 -9 -15 -62 -9 -68 8 -15 39 1 74 34 74 9 0 21 -5 28 -12z m226 -4 c19
-18 20 -28 6 -55 -13 -24 -65 -26 -74 -3 -22 57 27 99 68 58z m116 5 c0 -5 -5
-7 -10 -4 -24 15 -49 -6 -53 -43 -3 -35 -4 -35 -5 8 -2 45 -2 45 33 47 20 2
35 -2 35 -8z m183 4 c-30 -6 -29 -21 3 -33 16 -7 24 -16 22 -28 -4 -19 -45
-29 -59 -15 -6 6 2 8 21 5 40 -6 40 16 0 29 -46 16 -39 50 9 48 24 -2 24 -2 4
-6z m140 -14 c5 -9 7 -28 3 -42 -12 -48 -86 -29 -86 22 0 18 32 42 53 39 11
-2 24 -10 30 -19z m260 -6 c3 -16 9 -36 12 -45 4 -11 3 -18 -4 -18 -6 0 -13
12 -17 28 -3 15 -8 35 -11 45 -2 9 0 17 5 17 5 0 12 -12 15 -27z m84 10 c-3
-10 -8 -30 -11 -45 -7 -29 -26 -39 -26 -13 0 8 5 15 10 15 6 0 10 14 10 30 0
17 5 30 11 30 6 0 8 -8 6 -17z m91 -23 c2 -19 9 -38 15 -42 7 -4 -12 -8 -40
-8 -37 0 -53 4 -53 13 0 19 21 37 42 37 10 0 18 7 18 16 0 12 -7 15 -25 12
-13 -3 -22 -1 -19 4 3 5 18 8 32 6 23 -3 28 -9 30 -38z m112 29 c0 -5 -5 -7
-10 -4 -24 15 -49 -6 -53 -43 -3 -35 -4 -35 -5 8 -2 45 -2 45 33 47 20 2 35
-2 35 -8z m98 -1 c23 -23 13 -38 -24 -38 -24 0 -34 -4 -31 -12 2 -7 18 -13 35
-13 16 0 28 -3 25 -7 -8 -15 -61 -8 -67 8 -15 39 1 74 34 74 9 0 21 -5 28 -12z
m227 2 c4 -7 -2 -9 -17 -5 -55 14 -61 -51 -7 -66 22 -6 21 -7 -7 -8 -21 -1
-34 5 -38 15 -9 25 -7 49 6 62 15 15 55 16 63 2z m215 -29 c0 -23 5 -41 13
-44 6 -2 -9 -5 -35 -5 -26 -1 -50 3 -54 9 -9 15 16 39 42 39 15 0 24 6 24 16
0 12 -7 15 -29 12 -17 -2 -28 -1 -25 4 3 4 18 8 35 8 27 0 29 -2 29 -39z m109
-9 l-2 -47 -6 40 c-6 37 -10 41 -41 37 -5 -1 -10 -18 -10 -37 0 -19 -4 -35
-10 -35 -5 0 -10 19 -10 43 l0 43 40 1 40 2 -1 -47z m111 -12 c0 -56 -2 -60
-26 -66 -15 -4 -30 -2 -37 5 -9 9 -8 11 6 5 9 -3 25 0 34 7 14 13 13 15 -18
19 -28 4 -35 10 -37 33 -4 37 13 57 49 57 29 0 29 -1 29 -60z m98 48 c22 -22
13 -38 -19 -38 -20 0 -29 -4 -26 -12 2 -7 16 -13 30 -13 15 1 27 -3 27 -7 0
-13 -55 -9 -68 4 -26 26 -7 78 28 78 9 0 21 -5 28 -12z m240 -35 c2 -26 -1
-43 -7 -43 -6 0 -11 18 -11 41 0 53 -23 48 -31 -7 l-6 -39 -2 38 c-1 48 -23
45 -32 -4 -6 -32 -6 -31 -8 13 l-1 47 48 -2 47 -2 3 -42z m82 2 c0 -25 -4 -45
-10 -45 -5 0 -10 18 -10 39 0 29 -5 41 -17 44 -11 3 -7 5 10 6 26 1 27 -1 27
-44z m130 -10 c0 -28 -5 -56 -12 -63 -14 -14 -58 -16 -58 -4 0 5 10 8 21 8 33
-1 35 22 2 26 -30 3 -39 23 -29 63 5 20 12 24 41 23 l35 -1 0 -52z m524 49 c9
-3 16 -15 16 -25 0 -15 -7 -19 -31 -19 -20 0 -29 -4 -26 -12 2 -7 16 -13 30
-13 15 1 27 -3 27 -7 0 -13 -55 -9 -68 4 -17 17 -15 44 4 62 17 18 24 19 48
10z m444 -6 c23 -23 13 -38 -24 -38 -24 0 -34 -4 -31 -12 2 -7 18 -13 35 -13
16 0 28 -3 25 -7 -8 -15 -61 -8 -67 8 -15 39 1 74 34 74 9 0 21 -5 28 -12z
m-7968 -22 c0 -7 -7 -13 -15 -13 -17 0 -17 0 -9 21 7 18 24 12 24 -8z m5450
-1 c0 -8 -6 -12 -14 -9 -8 3 -12 12 -9 20 6 17 23 9 23 -11z m-2950 -45 c0 -5
-4 -10 -10 -10 -5 0 -10 5 -10 10 0 6 5 10 10 10 6 0 10 -4 10 -10z m-70 -58
c0 -22 2 -24 11 -12 9 12 12 13 16 1 5 -11 7 -11 15 0 7 11 11 11 15 1 2 -6 9
-10 14 -6 13 8 10 -49 -4 -66 -7 -8 -24 -16 -39 -18 -20 -2 -33 6 -54 33 -27
36 -27 58 1 35 14 -12 15 -8 9 30 -5 31 -4 41 4 36 7 -4 12 -19 12 -34z
m-1310 -102 c0 -5 -11 -10 -25 -10 -14 0 -25 -4 -25 -10 0 -5 12 -10 27 -10
14 0 23 -3 19 -7 -4 -4 -15 -8 -24 -8 -13 0 -19 -12 -23 -45 l-6 -45 -1 42
c-2 28 -8 45 -19 52 -16 9 -16 10 -2 11 9 0 19 9 22 20 3 14 14 20 31 20 14 0
26 -4 26 -10z m80 0 c0 -5 -5 -10 -11 -10 -5 0 -7 5 -4 10 3 6 8 10 11 10 2 0
4 -4 4 -10z m403 -42 c5 6 17 12 28 12 17 0 19 -7 17 -52 -1 -39 -2 -44 -5
-18 -6 56 -10 62 -32 50 -13 -6 -21 -23 -24 -48 -2 -20 -4 -3 -4 38 0 50 2 63
6 40 4 -23 9 -31 14 -22z m643 3 c3 -11 7 -11 19 -1 31 26 60 -31 35 -70 -5
-8 -23 -15 -40 -15 l-30 -1 1 71 c1 38 3 61 6 50 2 -11 6 -26 9 -34z m154 -22
c0 -44 -4 -68 -10 -64 -5 3 -10 31 -10 61 0 41 -4 54 -15 54 -8 0 -15 5 -15
10 0 6 11 10 25 10 24 0 25 -2 25 -71z m-1600 41 c0 -5 -9 -10 -20 -10 -17 0
-20 -7 -20 -44 0 -25 -4 -48 -10 -51 -6 -4 -10 13 -10 44 0 44 -3 51 -20 51
-11 0 -20 5 -20 10 0 6 23 10 50 10 28 0 50 -4 50 -10z m731 -10 c10 0 19 -4
19 -9 0 -5 -8 -8 -17 -7 -13 1 -19 -8 -21 -31 -3 -28 0 -33 17 -33 12 0 21 -4
21 -10 0 -14 -33 -13 -48 2 -7 7 -12 24 -12 39 0 15 -6 29 -12 32 -9 3 -7 9 7
20 11 9 22 11 23 6 2 -5 12 -9 23 -9z m-1516 -10 c4 -6 -3 -9 -16 -7 -11 1
-26 -5 -32 -14 -15 -24 -1 -49 28 -49 15 0 24 -4 20 -10 -17 -28 -75 3 -75 40
0 37 58 68 75 40z m109 -2 c3 -7 6 -29 9 -48 l5 -35 -42 0 c-34 0 -41 3 -41
19 0 11 7 22 15 24 13 5 13 3 1 -11 -12 -15 -10 -17 13 -17 25 0 27 3 24 33
-3 27 -6 32 -27 29 -15 -2 -21 0 -17 7 10 15 56 14 60 -1z m69 -66 c17 2 23
11 25 41 5 53 22 46 22 -9 0 -35 -3 -45 -14 -41 -7 3 -18 1 -24 -5 -23 -23
-42 0 -40 49 l1 48 4 -43 c4 -38 7 -43 26 -40z m143 71 c-4 -5 -12 -9 -17 -9
-5 -1 -13 -2 -19 -3 -20 -2 -9 -17 21 -28 17 -7 29 -18 27 -24 -7 -21 -34 -33
-54 -24 -17 8 -16 9 9 13 34 4 35 19 2 32 -41 16 -32 50 13 50 14 0 22 -3 18
-7z m112 -5 c23 -23 13 -38 -24 -38 -42 0 -43 -23 -1 -28 15 -2 25 -8 22 -13
-9 -14 -32 -11 -49 7 -30 29 -14 84 24 84 9 0 21 -5 28 -12z m436 -4 c9 -8 16
-24 16 -34 0 -22 -25 -50 -45 -50 -20 0 -45 28 -45 50 0 22 25 50 45 50 7 0
21 -7 29 -16z m316 -35 c0 -31 -4 -48 -10 -44 -5 3 -10 22 -10 41 0 24 -5 34
-15 34 -8 0 -15 5 -15 10 0 6 11 10 25 10 23 0 25 -3 25 -51z m80 29 l17 -22
7 22 c4 12 12 22 17 22 6 0 3 -10 -5 -21 -13 -19 -13 -24 1 -46 20 -30 12 -39
-12 -13 -17 19 -18 19 -37 -3 l-19 -22 17 28 c15 25 15 29 0 52 -20 31 -11 33
14 3z m478 -5 c3 -20 -1 -23 -28 -23 -39 0 -36 -24 3 -28 15 -2 25 -8 22 -13
-16 -25 -75 8 -75 42 0 46 72 66 78 22z m216 5 c16 -26 -4 -73 -32 -72 -15 0
-22 -5 -22 -18 0 -10 -4 -18 -10 -18 -6 0 -10 28 -10 64 l0 64 31 -1 c18 -1
37 -10 43 -19z m66 -22 c0 -25 -4 -48 -10 -51 -6 -4 -10 13 -10 44 0 28 5 51
10 51 6 0 10 -20 10 -44z m50 36 c0 -4 -9 -8 -20 -9 -11 -1 -18 2 -15 8 7 11
35 12 35 1z m104 -8 c9 -8 16 -24 16 -34 0 -22 -25 -50 -45 -50 -20 0 -45 28
-45 50 0 22 25 50 45 50 7 0 21 -7 29 -16z m324 4 c23 -23 13 -38 -24 -38 -46
0 -41 -23 7 -30 27 -4 30 -7 16 -13 -26 -10 -34 -9 -51 9 -30 29 -14 84 24 84
9 0 21 -5 28 -12z m120 -42 c-1 -50 -2 -50 -5 -8 -6 58 -33 59 -33 1 0 -24 -4
-38 -10 -34 -5 3 -10 23 -10 43 0 45 -17 32 -23 -18 -3 -28 -4 -25 -5 15 l-2
50 45 2 45 1 -2 -52z m82 44 c0 -5 -7 -10 -15 -10 -8 0 -15 5 -15 10 0 6 7 10
15 10 8 0 15 -4 15 -10z m-2180 -68 c0 -13 -12 -22 -22 -16 -10 6 -1 24 13 24
5 0 9 -4 9 -8z m2178 -3 c-2 -6 -8 -10 -13 -10 -5 0 -11 4 -13 10 -2 6 4 11
13 11 9 0 15 -5 13 -11z m-518 -493 l0 -64 -31 1 c-38 2 -54 24 -45 60 5 20
13 27 31 27 18 0 25 5 25 20 0 11 5 20 10 20 6 0 10 -28 10 -64z m1068 -3 l-1
-68 -6 59 c-5 47 -10 61 -26 67 -17 7 -16 8 8 8 l27 1 -2 -67z m110 0 l-1 -68
-6 59 c-5 47 -10 61 -26 67 -17 7 -16 8 8 8 l27 1 -2 -67z m782 3 l0 -64 -31
1 c-38 2 -54 24 -45 60 5 22 12 27 36 27 23 0 30 4 30 20 0 11 2 20 5 20 3 0
5 -29 5 -64z m760 -3 c0 -65 -13 -84 -14 -20 -1 25 -5 32 -21 32 -27 0 -33
-44 -8 -63 17 -13 17 -14 -2 -10 -16 3 -20 11 -20 43 0 36 3 40 28 43 19 2 27
9 27 23 0 10 2 19 5 19 3 0 5 -30 5 -67z m-4710 3 c0 -49 2 -55 23 -59 12 -2
0 -5 -28 -5 -37 -1 -45 1 -29 8 19 7 21 15 18 59 -2 30 0 51 6 51 6 0 10 -24
10 -54z m338 37 c-14 -3 -18 -15 -18 -48 0 -33 4 -45 18 -48 9 -3 -1 -5 -23
-5 -22 0 -34 2 -27 5 7 3 12 23 12 48 0 25 -5 45 -12 48 -7 3 5 5 27 5 22 0
32 -2 23 -5z m557 -16 c15 -3 13 -5 -8 -6 -26 -1 -28 -4 -25 -33 2 -24 9 -34
28 -40 23 -6 23 -7 -5 -5 -27 2 -30 6 -33 40 -2 26 -8 37 -20 37 -13 0 -13 2
4 14 10 8 23 11 29 6 5 -4 19 -10 30 -13z m700 -24 l8 -48 12 40 c10 33 14 37
20 21 5 -10 4 -21 -2 -25 -6 -3 -12 -15 -14 -25 -7 -35 -28 -29 -34 11 -4 21
-9 46 -12 56 -2 9 0 17 5 17 5 0 13 -21 17 -47z m85 37 c0 -5 -2 -10 -4 -10
-3 0 -8 5 -11 10 -3 6 -1 10 4 10 6 0 11 -4 11 -10z m1175 -11 c17 -1 17 -2
-4 -8 -39 -11 -38 -66 2 -75 14 -2 10 -4 -8 -3 -27 2 -30 6 -33 40 -2 26 -8
37 -20 37 -13 0 -13 2 4 14 12 9 23 11 29 5 5 -5 18 -9 30 -10z m535 -7 c-15
-3 -20 -11 -20 -37 0 -29 4 -34 28 -38 25 -4 25 -4 -5 -6 -32 -1 -33 0 -33 39
0 31 -4 40 -17 40 -15 0 -15 1 1 13 14 11 24 11 42 3 22 -10 22 -11 4 -14z
m1865 5 c15 -3 13 -5 -8 -6 -26 -1 -28 -4 -25 -33 2 -25 9 -34 28 -39 23 -6
22 -7 -7 -8 -32 -1 -33 0 -33 39 0 31 -4 40 -17 40 -15 0 -14 2 3 14 10 8 23
11 29 6 5 -4 19 -10 30 -13z m315 -5 c-15 -3 -20 -11 -20 -37 0 -29 4 -34 28
-38 25 -4 25 -4 -5 -6 -31 -1 -33 1 -33 34 0 23 -6 38 -15 41 -14 6 -14 8 1
19 13 9 23 9 40 1 22 -10 22 -11 4 -14z m1290 18 c0 -5 10 -11 23 -11 l22 -2
-22 -4 c-19 -4 -23 -11 -23 -38 0 -27 5 -35 23 -38 15 -4 12 -5 -8 -4 -27 2
-30 6 -33 40 -2 20 -8 37 -13 37 -11 0 12 29 24 30 4 0 7 -4 7 -10z m-6402
-58 l-1 -47 -4 43 c-2 23 -8 42 -13 42 -27 0 -40 -15 -40 -46 0 -19 -4 -34
-10 -34 -5 0 -10 20 -10 43 l0 44 40 1 40 2 -2 -48z m85 41 c-30 -6 -29 -17 3
-32 16 -7 24 -18 22 -29 -4 -19 -45 -29 -60 -14 -6 6 -1 8 15 5 37 -7 42 14 7
32 -44 23 -39 46 9 44 24 -2 24 -2 4 -6z m135 -20 c3 -20 -1 -23 -28 -23 -21
0 -30 -4 -27 -12 2 -7 16 -13 30 -13 15 1 27 -3 27 -7 0 -14 -48 -8 -64 8 -33
32 -11 77 34 72 17 -2 26 -10 28 -25z m112 18 c0 -4 -10 -7 -22 -7 -19 1 -23
-5 -26 -36 -4 -52 -22 -48 -22 5 0 43 1 44 35 45 19 1 35 -2 35 -7z m307 -21
c8 19 17 30 19 24 6 -14 -45 -124 -57 -124 -5 0 -9 5 -9 10 0 6 5 10 11 10 11
0 9 33 -5 90 -4 16 0 12 10 -10 l16 -35 15 35z m133 5 c12 -33 3 -54 -26 -61
-41 -11 -65 25 -48 70 4 10 18 16 35 16 22 0 32 -6 39 -25z m50 -55 c27 0 40
15 40 46 0 19 4 34 8 34 5 0 9 -19 9 -43 l1 -43 -39 -1 -39 -2 2 47 1 47 4
-42 c2 -24 8 -43 13 -43z m138 68 c-23 -8 -28 -16 -28 -44 0 -19 -4 -34 -10
-34 -5 0 -10 19 -10 43 0 43 0 43 38 44 36 0 36 0 10 -9z m330 -35 l-1 -48 -4
42 c-3 33 -8 43 -26 46 -18 4 -17 5 6 6 26 1 27 -1 25 -46z m131 -1 l-2 -47
-6 40 c-6 37 -10 41 -41 37 -5 -1 -10 -18 -10 -37 0 -19 -4 -35 -10 -35 -5 0
-10 20 -10 43 l0 44 40 1 40 2 -1 -48z m221 33 c19 -22 4 -64 -25 -71 -42 -11
-67 24 -49 70 8 20 57 21 74 1z m90 -28 c0 -10 5 -15 10 -12 6 3 10 17 10 31
0 13 4 24 9 24 5 0 5 -16 0 -37 -5 -21 -9 -41 -9 -45 0 -17 -19 -6 -26 15 -4
12 -11 25 -16 28 -5 3 -6 13 -2 23 5 14 9 15 15 4 5 -7 9 -21 9 -31z m98 36
c-36 -6 -35 -18 2 -32 32 -11 37 -20 18 -39 -14 -14 -58 -16 -58 -3 0 4 11 6
25 3 18 -3 25 0 25 11 0 8 -11 18 -25 21 -16 4 -25 13 -25 26 0 16 6 20 33 19
30 -2 30 -2 5 -6z m232 -38 c0 -25 -4 -45 -10 -45 -5 0 -10 18 -10 39 0 29 -5
41 -17 44 -11 3 -7 5 10 6 26 1 27 -1 27 -44z m118 -3 l-1 -47 -4 43 c-6 61
-48 55 -55 -8 -3 -33 -4 -32 -8 11 l-5 46 38 1 37 2 -2 -48z m85 41 c-30 -6
-29 -17 3 -32 16 -7 24 -18 22 -29 -4 -19 -45 -29 -60 -14 -6 6 -1 8 15 5 38
-7 44 16 8 30 -44 16 -43 47 2 46 23 -1 26 -3 10 -6z m247 -32 c0 -23 5 -41
13 -44 6 -2 -9 -5 -35 -5 -52 -1 -69 12 -45 36 15 14 15 13 10 -6 -4 -16 -1
-22 10 -22 19 0 30 16 35 49 3 21 0 23 -27 19 -17 -3 -31 -1 -31 4 0 4 16 8
35 8 34 0 35 -1 35 -39z m330 0 c0 -23 5 -41 13 -44 6 -2 -9 -4 -35 -4 -54 -1
-69 11 -42 35 17 16 17 16 5 0 -11 -15 -11 -19 4 -24 23 -9 45 14 25 26 -10 7
-11 10 -2 10 24 0 11 29 -15 33 -23 3 -21 4 10 6 37 1 37 1 37 -38z m200 -6
c0 -25 -4 -45 -10 -45 -5 0 -10 18 -10 39 0 29 -5 41 -17 44 -11 3 -7 5 10 6
26 1 27 -1 27 -44z m126 18 c9 -33 -7 -58 -36 -58 -29 0 -45 25 -36 58 5 22
12 27 36 27 24 0 31 -5 36 -27z m102 -21 l-1 -47 -4 43 c-2 23 -8 42 -13 42
-27 0 -40 -15 -40 -46 0 -19 -4 -34 -10 -34 -5 0 -10 20 -10 43 l0 44 40 1 40
2 -2 -48z m310 1 l-1 -48 -4 42 c-3 33 -8 43 -26 46 -18 4 -17 5 6 6 26 1 27
-1 25 -46z m107 40 c-35 -9 -37 -20 -6 -31 17 -6 31 -15 31 -19 0 -25 -52 -45
-64 -24 -3 4 6 6 19 3 34 -6 34 24 0 32 -16 4 -25 13 -25 26 0 16 6 20 33 19
21 -1 25 -3 12 -6z m129 -2 c3 -4 -5 -6 -17 -4 -32 6 -54 -21 -36 -43 7 -9 22
-20 34 -25 17 -7 16 -8 -9 -6 -35 3 -51 25 -42 60 5 22 12 27 36 27 16 0 31
-4 34 -9z m226 -36 l6 -41 -44 -2 c-39 -1 -43 0 -40 20 2 12 10 24 18 26 13 4
13 3 2 -10 -9 -12 -10 -18 -2 -23 20 -12 37 3 38 33 0 26 -4 32 -26 35 -19 3
-17 4 8 3 33 -1 35 -3 40 -41z m108 -2 c2 -26 -1 -43 -7 -43 -6 0 -11 18 -11
40 0 61 -45 52 -53 -10 -3 -31 -4 -30 -5 10 l-2 46 38 -1 c36 0 37 -1 40 -42z
m300 35 c-23 -8 -28 -16 -28 -44 0 -19 -4 -34 -10 -34 -5 0 -10 20 -10 43 0
44 0 44 38 44 36 1 36 1 10 -9z m130 -15 c3 -20 -1 -23 -28 -23 -21 0 -30 -4
-27 -12 2 -7 16 -13 30 -13 15 1 27 -3 27 -7 0 -14 -48 -8 -64 8 -33 32 -11
77 34 72 17 -2 26 -10 28 -25z m85 20 c-30 -6 -29 -21 2 -33 14 -5 25 -16 25
-25 0 -18 -47 -32 -61 -18 -7 7 -2 9 14 6 37 -7 44 16 8 28 -44 16 -43 50 2
48 23 -1 26 -3 10 -6z m247 -32 c0 -23 5 -41 13 -44 6 -2 -9 -4 -35 -4 -54 -1
-69 11 -42 35 17 16 17 16 5 0 -8 -11 -9 -18 -1 -23 20 -13 37 3 38 35 1 29
-2 32 -24 27 -13 -2 -24 0 -24 4 0 5 16 9 35 9 34 0 35 -1 35 -39z m110 28 c0
-5 -5 -7 -10 -4 -24 15 -49 -6 -53 -43 -3 -35 -4 -35 -5 8 -2 45 -2 45 33 47
20 2 35 -2 35 -8z m280 -21 l11 -33 14 33 c23 54 26 36 4 -25 -23 -64 -35 -81
-46 -69 -4 4 -1 11 7 16 12 8 12 16 -2 59 -18 55 -7 72 12 19z m154 16 c18
-46 -7 -81 -49 -70 -20 5 -25 12 -25 40 0 18 3 36 7 39 13 13 61 7 67 -9z m46
-24 c0 -61 45 -52 53 10 3 31 4 30 5 -10 l2 -46 -37 1 c-37 0 -38 1 -41 43 -2
25 1 42 7 42 6 0 11 -18 11 -40z m170 29 c0 -6 -4 -8 -9 -5 -21 13 -41 -7 -41
-40 0 -19 -4 -34 -10 -34 -5 0 -10 20 -10 43 0 43 1 44 35 45 19 1 35 -3 35
-9z m220 0 c0 -5 -5 -7 -10 -4 -6 3 -19 3 -31 0 -28 -9 -21 -46 11 -62 24 -12
24 -13 3 -13 -39 0 -62 36 -47 74 7 18 74 23 74 5z m110 -4 c19 -22 4 -64 -25
-71 -42 -11 -67 24 -49 70 8 20 57 21 74 1z m118 -32 c2 -26 -1 -43 -7 -43 -6
0 -11 18 -11 41 0 53 -23 48 -31 -7 l-6 -39 -2 43 c-1 45 -17 57 -25 20 -3
-13 -7 -32 -9 -43 -3 -11 -5 2 -6 28 l-1 48 48 -3 47 -3 3 -42z m92 31 c21
-24 1 -68 -32 -72 -18 -2 -28 -10 -31 -25 -2 -12 -5 8 -6 46 l-1 67 29 0 c16
0 34 -7 41 -16z m68 -58 c6 1 17 2 22 3 6 0 10 17 10 36 0 19 5 35 10 35 6 0
10 -19 10 -43 l0 -43 -40 -1 -40 -2 1 47 2 47 6 -40 c3 -23 11 -40 19 -39z
m260 47 c3 -20 -1 -23 -28 -23 -21 0 -30 -4 -27 -12 2 -7 16 -13 30 -13 15 1
27 -3 27 -7 0 -14 -48 -9 -64 7 -8 9 -13 22 -11 30 3 8 7 22 10 31 8 25 59 14
63 -13z m90 15 c-23 -8 -28 -16 -28 -44 0 -19 -4 -34 -10 -34 -5 0 -10 20 -10
43 0 44 0 44 38 44 36 1 36 1 10 -9z m-5423 -47 c-7 -35 -25 -42 -25 -11 0 11
5 20 10 20 6 0 10 8 10 17 0 9 3 14 6 10 3 -3 3 -19 -1 -36z m488 -2 c5 -4 6
-12 2 -19 -10 -16 -25 6 -24 35 0 14 2 16 6 5 3 -8 10 -18 16 -21z m-2043 -19
c0 -5 -7 -10 -16 -10 -8 0 -12 5 -9 10 3 6 10 10 16 10 5 0 9 -4 9 -10z m7080
0 c0 -5 -4 -10 -10 -10 -5 0 -10 5 -10 10 0 6 5 10 10 10 6 0 10 -4 10 -10z
m-6759 -193 l29 6 -2 -49 -1 -49 -4 43 c-2 23 -8 42 -13 42 -27 0 -40 -15 -40
-46 0 -19 -4 -34 -10 -34 -12 0 -14 113 -2 124 4 4 8 -4 10 -18 3 -22 7 -25
33 -19z m1207 -24 l-2 -68 -3 58 c-3 40 -8 57 -18 57 -8 0 -17 5 -20 10 -4 6
5 10 19 10 26 0 26 -1 24 -67z m2312 2 c0 -36 -4 -65 -9 -65 -6 0 -7 15 -4 34
4 25 1 35 -12 40 -9 3 -21 4 -26 0 -16 -9 -10 -52 9 -64 16 -10 16 -11 -2 -8
-50 8 -42 88 9 88 18 0 25 5 25 20 0 11 2 20 5 20 3 0 5 -29 5 -65z m293 19
c31 1 32 -1 35 -41 2 -26 -1 -43 -7 -43 -6 0 -11 18 -11 40 0 22 -4 40 -8 40
-19 0 -41 -27 -45 -55 -2 -16 -4 2 -4 40 0 39 2 58 4 44 4 -23 9 -27 36 -25z
m565 -21 c2 -39 -1 -63 -8 -63 -6 0 -10 23 -10 55 0 41 -4 55 -14 55 -8 0 -18
5 -21 11 -5 7 3 9 21 7 28 -3 29 -5 32 -65z m292 25 c0 -41 0 -42 16 -20 8 12
20 22 26 22 6 0 3 -9 -7 -20 -18 -20 -18 -21 5 -45 29 -31 15 -33 -17 -3 l-23
21 0 -21 c0 -12 -4 -22 -10 -22 -6 0 -10 28 -10 65 0 37 4 65 10 65 6 0 10
-19 10 -42z m207 10 c-3 -7 -5 -2 -5 12 0 14 2 19 5 13 2 -7 2 -19 0 -25z m49
-5 c-11 -11 -19 6 -11 24 8 17 8 17 12 0 3 -10 2 -21 -1 -24z m614 17 c0 -11
-4 -20 -10 -20 -5 0 -10 9 -10 20 0 11 5 20 10 20 6 0 10 -9 10 -20z m37 -12
c-3 -7 -5 -2 -5 12 0 14 2 19 5 13 2 -7 2 -19 0 -25z m-5983 0 c8 -14 4 -24
-23 -52 l-34 -35 34 -4 34 -4 -37 -1 c-45 -2 -47 6 -13 38 32 30 30 66 -2 64
-13 -1 -23 3 -23 8 0 16 52 4 64 -14z m336 3 c0 -4 -10 -6 -23 -4 -28 6 -50
-18 -45 -49 2 -16 14 -27 38 -35 l35 -12 -31 0 c-16 -1 -35 4 -42 11 -18 18
-15 75 6 87 21 13 62 14 62 2z m2495 -14 c19 -4 18 -5 -2 -6 -28 -1 -37 -16
-29 -46 4 -14 15 -25 29 -28 16 -3 13 -5 -10 -6 -32 -1 -33 0 -33 39 0 31 -4
40 -17 41 -17 1 -17 2 0 6 9 2 17 9 17 15 0 7 4 7 13 0 6 -5 21 -12 32 -15z
m110 2 c17 -1 16 -2 -5 -8 -19 -5 -25 -13 -25 -36 0 -23 6 -31 25 -36 23 -6
22 -7 -7 -8 -32 -1 -33 0 -33 39 0 31 -4 40 -17 41 -17 1 -17 2 0 6 9 2 17 10
17 16 0 8 4 7 12 -1 7 -7 21 -12 33 -13z m1200 0 c17 -1 16 -2 -5 -8 -19 -5
-26 -15 -28 -38 -3 -28 0 -32 25 -36 27 -4 27 -4 -4 -6 -32 -1 -33 0 -33 39 0
31 -4 40 -17 41 -17 1 -17 2 0 6 9 2 17 10 17 16 0 8 4 7 12 -1 7 -7 21 -12
33 -13z m1279 -21 l26 -43 0 43 c0 23 5 42 10 42 6 0 10 -25 10 -55 0 -66 -17
-73 -46 -20 -10 19 -22 35 -26 35 -4 0 -9 -17 -11 -37 -3 -28 -4 -23 -5 20 -1
31 2 57 7 57 6 0 21 -19 35 -42z m326 32 c0 -5 10 -11 23 -11 l22 -2 -22 -4
c-19 -4 -23 -11 -23 -38 0 -27 5 -35 23 -38 15 -4 12 -5 -8 -4 -27 2 -30 6
-33 40 -2 20 -8 37 -13 37 -11 0 12 29 24 30 4 0 7 -4 7 -10z m-5202 -22 c15
-15 15 -51 0 -66 -18 -18 -56 -14 -68 7 -14 27 -13 37 6 55 18 19 45 21 62 4z
m110 0 c15 -15 15 -51 0 -66 -27 -27 -78 -7 -78 29 0 39 52 63 78 37z m85 5
c-30 -6 -29 -21 3 -33 16 -7 24 -16 22 -28 -4 -19 -45 -29 -60 -14 -6 6 -1 8
15 5 37 -7 44 16 8 28 -47 16 -41 50 8 48 24 -2 24 -2 4 -6z m125 -5 c22 -22
13 -38 -19 -38 -20 0 -29 -4 -26 -12 2 -7 16 -13 30 -13 15 1 27 -3 27 -7 0
-13 -55 -9 -68 4 -26 26 -7 78 28 78 9 0 21 -5 28 -12z m182 -20 l11 -33 19
35 c27 50 24 20 -4 -45 -14 -30 -31 -55 -37 -55 -10 0 -10 3 -1 12 16 16 15
53 -3 88 -9 17 -11 30 -6 30 5 0 14 -15 21 -32z m154 16 c19 -18 20 -28 6 -55
-20 -37 -80 -18 -80 26 0 42 44 59 74 29z m56 -64 c27 0 40 15 40 46 0 19 4
34 8 34 5 0 9 -19 9 -43 l1 -43 -39 -1 -39 -2 2 47 1 47 4 -42 c2 -24 8 -43
13 -43z m138 68 c-23 -8 -28 -16 -28 -44 0 -19 -4 -34 -10 -34 -5 0 -10 19
-10 43 0 43 0 43 38 44 36 0 36 0 10 -9z m352 -27 c0 -23 5 -41 13 -44 6 -2
-9 -5 -35 -5 -26 -1 -50 3 -54 9 -9 16 16 39 43 39 15 0 23 5 20 13 -2 6 -16
12 -30 12 -14 -1 -23 3 -21 7 3 4 18 8 35 8 27 0 29 -2 29 -39z m106 -11 l2
-45 -7 40 c-6 37 -10 41 -41 37 -5 -1 -10 -18 -10 -37 0 -19 -4 -35 -10 -35
-5 0 -10 20 -10 44 l0 44 38 -1 c37 -2 37 -2 38 -47z m114 -3 c0 -29 -5 -58
-12 -65 -14 -14 -44 -16 -52 -4 -3 5 4 8 16 8 32 -1 33 22 1 26 -22 2 -29 9
-31 31 -4 37 13 57 49 57 28 0 29 -1 29 -53z m58 -21 c6 1 17 2 22 3 6 0 10
17 10 36 0 19 5 35 10 35 6 0 10 -20 10 -43 l0 -44 -40 -1 -40 -2 1 48 2 47 6
-40 c3 -23 11 -40 19 -39z m160 34 c2 -19 9 -38 15 -42 7 -4 -12 -8 -40 -8
-37 0 -53 4 -53 13 0 19 21 37 42 37 10 0 18 7 18 16 0 12 -7 15 -25 12 -14
-3 -25 -1 -25 4 0 5 15 8 33 6 29 -3 32 -7 35 -38z m112 -15 c0 -28 -5 -56
-12 -63 -14 -14 -44 -16 -52 -4 -3 5 4 8 16 8 32 -1 33 22 1 26 -30 3 -39 23
-29 63 5 20 12 24 41 23 l35 -1 0 -52z m97 44 c18 -18 3 -39 -29 -39 -38 0
-32 -23 8 -31 l29 -7 -31 -1 c-32 -1 -44 12 -44 48 0 35 43 54 67 30z m196 4
c-30 -6 -29 -21 3 -33 16 -7 24 -16 22 -28 -4 -19 -45 -29 -59 -15 -6 6 2 8
21 5 40 -6 40 16 0 29 -46 16 -39 50 9 48 24 -2 24 -2 4 -6z m135 -20 c3 -20
-1 -23 -28 -23 -21 0 -30 -4 -27 -12 2 -7 16 -13 30 -13 15 1 27 -3 27 -7 0
-17 -59 -8 -70 11 -14 27 -13 37 6 56 23 22 58 15 62 -12z m311 -20 l-2 -48
-6 39 c-4 26 -13 42 -26 47 -17 7 -16 8 8 8 26 1 27 -1 26 -46z m129 0 c2 -26
-1 -43 -7 -43 -6 0 -11 18 -11 40 0 22 -4 40 -8 40 -19 0 -41 -27 -45 -55 -3
-22 -4 -18 -6 15 l-1 46 38 -1 c36 0 37 -1 40 -42z m112 -8 c0 -28 -5 -56 -12
-63 -14 -14 -44 -16 -52 -4 -3 5 4 8 16 8 32 -1 33 22 1 26 -30 3 -39 23 -29
63 5 20 12 24 41 23 l35 -1 0 -52z m85 48 c-35 -9 -37 -20 -6 -31 33 -12 38
-21 19 -40 -14 -14 -58 -16 -58 -3 0 4 11 6 25 3 15 -2 25 0 25 7 0 6 -11 17
-25 23 -14 6 -25 19 -25 30 0 14 7 18 33 17 21 -1 25 -3 12 -6z m345 -26 c0
-18 5 -38 11 -44 8 -8 -1 -11 -32 -11 -24 -1 -46 1 -51 4 -16 10 13 44 37 44
16 0 25 6 25 16 0 12 -7 15 -29 12 -17 -2 -28 -1 -25 4 3 4 18 8 35 8 26 0 29
-3 29 -33z m108 -15 l-1 -47 -4 43 c-2 23 -8 42 -13 42 -27 0 -40 -15 -40 -46
0 -19 -4 -34 -10 -34 -5 0 -10 19 -10 43 l0 43 40 1 40 2 -2 -47z m540 36 c23
-23 13 -38 -24 -38 -24 0 -34 -4 -31 -12 2 -7 18 -13 35 -13 16 0 28 -3 25 -7
-7 -12 -48 -9 -61 4 -26 26 -7 78 28 78 9 0 21 -5 28 -12z m120 -35 c2 -26 -1
-43 -7 -43 -6 0 -11 18 -11 40 0 61 -45 52 -53 -10 -3 -31 -4 -30 -5 10 l-2
46 38 -1 c36 0 37 -1 40 -42z m195 40 c-52 -10 -54 -59 -2 -75 19 -5 17 -6
-11 -5 -30 2 -35 6 -38 30 -4 36 14 57 47 56 22 -2 23 -2 4 -6z m215 -40 l-1
-48 -4 42 c-3 33 -8 43 -26 46 -18 4 -17 5 6 6 26 1 27 -1 25 -46z m132 38 c0
-5 -8 -7 -18 -4 -10 2 -25 -3 -32 -12 -17 -21 -3 -47 31 -56 22 -6 22 -7 -6
-8 -17 -1 -36 4 -43 11 -18 18 -15 55 6 67 21 13 62 14 62 2z m538 -3 c23 -23
13 -38 -24 -38 -24 0 -34 -4 -31 -12 2 -7 18 -13 35 -13 16 0 28 -3 25 -7 -7
-12 -48 -9 -61 4 -26 26 -7 78 28 78 9 0 21 -5 28 -12z m74 -4 c16 -16 18 -16
24 0 3 9 10 16 16 16 5 0 2 -10 -6 -21 -13 -19 -13 -24 1 -45 17 -27 3 -33
-18 -8 -11 14 -13 14 -21 0 -5 -9 -14 -16 -20 -16 -6 0 -3 9 7 20 17 18 17 21
1 45 -19 29 -11 33 16 9z m-5542 -64 c0 -5 -7 -10 -16 -10 -8 0 -12 5 -9 10 3
6 10 10 16 10 5 0 9 -4 9 -10z m3380 -2 c0 -7 -4 -19 -9 -26 -6 -11 -9 -9 -14
7 -2 11 -2 22 1 25 10 10 22 6 22 -6z m2400 2 c0 -5 -7 -10 -15 -10 -8 0 -15
5 -15 10 0 6 7 10 15 10 8 0 15 -4 15 -10z m-5442 -214 c2 -32 -2 -64 -7 -69
-8 -8 -11 8 -11 51 0 56 -2 62 -21 62 -12 0 -17 4 -14 11 4 5 17 9 28 7 19 -3
22 -10 25 -62z m292 16 c0 -36 0 -36 16 -14 8 12 22 22 31 22 14 0 13 -4 -5
-23 l-22 -23 25 -24 c14 -13 23 -26 20 -28 -3 -3 -19 7 -35 23 -28 27 -30 28
-30 7 0 -11 -4 -24 -10 -27 -6 -4 -10 20 -10 65 0 45 4 69 10 65 6 -3 10 -23
10 -43z m207 11 c-3 -10 -5 -4 -5 12 0 17 2 24 5 18 2 -7 2 -21 0 -30z m49 0
c-11 -11 -19 6 -11 24 8 17 8 17 12 0 3 -10 2 -21 -1 -24z m2351 0 c-3 -10 -5
-4 -5 12 0 17 2 24 5 18 2 -7 2 -21 0 -30z m53 17 c0 -11 -4 -20 -10 -20 -5 0
-10 9 -10 20 0 11 5 20 10 20 6 0 10 -9 10 -20z m-3381 1 c12 -8 13 -12 1 -26
-11 -13 -11 -20 0 -40 16 -30 0 -55 -36 -55 -30 0 -31 18 -2 22 31 4 36 38 7
45 l-23 6 22 8 c30 11 28 29 -4 29 -14 0 -23 4 -19 10 8 12 35 13 54 1z m336
-11 c3 -6 -4 -10 -18 -10 -55 0 -62 -58 -9 -76 33 -10 33 -24 1 -24 -43 0 -66
71 -33 104 17 18 50 21 59 6z m739 4 c18 -7 21 -39 5 -49 -7 -5 -2 -16 12 -31
33 -35 14 -43 -21 -9 -22 21 -31 25 -34 14 -2 -8 -7 -21 -9 -29 -3 -8 -6 13
-6 48 -1 65 7 74 53 56z m1871 -15 c17 -1 16 -2 -5 -8 -19 -5 -26 -14 -28 -39
-3 -29 0 -32 22 -32 14 0 26 -5 26 -11 0 -6 -12 -9 -27 -7 -24 3 -28 8 -31 38
-2 19 -10 41 -19 48 -16 11 -15 12 0 12 9 0 17 5 17 12 0 9 3 9 12 0 7 -7 21
-12 33 -13z m-2417 -51 l-1 -53 -6 44 c-4 31 -12 46 -26 52 -17 7 -16 8 8 8
26 1 27 0 25 -51z m126 44 c3 -5 -4 -8 -16 -8 -11 1 -25 -6 -31 -15 -15 -24
-1 -49 28 -49 15 0 24 -4 20 -10 -17 -28 -75 3 -75 40 0 35 58 68 74 42z m544
-4 c23 -23 13 -38 -24 -38 -42 0 -43 -23 -1 -28 15 -2 27 -8 27 -13 0 -15 -37
-10 -54 7 -30 29 -14 84 24 84 9 0 21 -5 28 -12z m110 -1 c8 -10 8 -24 1 -51
-9 -33 -13 -37 -34 -32 -19 5 -24 2 -28 -16 -2 -13 -5 6 -6 42 -1 66 -1 66 28
68 16 1 33 -4 39 -11z m112 -27 c0 -22 5 -40 10 -40 6 0 10 -4 10 -8 0 -4 -18
-8 -41 -9 -43 -2 -62 18 -40 40 9 9 11 8 5 -6 -6 -15 -3 -18 17 -15 19 2 24 9
24 33 0 27 -3 30 -28 27 -18 -2 -26 1 -22 7 3 6 19 11 36 11 27 0 29 -2 29
-40z m95 -5 c0 -58 -9 -67 -15 -15 -3 25 -10 45 -17 45 -6 0 -15 4 -20 8 -4 5
6 7 22 5 28 -3 30 -6 30 -43z m75 -5 c0 -27 -4 -50 -10 -50 -5 0 -10 23 -10
50 0 28 5 50 10 50 6 0 10 -22 10 -50z m50 42 c0 -4 -9 -8 -19 -8 -11 0 -17 4
-15 8 3 4 12 8 20 8 8 0 14 -4 14 -8z m170 -22 c0 -10 7 -23 16 -28 12 -7 14
-14 7 -26 -8 -15 -12 -10 -26 26 -20 50 -21 62 -7 53 6 -3 10 -15 10 -25z m48
5 c-6 -14 -13 -24 -14 -22 -6 6 9 47 17 47 5 0 3 -11 -3 -25z m106 9 c9 -8 16
-24 16 -34 0 -22 -25 -50 -45 -50 -20 0 -45 28 -45 50 0 22 25 50 45 50 7 0
21 -7 29 -16z m71 -59 c16 0 21 8 23 38 5 56 22 45 22 -14 0 -42 -3 -49 -13
-40 -10 8 -17 7 -25 -1 -23 -23 -42 -1 -41 49 l2 48 6 -40 c5 -31 10 -40 26
-40z m155 64 c0 -6 -6 -9 -14 -6 -23 9 -45 -15 -49 -53 -3 -28 -4 -25 -5 15
l-2 50 35 2 c20 2 35 -2 35 -8z m216 0 c4 -7 0 -9 -14 -5 -19 6 -52 -15 -52
-33 0 -13 24 -31 43 -31 10 0 15 -4 12 -10 -17 -27 -65 6 -65 44 0 12 5 27 12
34 15 15 55 16 64 1z m107 -10 c13 -21 2 -65 -19 -73 -41 -16 -74 50 -42 82
16 16 48 11 61 -9z m115 -33 l-1 -51 -6 45 c-7 53 -25 59 -29 10 -5 -54 -22
-61 -22 -10 0 51 -16 44 -23 -10 -3 -28 -4 -25 -5 15 l-2 50 45 2 45 1 -2 -52z
m100 22 c5 -38 -15 -71 -39 -65 -14 4 -19 0 -19 -14 0 -10 -4 -19 -10 -19 -6
0 -10 28 -10 64 l0 64 38 -1 c32 -2 37 -5 40 -29z m52 -8 c0 -61 45 -52 53 10
3 25 4 20 5 -20 1 -36 -1 -50 -7 -41 -8 12 -12 12 -25 2 -28 -23 -46 -6 -46
44 0 25 5 45 10 45 6 0 10 -18 10 -40z m268 28 c21 -21 13 -38 -18 -38 -20 0
-30 -5 -30 -15 0 -10 10 -15 31 -15 17 0 28 -4 24 -10 -17 -28 -75 3 -75 40 0
21 25 50 44 50 6 0 17 -5 24 -12z m122 1 c0 -5 -4 -7 -10 -4 -21 13 -49 -15
-53 -53 -3 -32 -4 -30 -5 13 l-2 50 35 2 c20 2 35 -2 35 -8z m-3080 -74 c0 -8
-4 -15 -9 -15 -13 0 -22 16 -14 24 11 11 23 6 23 -9z m3160 0 c0 -8 -4 -15
-10 -15 -5 0 -10 7 -10 15 0 8 5 15 10 15 6 0 10 -7 10 -15z m-1430 -35 c0 -5
-8 -10 -17 -10 -15 0 -16 2 -3 10 19 12 20 12 20 0z m-1925 -397 c-31 -7 -42
-23 -18 -23 12 0 25 -4 28 -10 4 -6 -5 -10 -19 -10 -24 0 -26 -4 -28 -42 l-1
-43 -4 43 c-3 31 -8 42 -21 42 -16 1 -16 2 1 14 9 7 17 18 17 25 0 6 14 10 33
10 21 -1 25 -3 12 -6z m655 -57 c0 -63 0 -64 -27 -64 -36 0 -53 14 -53 44 0
30 27 56 51 49 14 -5 19 -1 19 14 0 12 2 21 5 21 3 0 5 -29 5 -64z m709 14 c4
0 12 5 19 12 19 19 42 -9 42 -53 0 -22 -4 -39 -10 -39 -5 0 -10 18 -10 40 0
61 -45 52 -53 -10 -2 -19 -4 -3 -4 35 0 39 2 58 4 43 2 -16 8 -28 12 -28z
m651 24 c0 -21 3 -24 14 -15 26 22 46 2 46 -45 0 -24 -4 -44 -10 -44 -5 0 -10
18 -10 41 0 33 -3 40 -17 37 -13 -2 -19 -14 -21 -41 -5 -62 -22 -41 -22 28 0
37 4 65 10 65 6 0 10 -12 10 -26z m497 -39 c-1 -67 -20 -89 -21 -24 -1 27 -5
34 -21 34 -27 0 -33 -42 -8 -61 17 -14 17 -15 -2 -12 -24 4 -32 46 -15 78 8
15 17 19 31 15 15 -5 19 -2 19 14 0 12 4 21 9 21 5 0 9 -29 8 -65z m2943 1 l0
-64 -31 1 c-41 2 -57 26 -43 64 7 20 16 28 32 27 15 0 22 5 22 18 0 10 5 18
10 18 6 0 10 -28 10 -64z m-5582 33 c-12 -6 -18 -22 -18 -44 0 -22 6 -38 18
-44 13 -8 9 -10 -23 -10 -32 0 -36 2 -22 10 11 7 17 22 17 49 0 28 -5 40 -17
43 -10 3 0 5 22 6 32 0 36 -2 23 -10z m1338 -10 c3 -5 -6 -9 -20 -9 -23 0 -26
-4 -26 -34 0 -30 4 -35 28 -39 25 -4 25 -4 -5 -6 -32 -1 -33 0 -33 39 0 29 -4
40 -15 40 -21 0 -19 18 3 22 23 5 61 -2 68 -13z m760 0 c3 -5 -7 -9 -21 -9
-24 0 -26 -3 -23 -32 2 -24 9 -34 28 -40 23 -6 23 -7 -5 -5 -27 2 -30 6 -33
40 -2 27 -8 37 -20 37 -16 1 -16 2 1 14 18 14 63 10 73 -5z m1524 0 c0 -5 -9
-9 -20 -9 -16 0 -20 -7 -20 -34 0 -30 4 -35 28 -39 25 -4 25 -4 -5 -6 -32 -1
-33 0 -33 39 0 29 -4 40 -15 40 -21 0 -19 18 3 22 24 5 62 -3 62 -13z m290 12
c0 -5 9 -7 20 -4 11 3 20 0 20 -6 0 -6 -9 -11 -20 -11 -16 0 -20 -7 -20 -34 0
-28 4 -36 23 -39 15 -4 12 -5 -8 -4 -27 2 -30 6 -33 40 -2 27 -8 37 -20 37
-15 1 -15 2 2 15 23 17 36 19 36 6z m1090 0 c0 -5 9 -7 20 -4 11 3 20 0 20 -6
0 -6 -9 -11 -20 -11 -16 0 -20 -7 -20 -34 0 -28 4 -36 23 -39 15 -4 12 -5 -8
-4 -27 2 -30 6 -33 37 -2 19 -9 38 -15 42 -9 6 -8 11 3 18 19 12 30 13 30 1z
m1226 -1 c8 0 14 -4 14 -10 0 -5 -9 -10 -20 -10 -16 0 -20 -7 -20 -34 0 -28 4
-36 23 -39 15 -4 12 -5 -8 -4 -27 2 -30 6 -33 40 -2 27 -8 37 -20 37 -15 1
-14 3 3 16 11 8 26 12 33 9 8 -3 20 -5 28 -5z m319 -4 c7 3 16 1 20 -5 4 -7
-4 -11 -20 -11 -24 0 -26 -3 -23 -32 2 -25 9 -34 28 -39 23 -6 22 -7 -7 -8
-32 -1 -33 0 -33 39 0 31 -4 40 -17 40 -16 1 -16 2 1 15 12 9 24 11 29 6 5 -5
15 -7 22 -5z m1331 -7 c3 -5 -7 -9 -21 -9 -24 0 -26 -3 -23 -32 2 -25 9 -34
28 -39 23 -6 22 -7 -7 -8 -32 -1 -33 0 -33 39 0 31 -4 40 -17 40 -15 0 -15 1
1 13 19 14 62 11 72 -4z m-7579 -26 l15 -37 14 33 c8 19 16 32 19 29 8 -7 -41
-122 -54 -126 -6 -2 -11 1 -11 6 0 6 5 12 12 14 11 4 3 52 -17 101 -4 9 -4 17
-1 17 4 0 14 -17 23 -37z m144 27 c13 -8 19 -21 19 -45 0 -29 -4 -36 -25 -41
-48 -12 -75 44 -39 80 18 19 20 19 45 6z m80 -77 c10 3 17 1 13 -4 -3 -5 -14
-9 -25 -9 -17 0 -19 7 -17 53 l2 52 3 -49 c4 -42 7 -47 24 -43z m36 10 c-2
-16 -4 -3 -4 27 0 30 2 43 4 28 2 -16 2 -40 0 -55z m335 55 c13 -21 9 -54 -7
-68 -23 -19 -64 -4 -71 26 -12 47 52 82 78 42z m218 -34 c0 -24 -4 -44 -10
-44 -5 0 -10 18 -10 41 0 33 -3 40 -17 37 -13 -2 -19 -14 -21 -41 -5 -53 -22
-46 -22 9 0 34 3 45 13 41 8 -3 20 -1 27 3 25 16 40 -1 40 -46z m115 25 c10
-30 -4 -58 -31 -65 -46 -12 -74 45 -40 79 19 19 64 10 71 -14z m423 -9 c2 -19
8 -40 12 -45 6 -7 -6 -11 -36 -13 -41 -1 -45 0 -42 20 2 12 10 23 18 26 12 4
13 2 3 -9 -19 -20 -16 -31 9 -27 18 2 23 10 25 37 3 32 2 33 -27 29 -24 -4
-27 -2 -18 9 6 8 21 13 32 11 16 -2 22 -11 24 -38z m113 13 c-12 -20 -14 -14
-5 12 4 9 9 14 11 11 3 -2 0 -13 -6 -23z m97 15 c7 -7 12 -20 12 -30 0 -13 -8
-18 -31 -18 -20 0 -29 -4 -26 -12 2 -7 16 -13 30 -13 15 1 27 -3 27 -7 0 -14
-48 -8 -64 8 -21 21 -20 40 4 64 23 23 31 25 48 8z m428 -43 c1 -39 0 -41 -3
-11 -3 27 -10 40 -24 43 -23 6 -14 25 9 21 13 -2 17 -15 18 -53z m114 45 c12
-8 9 -10 -12 -10 -37 0 -36 -15 2 -29 32 -11 37 -20 18 -39 -14 -14 -58 -16
-58 -3 0 4 11 6 25 3 18 -3 25 0 25 11 0 8 -11 18 -25 21 -15 4 -25 14 -25 25
0 31 21 40 50 21z m328 -42 c2 -29 -1 -48 -7 -48 -6 0 -11 18 -11 40 0 29 -4
40 -15 40 -8 0 -15 5 -15 11 0 6 10 9 23 7 19 -3 22 -10 25 -50z m112 42 c0
-5 -9 -10 -20 -10 -29 0 -25 -18 6 -26 18 -5 24 -12 22 -28 -3 -23 -43 -35
-60 -18 -6 6 -1 8 15 5 37 -7 42 14 7 32 -33 17 -36 25 -18 43 15 15 48 16 48
2z m115 0 c3 -5 -3 -10 -13 -10 -51 0 -51 -57 -1 -71 24 -7 24 -7 -3 -8 -53
-2 -77 54 -36 83 26 18 44 20 53 6z m332 -5 c2 -6 -9 -11 -24 -10 -23 0 -28
-4 -28 -25 0 -16 8 -29 25 -37 24 -12 24 -13 3 -13 -46 0 -69 53 -37 85 18 17
55 17 61 0z m107 -1 c9 -8 16 -24 16 -34 0 -39 -52 -64 -78 -38 -26 26 -3 88
33 88 7 0 21 -7 29 -16z m69 4 c27 23 47 4 47 -44 0 -24 -4 -44 -10 -44 -5 0
-10 18 -10 40 0 61 -45 52 -53 -10 -3 -25 -4 -20 -5 20 -1 36 1 50 7 41 8 -12
13 -12 24 -3z m252 0 c2 -7 6 -25 9 -40 3 -15 7 -31 10 -36 2 -4 -16 -9 -40
-10 -41 -1 -45 0 -42 20 2 12 10 24 18 26 13 5 13 3 1 -11 -11 -14 -11 -18 4
-23 23 -9 45 14 25 26 -10 7 -11 10 -2 10 6 0 12 7 12 15 0 9 -10 15 -26 15
-14 0 -23 4 -19 10 9 14 45 12 50 -2z m110 2 c3 -5 -3 -10 -13 -10 -51 0 -51
-57 -1 -71 l24 -7 -25 -1 c-32 -1 -50 16 -50 45 0 38 48 71 65 44z m439 -6
c30 -30 14 -84 -25 -84 -23 0 -49 27 -49 50 0 22 25 50 45 50 7 0 21 -7 29
-16z m226 -6 c0 -5 -5 -6 -10 -3 -24 15 -49 -6 -53 -43 -3 -34 -4 -33 -5 10
-2 37 1 46 12 42 8 -3 17 -1 20 5 8 12 36 3 36 -11z m205 12 c4 -6 -5 -10 -19
-10 -35 0 -33 -16 4 -29 32 -11 37 -20 18 -39 -14 -14 -58 -16 -58 -3 0 4 11
6 25 3 18 -3 25 0 25 11 0 8 -11 18 -25 21 -24 6 -34 34 -18 49 10 10 41 8 48
-3z m72 -27 l15 -37 14 33 c8 19 16 32 19 29 8 -7 -41 -122 -54 -126 -6 -2
-11 1 -11 6 0 6 5 12 12 14 11 4 4 44 -19 104 -12 32 9 11 24 -23z m148 27 c4
-6 -5 -10 -19 -10 -33 0 -34 -18 0 -26 36 -9 30 -48 -8 -52 -16 -2 -28 1 -28
6 0 5 11 7 25 4 15 -2 25 0 25 7 0 6 -11 17 -25 23 -24 11 -33 37 -18 51 10
10 41 8 48 -3z m225 -32 c0 -15 -5 -19 -19 -15 -10 2 -24 1 -31 -3 -20 -12 0
-32 26 -27 13 2 24 0 24 -4 0 -5 -11 -9 -24 -9 -60 0 -78 80 -21 92 26 6 45
-9 45 -34z m116 -14 c1 -45 1 -46 -3 -6 -6 57 -33 59 -33 2 0 -22 -4 -40 -10
-40 -5 0 -10 18 -10 41 0 24 -4 38 -10 34 -5 -3 -10 -22 -10 -41 0 -19 -4 -34
-10 -34 -5 0 -10 20 -10 44 0 44 0 45 38 49 56 5 57 4 58 -49z m198 50 c11 -4
16 -19 16 -44 0 -22 5 -40 13 -43 6 -2 -9 -5 -35 -5 -52 -1 -69 12 -45 36 15
14 15 13 10 -6 -4 -15 -1 -22 10 -22 19 0 32 19 32 45 0 15 -7 20 -28 20 -28
-1 -36 10 -14 18 18 8 23 8 41 1z m234 -8 c14 -9 16 -86 2 -86 -5 0 -10 18
-10 41 0 53 -23 48 -31 -7 l-6 -39 -2 43 c0 23 -5 42 -11 42 -5 0 -10 -3 -11
-7 -3 -30 -11 -68 -15 -72 -2 -2 -4 18 -4 45 l0 49 38 -1 c21 0 44 -4 50 -8z
m90 -38 c2 -29 -1 -48 -7 -48 -6 0 -11 18 -11 40 0 29 -4 40 -15 40 -8 0 -15
4 -15 9 0 4 10 8 23 7 19 -1 22 -7 25 -48z m87 42 c26 21 43 -6 34 -55 l-6
-40 -2 43 c-1 41 -11 51 -38 34 -6 -4 -13 -23 -16 -42 -3 -25 -4 -20 -5 20 -1
36 1 50 7 41 8 -12 12 -13 26 -1z m133 -42 c2 -29 -1 -48 -7 -48 -6 0 -11 18
-11 40 0 29 -4 40 -15 40 -8 0 -15 5 -15 11 0 6 10 9 23 7 19 -3 22 -10 25
-50z m112 42 c0 -5 -9 -10 -20 -10 -29 0 -25 -18 6 -26 18 -5 24 -12 22 -28
-3 -24 -43 -35 -62 -16 -8 9 -4 10 15 5 39 -10 45 11 9 30 -33 17 -36 25 -18
43 15 15 48 16 48 2z m230 -1 c0 -4 -11 -10 -25 -13 -21 -5 -25 -12 -25 -41 0
-19 -4 -35 -10 -35 -5 0 -10 21 -10 46 0 36 3 45 15 41 8 -4 17 -3 19 2 6 10
36 10 36 0z m108 -34 c2 -22 8 -43 14 -46 5 -4 -11 -7 -36 -7 -25 -1 -48 3
-52 9 -7 12 14 39 30 38 7 0 6 -2 -1 -6 -17 -6 -16 -33 1 -33 18 0 31 20 31
45 0 15 -7 20 -28 20 -28 -1 -36 9 -14 19 34 14 52 1 55 -39z m224 23 c29 -46
-32 -104 -70 -66 -17 17 -15 54 3 72 17 17 54 13 67 -6z m72 11 c16 13 36 7
36 -10 0 -6 -5 -7 -10 -4 -24 15 -49 -6 -53 -43 -3 -28 -4 -24 -5 18 -1 36 1
50 7 41 8 -12 12 -12 25 -2z m237 1 c13 -8 19 -21 19 -45 0 -29 -4 -36 -25
-41 -48 -12 -75 44 -39 80 18 19 20 19 45 6z m92 -1 c9 7 18 8 21 3 3 -6 -5
-13 -19 -16 -21 -5 -25 -13 -27 -44 -1 -37 -1 -37 -7 8 -7 49 -3 70 9 49 7
-10 12 -10 23 0z m242 1 c3 -5 -3 -10 -13 -10 -51 0 -51 -57 -1 -71 24 -7 24
-7 -3 -8 -29 -1 -58 22 -58 45 0 33 60 68 75 44z m109 -6 c36 -35 9 -92 -38
-80 -32 8 -42 40 -22 71 19 29 38 32 60 9z m126 -40 c0 -24 -4 -44 -10 -44 -5
0 -10 18 -10 41 0 53 -23 48 -31 -7 l-6 -39 -2 43 c-1 51 -21 48 -21 -4 0 -19
-4 -34 -10 -34 -5 0 -10 20 -10 44 0 44 0 45 38 48 56 5 62 0 62 -48z m94 34
c16 -26 -4 -73 -32 -72 -17 0 -22 -5 -22 -23 0 -13 -4 -23 -10 -23 -6 0 -10
28 -10 64 0 53 3 65 18 69 28 8 44 3 56 -15z m56 -29 c0 -42 0 -42 24 -33 10
4 16 18 16 40 0 19 5 34 10 34 6 0 10 -20 10 -44 l0 -43 -37 1 -38 1 -3 48
c-2 33 0 47 7 42 6 -3 11 -24 11 -46z m278 12 c-2 -10 -17 -18 -37 -21 -31 -4
-32 -6 -18 -19 9 -7 26 -11 37 -8 11 3 18 1 14 -4 -8 -13 -48 -11 -62 3 -17
17 -15 54 3 72 13 12 21 13 41 4 14 -7 23 -18 22 -27z m76 28 c16 13 36 7 36
-10 0 -6 -5 -7 -10 -4 -24 15 -49 -6 -53 -43 -3 -28 -4 -24 -5 18 -1 36 1 50
7 41 8 -12 12 -12 25 -2z m-6339 -29 c4 -16 11 -32 16 -35 12 -8 12 -25 -1
-25 -9 0 -40 62 -40 81 0 22 19 6 25 -21z m2399 5 c8 -31 19 -32 35 -2 14 28
11 15 -13 -51 -11 -29 -26 -52 -33 -52 -18 0 -16 10 4 25 17 12 17 15 0 49
-19 41 -21 56 -8 56 5 0 12 -11 15 -25z m206 -15 c0 -43 0 -43 24 -34 10 4 16
18 16 40 0 19 5 34 10 34 6 0 10 -20 10 -44 l0 -44 -37 1 c-37 2 -38 3 -41 45
-2 25 1 42 7 42 6 0 11 -18 11 -40z m-1280 -49 c0 -29 -15 -33 -16 -5 -1 13 2
24 7 24 5 0 9 -9 9 -19z m-2580 -151 c0 -5 -9 -10 -20 -10 -28 0 -25 -20 3
-21 l22 -2 -22 -4 c-19 -4 -23 -11 -23 -44 0 -21 -4 -39 -10 -39 -5 0 -10 18
-10 40 0 25 -5 40 -12 40 -9 0 -9 3 -2 8 6 4 13 15 17 25 7 18 57 25 57 7z
m980 0 c0 -5 -9 -10 -20 -10 -31 0 -24 -20 8 -21 l27 -2 -27 -4 c-25 -4 -28
-8 -28 -44 0 -21 -4 -39 -10 -39 -5 0 -10 18 -10 40 0 25 -5 40 -12 40 -9 0
-9 3 -2 8 6 4 13 15 17 25 7 18 57 25 57 7z m-690 -20 c0 -5 10 -11 23 -11
l22 -2 -22 -4 c-19 -4 -23 -11 -23 -38 0 -27 4 -34 23 -38 16 -3 13 -5 -10 -6
-32 -1 -33 0 -33 39 0 31 -4 40 -17 41 -17 1 -17 2 0 6 9 2 17 9 17 14 0 5 5
9 10 9 6 0 10 -4 10 -10z m1660 -13 c25 -4 25 -4 -2 -6 -25 -1 -28 -5 -28 -35
0 -30 4 -35 28 -39 25 -4 25 -4 -5 -6 -31 -1 -33 1 -33 34 0 23 -6 38 -15 41
-14 6 -13 8 2 19 10 7 20 10 23 5 3 -4 16 -10 30 -13z m-2382 -44 c2 -26 -1
-43 -7 -43 -6 0 -11 18 -11 40 0 43 -16 55 -24 18 -3 -13 -7 -32 -9 -43 -3
-11 -5 -1 -6 23 -1 51 -21 48 -21 -4 0 -19 -4 -34 -10 -34 -5 0 -10 20 -10 45
l0 45 48 -2 47 -3 3 -42z m100 7 c2 -19 8 -38 14 -41 5 -4 -13 -7 -41 -7 -35
-1 -51 2 -51 11 0 19 21 37 42 37 10 0 18 7 18 16 0 12 -7 15 -25 12 -14 -3
-25 -1 -25 4 0 5 15 8 33 6 29 -3 32 -7 35 -38z m110 -7 c2 -26 -1 -43 -7 -43
-6 0 -11 18 -11 40 0 63 -43 50 -53 -15 -3 -23 -4 -19 -6 15 l-1 46 38 -1 c36
0 37 -1 40 -42z m52 -33 c27 0 40 15 40 46 0 19 5 34 10 34 6 0 10 -20 10 -43
l0 -44 -40 -1 -40 -2 2 48 1 47 4 -42 c2 -24 8 -43 13 -43z m270 47 c0 -18 5
-38 11 -44 7 -7 -3 -11 -36 -11 -42 -1 -46 1 -43 21 2 16 11 23 31 25 16 2 27
9 27 19 0 11 -8 14 -29 11 -17 -2 -28 -1 -25 4 3 4 18 8 35 8 26 0 29 -3 29
-33z m110 24 c0 -5 -8 -7 -18 -4 -10 2 -25 -3 -32 -12 -17 -21 -3 -47 31 -56
24 -7 24 -7 -3 -8 -28 -1 -58 21 -58 44 0 21 29 45 56 45 13 0 24 -4 24 -9z
m160 -31 c0 -61 45 -52 53 10 3 31 4 30 5 -10 l2 -46 -37 1 c-37 0 -38 1 -41
43 -2 25 1 42 7 42 6 0 11 -18 11 -40z m170 29 c0 -6 -4 -8 -9 -5 -21 13 -41
-7 -41 -40 0 -19 -4 -34 -10 -34 -5 0 -10 20 -10 43 0 43 1 44 35 45 19 1 35
-3 35 -9z m104 -5 c11 -28 6 -34 -25 -34 -20 0 -29 -4 -26 -12 2 -7 16 -13 30
-13 15 1 27 -3 27 -7 0 -13 -55 -9 -68 4 -28 28 -7 78 34 78 12 0 25 -7 28
-16z m116 7 c0 -5 -8 -7 -18 -4 -23 6 -39 -13 -45 -52 -3 -23 -4 -19 -5 15 -2
45 -2 45 33 47 19 2 35 -1 35 -6z m318 0 c8 -5 12 -22 10 -42 -2 -27 -8 -35
-26 -37 -29 -4 -52 14 -52 42 0 39 36 58 68 37z m90 -3 c-23 -8 -28 -16 -28
-44 0 -19 -4 -34 -10 -34 -5 0 -10 19 -10 43 0 43 0 43 38 44 36 0 36 0 10 -9z
m242 -27 c0 -23 5 -41 13 -44 6 -2 -9 -5 -35 -5 -26 -1 -50 3 -54 9 -9 15 16
39 42 39 15 0 24 6 24 16 0 12 -7 15 -29 12 -17 -2 -28 -1 -25 4 3 4 18 8 35
8 27 0 29 -2 29 -39z m83 32 c-30 -6 -29 -21 3 -33 16 -7 24 -16 22 -28 -4
-19 -45 -29 -60 -14 -6 6 -1 8 15 5 37 -7 44 16 8 28 -47 16 -41 50 8 48 24
-2 24 -2 4 -6z m110 0 c-30 -6 -29 -21 3 -33 37 -14 28 -44 -14 -48 -17 -2
-32 1 -32 6 0 5 11 7 24 5 37 -7 42 16 7 28 -47 16 -41 50 8 48 24 -2 24 -2 4
-6z m116 -40 l-2 -48 -6 39 c-4 26 -13 42 -26 47 -17 7 -16 8 8 8 26 1 27 -1
26 -46z m106 40 c-35 -9 -37 -20 -6 -31 33 -12 38 -21 19 -40 -14 -14 -58 -16
-58 -3 0 4 11 6 25 3 15 -2 25 0 25 7 0 6 -11 17 -25 23 -14 6 -25 19 -25 30
0 14 7 18 33 17 21 -1 25 -3 12 -6z m246 -40 l5 -43 -43 0 c-29 0 -43 4 -43
13 0 19 21 37 42 37 10 0 18 7 18 16 0 12 -7 15 -25 12 -14 -3 -25 -1 -25 4 0
5 15 8 33 6 30 -3 32 -6 38 -45z m104 0 c0 -24 -3 -43 -7 -43 -5 0 -8 18 -8
40 0 61 -45 52 -53 -10 -3 -31 -4 -30 -5 10 l-2 46 38 -1 c37 0 37 0 37 -42z
m105 38 c0 -5 -8 -7 -18 -4 -10 2 -25 -3 -32 -12 -17 -21 -3 -47 31 -57 19 -5
17 -6 -11 -5 -30 2 -35 6 -38 30 -2 16 2 35 9 43 13 15 59 20 59 5z m108 -18
c3 -20 -1 -23 -28 -23 -40 0 -36 -22 6 -32 28 -6 28 -6 -5 -5 -29 2 -36 7 -42
30 -5 19 -3 32 8 43 22 22 57 14 61 -13z m87 -53 c3 -5 -1 -10 -9 -10 -9 0
-16 5 -16 10 0 6 4 10 9 10 6 0 13 -4 16 -10z m-1606 -1012 c21 -36 5 -82 -29
-86 -42 -6 -65 51 -39 99 14 27 50 21 68 -13z m327 6 c20 -29 11 -69 -18 -88
-23 -14 -50 2 -62 37 -11 31 15 77 44 77 11 0 27 -12 36 -26z m102 14 c7 -7
12 -28 12 -48 0 -20 -5 -41 -12 -48 -28 -28 -78 -1 -78 41 0 50 49 84 78 55z
m116 -20 c21 -60 -28 -112 -68 -73 -20 21 -21 54 0 83 21 31 56 25 68 -10z
m110 0 c14 -40 -3 -82 -34 -86 -45 -7 -68 62 -33 100 23 26 56 19 67 -14z
m110 0 c14 -40 -3 -82 -34 -86 -42 -6 -65 51 -39 99 16 30 61 22 73 -13z m100
16 c33 -32 13 -104 -29 -104 -26 0 -45 25 -45 60 0 53 41 77 74 44z m-1750 -3
c3 -4 -5 -6 -18 -4 -36 7 -41 -14 -7 -32 38 -19 46 -32 31 -50 -13 -16 -70
-21 -70 -7 0 4 12 8 27 7 34 0 42 22 9 31 -26 6 -42 35 -31 54 8 12 52 13 59
1z m86 -1 c0 -5 10 -11 23 -11 l22 -2 -22 -4 c-19 -4 -23 -11 -23 -38 0 -27 5
-35 23 -38 15 -4 12 -5 -8 -4 -27 2 -30 6 -33 40 -2 20 -8 37 -13 37 -11 0 12
29 24 30 4 0 7 -4 7 -10z m220 0 c0 -5 10 -11 23 -11 l22 -2 -22 -4 c-19 -4
-23 -11 -23 -38 0 -27 5 -35 23 -38 15 -4 12 -5 -8 -4 -27 2 -30 6 -33 40 -2
26 -8 37 -20 38 -15 1 -15 2 1 6 9 2 17 9 17 14 0 5 5 9 10 9 6 0 10 -4 10
-10z m638 -21 l13 -20 19 23 c22 26 27 13 5 -16 -12 -16 -12 -21 0 -40 23 -32
18 -42 -9 -17 -20 19 -24 20 -29 7 -4 -9 -12 -16 -18 -16 -7 0 -6 8 4 23 13
20 13 26 1 42 -8 10 -14 22 -14 27 0 15 15 8 28 -13z m153 5 c11 -13 9 -14
-12 -9 -56 14 -63 -50 -8 -67 19 -5 17 -6 -11 -5 -32 2 -35 5 -38 37 -5 50 40
79 69 44z m750 6 c10 -6 19 -20 19 -30 0 -16 -7 -20 -31 -20 -20 0 -29 -4 -26
-12 2 -7 16 -13 30 -13 15 1 27 -3 27 -7 0 -16 -68 -8 -74 8 -10 27 -7 52 10
68 18 19 20 19 45 6z m-1621 -39 c0 -22 5 -41 13 -44 6 -2 -8 -5 -32 -5 -25 0
-48 1 -53 4 -16 10 13 44 37 44 16 0 25 6 25 16 0 12 -7 15 -29 12 -17 -2 -28
-1 -25 4 3 4 18 8 35 8 27 0 29 -2 29 -39z m160 -1 c0 -61 45 -52 53 10 3 31
4 30 5 -10 l2 -46 -37 1 c-37 0 -38 1 -41 43 -2 25 1 42 7 42 6 0 11 -18 11
-40z m143 33 c-30 -6 -29 -21 3 -33 16 -7 24 -16 22 -28 -4 -19 -45 -29 -60
-14 -6 6 -1 8 15 5 37 -7 44 16 8 28 -47 16 -41 50 8 48 24 -2 24 -2 4 -6z
m107 -3 c0 -5 -4 -10 -10 -10 -5 0 -10 5 -10 10 0 6 5 10 10 10 6 0 10 -4 10
-10z m0 -70 c0 -5 -4 -10 -10 -10 -5 0 -10 5 -10 10 0 6 5 10 10 10 6 0 10 -4
10 -10z m80 -448 c0 -13 8 -18 28 -17 25 0 27 -3 30 -47 2 -29 -1 -48 -7 -48
-6 0 -11 18 -11 41 0 33 -3 40 -17 37 -13 -2 -19 -14 -21 -41 -6 -65 -22 -40
-22 34 0 44 4 68 10 64 6 -3 10 -14 10 -23z m340 -20 c37 23 64 -27 40 -73 -8
-13 -20 -19 -40 -17 l-30 2 2 71 c0 38 3 56 5 38 4 -29 6 -31 23 -21z m790
-22 c0 -40 -4 -70 -10 -70 -6 0 -10 27 -10 60 0 47 -3 60 -15 60 -8 0 -15 5
-15 10 0 6 11 10 25 10 24 0 25 -2 25 -70z m440 60 c0 -5 -4 -10 -10 -10 -5 0
-10 5 -10 10 0 6 5 10 10 10 6 0 10 -4 10 -10z m460 0 c0 -5 -9 -10 -20 -10
-11 0 -20 -4 -20 -10 0 -5 9 -10 20 -10 11 0 20 -4 20 -10 0 -5 -9 -10 -20
-10 -17 0 -20 -7 -20 -40 0 -22 -4 -40 -10 -40 -5 0 -10 18 -10 40 0 29 -4 40
-15 40 -8 0 -15 5 -15 10 0 6 6 10 14 10 7 0 16 9 19 20 3 14 14 20 31 20 14
0 26 -4 26 -10z m190 0 c0 -5 -5 -10 -11 -10 -5 0 -7 5 -4 10 3 6 8 10 11 10
2 0 4 -4 4 -10z m110 -60 c0 -40 -4 -70 -10 -70 -6 0 -10 27 -10 60 0 47 -3
60 -15 60 -8 0 -15 5 -15 10 0 6 11 10 25 10 24 0 25 -2 25 -70z m240 -4 l0
-63 -37 1 c-32 1 -39 5 -41 25 -2 12 -1 34 3 48 5 20 11 24 30 20 21 -3 25 0
25 20 0 14 4 21 10 18 6 -3 10 -35 10 -69z m170 26 c37 23 64 -27 40 -72 -7
-14 -20 -19 -45 -18 l-35 1 0 62 c0 65 13 98 18 46 3 -27 5 -29 22 -19z m1550
38 c0 -5 -5 -10 -11 -10 -5 0 -7 5 -4 10 3 6 8 10 11 10 2 0 4 -4 4 -10z m350
-64 l0 -63 -37 1 c-32 1 -39 5 -41 25 -2 12 -1 34 3 48 5 20 11 24 30 20 21
-3 25 0 25 20 0 14 4 21 10 18 6 -3 10 -35 10 -69z m220 0 l0 -63 -36 1 c-46
1 -62 23 -48 63 7 22 16 28 37 28 22 -1 27 4 27 23 0 13 4 20 10 17 6 -3 10
-35 10 -69z m740 64 c0 -5 -5 -10 -11 -10 -5 0 -7 5 -4 10 3 6 8 10 11 10 2 0
4 -4 4 -10z m-6097 -7 c-28 -5 -30 -23 -3 -23 11 0 20 -4 20 -10 0 -5 -9 -10
-20 -10 -17 0 -20 -7 -20 -40 0 -22 -4 -40 -10 -40 -5 0 -10 18 -10 39 0 22
-5 41 -12 43 -21 7 25 48 52 47 23 -2 23 -2 3 -6z m-218 -13 c3 -5 -1 -10 -9
-10 -12 0 -16 -10 -16 -40 0 -22 5 -40 10 -40 6 0 10 -4 10 -10 0 -5 -13 -10
-30 -10 -16 0 -30 5 -30 10 0 6 5 10 10 10 6 0 10 18 10 40 0 22 -4 40 -10 40
-5 0 -10 5 -10 10 0 6 13 10 29 10 17 0 33 -4 36 -10z m685 0 c0 -5 -11 -10
-25 -10 -23 0 -25 -4 -27 -52 l-2 -53 -3 53 c-4 48 -6 52 -29 52 -13 0 -24 5
-24 10 0 6 25 10 55 10 30 0 55 -4 55 -10z m710 0 c0 -5 9 -10 20 -10 11 0 20
-4 20 -10 0 -5 -9 -10 -20 -10 -16 0 -20 -7 -20 -30 0 -23 4 -30 20 -30 11 0
20 -5 20 -11 0 -6 -12 -9 -27 -7 -24 3 -28 8 -31 41 -2 24 -8 37 -18 37 -8 0
-14 5 -14 10 0 6 7 10 15 10 8 0 15 5 15 10 0 6 5 10 10 10 6 0 10 -4 10 -10z
m760 0 c0 -5 12 -10 26 -10 14 0 23 -4 19 -10 -3 -5 -15 -10 -26 -10 -14 0
-19 -7 -19 -30 0 -23 5 -30 19 -30 11 0 23 -5 26 -11 5 -7 -5 -9 -26 -7 -31 3
-34 6 -37 38 -2 19 -8 38 -14 41 -7 5 -6 12 3 23 16 18 29 20 29 6z m-2086
-21 c4 6 16 11 27 11 17 0 19 -7 17 -52 -1 -52 -2 -52 -5 -10 -4 38 -7 43 -26
40 -17 -2 -23 -12 -28 -43 -6 -38 -6 -37 -7 15 -1 34 2 50 7 41 6 -9 11 -10
15 -2z m260 -5 c9 -8 16 -24 16 -34 0 -22 -25 -50 -45 -50 -20 0 -45 28 -45
50 0 22 25 50 45 50 7 0 21 -7 29 -16z m86 0 c0 -8 -4 -12 -10 -9 -5 3 -10 10
-10 16 0 5 5 9 10 9 6 0 10 -7 10 -16z m458 4 c21 -21 13 -38 -18 -38 -21 0
-30 -5 -30 -16 0 -12 7 -15 30 -12 19 3 29 1 27 -6 -5 -16 -46 -19 -63 -6 -30
26 -11 90 26 90 9 0 21 -5 28 -12z m336 -4 c9 -8 16 -24 16 -34 0 -10 -7 -26
-16 -34 -8 -9 -24 -16 -34 -16 -43 0 -65 54 -34 84 8 9 24 16 34 16 10 0 26
-7 34 -16z m104 4 c7 -7 12 -24 12 -38 0 -30 -16 -50 -41 -50 -23 0 -49 27
-49 50 0 39 52 64 78 38z m322 2 c0 -5 -9 -10 -20 -10 -11 0 -20 -4 -20 -10 0
-5 9 -10 20 -10 26 0 36 -25 19 -46 -14 -17 -50 -15 -56 2 -2 7 6 10 22 7 33
-7 33 14 0 27 -24 9 -32 29 -18 43 10 11 53 8 53 -3z m108 -2 c21 -21 13 -38
-18 -38 -21 0 -30 -5 -30 -16 0 -12 7 -15 30 -12 19 3 29 1 27 -6 -6 -18 -43
-18 -61 -1 -20 21 -21 49 0 69 19 19 36 20 52 4z m220 0 c21 -21 13 -38 -18
-38 -20 0 -30 -5 -30 -15 0 -10 10 -15 31 -15 17 0 28 -4 24 -10 -9 -14 -48
-13 -63 2 -27 27 -8 88 28 88 9 0 21 -5 28 -12z m119 -4 c2 -7 -5 -10 -20 -7
-31 6 -55 -21 -37 -42 7 -8 23 -15 37 -15 14 0 21 -4 18 -10 -9 -14 -48 -13
-63 2 -16 16 -15 61 0 76 15 15 60 12 65 -4z m203 -34 c0 -27 -4 -50 -10 -50
-5 0 -10 18 -10 40 0 28 -4 40 -14 40 -8 0 -18 5 -21 10 -4 6 7 10 24 10 30 0
31 -1 31 -50z m114 44 c19 -7 22 -64 4 -82 -17 -17 -44 -15 -62 4 -41 40 3 99
58 78z m56 -6 c0 -9 3 -9 12 0 7 7 20 12 30 12 15 0 18 -8 16 -52 -1 -51 -2
-51 -5 -10 -2 23 -8 42 -13 42 -27 0 -40 -15 -40 -46 0 -19 -4 -34 -10 -34 -5
0 -10 23 -10 50 0 28 5 50 10 50 6 0 10 -5 10 -12z m388 -30 c2 -21 7 -38 13
-38 5 0 9 -4 9 -8 0 -16 -91 -11 -97 4 -7 19 15 44 38 44 11 0 19 5 19 10 0 6
-12 10 -26 10 -15 0 -23 4 -19 11 4 5 19 9 33 7 23 -3 27 -8 30 -40z m92 -9
c0 -31 -4 -48 -10 -44 -5 3 -10 22 -10 41 0 24 -5 34 -15 34 -8 0 -15 5 -15
10 0 6 11 10 25 10 23 0 25 -3 25 -51z m228 39 c21 -21 13 -37 -20 -40 -43 -4
-43 -22 0 -26 36 -4 34 -22 -2 -22 -29 0 -46 18 -46 50 0 29 16 50 40 50 9 0
21 -5 28 -12z m440 -15 c3 -20 -1 -23 -28 -23 -39 0 -36 -24 3 -28 34 -4 36
-22 3 -22 -29 0 -56 24 -56 50 0 47 72 68 78 23z m112 17 c0 -5 -8 -10 -19
-10 -10 0 -24 -7 -31 -15 -16 -19 3 -45 32 -45 10 0 16 -4 13 -10 -9 -15 -42
-12 -59 6 -33 32 -8 84 40 84 13 0 24 -4 24 -10z m108 -32 c2 -21 7 -38 13
-38 5 0 9 -4 9 -9 0 -5 -21 -9 -47 -8 -37 2 -49 6 -51 20 -3 13 6 22 27 30 38
14 40 27 5 27 -15 0 -23 4 -19 11 4 5 19 9 33 7 23 -3 27 -8 30 -40z m52 1 c0
-33 3 -40 18 -37 12 2 18 14 20 41 5 54 22 45 22 -12 l0 -48 -37 1 c-38 1 -38
1 -41 49 -2 28 1 47 7 47 6 0 11 -18 11 -41z m160 32 c0 -5 -12 -11 -27 -14
l-28 -4 33 -14 c18 -8 31 -20 30 -28 -5 -22 -33 -35 -54 -26 -17 8 -16 9 9 13
34 4 35 19 2 32 -24 9 -32 29 -18 43 10 10 53 8 53 -2z m108 -3 c21 -21 13
-37 -20 -40 -39 -4 -35 -23 5 -23 32 0 31 -18 -2 -23 -30 -5 -51 15 -51 47 0
30 16 51 40 51 9 0 21 -5 28 -12z m226 0 c3 -7 6 -29 9 -48 5 -36 5 -36 -36
-37 -23 -1 -45 3 -49 10 -9 15 20 47 44 47 10 0 18 5 18 10 0 6 -14 10 -31 10
-17 0 -28 4 -24 10 9 14 65 12 69 -2z m166 2 c0 -6 8 -5 20 2 14 9 23 9 30 2
8 -8 3 -13 -19 -17 -28 -6 -31 -10 -31 -42 0 -19 -4 -35 -10 -35 -5 0 -10 23
-10 50 0 28 5 50 10 50 6 0 10 -5 10 -10z m158 -17 c3 -20 -1 -23 -28 -23 -39
0 -36 -24 3 -28 30 -4 27 -22 -3 -22 -24 0 -50 26 -50 50 0 47 72 68 78 23z
m112 -44 c0 -44 -4 -68 -10 -64 -5 3 -10 31 -10 61 0 47 -3 55 -17 52 -25 -5
-29 -39 -7 -55 22 -16 9 -31 -14 -17 -41 26 -20 94 28 94 l30 0 0 -71z m50 30
c0 -33 3 -40 18 -37 12 2 18 14 20 41 5 54 22 45 22 -12 l0 -49 -37 1 c-38 2
-38 2 -41 50 -2 28 1 47 7 47 6 0 11 -18 11 -41z m150 -10 c0 -31 -4 -48 -10
-44 -5 3 -10 22 -10 41 0 24 -5 34 -15 34 -8 0 -15 5 -15 10 0 6 11 10 25 10
23 0 25 -3 25 -51z m130 38 c0 -8 -10 -13 -22 -13 -18 1 -24 -5 -26 -29 -6
-53 -22 -52 -22 1 0 49 0 49 35 51 24 2 35 -1 35 -10z m98 1 c21 -21 13 -38
-18 -38 -21 0 -30 -5 -30 -16 0 -12 7 -15 30 -12 19 3 29 1 27 -6 -5 -16 -46
-19 -63 -6 -30 26 -11 90 26 90 9 0 21 -5 28 -12z m442 -8 c11 -21 7 -25 -33
-32 -27 -4 -21 -23 8 -26 32 -4 33 -22 1 -22 -29 0 -56 24 -56 50 0 44 60 67
80 30z m64 -18 c11 -40 22 -41 31 -2 4 16 10 32 14 34 4 3 2 -16 -4 -42 -7
-26 -18 -47 -25 -47 -7 0 -21 22 -31 48 -14 34 -16 48 -7 45 7 -3 17 -19 22
-36z m134 -14 c-1 -51 -2 -51 -5 -10 -3 34 -8 42 -24 42 -10 0 -19 5 -19 10 0
6 11 10 25 10 24 0 25 -3 23 -52z m127 42 c3 -6 -5 -10 -19 -10 -16 0 -27 -7
-31 -20 -9 -27 1 -40 31 -40 14 0 22 -4 19 -10 -17 -28 -75 3 -75 40 0 37 58
68 75 40z m103 -2 c21 -21 13 -38 -18 -38 -20 0 -30 -5 -30 -15 0 -10 10 -15
31 -15 17 0 28 -4 24 -10 -17 -28 -75 3 -75 40 0 21 25 50 44 50 6 0 17 -5 24
-12z m212 -38 c0 -27 -4 -50 -10 -50 -5 0 -10 18 -10 40 0 29 -4 40 -15 40 -8
0 -15 5 -15 10 0 6 11 10 25 10 23 0 25 -3 25 -50z m120 41 c0 -5 -12 -11 -27
-13 l-28 -4 27 -11 c34 -15 43 -30 28 -48 -14 -17 -56 -20 -65 -5 -4 6 7 10
25 10 37 0 37 21 -1 30 -22 5 -25 11 -20 40 1 13 61 13 61 1z m-6020 -76 c0
-8 -4 -15 -10 -15 -5 0 -10 7 -10 15 0 8 5 15 10 15 6 0 10 -7 10 -15z m1105
-155 c3 -5 1 -10 -4 -10 -6 0 -11 5 -11 10 0 6 2 10 4 10 3 0 8 -4 11 -10z
m65 -26 c0 -22 2 -25 15 -14 30 25 57 -26 39 -74 -4 -10 -18 -16 -40 -16 l-34
0 0 65 c0 37 4 65 10 65 6 0 10 -12 10 -26z m150 -39 c0 -40 -4 -65 -11 -65
-6 0 -10 18 -9 43 3 67 1 75 -17 80 -11 3 -7 5 10 6 27 1 27 1 27 -64z m-1090
-15 c0 -27 -4 -50 -10 -50 -5 0 -10 18 -10 40 0 29 -4 40 -15 40 -8 0 -15 5
-15 10 0 6 11 10 25 10 23 0 25 -3 25 -50z m87 41 c25 21 43 2 43 -46 0 -25
-4 -45 -10 -45 -5 0 -10 18 -10 41 0 33 -3 40 -17 37 -13 -2 -19 -14 -21 -41
-5 -56 -22 -44 -22 15 0 40 3 49 12 40 8 -8 15 -9 25 -1z m151 -31 c2 -19 8
-40 13 -46 6 -7 -7 -11 -42 -12 -46 -1 -50 1 -47 21 2 16 11 23 31 25 16 2 27
9 27 19 0 11 -7 14 -25 11 -14 -3 -25 -2 -25 2 0 14 15 21 40 18 21 -2 26 -9
28 -38z m109 24 c2 -7 -5 -10 -20 -7 -31 6 -55 -21 -37 -42 7 -8 21 -15 31
-15 11 0 19 -4 19 -10 0 -14 -43 -13 -58 2 -16 16 -15 61 0 76 15 15 60 12 65
-4z m110 0 c2 -7 -5 -10 -20 -7 -31 6 -55 -21 -37 -42 7 -8 21 -15 31 -15 11
0 19 -4 19 -10 0 -11 -30 -13 -54 -4 -19 7 -22 64 -4 82 15 15 60 12 65 -4z
m103 1 c19 -23 4 -45 -30 -45 -18 0 -29 -4 -25 -10 3 -5 20 -10 36 -10 18 0
28 -4 24 -10 -18 -29 -85 2 -85 40 0 41 55 65 80 35z m105 5 c4 -6 -5 -10 -19
-10 -35 0 -33 -16 4 -29 17 -5 30 -14 30 -18 0 -16 -24 -33 -46 -33 -36 0 -37
18 -2 22 l33 4 -32 13 c-31 12 -43 38 -26 54 10 11 51 8 58 -3z m105 0 c0 -5
-9 -10 -20 -10 -29 0 -25 -18 6 -26 18 -5 24 -12 22 -28 -3 -23 -29 -32 -56
-20 -13 6 -9 9 18 14 l35 7 -32 12 c-31 12 -43 38 -26 54 10 11 53 8 53 -3z
m108 -42 c2 -29 -1 -48 -7 -48 -6 0 -11 18 -11 40 0 33 -3 40 -20 40 -11 0
-20 5 -20 11 0 6 12 9 28 7 25 -3 27 -7 30 -50z m330 40 c7 -7 12 -20 12 -30
0 -13 -8 -18 -30 -18 -16 0 -30 -4 -30 -10 0 -5 14 -10 31 -10 17 0 28 -4 24
-10 -9 -14 -48 -13 -63 2 -17 17 -15 54 4 72 19 19 36 20 52 4z m92 -73 c0 -8
-7 -15 -15 -15 -16 0 -20 12 -8 23 11 12 23 8 23 -8z m6260 -1840 l0 -135
-4360 0 -4360 0 0 135 0 135 4360 0 4360 0 0 -135z"/>
<path d="M3496 6741 c-4 -5 -2 -12 3 -15 5 -4 12 -2 15 3 4 5 2 12 -3 15 -5 4
-12 2 -15 -3z"/>
<path d="M3730 6730 c0 -15 -7 -20 -25 -20 -27 0 -40 -28 -33 -71 2 -20 9 -24
41 -26 l37 -1 0 69 c0 39 -4 69 -10 69 -5 0 -10 -9 -10 -20z m-5 -71 c0 -15
-7 -25 -17 -27 -13 -3 -18 3 -18 21 0 13 3 27 7 31 13 12 28 -1 28 -25z"/>
<path d="M3335 6693 c12 -72 16 -84 28 -80 6 2 14 14 18 28 l6 24 4 -24 c7
-44 27 -34 38 19 14 63 14 70 1 70 -5 0 -10 -11 -10 -25 0 -14 -4 -25 -10 -25
-5 0 -10 5 -10 10 0 18 -18 10 -25 -10 -9 -28 -25 -15 -25 21 0 16 -5 29 -10
29 -7 0 -9 -14 -5 -37z"/>
<path d="M4210 6670 l0 -60 34 0 c44 0 65 23 43 48 -12 14 -14 21 -6 29 21 21
2 43 -36 43 l-35 0 0 -60z m50 25 c0 -8 -4 -15 -9 -15 -13 0 -22 16 -14 24 11
11 23 6 23 -9z m18 -52 c2 -8 -6 -13 -22 -13 -17 0 -26 5 -26 16 0 19 41 16
48 -3z"/>
<path d="M4570 6720 c0 -5 -7 -10 -15 -10 -8 0 -15 -4 -15 -9 0 -5 7 -11 15
-15 9 -3 15 -19 15 -41 0 -32 2 -35 30 -35 17 0 30 5 30 10 0 6 -9 10 -20 10
-16 0 -20 7 -20 30 0 23 4 30 20 30 11 0 20 5 20 10 0 6 -9 10 -20 10 -11 0
-20 5 -20 10 0 6 -4 10 -10 10 -5 0 -10 -4 -10 -10z"/>
<path d="M4750 6670 c0 -33 4 -60 10 -60 6 0 10 17 11 38 0 32 1 34 9 15 12
-30 24 -29 37 5 11 26 11 26 12 -15 2 -67 21 -51 21 17 0 46 -3 60 -15 60 -8
0 -17 -11 -21 -25 -3 -14 -10 -25 -14 -25 -4 0 -11 11 -14 25 -4 14 -13 25
-21 25 -12 0 -15 -14 -15 -60z"/>
<path d="M3460 6700 c0 -5 7 -10 15 -10 11 0 15 -11 15 -40 0 -29 4 -40 15
-40 11 0 15 12 15 50 0 49 -1 50 -30 50 -16 0 -30 -4 -30 -10z"/>
<path d="M3560 6659 c0 -27 5 -49 10 -49 6 0 10 15 10 34 0 22 6 36 16 40 24
9 24 9 24 -34 0 -22 5 -40 11 -40 6 0 9 19 7 48 -3 47 -3 47 -40 49 l-38 1 0
-49z"/>
<path d="M3786 6688 c-20 -28 -20 -43 0 -62 21 -22 61 -20 74 3 14 27 13 47
-6 65 -22 22 -50 20 -68 -6z m59 -28 c0 -18 -6 -26 -22 -28 -18 -3 -23 1 -23
21 0 28 9 39 30 35 9 -2 15 -14 15 -28z"/>
<path d="M3880 6683 c0 -69 31 -100 45 -45 l7 27 10 -27 c14 -39 24 -35 37 16
13 55 13 56 1 56 -5 0 -10 -11 -10 -24 0 -32 -18 -43 -22 -14 -4 25 -28 37
-28 14 0 -9 -4 -16 -10 -16 -5 0 -10 9 -10 20 0 11 -4 20 -10 20 -5 0 -10 -12
-10 -27z"/>
<path d="M4007 6703 c-17 -16 -5 -42 23 -52 39 -13 39 -25 0 -19 -19 3 -29 1
-27 -6 5 -16 46 -19 63 -6 20 18 17 29 -11 42 -30 14 -33 28 -5 28 11 0 20 5
20 10 0 11 -53 14 -63 3z"/>
<path d="M4336 6694 c-41 -40 3 -99 58 -78 22 8 22 80 0 88 -25 10 -42 7 -58
-10z m52 -37 c3 -22 -1 -27 -18 -27 -23 0 -35 22 -26 46 10 25 41 12 44 -19z"/>
<path d="M4446 6694 c-32 -31 -14 -84 29 -84 28 0 45 19 45 50 0 47 -42 66
-74 34z m52 -37 c3 -22 -1 -27 -18 -27 -23 0 -35 22 -26 46 10 25 41 12 44
-19z"/>
<path d="M4877 6704 c-15 -16 -6 -23 23 -17 17 3 30 1 30 -4 0 -5 -13 -14 -30
-20 -20 -7 -30 -18 -30 -32 0 -18 6 -20 64 -20 l65 0 3 37 c2 26 8 38 21 40
14 3 17 -4 17 -37 0 -23 5 -41 11 -41 6 0 9 19 7 48 l-3 47 -42 2 -43 2 0 -40
c0 -50 -18 -51 -22 -1 -3 33 -6 37 -33 40 -17 2 -34 0 -38 -4z m48 -64 c-3 -5
-13 -10 -21 -10 -8 0 -14 5 -14 10 0 6 9 10 21 10 11 0 17 -4 14 -10z"/>
<path d="M5097 6704 c-16 -16 -5 -23 24 -17 25 5 31 3 27 -8 -3 -8 -12 -13
-20 -11 -19 3 -52 -33 -43 -47 3 -6 29 -11 57 -11 39 0 48 3 40 13 -6 6 -12
28 -14 47 -3 31 -7 35 -33 38 -17 2 -34 0 -38 -4z m48 -64 c-3 -5 -13 -10 -21
-10 -8 0 -14 5 -14 10 0 6 9 10 21 10 11 0 17 -4 14 -10z"/>
<path d="M5200 6690 c-23 -42 -5 -80 38 -80 14 0 21 -4 16 -11 -3 -6 -17 -9
-31 -6 -15 3 -22 0 -20 -7 5 -16 46 -20 63 -6 9 8 14 32 14 70 l0 57 -35 1
c-25 1 -38 -4 -45 -18z m55 -30 c0 -16 -6 -26 -18 -28 -19 -4 -32 20 -23 44 9
25 41 13 41 -16z"/>
<path d="M5316 6694 c-32 -32 -8 -84 39 -84 13 0 27 5 30 10 4 6 -6 10 -24 10
-16 0 -33 5 -36 10 -4 6 7 10 25 10 34 0 49 22 30 45 -16 19 -44 19 -64 -1z
m44 -14 c0 -5 -7 -10 -15 -10 -8 0 -15 5 -15 10 0 6 7 10 15 10 8 0 15 -4 15
-10z"/>
<path d="M5420 6660 c0 -27 5 -50 10 -50 6 0 10 16 10 35 0 21 5 36 13 37 6 0
18 2 26 2 8 1 16 7 19 14 5 16 -30 16 -46 0 -9 -9 -12 -9 -12 0 0 7 -4 12 -10
12 -5 0 -10 -22 -10 -50z"/>
<path d="M634 6136 c-10 -26 0 -51 21 -51 16 0 20 7 20 30 0 33 -30 49 -41 21z"/>
<path d="M1724 6136 c-10 -26 0 -51 21 -51 16 0 20 7 20 30 0 33 -30 49 -41
21z"/>
<path d="M7730 6135 c-15 -19 -9 -49 12 -53 19 -4 32 27 22 52 -8 20 -18 20
-34 1z"/>
<path d="M3046 6134 c-9 -23 -8 -24 13 -24 14 0 18 5 14 20 -6 24 -19 26 -27
4z"/>
<path d="M744 6136 c-11 -29 0 -51 26 -51 21 0 25 5 25 30 0 24 -5 31 -23 33
-13 2 -24 -3 -28 -12z"/>
<path d="M1297 6103 c-12 -11 -8 -23 7 -23 7 0 19 7 26 15 10 12 9 15 -7 15
-11 0 -23 -3 -26 -7z"/>
<path d="M1625 6140 c-3 -5 3 -10 15 -10 12 0 18 5 15 10 -3 6 -10 10 -15 10
-5 0 -12 -4 -15 -10z"/>
<path d="M2054 6136 c-11 -29 0 -51 26 -51 21 0 25 5 25 30 0 24 -5 31 -23 33
-13 2 -24 -3 -28 -12z"/>
<path d="M2490 6094 c0 -9 7 -14 17 -12 25 5 28 28 4 28 -12 0 -21 -6 -21 -16z"/>
<path d="M3365 6140 c-3 -5 3 -10 15 -10 12 0 18 5 15 10 -3 6 -10 10 -15 10
-5 0 -12 -4 -15 -10z"/>
<path d="M3585 6140 c-3 -5 3 -10 15 -10 12 0 18 5 15 10 -3 6 -10 10 -15 10
-5 0 -12 -4 -15 -10z"/>
<path d="M4127 6103 c-14 -13 -6 -24 15 -21 27 4 36 28 11 28 -11 0 -23 -3
-26 -7z"/>
<path d="M4567 6103 c-13 -12 -7 -23 12 -23 10 0 21 7 25 15 5 15 -24 22 -37
8z"/>
<path d="M4785 6140 c-3 -5 3 -10 15 -10 12 0 18 5 15 10 -3 6 -10 10 -15 10
-5 0 -12 -4 -15 -10z"/>
<path d="M5002 6141 c-8 -4 -12 -19 -10 -32 2 -18 9 -24 28 -24 21 0 25 5 25
30 0 31 -19 42 -43 26z"/>
<path d="M5434 6136 c-10 -26 1 -51 23 -54 14 -2 23 3 28 18 12 37 -38 71 -51
36z"/>
<path d="M5870 6094 c0 -9 7 -14 17 -12 25 5 28 28 4 28 -12 0 -21 -6 -21 -16z"/>
<path d="M6090 6140 c-12 -8 -9 -10 13 -10 16 0 26 4 22 10 -8 12 -16 12 -35
0z"/>
<path d="M6527 6103 c-14 -13 -6 -24 15 -21 27 4 36 28 11 28 -11 0 -23 -3
-26 -7z"/>
<path d="M6744 6136 c-9 -24 0 -51 18 -54 21 -4 34 34 18 53 -16 19 -29 19
-36 1z"/>
<path d="M6855 6140 c-3 -5 3 -10 15 -10 12 0 18 5 15 10 -3 6 -10 10 -15 10
-5 0 -12 -4 -15 -10z"/>
<path d="M7284 6136 c-10 -26 0 -51 21 -51 16 0 20 7 20 30 0 33 -30 49 -41
21z"/>
<path d="M7835 6140 c-3 -5 3 -10 15 -10 12 0 18 5 15 10 -3 6 -10 10 -15 10
-5 0 -12 -4 -15 -10z"/>
<path d="M8265 6140 c-4 -6 5 -10 20 -10 15 0 24 4 20 10 -3 6 -12 10 -20 10
-8 0 -17 -4 -20 -10z"/>
<path d="M2832 5960 c0 -14 2 -19 5 -12 2 6 2 18 0 25 -3 6 -5 1 -5 -13z"/>
<path d="M2600 5855 c-16 -20 -5 -45 20 -45 16 0 20 7 20 30 0 33 -19 40 -40
15z"/>
<path d="M750 5864 c-10 -12 -8 -14 14 -14 28 0 35 14 12 23 -8 3 -20 -1 -26
-9z"/>
<path d="M1184 5866 c-3 -8 -4 -23 -2 -33 5 -25 51 -25 56 0 7 36 -42 65 -54
33z"/>
<path d="M2060 5870 c-19 -12 -7 -22 21 -18 19 2 20 5 8 15 -9 7 -20 9 -29 3z"/>
<path d="M2281 5871 c-7 -5 -11 -19 -9 -32 4 -31 42 -33 46 -3 4 25 -19 46
-37 35z"/>
<path d="M2497 5874 c-4 -4 -7 -20 -7 -36 0 -23 4 -28 26 -28 23 0 25 3 22 32
-3 31 -25 48 -41 32z"/>
<path d="M2826 5873 c-12 -12 -5 -23 14 -23 11 0 20 4 20 9 0 11 -26 22 -34
14z"/>
<path d="M2494 5316 c-9 -23 0 -51 16 -51 10 0 15 10 15 29 0 32 -21 47 -31
22z"/>
<path d="M4457 5324 c-11 -11 -8 -52 3 -59 17 -10 41 16 38 39 -3 21 -28 33
-41 20z"/>
<path d="M1185 5320 c-4 -6 5 -10 20 -10 15 0 24 4 20 10 -3 6 -12 10 -20 10
-8 0 -17 -4 -20 -10z"/>
<path d="M1724 5316 c-11 -29 0 -51 26 -51 21 0 25 5 25 30 0 24 -5 31 -23 33
-13 2 -24 -3 -28 -12z"/>
<path d="M2595 5309 c-9 -26 16 -55 40 -45 25 9 16 60 -12 64 -15 2 -23 -3
-28 -19z"/>
<path d="M4124 5316 c-11 -29 0 -51 26 -51 21 0 25 5 25 30 0 24 -5 31 -23 33
-13 2 -24 -3 -28 -12z"/>
<path d="M5545 5320 c-4 -6 5 -10 20 -10 15 0 24 4 20 10 -3 6 -12 10 -20 10
-8 0 -17 -4 -20 -10z"/>
<path d="M6417 5324 c-11 -11 -8 -52 3 -59 6 -3 19 -3 31 0 28 9 23 59 -6 63
-12 2 -24 0 -28 -4z"/>
<path d="M6955 5309 c-9 -26 16 -55 40 -45 25 9 16 60 -12 64 -15 2 -23 -3
-28 -19z"/>
<path d="M7177 5324 c-13 -14 -7 -52 10 -58 22 -9 35 6 31 35 -3 23 -27 37
-41 23z"/>
<path d="M7505 5320 c-4 -6 5 -10 20 -10 15 0 24 4 20 10 -3 6 -12 10 -20 10
-8 0 -17 -4 -20 -10z"/>
<path d="M1074 5046 c-9 -25 0 -51 20 -54 26 -5 40 12 32 42 -7 29 -43 36 -52
12z"/>
<path d="M1187 5054 c-13 -13 -7 -55 9 -61 24 -9 51 23 38 45 -12 19 -36 27
-47 16z"/>
<path d="M1405 5050 c-3 -5 3 -10 15 -10 12 0 18 5 15 10 -3 6 -10 10 -15 10
-5 0 -12 -4 -15 -10z"/>
<path d="M1724 5046 c-11 -29 0 -51 26 -51 21 0 25 5 25 30 0 24 -5 31 -23 33
-13 2 -24 -3 -28 -12z"/>
<path d="M2277 5013 c-14 -13 -6 -24 15 -21 27 4 36 28 11 28 -11 0 -23 -3
-26 -7z"/>
<path d="M2494 5046 c-9 -23 0 -51 16 -51 10 0 15 10 15 29 0 32 -21 47 -31
22z"/>
<path d="M2705 5010 c-8 -12 20 -24 35 -15 5 3 10 10 10 16 0 12 -37 12 -45
-1z"/>
<path d="M2814 5046 c-10 -26 0 -51 21 -51 16 0 20 7 20 30 0 33 -30 49 -41
21z"/>
<path d="M2925 5050 c-4 -6 5 -10 20 -10 15 0 24 4 20 10 -3 6 -12 10 -20 10
-8 0 -17 -4 -20 -10z"/>
<path d="M3255 5050 c-4 -6 5 -10 20 -10 15 0 24 4 20 10 -3 6 -12 10 -20 10
-8 0 -17 -4 -20 -10z"/>
<path d="M3801 5046 c-17 -20 -4 -58 17 -54 11 2 17 13 17 32 0 33 -16 44 -34
22z"/>
<path d="M4237 5013 c-14 -13 -6 -24 15 -21 27 4 36 28 11 28 -11 0 -23 -3
-26 -7z"/>
<path d="M4890 5050 c-12 -8 -9 -10 13 -10 16 0 26 4 22 10 -8 12 -16 12 -35
0z"/>
<path d="M6085 5050 c-4 -6 5 -10 20 -10 15 0 24 4 20 10 -3 6 -12 10 -20 10
-8 0 -17 -4 -20 -10z"/>
<path d="M1612 4783 c2 -10 10 -18 18 -18 8 0 16 8 18 18 2 12 -3 17 -18 17
-15 0 -20 -5 -18 -17z"/>
<path d="M1737 4784 c-13 -13 -7 -24 14 -24 11 0 19 5 17 12 -5 14 -22 21 -31
12z"/>
<path d="M1841 4776 c-18 -21 -9 -51 14 -51 15 0 20 7 20 29 0 33 -16 44 -34
22z"/>
<path d="M2497 4784 c-4 -4 -7 -20 -7 -36 0 -25 4 -29 23 -26 17 2 22 10 22
33 0 29 -22 45 -38 29z"/>
<path d="M3040 4775 c-19 -23 -8 -50 20 -50 16 0 26 6 28 18 4 18 -14 47 -28
47 -4 0 -13 -7 -20 -15z"/>
<path d="M3261 4781 c-7 -5 -11 -19 -9 -32 4 -31 42 -33 46 -3 4 25 -19 46
-37 35z"/>
<path d="M3587 4784 c-13 -13 -7 -24 14 -24 11 0 19 5 17 12 -5 14 -22 21 -31
12z"/>
<path d="M1077 4234 c-11 -11 -8 -52 3 -59 17 -10 41 16 38 39 -3 21 -28 33
-41 20z"/>
<path d="M5867 4221 c-7 -27 17 -60 33 -45 16 16 8 58 -11 62 -10 2 -19 -5
-22 -17z"/>
<path d="M744 4226 c-11 -29 0 -51 26 -51 21 0 25 5 25 30 0 24 -5 31 -23 33
-13 2 -24 -3 -28 -12z"/>
<path d="M1187 4234 c-13 -13 -7 -55 8 -60 21 -9 47 15 43 40 -3 21 -37 34
-51 20z"/>
<path d="M1505 4219 c-9 -26 16 -55 40 -45 25 9 16 60 -12 64 -15 2 -23 -3
-28 -19z"/>
<path d="M2165 4230 c-4 -6 5 -10 20 -10 15 0 24 4 20 10 -3 6 -12 10 -20 10
-8 0 -17 -4 -20 -10z"/>
<path d="M3685 4219 c-9 -26 16 -55 40 -45 25 9 16 60 -12 64 -15 2 -23 -3
-28 -19z"/>
<path d="M4564 4226 c-10 -26 1 -51 21 -51 15 0 21 8 23 33 3 27 0 32 -18 32
-11 0 -23 -6 -26 -14z"/>
<path d="M5435 4230 c-4 -6 5 -10 20 -10 15 0 24 4 20 10 -3 6 -12 10 -20 10
-8 0 -17 -4 -20 -10z"/>
<path d="M6953 4224 c-8 -22 9 -49 33 -49 30 0 27 59 -4 63 -14 2 -25 -3 -29
-14z"/>
<path d="M7287 4234 c-15 -16 -7 -53 14 -59 27 -9 42 6 37 36 -3 24 -36 38
-51 23z"/>
<path d="M7727 4234 c-13 -13 -7 -55 8 -60 21 -9 47 15 43 40 -3 21 -37 34
-51 20z"/>
<path d="M7947 4233 c-11 -10 -8 -51 4 -59 19 -11 38 18 28 44 -8 22 -20 28
-32 15z"/>
<path d="M8265 4230 c-4 -6 5 -10 20 -10 15 0 24 4 20 10 -3 6 -12 10 -20 10
-8 0 -17 -4 -20 -10z"/>
<path d="M415 3920 c-8 -12 20 -24 35 -15 5 3 10 10 10 16 0 12 -37 12 -45 -1z"/>
<path d="M857 3923 c-14 -13 -6 -24 15 -21 27 4 36 28 11 28 -11 0 -23 -3 -26
-7z"/>
<path d="M1405 3960 c-3 -5 3 -10 15 -10 12 0 18 5 15 10 -3 6 -10 10 -15 10
-5 0 -12 -4 -15 -10z"/>
<path d="M1834 3956 c-11 -29 0 -51 26 -51 21 0 25 5 25 30 0 24 -5 31 -23 33
-13 2 -24 -3 -28 -12z"/>
<path d="M2167 3923 c-14 -13 -6 -24 15 -21 27 4 36 28 11 28 -11 0 -23 -3
-26 -7z"/>
<path d="M2817 3923 c-14 -13 -6 -24 15 -21 27 4 36 28 11 28 -11 0 -23 -3
-26 -7z"/>
<path d="M3145 3960 c-4 -6 5 -10 20 -10 15 0 24 4 20 10 -3 6 -12 10 -20 10
-8 0 -17 -4 -20 -10z"/>
<path d="M1620 2860 c0 -28 5 -43 16 -47 21 -8 35 15 32 52 -2 23 -9 31 -25
33 -21 3 -23 -1 -23 -38z"/>
<path d="M1944 2876 c-8 -34 4 -68 23 -64 24 5 37 32 29 61 -8 35 -43 37 -52
3z"/>
<path d="M2054 2876 c-8 -32 3 -66 21 -66 20 0 38 38 31 66 -9 32 -44 32 -52
0z"/>
<path d="M2167 2893 c-9 -8 -9 -46 -1 -67 16 -41 61 5 50 50 -6 23 -34 33 -49
17z"/>
<path d="M2277 2893 c-10 -9 -8 -55 2 -72 17 -27 41 -4 41 39 0 32 -4 40 -18
40 -10 0 -22 -3 -25 -7z"/>
<path d="M2387 2894 c-9 -9 -9 -47 -1 -68 16 -41 51 3 42 51 -3 18 -29 29 -41
17z"/>
<path d="M2497 2894 c-9 -9 -9 -47 -1 -68 16 -41 51 3 42 51 -3 18 -29 29 -41
17z"/>
<path d="M2605 2870 c-3 -5 3 -10 15 -10 12 0 18 5 15 10 -3 6 -10 10 -15 10
-5 0 -12 -4 -15 -10z"/>
<path d="M967 2833 c-14 -13 -6 -24 15 -21 27 4 36 28 11 28 -11 0 -23 -3 -26
-7z"/>
<path d="M1840 2315 c-16 -19 -5 -47 17 -43 11 2 18 12 18 27 0 29 -17 37 -35
16z"/>
<path d="M4014 2316 c-9 -24 4 -48 23 -44 12 2 18 12 18 28 0 29 -32 41 -41
16z"/>
<path d="M4240 2315 c-16 -19 -5 -47 17 -43 11 2 18 12 18 27 0 29 -17 37 -35
16z"/>
<path d="M6084 2316 c-9 -24 4 -48 23 -44 12 2 18 12 18 28 0 29 -32 41 -41
16z"/>
<path d="M6304 2316 c-9 -24 4 -48 23 -44 12 2 18 12 18 28 0 29 -32 41 -41
16z"/>
<path d="M1070 2300 c0 -28 3 -31 28 -28 21 2 27 8 27 28 0 20 -6 26 -27 28
-25 3 -28 0 -28 -28z"/>
<path d="M1620 2320 c0 -5 9 -10 21 -10 11 0 17 5 14 10 -3 6 -13 10 -21 10
-8 0 -14 -4 -14 -10z"/>
<path d="M1944 2316 c-10 -26 4 -48 28 -44 17 2 23 10 23 28 0 18 -6 26 -23
28 -13 2 -25 -3 -28 -12z"/>
<path d="M2054 2316 c-10 -26 4 -48 28 -44 17 2 23 10 23 28 0 18 -6 26 -23
28 -13 2 -25 -3 -28 -12z"/>
<path d="M2490 2320 c0 -5 9 -10 20 -10 11 0 20 5 20 10 0 6 -9 10 -20 10 -11
0 -20 -4 -20 -10z"/>
<path d="M2710 2320 c0 -5 9 -10 21 -10 11 0 17 5 14 10 -3 6 -13 10 -21 10
-8 0 -14 -4 -14 -10z"/>
<path d="M3144 2316 c-10 -26 4 -48 28 -44 17 2 23 10 23 28 0 18 -6 26 -23
28 -13 2 -25 -3 -28 -12z"/>
<path d="M3587 2293 c-13 -12 -7 -23 13 -23 11 0 20 7 20 15 0 15 -21 21 -33
8z"/>
<path d="M3910 2320 c0 -5 9 -10 21 -10 11 0 17 5 14 10 -3 6 -13 10 -21 10
-8 0 -14 -4 -14 -10z"/>
<path d="M4345 2320 c-3 -5 3 -10 14 -10 12 0 21 5 21 10 0 6 -6 10 -14 10 -8
0 -18 -4 -21 -10z"/>
<path d="M4567 2293 c-13 -12 -7 -23 13 -23 11 0 20 7 20 15 0 15 -21 21 -33
8z"/>
<path d="M4890 2320 c0 -5 9 -10 20 -10 11 0 20 5 20 10 0 6 -9 10 -20 10 -11
0 -20 -4 -20 -10z"/>
<path d="M5109 2284 c-11 -14 -10 -16 9 -12 13 1 23 7 23 13 1 17 -17 16 -32
-1z"/>
<path d="M5435 2320 c-3 -5 3 -10 14 -10 12 0 21 5 21 10 0 6 -6 10 -14 10 -8
0 -18 -4 -21 -10z"/>
<path d="M5980 2320 c0 -5 9 -10 21 -10 11 0 17 5 14 10 -3 6 -13 10 -21 10
-8 0 -14 -4 -14 -10z"/>
<path d="M6415 2320 c-3 -5 3 -10 14 -10 12 0 21 5 21 10 0 6 -6 10 -14 10 -8
0 -18 -4 -21 -10z"/>
<path d="M6850 2320 c0 -5 9 -10 20 -10 11 0 20 5 20 10 0 6 -9 10 -20 10 -11
0 -20 -4 -20 -10z"/>
<path d="M2392 2048 c-19 -19 -15 -48 8 -48 16 0 20 7 20 30 0 32 -9 37 -28
18z"/>
<path d="M1620 2010 c0 -5 9 -10 20 -10 11 0 20 5 20 10 0 6 -9 10 -20 10 -11
0 -20 -4 -20 -10z"/>
<path d="M1945 2050 c-4 -6 5 -10 20 -10 15 0 24 4 20 10 -3 6 -12 10 -20 10
-8 0 -17 -4 -20 -10z"/>
<path d="M2605 2050 c-3 -5 3 -10 15 -10 12 0 18 5 15 10 -3 6 -10 10 -15 10
-5 0 -12 -4 -15 -10z"/>
<path d="M1530 200 c0 -5 5 -10 10 -10 6 0 10 5 10 10 0 6 -4 10 -10 10 -5 0
-10 -4 -10 -10z"/>
<path d="M8620 200 c0 -5 5 -10 10 -10 6 0 10 5 10 10 0 6 -4 10 -10 10 -5 0
-10 -4 -10 -10z"/>
<path d="M410 130 l0 -60 40 0 c22 0 40 5 40 10 0 6 -13 10 -30 10 -20 0 -30
5 -30 15 0 9 10 15 26 15 16 0 24 5 21 13 -2 6 -14 12 -26 11 -11 0 -21 5 -21
13 0 8 12 13 30 13 17 0 30 5 30 10 0 6 -18 10 -40 10 l-40 0 0 -60z"/>
<path d="M510 130 c0 -33 4 -60 10 -60 6 0 10 17 10 38 l1 37 22 -37 c33 -56
47 -49 47 22 0 33 -4 60 -10 60 -5 0 -10 -17 -10 -37 l0 -38 -20 25 c-11 14
-20 31 -20 38 0 6 -7 12 -15 12 -12 0 -15 -13 -15 -60z"/>
<path d="M610 180 c0 -5 9 -10 20 -10 17 0 20 -7 20 -50 0 -27 5 -50 10 -50 6
0 10 23 10 50 0 47 2 50 25 50 14 0 25 5 25 10 0 6 -25 10 -55 10 -30 0 -55
-4 -55 -10z"/>
<path d="M730 130 l0 -60 45 0 c25 0 45 5 45 10 0 6 -16 10 -35 10 -41 0 -50
27 -10 32 26 3 35 22 12 24 -32 3 -37 5 -37 14 0 6 16 10 35 10 19 0 35 5 35
10 0 6 -20 10 -45 10 l-45 0 0 -60z"/>
<path d="M830 130 c0 -33 4 -60 10 -60 6 0 10 9 10 20 0 11 4 20 8 20 5 0 17
-9 27 -20 17 -19 45 -27 45 -13 0 4 -10 17 -22 30 -12 13 -16 23 -10 23 18 0
14 47 -4 54 -9 3 -27 6 -40 6 -23 0 -24 -3 -24 -60z m58 28 c-7 -19 -38 -22
-38 -4 0 10 9 16 21 16 12 0 19 -5 17 -12z"/>
<path d="M1070 170 c-11 -11 -20 -29 -20 -40 0 -11 9 -29 20 -40 24 -24 70
-27 70 -5 0 8 -6 12 -14 9 -21 -8 -56 14 -56 35 0 25 25 45 50 38 13 -3 20 0
20 9 0 21 -47 17 -70 -6z"/>
<path d="M1395 174 c-14 -11 -16 -18 -7 -21 6 -3 12 -15 12 -28 0 -41 11 -55
41 -55 16 0 29 5 29 10 0 6 -9 10 -20 10 -16 0 -20 7 -20 30 0 23 4 30 20 30
11 0 20 5 20 10 0 6 -9 10 -20 10 -11 0 -20 5 -20 10 0 14 -12 12 -35 -6z"/>
<path d="M7930 130 l0 -60 40 0 c22 0 40 5 40 10 0 6 -13 10 -30 10 -20 0 -30
5 -30 15 0 9 10 15 26 15 25 0 31 24 6 26 -7 1 -16 2 -22 3 -24 3 -7 21 20 21
17 0 30 5 30 10 0 6 -18 10 -40 10 l-40 0 0 -60z"/>
<path d="M8042 181 c-21 -13 -10 -44 21 -59 33 -16 25 -36 -10 -27 -18 4 -24
2 -21 -7 6 -18 46 -22 64 -8 23 20 16 47 -16 60 -37 15 -40 34 -5 27 16 -3 24
0 22 7 -5 14 -38 19 -55 7z"/>
<path d="M8156 175 c-37 -38 -8 -109 42 -103 14 2 28 9 30 17 3 9 0 11 -7 6
-7 -4 -23 -4 -37 -1 -21 6 -25 12 -22 39 3 29 6 32 36 32 17 0 31 4 29 10 -6
17 -54 17 -71 0z"/>
<path d="M8360 130 l0 -60 45 0 c51 0 62 17 13 22 -39 4 -49 25 -13 30 26 3
36 22 12 24 -32 3 -37 5 -37 14 0 6 16 10 35 10 19 0 35 5 35 10 0 6 -20 10
-45 10 l-45 0 0 -60z"/>
<path d="M8710 180 c0 -5 -7 -10 -15 -10 -8 0 -15 -4 -15 -10 0 -5 6 -10 14
-10 10 0 16 -13 18 -37 3 -33 7 -38 31 -41 15 -2 27 1 27 7 0 6 -9 11 -20 11
-16 0 -20 7 -20 30 0 23 4 30 20 30 11 0 20 5 20 10 0 6 -9 10 -20 10 -11 0
-20 5 -20 10 0 6 -4 10 -10 10 -5 0 -10 -4 -10 -10z"/>
<path d="M1170 149 c-26 -47 26 -101 65 -69 18 15 20 61 3 78 -19 19 -56 14
-68 -9z m55 -29 c0 -29 -32 -41 -41 -16 -9 24 4 48 23 44 12 -2 18 -12 18 -28z"/>
<path d="M1270 118 c0 -26 5 -48 10 -48 6 0 10 15 10 34 0 22 6 36 16 40 24 9
24 9 24 -34 0 -22 5 -40 10 -40 6 0 10 22 10 50 l0 50 -40 -2 -40 -1 0 -49z"/>
<path d="M1500 160 c0 -5 7 -10 15 -10 11 0 15 -11 15 -40 0 -22 5 -40 10 -40
6 0 10 23 10 50 0 47 -2 50 -25 50 -14 0 -25 -4 -25 -10z"/>
<path d="M1600 119 c0 -57 17 -66 22 -12 2 27 8 39 21 41 14 3 17 -4 17 -37 0
-23 5 -41 11 -41 6 0 9 19 7 48 -3 47 -3 47 -40 49 l-38 1 0 -49z"/>
<path d="M1702 123 l3 -48 43 -1 42 -1 0 49 c0 26 -4 48 -10 48 -5 0 -10 -15
-10 -34 0 -22 -6 -36 -16 -40 -24 -9 -24 -9 -24 34 0 30 -4 40 -16 40 -12 0
-14 -10 -12 -47z"/>
<path d="M1826 154 c-21 -20 -20 -48 0 -69 18 -17 65 -17 71 1 2 6 -8 9 -26 6
-16 -2 -32 1 -35 7 -7 10 12 16 42 12 18 -3 26 27 12 44 -16 19 -44 19 -64 -1z
m41 -10 c-3 -3 -12 -4 -19 -1 -8 3 -5 6 6 6 11 1 17 -2 13 -5z"/>
<path d="M8476 145 c15 -23 15 -27 0 -50 -19 -28 -6 -34 19 -8 16 16 18 16 27
0 5 -9 15 -17 23 -17 11 0 11 5 -3 29 -16 28 -15 31 2 50 17 18 17 21 3 21 -9
0 -20 -7 -25 -16 -8 -14 -10 -14 -21 0 -8 9 -20 16 -27 16 -12 0 -11 -5 2 -25z"/>
<path d="M8580 160 c0 -5 9 -10 20 -10 17 0 20 -7 20 -40 0 -22 5 -40 10 -40
6 0 10 23 10 50 0 49 -1 50 -30 50 -16 0 -30 -4 -30 -10z"/>
<path d="M940 140 c0 -5 20 -10 44 -10 25 0 48 5 51 10 4 6 -13 10 -44 10 -28
0 -51 -4 -51 -10z"/>
<path d="M8250 140 c0 -5 20 -10 45 -10 25 0 45 5 45 10 0 6 -20 10 -45 10
-25 0 -45 -4 -45 -10z"/>
<path d="M940 110 c0 -5 23 -10 51 -10 31 0 48 4 44 10 -3 6 -26 10 -51 10
-24 0 -44 -4 -44 -10z"/>
<path d="M8245 110 c-4 -6 13 -10 44 -10 28 0 51 5 51 10 0 6 -20 10 -44 10
-25 0 -48 -4 -51 -10z"/>
</g>
</svg>
