<?xml version="1.0" standalone="no"?>
<!DOCTYPE svg PUBLIC "-//W3C//DTD SVG 20010904//EN"
 "http://www.w3.org/TR/2001/REC-SVG-20010904/DTD/svg10.dtd">
<svg version="1.0" xmlns="http://www.w3.org/2000/svg"
 width="601.000000pt" height="341.000000pt" viewBox="0 0 601.000000 341.000000"
 preserveAspectRatio="xMidYMid meet">
<metadata>
Created by potrace 1.13, written by Peter Selinger 2001-2015
</metadata>
<g transform="translate(0.000000,341.000000) scale(0.100000,-0.100000)"
fill="#000000" stroke="none">
<path d="M4 3130 c0 -157 2 -221 3 -142 2 78 2 206 0 285 -1 78 -3 14 -3 -143z"/>
<path d="M5122 3338 l-2 -78 445 0 445 0 0 36 c0 27 -7 41 -30 61 -16 13 -30
31 -30 39 0 11 -32 13 -170 13 l-170 1 0 -70 0 -70 -110 0 -110 0 0 70 c0 40
-4 70 -10 70 -6 0 -10 -30 -10 -70 l0 -70 -120 0 -119 0 -4 73 -3 72 -2 -77z"/>
<path d="M5970 3402 c0 -5 9 -17 20 -27 20 -18 20 -17 20 8 0 20 -5 27 -20 27
-11 0 -20 -4 -20 -8z"/>
<path d="M5457 3393 c-2 -5 -3 -21 -3 -38 1 -29 3 -30 46 -30 45 0 45 0 48 38
l3 37 -45 0 c-25 0 -47 -3 -49 -7z m73 -28 c0 -9 -9 -15 -25 -15 -16 0 -25 6
-25 15 0 9 9 15 25 15 16 0 25 -6 25 -15z"/>
<path d="M3293 3363 c-16 -6 -18 -89 -3 -98 6 -3 10 3 10 14 0 14 6 21 19 21
11 0 23 9 26 21 10 31 -19 54 -52 42z m35 -30 c-5 -25 -28 -28 -28 -4 0 12 6
21 16 21 9 0 14 -7 12 -17z"/>
<path d="M1762 3321 c-15 -48 -15 -73 -1 -48 13 22 35 22 48 0 5 -10 13 -15
16 -11 10 10 -26 98 -40 98 -6 0 -17 -17 -23 -39z m32 -6 c3 -8 1 -15 -4 -15
-6 0 -10 7 -10 15 0 8 2 15 4 15 2 0 6 -7 10 -15z"/>
<path d="M1880 3350 c0 -5 -6 -10 -14 -10 -7 0 -19 -7 -26 -15 -20 -24 3 -65
35 -65 23 0 25 3 25 50 0 28 -4 50 -10 50 -5 0 -10 -4 -10 -10z m-2 -52 c-2
-13 -7 -23 -13 -23 -5 0 -11 10 -13 23 -2 15 2 22 13 22 11 0 15 -7 13 -22z"/>
<path d="M2631 3334 c-10 -22 -9 -31 4 -50 16 -25 49 -32 61 -12 5 8 2 9 -9 5
-18 -7 -47 17 -47 37 0 17 18 32 45 39 14 3 10 5 -11 6 -24 1 -33 -5 -43 -25z"/>
<path d="M3210 3350 c0 -5 -7 -10 -15 -10 -7 0 -19 -8 -25 -17 -10 -17 -10
-17 -20 0 -6 9 -22 17 -35 17 -22 0 -25 -4 -25 -40 0 -22 5 -40 10 -40 6 0 10
14 10 30 0 43 30 41 31 -2 1 -31 2 -31 8 -8 l7 25 12 -22 c8 -14 22 -23 37
-23 23 0 25 4 25 50 0 28 -4 50 -10 50 -5 0 -10 -4 -10 -10z m0 -49 c0 -23
-16 -36 -25 -21 -9 14 1 40 15 40 5 0 10 -9 10 -19z"/>
<path d="M3900 3352 c0 -4 -10 -12 -22 -17 -17 -7 -23 -18 -23 -40 0 -27 3
-30 30 -30 29 0 30 2 33 48 2 28 -1 47 -7 47 -6 0 -11 -3 -11 -8z m0 -50 c0
-10 -3 -22 -7 -25 -10 -11 -32 13 -26 29 8 20 33 17 33 -4z"/>
<path d="M4020 3310 c0 -27 5 -50 10 -50 6 0 10 5 10 11 0 8 5 7 15 -1 22 -18
31 -4 11 16 -16 15 -16 18 0 35 19 21 6 27 -14 7 -9 -9 -12 -7 -12 10 0 12 -4
22 -10 22 -5 0 -10 -22 -10 -50z"/>
<path d="M5205 3351 c-12 -21 7 -32 48 -29 29 3 42 8 42 18 0 18 -80 27 -90
11z"/>
<path d="M80 3305 l0 -45 65 0 65 0 0 45 0 45 -65 0 -65 0 0 -45z m25 1 c0
-15 -4 -21 -9 -16 -5 5 -6 16 -3 24 9 22 12 20 12 -8z m65 -14 c0 -15 -2 -15
-10 -2 -13 20 -13 33 0 25 6 -3 10 -14 10 -23z"/>
<path d="M2237 3342 c-10 -17 6 -82 19 -82 12 0 12 4 2 20 -10 16 -10 24 -1
39 10 15 9 20 -2 25 -8 3 -16 2 -18 -2z"/>
<path d="M2397 3342 c-10 -17 6 -82 19 -82 11 0 12 5 5 18 -12 22 -12 34 0 48
6 8 4 14 -5 17 -9 4 -17 3 -19 -1z"/>
<path d="M3682 3309 c4 -56 24 -63 23 -7 -1 24 -6 43 -14 46 -9 3 -11 -8 -9
-39z"/>
<path d="M4268 3342 c-26 -3 -28 -7 -27 -45 2 -29 3 -33 6 -15 5 30 32 60 34
37 1 -8 2 -18 4 -24 1 -5 3 -16 3 -22 1 -7 9 -13 17 -13 13 0 13 3 3 20 -10
16 -10 24 -1 39 14 23 4 29 -39 23z"/>
<path d="M1920 3298 c0 -23 3 -38 8 -34 7 8 8 13 11 41 2 29 21 15 21 -16 0
-17 4 -28 10 -24 6 3 10 17 10 31 0 13 5 24 10 24 6 0 10 -13 10 -30 0 -16 5
-30 11 -30 6 0 9 16 7 38 -3 37 -3 37 -50 40 l-48 2 0 -42z"/>
<path d="M2030 3300 c0 -22 5 -40 10 -40 6 0 10 18 10 40 0 22 -4 40 -10 40
-5 0 -10 -18 -10 -40z"/>
<path d="M2071 3298 c1 -38 2 -39 8 -14 9 41 31 46 31 7 0 -17 5 -31 10 -31
11 0 13 39 4 64 -3 9 -17 16 -30 16 -22 0 -24 -4 -23 -42z"/>
<path d="M2140 3300 c0 -22 5 -40 10 -40 6 0 10 18 10 40 0 22 -4 40 -10 40
-5 0 -10 -18 -10 -40z"/>
<path d="M2177 3326 c-3 -8 1 -20 9 -26 19 -17 18 -31 -3 -23 -11 4 -14 3 -9
-5 10 -17 36 -15 43 3 3 9 -2 22 -13 30 -18 13 -18 14 -1 15 23 0 22 20 -2 20
-10 0 -21 -6 -24 -14z"/>
<path d="M2280 3299 c0 -26 4 -38 11 -34 6 4 8 13 5 20 -2 7 2 22 10 34 14 19
14 21 -5 21 -18 0 -21 -6 -21 -41z"/>
<path d="M2330 3331 c0 -6 8 -11 18 -12 13 0 12 -3 -6 -11 -31 -15 -24 -42 11
-46 27 -3 28 -2 25 35 -2 31 -7 39 -25 41 -13 2 -23 -1 -23 -7z m30 -41 c0 -5
-4 -10 -10 -10 -5 0 -10 5 -10 10 0 6 5 10 10 10 6 0 10 -4 10 -10z"/>
<path d="M2440 3321 c-25 -47 36 -83 64 -38 8 12 8 22 0 35 -16 25 -51 27 -64
3z m50 -21 c0 -13 -7 -20 -20 -20 -19 0 -27 20 -13 33 13 14 33 6 33 -13z"/>
<path d="M2520 3298 c0 -38 11 -47 16 -12 5 32 14 44 29 38 8 -3 15 -2 15 3 0
5 -13 10 -30 11 -29 2 -30 1 -30 -40z"/>
<path d="M2720 3326 c-18 -22 -9 -60 16 -64 28 -4 48 22 40 53 -7 28 -36 34
-56 11z m40 -24 c0 -10 -3 -22 -7 -25 -10 -11 -32 13 -26 29 8 20 33 17 33 -4z"/>
<path d="M2790 3300 c0 -22 5 -40 10 -40 6 0 10 14 10 30 0 17 5 30 10 30 6 0
10 -11 10 -24 0 -14 5 -28 10 -31 6 -4 10 7 10 25 0 21 4 30 13 27 6 -2 12
-13 12 -25 0 -11 4 -25 9 -29 4 -4 6 10 4 32 l-3 40 -47 3 -48 2 0 -40z"/>
<path d="M2911 3298 c1 -38 2 -39 8 -14 9 41 31 46 31 7 0 -17 5 -31 10 -31 6
0 10 14 10 30 0 17 5 30 10 30 6 0 10 -13 10 -30 0 -16 5 -30 11 -30 6 0 9 16
7 38 -3 37 -3 37 -50 40 l-48 2 1 -42z"/>
<path d="M3030 3331 c0 -6 8 -11 18 -12 13 0 12 -3 -6 -11 -31 -15 -24 -42 11
-46 27 -3 28 -2 25 35 -2 31 -7 39 -25 41 -13 2 -23 -1 -23 -7z m30 -41 c0 -5
-5 -10 -11 -10 -5 0 -7 5 -4 10 3 6 8 10 11 10 2 0 4 -4 4 -10z"/>
<path d="M3360 3299 c0 -24 4 -38 10 -34 6 3 10 16 10 29 0 12 5 27 12 34 9 9
7 12 -10 12 -19 0 -22 -5 -22 -41z"/>
<path d="M3412 3328 c-27 -27 -3 -73 35 -66 27 5 25 72 -2 76 -11 1 -26 -3
-33 -10z m43 -18 c8 -13 -14 -42 -26 -34 -5 3 -9 14 -9 25 0 20 24 26 35 9z"/>
<path d="M3486 3332 c-10 -9 -7 -60 4 -67 6 -4 10 7 10 24 0 44 30 42 31 -1
l1 -33 7 29 c9 42 29 44 33 4 3 -26 6 -29 12 -15 5 9 6 28 2 40 -5 20 -12 24
-50 24 -24 1 -47 -1 -50 -5z"/>
<path d="M3600 3290 c0 -27 5 -50 10 -50 6 0 10 5 10 10 0 6 6 10 14 10 22 0
39 28 32 55 -5 20 -13 25 -36 25 -29 0 -30 -1 -30 -50z m50 10 c0 -11 -7 -20
-15 -20 -8 0 -15 9 -15 20 0 11 7 20 15 20 8 0 15 -9 15 -20z"/>
<path d="M3930 3300 c0 -22 5 -40 10 -40 6 0 10 18 10 40 0 22 -4 40 -10 40
-5 0 -10 -18 -10 -40z"/>
<path d="M3967 3326 c-3 -8 1 -20 9 -26 18 -16 18 -31 -1 -24 -8 4 -15 1 -15
-5 0 -17 40 -13 47 4 3 9 -2 22 -13 30 -18 13 -18 14 -1 15 23 0 22 20 -2 20
-10 0 -21 -6 -24 -14z"/>
<path d="M4090 3291 c0 -28 5 -51 10 -51 6 0 10 3 10 8 0 12 54 34 58 22 2 -5
15 -10 28 -10 21 0 24 5 24 35 0 38 -22 57 -43 36 -8 -8 -6 -11 8 -11 18 0 18
0 0 -14 -17 -12 -20 -11 -30 8 -6 12 -22 22 -38 24 -26 3 -27 2 -27 -47z m50
9 c0 -11 -7 -20 -15 -20 -8 0 -15 9 -15 20 0 11 7 20 15 20 8 0 15 -9 15 -20z
m60 -10 c0 -5 -5 -10 -11 -10 -5 0 -7 5 -4 10 3 6 8 10 11 10 2 0 4 -4 4 -10z"/>
<path d="M3768 3303 c6 -2 18 -2 25 0 6 3 1 5 -13 5 -14 0 -19 -2 -12 -5z"/>
<path d="M2565 3270 c3 -5 8 -10 11 -10 2 0 4 5 4 10 0 6 -5 10 -11 10 -5 0
-7 -4 -4 -10z"/>
<path d="M2570 3166 c0 -50 2 -57 15 -46 12 10 17 7 26 -14 12 -25 36 -38 26
-13 -3 6 -8 19 -12 29 -4 11 -1 17 10 20 12 2 6 12 -24 43 l-41 39 0 -58z"/>
<path d="M57 3163 c-4 -3 -7 -35 -7 -71 0 -49 3 -63 13 -59 10 4 12 -3 9 -23
-4 -31 15 -50 29 -29 6 9 9 10 9 2 0 -18 -20 -27 -33 -14 -22 22 -27 10 -27
-60 0 -57 4 -74 17 -85 12 -8 22 -9 30 -3 16 14 20 0 12 -41 -4 -22 -7 -27 -8
-12 -1 27 -31 30 -31 2 0 -11 -4 -20 -10 -20 -6 0 -10 -33 -10 -80 0 -77 1
-80 20 -68 14 9 22 10 31 1 8 -8 6 -11 -7 -10 -15 2 -19 -4 -17 -31 1 -27 -1
-31 -13 -21 -12 9 -14 5 -14 -26 0 -32 2 -36 15 -25 23 19 45 4 45 -30 0 -34
-22 -49 -45 -30 -13 11 -15 2 -15 -68 0 -81 0 -81 28 -84 24 -3 27 -7 27 -38
0 -31 -3 -35 -27 -38 l-28 -3 0 -394 0 -394 27 -3 c25 -3 28 -7 28 -38 0 -31
-3 -35 -27 -38 l-28 -3 0 -665 0 -664 2910 0 2910 0 -2 1583 -3 1582 -1607 3
c-885 1 -1608 -2 -1608 -6 0 -4 5 -13 12 -20 9 -9 8 -12 -6 -12 -14 0 -17 -5
-12 -24 9 -35 -13 -44 -34 -15 -16 20 -20 21 -34 10 -14 -12 -16 -9 -16 28 l0
41 -1248 0 c-687 0 -1252 -3 -1255 -7z m257 -141 c15 -18 15 -20 -6 -38 -23
-19 -23 -19 -6 2 17 19 17 21 1 37 -10 9 -15 17 -12 17 3 0 13 -8 23 -18z m86
-17 c0 -19 -4 -35 -10 -35 -5 0 -10 9 -10 20 0 11 -5 20 -11 20 -7 0 -9 -11
-6 -26 4 -24 3 -25 -11 -10 -15 15 -14 18 8 40 34 33 40 32 40 -9z m190 14 c0
-17 3 -19 13 -10 11 8 14 4 14 -20 0 -24 -2 -27 -10 -14 -8 15 -10 15 -23 -2
-12 -16 -13 -14 -14 25 0 23 5 42 10 42 6 0 10 -10 10 -21z m-420 1 c0 -5 -4
-10 -10 -10 -5 0 -10 5 -10 10 0 6 5 10 10 10 6 0 10 -4 10 -10z m66 -22 l29
-33 -32 29 c-31 28 -38 36 -30 36 2 0 16 -15 33 -32z m656 14 c-7 -2 -12 -13
-12 -23 0 -13 4 -18 12 -13 7 4 8 3 4 -5 -10 -16 -36 5 -36 29 0 23 9 30 28
22 10 -4 12 -7 4 -10z m-430 -20 c3 -20 0 -28 -12 -28 -10 0 -15 10 -15 28 0
15 5 28 11 28 7 0 14 -13 16 -28z m73 18 c3 -6 -1 -7 -9 -4 -9 3 -16 1 -16 -6
0 -6 -5 -8 -10 -5 -6 4 -8 11 -5 16 8 12 32 12 40 -1z m125 -21 c0 -10 5 -19
11 -19 7 0 9 11 6 26 -4 24 -3 25 12 9 15 -15 14 -18 -8 -36 -33 -27 -41 -24
-41 17 0 21 4 33 10 29 6 -3 10 -15 10 -26z m98 1 c3 -20 1 -23 -9 -12 -18 17
-34 15 -19 -3 8 -9 9 -15 2 -15 -20 0 -25 23 -8 36 13 9 14 13 4 18 -7 3 -4 5
7 3 13 -1 21 -11 23 -27z m50 -3 c5 -37 -15 -34 -20 3 -3 19 -1 29 6 27 6 -2
12 -16 14 -30z m32 12 c0 -6 -4 -7 -10 -4 -5 3 -10 11 -10 16 0 6 5 7 10 4 6
-3 10 -11 10 -16z m-670 -19 c0 -5 -4 -10 -10 -10 -5 0 -10 5 -10 10 0 6 5 10
10 10 6 0 10 -4 10 -10z m362 -12 c-7 -7 -16 -6 -29 1 -16 11 -15 11 6 5 17
-4 21 -3 16 6 -6 9 -4 11 4 5 9 -5 9 -11 3 -17z m-362 -148 c0 -5 -5 -10 -11
-10 -5 0 -7 5 -4 10 3 6 8 10 11 10 2 0 4 -4 4 -10z m436 -2 c5 -7 3 -8 -5 -3
-9 5 -12 1 -11 -11 4 -34 0 -54 -10 -54 -15 0 -12 67 3 73 6 3 13 6 14 6 1 1
5 -4 9 -11z m224 -2 c18 -23 8 -61 -17 -64 -21 -3 -23 1 -23 37 0 43 17 54 40
27z m65 4 c3 -5 1 -10 -4 -10 -6 0 -11 5 -11 10 0 6 2 10 4 10 3 0 8 -4 11
-10z m125 -11 c0 -16 4 -19 23 -14 18 6 20 5 10 -6 -9 -9 -10 -16 -2 -26 8 -9
8 -13 1 -13 -6 0 -13 6 -15 13 -4 9 -8 9 -15 -2 -7 -10 -11 -2 -14 28 -2 22 0
41 4 41 5 0 8 -9 8 -21z m107 5 c3 -8 1 -20 -5 -26 -8 -8 -9 -5 -5 11 3 12 1
21 -6 21 -6 0 -11 -16 -11 -35 0 -19 -4 -35 -10 -35 -5 0 -10 18 -10 40 0 34
3 40 20 40 11 0 23 -7 27 -16z m915 3 c-6 -7 -9 -25 -8 -40 2 -15 -1 -27 -5
-27 -13 0 -11 54 3 68 16 16 23 15 10 -1z m164 -1 c6 -16 -25 -65 -40 -66 -5
0 0 10 12 23 23 24 29 47 13 47 -5 0 -11 -6 -14 -12 -2 -7 -8 -9 -13 -5 -5 4
-2 12 6 17 21 13 30 12 36 -4z m144 4 c17 -11 4 -60 -19 -68 -9 -3 -11 0 -7 7
4 7 2 18 -4 26 -12 15 -7 45 7 45 4 0 15 -4 23 -10z m76 -4 c6 -16 -25 -65
-40 -66 -5 0 0 10 12 23 32 34 26 67 -6 35 -7 -7 -12 -8 -12 -2 0 26 37 33 46
10z m82 -28 c2 -21 -1 -38 -6 -38 -6 0 -8 9 -5 20 3 12 0 20 -7 20 -10 0 -10
3 0 15 10 12 9 15 -4 15 -12 0 -17 -7 -16 -22 3 -38 1 -50 -10 -43 -11 7 -14
58 -3 69 4 4 16 6 28 4 15 -2 21 -12 23 -40z m69 30 c12 -21 14 -56 3 -63 -6
-3 -10 3 -10 15 0 12 -4 18 -10 15 -14 -9 -13 8 2 23 9 9 8 12 -6 12 -12 0
-17 -7 -16 -22 3 -37 1 -50 -9 -43 -11 6 -9 44 3 63 9 16 33 15 43 0z m-1905
-27 c-5 -3 -12 -15 -14 -26 -4 -18 -6 -18 -13 -2 -10 25 1 48 20 40 9 -3 12
-9 7 -12z m658 9 c13 -8 12 -10 -2 -10 -10 0 -18 -6 -18 -14 0 -8 8 -17 18
-19 13 -4 13 -5 -4 -6 -16 -1 -23 6 -26 24 -7 35 4 43 32 25z m-1160 -25 c0
-14 -4 -25 -9 -25 -5 0 -11 11 -13 25 -4 17 -1 25 8 25 8 0 14 -11 14 -25z
m74 16 c3 -5 -2 -8 -12 -7 -10 0 -16 -6 -16 -16 1 -10 -2 -18 -7 -18 -10 0
-12 34 -2 43 9 10 31 9 37 -2z m56 -22 c0 -10 -4 -19 -10 -19 -5 0 -10 12 -10
26 0 14 4 23 10 19 6 -3 10 -15 10 -26z m30 10 c0 -6 -4 -7 -10 -4 -5 3 -10
11 -10 16 0 6 5 7 10 4 6 -3 10 -11 10 -16z m67 5 c3 -8 1 -20 -6 -27 -8 -8
-11 -5 -11 11 0 12 -4 22 -10 22 -5 0 -10 -10 -10 -22 0 -15 -3 -19 -10 -12
-15 15 -1 44 21 44 11 0 22 -7 26 -16z m51 2 c-7 -8 -16 -12 -21 -9 -11 7 2
23 19 23 12 0 12 -2 2 -14z m90 -14 c2 -12 -1 -22 -6 -22 -6 0 -8 9 -5 20 3
11 0 20 -6 20 -6 0 -11 -10 -11 -22 0 -16 -3 -19 -11 -11 -16 16 -3 45 18 41
10 -2 19 -13 21 -26z m360 0 c5 -31 -15 -27 -21 3 -3 16 0 24 7 22 6 -2 12
-13 14 -25z m72 24 c0 -2 -9 -6 -20 -9 -11 -3 -18 -1 -14 4 5 9 34 13 34 5z
m228 -24 c4 -23 -13 -31 -21 -9 -4 9 -8 9 -15 -2 -7 -10 -11 -10 -17 -1 -4 7
1 14 15 17 17 4 19 8 8 15 -9 7 -8 8 7 6 12 -2 21 -12 23 -26z m44 16 c6 -15
-1 -38 -10 -38 -4 0 -7 11 -7 25 0 26 10 33 17 13z m33 2 c3 -5 -1 -10 -9 -10
-9 0 -16 5 -16 10 0 6 4 10 9 10 6 0 13 -4 16 -10z m186 -30 c5 0 9 9 9 20 0
11 5 20 10 20 15 0 12 -26 -5 -40 -19 -16 -35 -4 -34 23 2 22 2 22 6 0 2 -13
9 -23 14 -23z m94 31 c3 -5 1 -12 -5 -16 -5 -3 -10 -1 -10 4 0 6 -4 11 -9 11
-6 0 -8 -9 -6 -20 2 -11 0 -20 -6 -20 -10 0 -12 33 -2 43 9 10 31 9 38 -2z
m51 -19 c2 -30 -13 -28 -19 3 -3 16 0 24 7 22 6 -2 12 -13 12 -25z m34 7 c0
-6 -4 -7 -10 -4 -5 3 -10 11 -10 16 0 6 5 7 10 4 6 -3 10 -11 10 -16z m54 13
c2 -4 -4 -8 -15 -8 -10 0 -19 4 -19 8 0 4 6 8 14 8 8 0 17 -4 20 -8z m76 -17
c0 -14 -4 -25 -9 -25 -5 0 -11 11 -13 25 -4 17 -1 25 8 25 8 0 14 -11 14 -25z
m77 9 c3 -8 1 -20 -5 -26 -7 -7 -10 -5 -9 7 1 10 -4 20 -12 23 -10 3 -12 -1
-8 -17 3 -11 1 -21 -4 -21 -10 0 -12 33 -2 43 12 12 33 7 40 -9z m69 -12 c1
-18 1 -19 -3 -2 -6 26 -23 26 -23 0 0 -11 -4 -20 -10 -20 -5 0 -10 12 -10 26
0 21 4 25 23 22 15 -2 22 -10 23 -26z m146 -14 c-9 -9 -12 -7 -12 12 0 19 3
21 12 12 9 -9 9 -15 0 -24z m-362 2 c0 -5 -2 -10 -4 -10 -3 0 -8 5 -11 10 -3
6 -1 10 4 10 6 0 11 -4 11 -10z m577 -6 c-3 -3 -12 -4 -19 -1 -8 3 -5 6 6 6
11 1 17 -2 13 -5z m-1687 -190 c0 -19 -4 -34 -10 -34 -5 0 -10 18 -10 41 0 24
4 38 10 34 6 -3 10 -22 10 -41z m228 26 c-10 -16 -10 -24 0 -40 7 -11 9 -20 4
-20 -4 0 -13 9 -20 21 -11 18 -11 24 4 40 22 25 27 24 12 -1z m89 0 c4 -12 3
-13 -5 -1 -15 21 -34 2 -30 -30 4 -23 2 -26 -9 -18 -7 7 -13 19 -13 28 0 37
48 54 57 21z m54 -42 l-23 -23 13 23 c12 18 12 26 0 45 l-13 22 23 -22 23 -23
-23 -22z m233 47 c6 -17 -12 -65 -25 -65 -5 0 -4 12 1 26 13 32 13 44 0 44 -5
0 -10 -8 -10 -17 0 -12 -3 -14 -11 -6 -6 6 -8 16 -5 22 10 16 43 13 50 -4z
m71 4 c8 -12 -14 -69 -26 -69 -5 0 -4 12 1 26 13 33 13 44 -1 44 -6 0 -9 -7
-5 -15 3 -8 1 -15 -4 -15 -11 0 -13 23 -3 33 10 10 31 8 38 -4z m72 -5 c7 -19
-12 -64 -28 -64 -8 0 -8 4 0 14 10 11 8 16 -5 24 -10 6 -15 16 -11 26 8 20 36
21 44 0z m148 6 c4 -6 -5 -24 -19 -41 -14 -17 -26 -26 -26 -21 0 5 7 15 15 22
16 14 20 40 6 40 -5 0 -12 -6 -14 -12 -3 -8 -6 -6 -6 5 -1 19 33 24 44 7z m83
-24 c2 -16 -1 -33 -7 -39 -10 -10 -15 8 -14 51 1 6 -5 12 -13 12 -8 0 -14 -9
-14 -21 0 -11 5 -17 10 -14 6 3 10 1 10 -4 0 -6 -5 -11 -11 -11 -5 0 -7 -4 -4
-10 3 -5 1 -10 -4 -10 -12 0 -15 63 -4 74 17 17 48 0 51 -28z m130 22 c7 -10
3 -21 -14 -42 -14 -15 -27 -26 -30 -24 -2 3 5 13 16 23 27 25 27 48 -1 40 -15
-5 -19 -4 -15 4 9 15 31 14 44 -1z m139 0 c10 26 23 10 23 -28 0 -22 -4 -40
-10 -40 -5 0 -10 9 -10 20 0 27 -28 25 -33 -2 -2 -13 -5 -3 -6 21 -1 39 1 42
16 30 13 -11 17 -11 20 -1z m519 0 c5 -8 2 -9 -10 -5 -14 6 -16 1 -13 -28 3
-23 0 -35 -8 -35 -7 0 -11 12 -10 28 3 46 24 67 41 40z m224 2 c0 -5 -7 -7
-15 -4 -20 8 -31 -24 -16 -47 13 -23 -1 -25 -19 -4 -18 21 2 65 30 65 11 0 20
-4 20 -10z m570 0 c0 -5 -2 -10 -4 -10 -3 0 -8 5 -11 10 -3 6 -1 10 4 10 6 0
11 -4 11 -10z m-2487 -38 c-3 -8 0 -18 8 -24 11 -7 9 -8 -6 -6 -21 3 -31 29
-20 56 5 13 8 14 15 3 4 -8 6 -21 3 -29z m441 -1 c1 -17 -3 -31 -8 -31 -9 0
-12 39 -7 69 3 14 13 -13 15 -38z m508 4 c2 -20 0 -35 -7 -35 -7 0 -12 48 -6
68 4 11 10 -4 13 -33z m1457 7 c-13 -5 -11 -29 4 -36 6 -3 3 -5 -8 -3 -21 2
-31 28 -21 53 5 12 8 13 20 2 8 -7 10 -14 5 -16z m-664 -3 c-5 -14 -2 -25 6
-30 11 -7 11 -9 -2 -9 -16 0 -32 43 -21 55 13 13 23 3 17 -16z m-2260 -14 c0
-14 -3 -25 -7 -25 -5 0 -8 11 -8 25 0 14 3 25 8 25 4 0 7 -11 7 -25z m35 0 c0
-8 -4 -17 -10 -20 -6 -4 -10 5 -10 20 0 15 4 24 10 20 6 -3 10 -12 10 -20z
m40 13 c0 -7 3 -23 6 -35 4 -16 2 -23 -7 -23 -9 0 -14 12 -14 35 0 19 3 35 8
35 4 0 7 -6 7 -12z m40 -13 c0 -8 -3 -16 -7 -18 -5 -3 -8 5 -8 18 0 13 3 21 8
18 4 -2 7 -10 7 -18z m40 4 c0 -11 -4 -17 -10 -14 -5 3 -10 13 -10 21 0 8 5
14 10 14 6 0 10 -9 10 -21z m19 -25 c-7 -13 -18 -24 -26 -24 -9 0 -6 7 7 20
11 11 20 28 21 38 0 11 2 13 6 4 3 -8 0 -25 -8 -38z m51 21 c0 -14 -4 -25 -10
-25 -5 0 -10 11 -10 25 0 14 5 25 10 25 6 0 10 -11 10 -25z m35 15 c3 -5 -1
-10 -9 -10 -9 0 -16 5 -16 10 0 6 4 10 9 10 6 0 13 -4 16 -10z m57 -15 c3 -16
1 -25 -7 -25 -7 0 -15 11 -17 25 -3 16 -1 25 7 25 7 0 15 -11 17 -25z m51 4
c-4 -13 -9 -17 -15 -11 -11 11 -3 32 12 32 4 0 6 -9 3 -21z m29 -10 c-5 -33
-27 -48 -44 -31 -8 8 -5 9 10 6 13 -4 20 -1 19 8 -1 29 3 48 11 48 5 0 7 -14
4 -31z m78 6 c0 -14 -2 -25 -4 -25 -2 0 -6 11 -8 25 -3 14 -1 25 3 25 5 0 9
-11 9 -25z m1292 0 c3 -15 1 -25 -6 -25 -6 0 -11 11 -11 25 0 14 3 25 6 25 4
0 9 -11 11 -25z m66 18 c-10 -2 -18 -11 -18 -18 0 -7 8 -16 18 -18 13 -4 12
-5 -5 -6 -12 0 -25 4 -28 9 -12 19 4 40 27 39 17 -1 18 -2 6 -6z m62 -18 c0
-14 -4 -25 -10 -25 -5 0 -9 11 -8 25 1 14 6 25 10 25 4 0 8 -11 8 -25z m35 15
c3 -5 2 -10 -4 -10 -5 0 -13 5 -16 10 -3 6 -2 10 4 10 5 0 13 -4 16 -10z m30
-14 c0 -15 -4 -21 -9 -16 -5 5 -6 16 -3 24 9 22 12 20 12 -8z m35 -1 c0 -25
-16 -24 -18 1 -1 15 2 22 8 19 6 -3 10 -12 10 -20z m147 9 c3 -8 1 -20 -6 -27
-8 -8 -11 -5 -11 11 0 12 -4 22 -10 22 -5 0 -10 -10 -10 -22 0 -16 -3 -19 -11
-11 -17 17 -3 43 21 43 11 0 23 -7 27 -16z m328 -9 c0 -14 -3 -25 -7 -25 -5 0
-8 11 -8 25 0 14 3 25 8 25 4 0 7 -11 7 -25z m35 0 c0 -8 -4 -17 -10 -20 -6
-4 -10 5 -10 20 0 15 4 24 10 20 6 -3 10 -12 10 -20z m46 -3 c1 -12 -4 -22
-10 -22 -6 0 -11 11 -11 25 0 30 20 27 21 -3z m29 18 c3 -5 1 -10 -4 -10 -6 0
-11 5 -11 10 0 6 2 10 4 10 3 0 8 -4 11 -10z m45 -31 c0 -16 -4 -29 -10 -29
-5 0 -10 16 -10 36 0 21 4 33 10 29 6 -3 10 -19 10 -36z m30 16 c0 -14 -3 -25
-7 -25 -5 0 -8 11 -8 25 0 14 3 25 8 25 4 0 7 -11 7 -25z m67 9 c3 -8 1 -20
-6 -27 -8 -8 -11 -5 -11 11 0 12 -5 22 -11 22 -6 0 -9 -9 -6 -20 3 -11 1 -20
-4 -20 -5 0 -9 11 -9 25 0 18 5 25 20 25 11 0 23 -7 27 -16z m80 3 c4 -6 0 -8
-10 -4 -15 6 -22 -3 -18 -25 0 -5 -5 -8 -11 -8 -7 0 -13 11 -13 24 0 18 5 24
23 24 12 0 25 -5 29 -11z m65 -12 c6 -28 -6 -34 -16 -9 -8 22 -7 34 3 34 5 0
11 -11 13 -25z m138 0 c0 -14 -4 -25 -9 -25 -5 0 -11 11 -13 25 -4 17 -1 25 8
25 8 0 14 -11 14 -25z m77 9 c3 -8 1 -20 -5 -26 -8 -8 -9 -5 -5 11 4 15 1 21
-12 21 -13 0 -16 -6 -12 -21 4 -16 3 -19 -5 -11 -14 14 -3 42 17 42 9 0 18 -7
22 -16z m72 -11 c-2 -24 -2 -25 -6 -5 -5 27 -23 29 -23 2 0 -11 -4 -20 -10
-20 -5 0 -10 11 -10 25 0 20 5 25 25 25 21 0 25 -4 24 -27z m-319 -9 c0 -8 -5
-12 -10 -9 -6 4 -8 11 -5 16 9 14 15 11 15 -7z m-2870 -4 c0 -5 -5 -10 -11
-10 -5 0 -7 5 -4 10 3 6 8 10 11 10 2 0 4 -4 4 -10z m800 0 c0 -5 -5 -10 -11
-10 -5 0 -7 5 -4 10 3 6 8 10 11 10 2 0 4 -4 4 -10z m1300 0 c0 -5 -4 -10 -10
-10 -5 0 -10 5 -10 10 0 6 5 10 10 10 6 0 10 -4 10 -10z m1157 -6 c-3 -3 -12
-4 -19 -1 -8 3 -5 6 6 6 11 1 17 -2 13 -5z m-2310 -79 c2 -35 0 -38 -11 -22
-16 21 -26 22 -26 2 0 -8 -3 -15 -7 -15 -5 0 -8 18 -8 40 0 38 2 41 25 38 22
-3 25 -8 27 -43z m61 38 c-12 -3 -18 -14 -18 -33 0 -19 6 -30 18 -33 10 -3 6
-5 -10 -6 -26 -1 -28 2 -28 39 0 37 2 40 28 39 16 -1 20 -3 10 -6z m78 -4 c4
-8 0 -9 -15 -4 -16 5 -21 2 -21 -11 0 -13 -3 -15 -11 -7 -6 6 -8 16 -5 22 9
14 43 14 52 0z m79 1 c4 -6 -4 -9 -17 -7 -19 2 -23 -3 -23 -23 0 -20 4 -25 23
-23 13 2 21 -1 17 -7 -12 -20 -45 -10 -51 15 -10 38 32 75 51 45z m40 -60 c9
0 15 14 18 38 l4 37 -1 -40 c-1 -33 -5 -40 -21 -40 -16 0 -20 7 -21 35 -1 35
-1 35 3 3 3 -20 10 -33 18 -33z m93 63 c-12 -3 -18 -14 -18 -33 0 -19 6 -30
18 -33 10 -3 6 -5 -10 -6 -26 -1 -28 2 -28 39 0 37 2 40 28 39 16 -1 20 -3 10
-6z m148 -4 c4 -8 0 -9 -15 -4 -16 5 -21 2 -21 -11 0 -10 -3 -15 -6 -11 -10
10 4 37 20 37 8 0 18 -5 22 -11z m68 4 c-15 -3 -21 -12 -21 -33 0 -21 6 -30
21 -33 15 -3 12 -5 -9 -6 -29 -1 -30 1 -30 39 0 38 1 40 30 39 21 -1 24 -3 9
-6z m82 -38 c1 -22 -1 -32 -3 -22 -5 21 -23 23 -23 2 0 -8 -4 -15 -10 -15 -5
0 -10 18 -10 41 0 36 2 40 23 37 18 -2 22 -10 23 -43z m45 -19 c5 -6 9 4 9 27
0 20 5 37 10 37 15 0 12 -56 -5 -70 -22 -18 -35 -3 -34 38 2 34 2 34 6 7 3
-16 9 -34 14 -39z m92 57 c-30 -6 -30 -60 1 -66 15 -3 12 -5 -9 -6 -29 -1 -30
1 -30 39 0 38 1 40 30 39 22 -1 24 -3 8 -6z m84 -38 c2 -31 0 -36 -8 -22 -5 9
-14 17 -19 17 -5 0 -10 -8 -12 -17 -3 -10 -6 1 -9 25 -4 41 -4 43 21 40 22 -3
25 -8 27 -43z m148 5 c0 -31 -3 -35 -27 -38 -26 -3 -28 -1 -28 31 0 40 7 49
35 45 16 -2 20 -10 20 -38z m-1406 2 c-13 -5 -11 -29 4 -36 6 -3 3 -5 -8 -3
-21 2 -31 28 -21 53 5 12 8 13 20 2 8 -7 10 -14 5 -16z m228 12 c-3 -3 -12 -4
-19 -1 -8 3 -5 6 6 6 11 1 17 -2 13 -5z m-755 -29 c-2 -14 -6 -25 -8 -25 -2 0
-4 11 -4 25 0 14 4 25 9 25 4 0 6 -11 3 -25z m38 -6 c0 -10 -4 -19 -10 -19 -5
0 -10 12 -10 26 0 14 4 23 10 19 6 -3 10 -15 10 -26z m128 -12 c12 -3 11 -5
-5 -6 -26 -1 -38 14 -27 37 6 15 8 14 11 -5 2 -12 12 -24 21 -26z m87 18 c0
-25 -40 -33 -49 -10 -9 24 2 37 27 33 14 -2 22 -10 22 -23z m83 -2 c2 -13 -1
-23 -7 -23 -6 0 -11 9 -11 20 0 27 -28 25 -33 -2 -4 -19 -4 -18 -6 5 -1 25 2
28 27 25 19 -2 28 -9 30 -25z m32 7 c0 -12 7 -20 16 -20 11 0 15 6 11 20 -3
11 -1 18 4 14 15 -9 10 -28 -11 -47 -29 -24 -35 -21 -35 18 0 19 3 35 8 35 4
0 7 -9 7 -20z m73 -5 c3 -16 0 -24 -7 -22 -14 4 -21 47 -8 47 5 0 12 -11 15
-25z m29 0 c3 -13 1 -22 -3 -19 -9 5 -13 44 -5 44 2 0 6 -11 8 -25z m115 6
c-3 -13 1 -22 12 -25 11 -3 9 -4 -4 -3 -22 2 -35 47 -15 47 7 0 10 -8 7 -19z
m28 9 c3 -5 1 -10 -4 -10 -6 0 -11 5 -11 10 0 6 2 10 4 10 3 0 8 -4 11 -10z
m53 -18 c2 -13 -2 -22 -10 -22 -7 0 -13 11 -13 25 0 30 19 27 23 -3z m32 18
c0 -5 -4 -10 -10 -10 -5 0 -10 5 -10 10 0 6 5 10 10 10 6 0 10 -4 10 -10z
m354 -31 c-7 -13 -41 -11 -50 2 -4 8 1 9 16 4 19 -6 22 -4 16 10 -5 15 -4 16
9 5 8 -7 12 -16 9 -21z m366 10 c0 -16 -31 -22 -43 -10 -9 9 -8 11 7 5 15 -6
18 -4 13 9 -4 11 -2 14 9 10 7 -3 14 -9 14 -14z m-665 1 c3 -5 -1 -10 -10 -10
-9 0 -13 5 -10 10 3 6 8 10 10 10 2 0 7 -4 10 -10z m-730 -200 c0 -26 -5 -40
-13 -40 -9 0 -12 13 -10 40 1 22 7 40 12 40 6 0 11 -18 11 -40z m50 30 c-4 -6
4 -19 17 -30 18 -14 20 -21 11 -31 -13 -13 -43 -5 -43 12 0 8 4 8 15 -1 9 -7
19 -10 23 -6 4 4 -4 15 -17 25 -20 15 -23 41 -5 41 3 0 2 -5 -1 -10z m85 -7
c1 -17 2 -17 13 -2 11 14 13 10 13 -24 1 -39 1 -40 -12 -16 l-13 24 -1 -22 c0
-13 -4 -23 -10 -23 -5 0 -10 18 -10 40 0 38 20 60 20 23z m103 11 c10 -10 -4
-34 -20 -34 -10 0 -14 -7 -10 -20 3 -13 0 -20 -9 -20 -10 0 -14 12 -14 40 0
35 3 40 23 40 13 0 26 -3 30 -6z m55 -6 c14 -14 16 -68 2 -68 -5 0 -10 16 -10
36 0 22 -4 33 -11 29 -6 -4 -8 -12 -6 -19 2 -6 1 -20 -4 -31 -6 -16 -8 -12 -8
16 -1 48 12 62 37 37z m56 -15 c-3 -48 -4 -53 -11 -53 -5 0 -8 18 -8 40 0 22
5 40 10 40 6 0 10 -12 9 -27z m33 -20 c1 -19 0 -33 -3 -30 -3 3 -7 21 -8 41
-2 20 -1 34 3 31 3 -3 6 -22 8 -42z m55 7 c-5 -49 -22 -53 -22 -6 0 19 -6 37
-12 39 -7 3 -2 6 12 6 24 1 25 -2 22 -39z m70 -22 c-12 -12 -22 -17 -22 -11 0
7 8 16 17 22 16 9 16 11 -2 33 l-19 23 24 -22 24 -23 -22 -22z m136 32 c-5
-34 9 -51 23 -29 7 11 9 10 9 -3 0 -13 -8 -18 -27 -18 -26 0 -28 3 -28 40 0
27 4 40 14 40 9 0 12 -9 9 -30z m82 -10 c0 -22 -4 -40 -10 -40 -5 0 -10 18
-10 40 0 22 5 40 10 40 6 0 10 -18 10 -40z m54 29 c-4 -7 4 -20 17 -30 18 -14
21 -21 12 -30 -14 -14 -43 -5 -43 13 0 9 3 9 10 -2 5 -8 13 -11 17 -6 4 4 0
13 -10 20 -19 14 -23 46 -6 46 5 0 7 -5 3 -11z m31 1 c3 -5 1 -10 -4 -10 -6 0
-11 5 -11 10 0 6 2 10 4 10 3 0 8 -4 11 -10z m66 1 c-9 -6 -12 -20 -9 -40 3
-19 0 -31 -7 -31 -7 0 -10 12 -7 31 3 20 0 34 -9 40 -10 6 -5 9 16 9 21 0 26
-3 16 -9z m156 -3 c16 -21 0 -63 -25 -66 -20 -3 -22 1 -22 37 0 33 3 41 19 41
10 0 23 -6 28 -12z m58 -28 c0 -22 -4 -40 -10 -40 -5 0 -10 18 -10 40 0 22 5
40 10 40 6 0 10 -18 10 -40z m50 30 c-4 -6 4 -19 17 -30 18 -14 20 -21 11 -31
-13 -13 -43 -5 -43 12 0 8 4 8 15 -1 9 -7 18 -10 22 -7 3 4 -5 15 -17 25 -20
16 -22 42 -4 42 3 0 2 -5 -1 -10z m35 0 c0 -5 -2 -10 -4 -10 -3 0 -8 5 -11 10
-3 6 -1 10 4 10 6 0 11 -4 11 -10z m50 -7 c1 -17 2 -17 13 -2 11 14 12 11 12
-22 0 -36 0 -37 -12 -16 l-12 22 -1 -22 c0 -13 -4 -23 -10 -23 -5 0 -10 18
-10 40 0 38 20 60 20 23z m-1132 -232 c4 -26 -9 -44 -35 -46 -14 -1 -18 7 -18
37 0 36 2 39 25 36 18 -2 26 -10 28 -27z m182 8 c0 -16 4 -19 17 -15 10 4 14
4 10 0 -4 -4 -2 -13 4 -21 9 -9 8 -13 0 -13 -6 0 -11 5 -11 10 0 17 -18 11
-22 -7 -3 -10 -6 1 -9 25 -2 23 -1 42 3 42 5 0 8 -9 8 -21z m175 -13 c1 -14
-3 -32 -7 -39 -6 -9 -8 -9 -8 0 0 7 -7 10 -15 7 -12 -5 -15 2 -15 30 0 32 3
35 23 32 16 -2 22 -10 22 -30z m75 -1 c0 -28 -3 -32 -25 -32 -22 0 -25 4 -25
32 0 28 3 33 25 33 22 0 25 -5 25 -33z m73 3 c-2 -51 -2 -51 -18 -38 -12 10
-15 10 -15 -1 0 -11 -2 -11 -8 -2 -6 9 -8 62 -3 69 1 1 11 1 23 0 17 -1 22 -7
21 -28z m182 22 c-4 -6 4 -19 17 -30 20 -17 21 -21 8 -30 -19 -12 -33 -8 -38
11 -3 12 -2 12 7 -1 5 -8 13 -11 17 -7 4 4 0 15 -9 25 -19 21 -22 42 -6 42 5
0 7 -5 4 -10z m30 0 c3 -5 1 -10 -4 -10 -6 0 -11 5 -11 10 0 6 2 10 4 10 3 0
8 -4 11 -10z m1060 0 c-4 -6 4 -19 17 -29 13 -11 20 -22 16 -26 -9 -9 -48 31
-48 50 0 8 5 15 11 15 5 0 7 -5 4 -10z m30 0 c3 -5 1 -10 -4 -10 -6 0 -11 5
-11 10 0 6 2 10 4 10 3 0 8 -4 11 -10z m629 -5 c-4 -10 0 -15 12 -15 18 -1 18
-1 2 -11 -9 -5 -15 -15 -12 -23 3 -7 -1 -13 -8 -13 -9 0 -12 12 -10 39 2 21 8
38 13 38 4 0 6 -7 3 -15z m36 5 c0 -5 -2 -10 -4 -10 -3 0 -8 5 -11 10 -3 6 -1
10 4 10 6 0 11 -4 11 -10z m620 -24 c0 -19 -4 -38 -10 -41 -6 -4 -10 10 -10
34 0 23 5 41 10 41 6 0 10 -15 10 -34z m30 -1 c0 -13 -3 -26 -7 -28 -5 -3 -8
10 -8 28 0 18 3 31 8 28 4 -2 7 -15 7 -28z m333 28 c-7 -2 -13 -15 -13 -27 0
-12 6 -28 13 -36 10 -12 9 -12 -5 -1 -28 21 -23 72 6 70 6 0 5 -3 -1 -6z m32
-3 c3 -5 1 -10 -4 -10 -6 0 -11 5 -11 10 0 6 2 10 4 10 3 0 8 -4 11 -10z
m-2720 -31 c-5 -14 -2 -19 12 -19 15 0 15 -2 3 -9 -8 -6 -17 -8 -21 -5 -9 5
-18 52 -11 58 11 11 22 -7 17 -25z m147 -5 c-4 -20 -2 -25 8 -19 9 5 11 4 6
-4 -6 -9 -11 -9 -22 0 -15 12 -19 41 -8 52 13 13 21 -3 16 -29z m2688 5 c0
-20 4 -28 12 -23 7 4 8 3 4 -4 -4 -6 -13 -9 -21 -5 -17 6 -21 63 -5 63 6 0 10
-14 10 -31z m-2736 -19 c6 -23 6 -23 -7 -7 -17 21 -31 23 -24 3 4 -10 1 -13
-9 -9 -20 8 -17 24 6 30 11 3 17 10 13 17 -4 7 -3 8 4 1 6 -5 14 -21 17 -35z
m108 11 c2 -17 1 -28 -4 -25 -8 5 -12 54 -4 54 2 0 6 -13 8 -29z m969 6 c-10
-9 -11 -8 -5 6 3 10 9 15 12 12 3 -3 0 -11 -7 -18z m569 -7 c0 -10 -4 -22 -10
-25 -6 -4 -10 7 -10 25 0 18 4 29 10 25 6 -3 10 -15 10 -25z m30 9 c0 -6 -4
-7 -10 -4 -5 3 -10 11 -10 16 0 6 5 7 10 4 6 -3 10 -11 10 -16z m34 10 c-4 -8
0 -9 15 -4 12 4 21 2 21 -4 0 -6 -9 -11 -21 -11 -15 0 -19 -5 -15 -16 3 -8 2
-12 -4 -9 -11 7 -13 38 -3 48 10 11 15 8 7 -4z m92 -2 c8 3 14 0 14 -6 0 -6
-9 -11 -20 -11 -14 0 -18 -5 -13 -17 4 -11 3 -14 -5 -9 -13 8 -16 39 -5 50 4
4 9 3 11 -3 2 -5 10 -7 18 -4z m505 -27 c5 0 9 7 9 15 0 8 5 15 10 15 17 0 11
-26 -12 -46 -12 -10 -18 -14 -15 -7 4 6 3 14 -3 18 -5 3 -9 16 -9 28 2 22 2
22 6 0 2 -13 9 -23 14 -23z m50 4 c-9 -28 -9 -29 -10 -3 -1 14 2 29 6 32 11
12 13 2 4 -29z m-3166 16 c-4 -6 -2 -16 4 -23 7 -9 5 -13 -8 -14 -14 -1 -17 4
-13 23 2 13 9 24 14 24 5 0 6 -5 3 -10z m75 -22 c0 -5 -9 -3 -20 4 -11 7 -20
16 -20 20 0 5 9 3 20 -4 11 -7 20 -16 20 -20z m880 12 c0 -11 -4 -20 -10 -20
-5 0 -10 9 -10 20 0 11 5 20 10 20 6 0 10 -9 10 -20z m40 10 c0 -5 -2 -10 -4
-10 -3 0 -8 5 -11 10 -3 6 -1 10 4 10 6 0 11 -4 11 -10z m817 -22 c-3 -7 -5
-2 -5 12 0 14 2 19 5 13 2 -7 2 -19 0 -25z m153 20 c0 -4 -7 -8 -16 -8 -11 0
-14 -5 -10 -17 7 -17 6 -17 -10 -1 -9 9 -14 20 -11 25 7 11 47 12 47 1z m1240
-13 c0 -14 -2 -25 -4 -25 -2 0 -6 11 -8 25 -3 14 -1 25 3 25 5 0 9 -11 9 -25z
m269 -22 c1 -7 -3 -13 -9 -13 -5 0 -10 15 -9 33 0 27 2 29 9 12 5 -11 9 -26 9
-32z m31 27 c0 -11 -4 -20 -8 -20 -4 0 -8 9 -8 20 0 11 4 20 8 20 4 0 8 -9 8
-20z m-70 -4 c0 -8 -4 -18 -10 -21 -5 -3 -10 3 -10 14 0 12 5 21 10 21 6 0 10
-6 10 -14z m-2418 -18 c-7 -7 -16 -6 -29 2 -16 10 -16 11 0 6 9 -3 17 -1 17 5
0 6 5 7 11 3 7 -4 7 -10 1 -16z m702 6 c3 -8 2 -12 -4 -9 -6 3 -10 10 -10 16
0 14 7 11 14 -7z m146 6 c0 -5 -5 -10 -11 -10 -5 0 -7 5 -4 10 3 6 8 10 11 10
2 0 4 -4 4 -10z m760 -4 c0 -3 -4 -8 -10 -11 -5 -3 -10 -1 -10 4 0 6 5 11 10
11 6 0 10 -2 10 -4z m-2692 -83 c-10 -2 -26 -2 -35 0 -10 3 -2 5 17 5 19 0 27
-2 18 -5z m75 0 c-7 -2 -21 -2 -30 0 -10 3 -4 5 12 5 17 0 24 -2 18 -5z m70 0
c-7 -2 -21 -2 -30 0 -10 3 -4 5 12 5 17 0 24 -2 18 -5z m75 0 c-10 -2 -26 -2
-35 0 -10 3 -2 5 17 5 19 0 27 -2 18 -5z m70 0 c-10 -2 -26 -2 -35 0 -10 3 -2
5 17 5 19 0 27 -2 18 -5z m75 0 c-7 -2 -21 -2 -30 0 -10 3 -4 5 12 5 17 0 24
-2 18 -5z m70 0 c-7 -2 -21 -2 -30 0 -10 3 -4 5 12 5 17 0 24 -2 18 -5z m75 0
c-10 -2 -26 -2 -35 0 -10 3 -2 5 17 5 19 0 27 -2 18 -5z m215 0 c-7 -2 -21 -2
-30 0 -10 3 -4 5 12 5 17 0 24 -2 18 -5z m75 0 c-10 -2 -26 -2 -35 0 -10 3 -2
5 17 5 19 0 27 -2 18 -5z m75 0 c-7 -2 -21 -2 -30 0 -10 3 -4 5 12 5 17 0 24
-2 18 -5z m70 0 c-7 -2 -21 -2 -30 0 -10 3 -4 5 12 5 17 0 24 -2 18 -5z m70 0
c-7 -2 -21 -2 -30 0 -10 3 -4 5 12 5 17 0 24 -2 18 -5z m75 0 c-10 -2 -26 -2
-35 0 -10 3 -2 5 17 5 19 0 27 -2 18 -5z m75 0 c-7 -2 -21 -2 -30 0 -10 3 -4
5 12 5 17 0 24 -2 18 -5z m70 0 c-7 -2 -21 -2 -30 0 -10 3 -4 5 12 5 17 0 24
-2 18 -5z m75 0 c-10 -2 -26 -2 -35 0 -10 3 -2 5 17 5 19 0 27 -2 18 -5z m70
0 c-10 -2 -26 -2 -35 0 -10 3 -2 5 17 5 19 0 27 -2 18 -5z m75 0 c-7 -2 -21
-2 -30 0 -10 3 -4 5 12 5 17 0 24 -2 18 -5z m70 0 c-7 -2 -21 -2 -30 0 -10 3
-4 5 12 5 17 0 24 -2 18 -5z m75 0 c-10 -2 -26 -2 -35 0 -10 3 -2 5 17 5 19 0
27 -2 18 -5z m215 0 c-7 -2 -21 -2 -30 0 -10 3 -4 5 12 5 17 0 24 -2 18 -5z
m75 0 c-10 -2 -26 -2 -35 0 -10 3 -2 5 17 5 19 0 27 -2 18 -5z m70 0 c-10 -2
-26 -2 -35 0 -10 3 -2 5 17 5 19 0 27 -2 18 -5z m75 0 c-7 -2 -21 -2 -30 0
-10 3 -4 5 12 5 17 0 24 -2 18 -5z m75 0 c-10 -2 -26 -2 -35 0 -10 3 -2 5 17
5 19 0 27 -2 18 -5z m70 0 c-10 -2 -26 -2 -35 0 -10 3 -2 5 17 5 19 0 27 -2
18 -5z m70 0 c-10 -2 -26 -2 -35 0 -10 3 -2 5 17 5 19 0 27 -2 18 -5z m220 0
c-10 -2 -26 -2 -35 0 -10 3 -2 5 17 5 19 0 27 -2 18 -5z m75 0 c-7 -2 -21 -2
-30 0 -10 3 -4 5 12 5 17 0 24 -2 18 -5z m70 0 c-7 -2 -21 -2 -30 0 -10 3 -4
5 12 5 17 0 24 -2 18 -5z m75 0 c-10 -2 -26 -2 -35 0 -10 3 -2 5 17 5 19 0 27
-2 18 -5z m70 0 c-10 -2 -26 -2 -35 0 -10 3 -2 5 17 5 19 0 27 -2 18 -5z m75
0 c-7 -2 -21 -2 -30 0 -10 3 -4 5 12 5 17 0 24 -2 18 -5z m75 0 c-10 -2 -26
-2 -35 0 -10 3 -2 5 17 5 19 0 27 -2 18 -5z m215 0 c-7 -2 -21 -2 -30 0 -10 3
-4 5 12 5 17 0 24 -2 18 -5z m75 0 c-10 -2 -26 -2 -35 0 -10 3 -2 5 17 5 19 0
27 -2 18 -5z m70 0 c-10 -2 -26 -2 -35 0 -10 3 -2 5 17 5 19 0 27 -2 18 -5z
m220 0 c-10 -2 -26 -2 -35 0 -10 3 -2 5 17 5 19 0 27 -2 18 -5z m70 0 c-10 -2
-26 -2 -35 0 -10 3 -2 5 17 5 19 0 27 -2 18 -5z m75 0 c-7 -2 -21 -2 -30 0
-10 3 -4 5 12 5 17 0 24 -2 18 -5z m-3632 -80 c18 -18 6 -58 -17 -61 -19 -3
-22 3 -26 37 -3 34 -1 40 14 37 10 -1 23 -7 29 -13z m189 -10 c0 -21 3 -24 12
-15 7 7 17 12 22 12 6 0 5 -5 -2 -12 -8 -8 -9 -15 -1 -25 8 -9 8 -13 1 -13 -6
0 -13 6 -16 13 -5 10 -7 10 -12 0 -11 -24 -19 -13 -19 27 0 22 3 40 8 40 4 0
7 -12 7 -27z m178 -16 c2 -20 -1 -37 -6 -37 -6 0 -8 10 -4 22 3 14 2 19 -6 14
-16 -9 -15 7 0 22 9 9 8 12 -6 12 -12 0 -17 -7 -16 -22 3 -38 1 -50 -10 -43
-14 9 -13 48 2 63 23 23 43 9 46 -31z m372 4 c0 -10 -6 -23 -13 -29 -9 -8 -12
-4 -12 16 0 15 -4 27 -10 27 -5 0 -10 -12 -10 -27 0 -14 -3 -24 -7 -21 -12 7
-9 48 4 61 15 15 48 -3 48 -27z m122 -1 c2 -22 1 -40 -3 -40 -4 0 -9 18 -11
40 -2 22 -1 40 3 40 4 0 9 -18 11 -40z m1101 -2 c4 -29 1 -38 -10 -38 -8 0
-12 4 -9 9 3 5 -4 11 -16 14 l-22 6 24 26 c13 14 24 24 26 22 1 -1 4 -19 7
-39z m74 -3 c0 -22 -1 -30 -4 -17 -2 12 -9 20 -14 17 -13 -9 -11 9 3 23 9 9 8
12 -6 12 -12 0 -17 -7 -16 -22 3 -36 1 -52 -7 -44 -11 11 -11 50 0 64 20 25
42 9 44 -33z m151 25 c4 -12 3 -13 -10 -2 -13 10 -18 9 -29 -4 -10 -13 -10
-19 0 -36 10 -16 10 -19 -1 -16 -18 6 -22 46 -7 64 15 18 40 15 47 -6z m70
-22 c2 -22 -1 -38 -7 -38 -6 0 -8 7 -5 15 4 8 1 15 -5 15 -6 0 -11 -7 -11 -15
0 -8 -4 -15 -10 -15 -5 0 -10 18 -10 41 0 36 2 40 23 37 18 -2 23 -10 25 -40z
m510 -1 c2 -20 -1 -37 -6 -37 -6 0 -8 9 -5 20 3 11 0 20 -6 20 -5 0 -8 7 -5
15 4 8 1 15 -6 15 -6 0 -11 -10 -10 -22 3 -38 1 -50 -10 -43 -14 9 -12 62 3
68 28 12 42 1 45 -36z m112 23 c0 -11 5 -20 11 -20 7 0 9 9 6 21 -4 16 -3 18
8 9 14 -12 17 -58 4 -66 -5 -3 -9 2 -9 10 0 9 -4 16 -10 16 -5 0 -10 -7 -10
-15 0 -8 -3 -15 -7 -15 -5 0 -8 18 -8 40 -1 22 3 40 7 40 4 0 8 -9 8 -20z
m-2818 -35 c3 -14 1 -25 -3 -25 -5 0 -9 9 -9 19 0 11 -6 22 -12 24 -8 4 -7 6
3 6 10 1 19 -9 21 -24z m78 15 c0 -5 -7 -6 -17 -3 -12 5 -14 3 -8 -7 5 -9 4
-11 -3 -6 -19 11 -14 26 8 26 11 0 20 -4 20 -10z m656 -18 c1 -18 1 -19 -3 -2
-6 27 -31 25 -36 -2 -4 -19 -4 -18 -6 5 -1 24 2 28 22 25 15 -2 22 -10 23 -26z
m144 3 c0 -14 -4 -25 -9 -25 -5 0 -11 11 -13 25 -4 17 -1 25 8 25 8 0 14 -11
14 -25z m78 -2 c2 -13 -1 -23 -7 -23 -6 0 -11 9 -11 20 0 27 -18 25 -23 -2 -4
-19 -4 -18 -6 5 -1 24 2 28 22 25 14 -2 23 -11 25 -25z m70 10 c2 -8 -5 -13
-18 -13 -12 0 -18 -4 -15 -10 3 -5 1 -10 -4 -10 -12 0 -15 33 -4 44 10 10 36
3 41 -11z m1102 -18 c0 -8 -4 -15 -10 -15 -5 0 -10 7 -10 15 0 8 5 15 10 15 6
0 10 -7 10 -15z m-2217 -81 c-5 -29 -3 -36 8 -32 8 3 13 16 12 33 -2 20 1 25
8 18 20 -20 6 -58 -21 -61 -24 -3 -25 -1 -22 38 2 22 8 40 12 40 5 0 6 -16 3
-36z m230 -6 c5 6 13 12 20 12 8 0 8 -3 -1 -12 -8 -8 -9 -15 -1 -25 8 -9 8
-13 1 -13 -6 0 -13 6 -16 13 -5 10 -7 10 -12 0 -12 -26 -19 -12 -15 30 4 39 5
40 11 12 3 -20 8 -26 13 -17z m531 19 c14 -22 -4 -52 -30 -52 -23 0 -31 39
-13 61 14 17 28 14 43 -9z m128 -17 c2 -24 -1 -40 -7 -40 -6 0 -9 16 -7 40 2
22 5 40 7 40 2 0 5 -18 7 -40z m1101 -2 c3 -27 1 -38 -8 -38 -9 0 -12 9 -9 25
2 14 0 25 -6 25 -5 0 -10 -4 -10 -10 0 -5 -5 -10 -12 -10 -6 0 -1 11 12 25 13
14 24 24 26 22 1 -1 4 -19 7 -39z m40 10 c-1 -18 -2 -37 -2 -41 -2 -18 -21 6
-21 27 0 16 16 46 25 46 0 0 -1 -15 -2 -32z m171 26 c9 -3 16 -11 16 -16 0 -6
-6 -5 -15 2 -29 24 -50 -21 -22 -49 10 -11 9 -13 -3 -9 -19 6 -25 45 -10 64
14 16 13 16 34 8z m56 -14 c0 -11 5 -20 11 -20 6 0 9 9 6 20 -3 11 -1 18 4 14
12 -7 12 -74 -1 -74 -5 0 -7 7 -4 15 4 8 1 15 -5 15 -6 0 -11 -7 -11 -15 0 -8
-4 -15 -10 -15 -5 0 -10 18 -10 40 0 22 5 40 10 40 6 0 10 -9 10 -20z m540
-26 c0 -19 -4 -34 -9 -34 -5 0 -7 9 -4 20 3 12 0 20 -7 20 -9 0 -10 3 -1 13 6
8 7 18 3 22 -4 5 -1 5 6 1 6 -4 12 -23 12 -42z m110 26 c0 -11 5 -20 11 -20 6
0 9 9 6 19 -3 13 -1 18 8 14 15 -5 17 -60 3 -69 -4 -3 -8 2 -8 10 0 9 -5 16
-11 16 -6 0 -9 -7 -5 -15 3 -8 0 -15 -7 -15 -7 0 -12 16 -12 40 -1 22 3 40 7
40 4 0 8 -9 8 -20z m-2530 -25 c0 -19 -4 -35 -9 -35 -10 0 -21 57 -13 65 14
13 22 2 22 -30z m1690 0 c0 -19 -4 -35 -9 -35 -5 0 -7 10 -3 22 3 14 2 19 -6
14 -16 -9 -15 7 0 22 17 17 18 16 18 -23z m692 12 c6 -28 -1 -49 -13 -41 -12
7 -12 64 0 64 5 0 11 -10 13 -23z m-2670 -22 c3 -14 1 -25 -3 -25 -5 0 -9 9
-9 19 0 11 -6 22 -12 24 -8 4 -7 6 3 6 10 1 19 -9 21 -24z m78 21 c0 -2 -9 -6
-20 -9 -11 -3 -20 -1 -20 4 0 5 9 9 20 9 11 0 20 -2 20 -4z m656 -24 c1 -18 1
-19 -3 -2 -6 27 -31 25 -36 -2 -4 -19 -4 -18 -6 5 -1 24 2 28 22 25 15 -2 22
-10 23 -26z m144 3 c0 -14 -4 -25 -9 -25 -5 0 -11 11 -13 25 -4 17 -1 25 8 25
8 0 14 -11 14 -25z m78 -2 c2 -13 -1 -23 -7 -23 -6 0 -11 9 -11 20 0 27 -18
25 -23 -2 -4 -19 -4 -18 -6 5 -1 24 2 28 22 25 14 -2 23 -11 25 -25z m68 15
c5 -8 2 -9 -9 -5 -16 6 -22 -4 -17 -28 1 -5 -4 -5 -11 2 -6 6 -9 19 -6 27 7
19 33 21 43 4z m1104 -23 c0 -8 -4 -15 -10 -15 -5 0 -10 7 -10 15 0 8 5 15 10
15 6 0 10 -7 10 -15z m-2186 -67 c14 -22 -2 -52 -30 -56 -16 -2 -19 4 -19 38
0 34 3 40 19 38 10 -2 24 -11 30 -20z m186 -4 c0 -24 2 -25 17 -13 12 10 15
11 9 1 -4 -7 -2 -19 4 -27 8 -9 8 -15 2 -15 -6 0 -13 6 -16 13 -5 10 -7 10
-12 0 -11 -24 -19 -13 -19 27 0 22 3 40 8 40 4 0 7 -12 7 -26z m166 12 c6 -16
-25 -65 -40 -66 -5 0 0 10 12 23 23 25 29 47 12 47 -5 0 -10 -5 -10 -11 0 -5
-5 -7 -10 -4 -6 4 -8 11 -5 16 9 14 35 11 41 -5z m378 -9 c14 -22 -4 -52 -30
-52 -23 0 -31 39 -13 61 14 17 28 14 43 -9z m61 13 c3 -5 0 -7 -9 -4 -11 4
-14 -2 -12 -30 2 -23 -1 -36 -9 -36 -12 0 -12 51 0 71 8 12 22 12 30 -1z m71
-2 c4 -7 3 -8 -4 -4 -8 5 -12 -4 -12 -28 0 -20 -4 -36 -10 -36 -11 0 -14 63
-3 73 10 10 21 8 29 -5z m72 -31 c2 -25 -1 -37 -10 -37 -9 0 -13 14 -13 40 0
50 19 47 23 -3z m960 9 c2 -16 -1 -33 -7 -39 -7 -7 -9 -4 -6 11 2 12 -1 22 -7
22 -5 0 -8 7 -4 15 3 9 0 15 -9 15 -17 0 -20 -27 -4 -32 5 -2 7 -11 4 -21 -10
-24 -25 -11 -25 22 0 34 8 43 35 39 14 -2 21 -12 23 -32z m58 20 c6 -16 -25
-65 -40 -66 -5 0 0 10 12 23 32 34 26 67 -6 35 -7 -7 -12 -8 -12 -2 0 26 37
33 46 10z m84 -32 c0 -19 -4 -34 -10 -34 -5 0 -10 11 -10 25 0 14 -4 25 -10
25 -5 0 -10 -4 -10 -10 0 -5 -5 -10 -12 -10 -6 0 -1 11 12 25 28 30 40 24 40
-21z m127 34 c10 27 23 10 23 -29 0 -26 -4 -38 -11 -34 -6 4 -8 13 -5 21 3 9
-1 14 -14 14 -11 0 -20 -9 -23 -22 -2 -13 -5 -3 -6 21 -1 39 1 42 16 30 13
-11 17 -11 20 -1z m91 -30 c2 -21 -1 -38 -6 -38 -5 0 -8 16 -5 35 2 20 -1 35
-7 35 -5 0 -10 -16 -10 -35 0 -19 -4 -35 -10 -35 -5 0 -10 18 -10 41 0 36 2
40 23 37 18 -2 23 -10 25 -40z m277 32 c9 -14 -4 -70 -16 -70 -6 0 -7 5 -4 11
4 5 -1 19 -10 29 -18 20 -13 40 10 40 8 0 17 -5 20 -10z m63 -1 c-12 -7 -16
-19 -14 -39 2 -17 -1 -30 -5 -30 -14 0 -10 68 4 73 22 9 32 7 15 -4z m100 -23
c2 -16 -1 -33 -7 -39 -10 -10 -15 8 -14 51 1 6 -5 12 -13 12 -16 0 -19 -27 -3
-32 12 -4 1 -38 -12 -38 -11 0 -12 63 -2 74 17 17 48 0 51 -28z m112 12 l1
-23 12 22 c12 21 12 20 12 -16 0 -33 -1 -36 -12 -22 -11 15 -12 15 -13 -1 0
-38 -20 -16 -20 22 0 22 5 40 10 40 6 0 10 -10 10 -22z m106 -16 c1 -18 -2
-35 -7 -38 -5 -3 -9 11 -9 30 0 20 -5 36 -11 36 -7 0 -10 -14 -7 -35 2 -20 0
-35 -7 -35 -5 0 -10 18 -11 41 0 37 2 40 25 37 21 -2 26 -9 27 -36z m-1116 -7
c0 -19 -5 -35 -11 -35 -6 0 -8 8 -4 19 3 11 1 22 -5 26 -11 7 -4 25 11 25 5 0
9 -16 9 -35z m-1738 -10 c3 -15 1 -25 -6 -25 -6 0 -11 11 -11 25 0 14 3 25 6
25 4 0 9 -11 11 -25z m78 21 c0 -2 -9 -6 -20 -9 -11 -3 -20 -1 -20 4 0 5 9 9
20 9 11 0 20 -2 20 -4z m872 -21 c3 -16 1 -25 -7 -25 -7 0 -15 11 -17 25 -3
16 -1 25 7 25 7 0 15 -11 17 -25z m40 0 c-2 -14 -6 -25 -8 -25 -2 0 -4 11 -4
25 0 14 4 25 9 25 4 0 6 -11 3 -25z m36 -11 c-3 -14 -5 -12 -10 9 -3 19 -2 25
4 19 6 -6 8 -18 6 -28z m42 9 c0 -20 -3 -24 -11 -16 -7 7 -9 19 -6 27 10 24
17 19 17 -11z m30 17 c0 -5 -2 -10 -4 -10 -3 0 -8 5 -11 10 -3 6 -1 10 4 10 6
0 11 -4 11 -10z m1452 -32 c-9 -9 -12 -7 -12 12 0 19 3 21 12 12 9 -9 9 -15 0
-24z m-2697 -188 c0 -26 -5 -40 -13 -40 -9 0 -12 13 -10 40 1 22 7 40 12 40 6
0 11 -18 11 -40z m81 28 c4 -7 3 -8 -4 -4 -7 4 -17 4 -23 0 -8 -4 -4 -13 12
-25 19 -14 21 -20 12 -29 -7 -5 -11 -7 -8 -3 3 3 -4 17 -16 29 -22 23 -19 44
6 44 8 0 17 -5 21 -12z m54 -5 c1 -17 2 -17 13 -2 11 14 12 11 12 -21 0 -32
-1 -35 -12 -21 -11 15 -12 15 -13 -1 0 -38 -20 -16 -20 22 0 38 20 60 20 23z
m105 -2 c0 -8 -6 -16 -13 -19 -7 -2 -10 2 -6 12 3 9 1 16 -5 16 -6 0 -11 -16
-11 -35 0 -19 -4 -35 -10 -35 -5 0 -10 18 -10 41 0 38 1 40 28 37 15 -2 27 -9
27 -17z m65 -32 c0 -16 -4 -29 -10 -29 -5 0 -10 14 -10 30 0 17 -5 30 -11 30
-6 0 -8 -8 -5 -17 3 -10 1 -25 -4 -33 -7 -11 -10 -8 -10 16 0 16 5 35 12 42
17 17 38 -4 38 -39z m77 6 c1 -31 0 -36 -8 -22 -12 21 -29 22 -29 2 0 -8 -3
-15 -7 -15 -5 0 -8 18 -8 40 0 37 2 41 25 38 21 -3 25 -9 27 -43z m55 5 c-5
-49 -22 -53 -22 -6 0 19 -6 37 -12 39 -7 3 -2 6 12 6 24 1 25 -2 22 -39z m68
-22 l-24 -23 18 23 c19 21 19 23 0 45 l-18 22 24 -22 24 -23 -24 -22z m-450
-8 c0 -5 -2 -10 -4 -10 -3 0 -8 5 -11 10 -3 6 -1 10 4 10 6 0 11 -4 11 -10z
m630 -15 c0 -10 -11 -15 -35 -15 -24 0 -35 5 -35 15 0 10 11 15 35 15 24 0 35
-5 35 -15z"/>
<path d="M808 2814 c-3 -2 -3 -16 0 -29 5 -28 22 -24 22 5 0 19 -13 34 -22 24z"/>
<path d="M2320 2805 c0 -8 5 -15 10 -15 6 0 10 7 10 15 0 8 -4 15 -10 15 -5 0
-10 -7 -10 -15z"/>
<path d="M1307 2594 c-8 -8 1 -24 14 -24 5 0 9 7 9 15 0 15 -12 20 -23 9z"/>
<path d="M1020 2481 c0 -6 5 -13 10 -16 6 -3 10 1 10 9 0 9 -4 16 -10 16 -5 0
-10 -4 -10 -9z"/>
<path d="M1680 2475 c0 -8 5 -15 10 -15 6 0 10 7 10 15 0 8 -4 15 -10 15 -5 0
-10 -7 -10 -15z"/>
<path d="M1895 2481 c-6 -11 9 -23 19 -14 9 9 7 23 -3 23 -6 0 -12 -4 -16 -9z"/>
<path d="M2030 2474 c0 -14 3 -14 15 -4 8 7 15 14 15 16 0 2 -7 4 -15 4 -8 0
-15 -7 -15 -16z"/>
<path d="M2040 2445 c-10 -12 -10 -15 4 -15 9 0 16 7 16 15 0 8 -2 15 -4 15
-2 0 -9 -7 -16 -15z"/>
<path d="M360 2445 c0 -8 5 -15 10 -15 6 0 10 7 10 15 0 8 -4 15 -10 15 -5 0
-10 -7 -10 -15z"/>
<path d="M370 2260 c0 -5 5 -10 10 -10 6 0 10 5 10 10 0 6 -4 10 -10 10 -5 0
-10 -4 -10 -10z"/>
<path d="M1170 2240 c0 -18 4 -29 10 -25 6 3 10 15 10 25 0 10 -4 22 -10 25
-6 4 -10 -7 -10 -25z"/>
<path d="M220 2026 c0 -14 4 -27 9 -30 10 -6 23 33 15 46 -10 16 -24 7 -24
-16z"/>
<path d="M591 2024 c0 -11 3 -14 6 -6 3 7 2 16 -1 19 -3 4 -6 -2 -5 -13z"/>
<path d="M661 2024 c0 -11 3 -14 6 -6 3 7 2 16 -1 19 -3 4 -6 -2 -5 -13z"/>
<path d="M730 2024 c0 -8 5 -12 10 -9 6 4 8 11 5 16 -9 14 -15 11 -15 -7z"/>
<path d="M227 1834 c-10 -10 -9 -54 2 -54 5 0 11 6 14 13 6 16 -7 50 -16 41z"/>
<path d="M2180 1810 c0 -5 5 -10 10 -10 6 0 10 5 10 10 0 6 -4 10 -10 10 -5 0
-10 -4 -10 -10z"/>
<path d="M2480 1825 c0 -8 5 -15 10 -15 6 0 10 7 10 15 0 8 -4 15 -10 15 -5 0
-10 -7 -10 -15z"/>
<path d="M944 1716 c-7 -20 2 -46 16 -46 13 0 13 47 0 55 -6 3 -13 -1 -16 -9z"/>
<path d="M220 1590 c0 -16 4 -30 9 -30 12 0 19 21 13 43 -7 28 -22 20 -22 -13z"/>
<path d="M944 1606 c-7 -20 2 -46 16 -46 13 0 13 47 0 55 -6 3 -13 -1 -16 -9z"/>
<path d="M2760 1605 c0 -8 5 -15 10 -15 6 0 10 7 10 15 0 8 -4 15 -10 15 -5 0
-10 -7 -10 -15z"/>
<path d="M512 1389 c2 -6 8 -10 13 -10 5 0 11 4 13 10 2 6 -4 11 -13 11 -9 0
-15 -5 -13 -11z"/>
<path d="M5933 2873 c9 -2 23 -2 30 0 6 3 -1 5 -18 5 -16 0 -22 -2 -12 -5z"/>
<path d="M5933 2843 c9 -2 23 -2 30 0 6 3 -1 5 -18 5 -16 0 -22 -2 -12 -5z"/>
<path d="M3 2790 c0 -30 2 -43 4 -27 2 15 2 39 0 55 -2 15 -4 2 -4 -28z"/>
<path d="M1 2714 c0 -11 3 -14 6 -6 3 7 2 16 -1 19 -3 4 -6 -2 -5 -13z"/>
<path d="M3 2615 c0 -44 2 -61 4 -37 2 23 2 59 0 80 -2 20 -4 1 -4 -43z"/>
<path d="M4 2180 c0 -173 2 -244 3 -157 2 86 2 228 0 315 -1 86 -3 15 -3 -158z"/>
<path d="M77 2484 c-4 -4 -7 -18 -7 -31 0 -28 23 -27 28 1 4 20 -11 40 -21 30z"/>
<path d="M52 2240 c0 -19 2 -27 5 -17 2 9 2 25 0 35 -3 9 -5 1 -5 -18z"/>
<path d="M80 2240 c0 -18 4 -29 10 -25 6 3 10 15 10 25 0 10 -4 22 -10 25 -6
4 -10 -7 -10 -25z"/>
<path d="M5 1050 c0 -426 1 -601 2 -387 2 213 2 561 0 775 -1 213 -2 38 -2
-388z"/>
<path d="M52 1370 c0 -19 2 -27 5 -17 2 9 2 25 0 35 -3 9 -5 1 -5 -18z"/>
<path d="M80 1370 c0 -18 4 -29 10 -25 6 3 10 15 10 25 0 10 -4 22 -10 25 -6
4 -10 -7 -10 -25z"/>
</g>
</svg>
