<?xml version="1.0" standalone="no"?>
<!DOCTYPE svg PUBLIC "-//W3C//DTD SVG 20010904//EN"
 "http://www.w3.org/TR/2001/REC-SVG-20010904/DTD/svg10.dtd">
<svg version="1.0" xmlns="http://www.w3.org/2000/svg"
 width="414.000000pt" height="134.000000pt" viewBox="0 0 414.000000 134.000000"
 preserveAspectRatio="xMidYMid meet">
<metadata>
Created by potrace 1.13, written by Peter Selinger 2001-2015
</metadata>
<g transform="translate(0.000000,134.000000) scale(0.100000,-0.100000)"
fill="#000000" stroke="none">
<path d="M50 1291 c0 -47 2 -50 28 -53 47 -5 39 -78 -9 -78 -18 0 -19 -11 -18
-175 0 -163 1 -175 18 -175 44 0 56 -72 14 -78 -19 -3 -22 2 -26 35 -2 21 -4
-10 -5 -69 l-2 -107 28 -3 c24 -3 27 -7 27 -38 0 -31 -3 -35 -27 -38 -28 -3
-28 -5 -28 -72 0 -67 0 -69 27 -72 48 -5 40 -78 -8 -78 -17 0 -19 -8 -17 -107
1 -60 4 -91 6 -70 4 47 22 49 22 1 0 -23 4 -33 11 -28 6 3 9 19 7 35 -3 15 -1
26 4 23 14 -9 9 -51 -9 -65 -9 -8 -18 -13 -20 -11 -9 6 -23 1 -18 -8 4 -6 137
-10 366 -10 312 0 359 2 359 15 0 10 11 15 35 15 24 0 35 -5 35 -15 0 -13 189
-15 1645 -15 l1645 0 0 645 0 645 -2045 0 -2045 0 0 -49z m110 -91 c0 -22 -4
-40 -10 -40 -5 0 -10 18 -10 40 0 22 5 40 10 40 6 0 10 -18 10 -40z m55 30
c-4 -6 4 -19 17 -30 18 -14 20 -21 11 -31 -13 -13 -43 -5 -43 12 0 8 4 8 15
-1 20 -17 19 -1 -1 21 -14 15 -13 39 2 39 3 0 2 -5 -1 -10z m30 0 c3 -5 1 -10
-4 -10 -6 0 -11 5 -11 10 0 6 2 10 4 10 3 0 8 -4 11 -10z m55 -7 c0 -16 1 -15
13 1 11 15 12 12 12 -23 0 -38 0 -39 -12 -18 -10 17 -12 18 -13 5 0 -9 -4 -20
-10 -23 -6 -4 -10 10 -10 34 0 23 5 41 10 41 6 0 10 -8 10 -17z m70 2 c0 -8 5
-15 11 -15 6 0 9 7 5 15 -3 8 -1 15 4 15 6 0 10 -9 10 -20 0 -11 -7 -20 -15
-20 -8 0 -15 -9 -15 -20 0 -11 -4 -20 -10 -20 -5 0 -10 18 -10 40 0 22 5 40
10 40 6 0 10 -7 10 -15z m88 3 c7 -7 12 -26 12 -42 -1 -28 -2 -29 -14 -13 -7
9 -16 17 -19 17 -3 0 -8 -8 -10 -17 -3 -10 -5 -2 -6 18 -1 48 12 62 37 37z
m56 -3 c-4 -8 -1 -15 5 -15 6 0 11 8 11 17 0 32 14 2 17 -35 2 -32 0 -35 -11
-19 -16 21 -26 22 -26 2 0 -8 -3 -15 -7 -15 -5 0 -8 18 -8 40 0 25 5 40 12 40
7 0 10 -7 7 -15z m90 9 c-6 -3 -10 -20 -8 -39 1 -19 -2 -35 -7 -35 -5 0 -9 15
-9 34 0 19 -6 37 -12 39 -7 3 1 5 17 5 17 0 25 -2 19 -4z m68 -56 c-12 -12
-22 -17 -22 -11 0 6 7 16 15 23 14 11 14 15 -2 34 -15 18 -14 18 7 -1 l24 -23
-22 -22z m123 52 c-4 -6 4 -19 17 -30 18 -14 20 -21 11 -31 -13 -13 -43 -5
-43 12 0 8 4 8 15 -1 9 -7 19 -10 23 -6 4 4 -4 15 -17 25 -20 15 -23 41 -5 41
3 0 2 -5 -1 -10z m85 -5 c0 -8 6 -15 13 -16 10 0 10 -2 0 -6 -19 -7 -16 -31 5
-36 10 -3 6 -5 -10 -6 -26 -1 -28 2 -28 39 0 22 5 40 10 40 6 0 10 -7 10 -15z
m70 -20 c0 -34 14 -48 23 -22 2 6 8 9 12 5 12 -12 -5 -28 -31 -28 -21 0 -24 4
-24 40 0 22 5 40 10 40 6 0 10 -16 10 -35z m74 20 c-4 -9 0 -15 10 -15 9 0 16
-4 16 -10 0 -5 -7 -7 -15 -4 -10 4 -15 0 -15 -11 0 -12 6 -16 20 -12 11 3 20
1 20 -4 0 -5 -12 -9 -27 -9 -26 0 -28 3 -28 40 0 25 5 40 12 40 7 0 10 -7 7
-15z m68 3 c-14 -14 -15 -28 -3 -47 8 -12 12 -12 25 -2 11 10 16 10 16 2 0
-18 -29 -25 -45 -11 -8 7 -15 20 -15 29 0 16 18 41 29 41 3 0 0 -5 -7 -12z
m90 -28 c-5 -49 -22 -53 -22 -6 0 19 -6 37 -12 39 -7 3 -2 6 12 6 24 1 25 -2
22 -39z m162 18 c14 -22 -2 -52 -30 -56 -16 -2 -19 4 -19 38 0 34 3 40 19 38
10 -2 24 -11 30 -20z m51 -18 c1 -22 -4 -40 -10 -40 -5 0 -10 18 -10 40 0 22
5 40 10 40 6 0 10 -18 10 -40z m85 30 c0 -5 -7 -7 -15 -4 -20 8 -19 -5 2 -28
11 -12 13 -22 6 -29 -12 -12 -45 -1 -37 13 4 6 10 5 15 -3 4 -7 11 -10 16 -6
4 5 -3 16 -16 26 -13 10 -21 23 -17 30 9 13 46 15 46 1z m50 -7 c1 -17 1 -17
14 0 17 22 29 22 17 -1 -6 -10 -6 -24 -1 -32 5 -8 6 -18 3 -23 -3 -6 -12 1
-19 14 l-13 24 -1 -22 c0 -13 -4 -23 -9 -23 -5 0 -8 18 -7 40 1 38 16 58 16
23z m162 -50 c8 -10 5 -13 -9 -13 -16 0 -18 5 -14 38 4 30 6 32 9 12 2 -14 9
-31 14 -37z m-1462 -121 c0 -22 2 -24 11 -12 9 12 12 13 16 1 5 -11 7 -11 15
0 7 11 11 11 15 1 2 -6 9 -10 14 -6 13 8 10 -49 -4 -66 -7 -8 -24 -16 -39 -18
-20 -2 -33 6 -54 33 -27 36 -27 58 1 35 14 -12 15 -8 9 30 -5 31 -4 41 4 36 7
-4 12 -19 12 -34z m-150 -67 c0 -19 -4 -35 -10 -35 -5 0 -10 16 -10 35 0 19 5
35 10 35 6 0 10 -16 10 -35z m30 0 c0 -13 -3 -26 -7 -28 -5 -3 -8 10 -8 28 0
18 3 31 8 28 4 -2 7 -15 7 -28z m340 0 c0 -43 -16 -46 -22 -5 -4 25 0 33 20
39 1 1 2 -15 2 -34z m720 0 c0 -19 -4 -35 -10 -35 -5 0 -10 16 -10 35 0 19 5
35 10 35 6 0 10 -16 10 -35z m380 0 c0 -19 -4 -35 -10 -35 -5 0 -10 16 -10 35
0 19 5 35 10 35 6 0 10 -16 10 -35z m369 -2 c-1 -24 -3 -29 -6 -15 -2 12 -11
22 -20 22 -10 0 -14 -6 -10 -20 3 -11 1 -20 -4 -20 -18 0 -9 42 11 47 11 3 17
9 14 14 -3 5 0 9 5 9 6 0 10 -17 10 -37z m151 2 c0 -19 -4 -35 -10 -35 -5 0
-10 9 -10 20 0 11 -4 20 -10 20 -5 0 -10 -10 -10 -22 0 -17 -3 -19 -12 -10
-10 10 -7 18 12 37 34 32 40 31 40 -10z m190 14 c0 -16 3 -19 13 -11 9 8 12 5
12 -13 0 -18 -3 -21 -12 -13 -9 7 -13 7 -13 -1 0 -6 -4 -11 -10 -11 -5 0 -10
16 -10 35 0 19 5 35 10 35 6 0 10 -10 10 -21z m-1156 -14 c-10 -6 -14 -17 -10
-23 4 -7 3 -12 -2 -12 -10 0 -23 46 -15 54 2 2 13 2 24 -1 18 -5 18 -6 3 -18z
m658 6 c-5 -3 -12 -15 -14 -26 -4 -18 -6 -18 -13 -2 -10 25 1 48 20 40 9 -3
12 -9 7 -12z m-1592 -16 c0 -14 -4 -25 -9 -25 -5 0 -11 11 -13 25 -4 17 -1 25
8 25 8 0 14 -11 14 -25z m432 0 c3 -14 1 -25 -3 -25 -5 0 -9 9 -9 19 0 11 -6
22 -12 24 -8 4 -7 6 3 6 10 1 19 -9 21 -24z m73 15 c4 -6 -1 -7 -12 -4 -17 5
-17 5 0 -9 9 -8 17 -18 17 -22 0 -5 -9 0 -20 10 -11 10 -17 22 -14 26 7 12 21
11 29 -1z m151 -18 c2 -20 1 -20 -3 -2 -5 24 -29 21 -27 -4 1 -9 -2 -16 -7
-16 -5 0 -9 12 -9 26 0 21 4 25 23 22 15 -2 22 -10 23 -26z m71 -2 c1 -22 1
-22 -4 -2 -6 28 -23 29 -23 0 0 -16 -3 -19 -11 -11 -16 16 -3 45 18 41 11 -2
19 -13 20 -28z m45 5 c3 -14 1 -25 -3 -25 -5 0 -9 11 -9 25 0 14 2 25 4 25 2
0 6 -11 8 -25z m42 -8 c-10 -26 -22 -20 -16 9 3 15 8 22 14 16 5 -5 6 -16 2
-25z m214 -3 c-3 -14 -5 -12 -10 9 -3 19 -2 25 4 19 6 -6 8 -18 6 -28z m67 26
c3 -6 -2 -13 -12 -17 -10 -4 -21 -11 -25 -17 -5 -6 -8 -2 -8 10 0 11 3 24 7
27 10 10 31 8 38 -3z m140 0 c3 -6 -1 -7 -9 -4 -9 3 -16 1 -16 -6 0 -6 -5 -8
-10 -5 -6 4 -8 11 -5 16 8 12 32 12 40 -1z m73 -7 c2 -7 -3 -13 -12 -13 -9 0
-16 -5 -16 -12 0 -9 -3 -9 -11 -1 -7 7 -9 19 -5 28 7 18 37 17 44 -2z m147 6
c4 -6 4 -13 0 -17 -3 -3 -10 0 -15 8 -9 13 -10 13 -11 0 -1 -8 -1 -18 0 -22 0
-5 -3 -8 -9 -8 -11 0 -14 33 -3 43 10 10 31 8 38 -4z m70 1 c3 -6 -1 -7 -9 -4
-11 4 -16 0 -16 -15 0 -12 -4 -21 -10 -21 -11 0 -14 33 -3 43 10 10 31 8 38
-3z m150 -1 c4 -6 4 -13 0 -17 -4 -4 -10 -1 -12 6 -3 6 -9 12 -14 12 -6 0 -8
-4 -5 -8 2 -4 1 -14 -5 -22 -7 -12 -9 -11 -9 6 0 33 30 48 45 23z m285 -14 c0
-14 -4 -25 -9 -25 -5 0 -11 11 -13 25 -4 17 -1 25 8 25 8 0 14 -11 14 -25z
m75 15 c3 -6 -1 -7 -9 -4 -9 3 -16 1 -16 -6 0 -6 -5 -8 -10 -5 -6 4 -8 11 -5
16 8 12 32 12 40 -1z m-800 -30 c3 -5 1 -10 -4 -10 -6 0 -11 5 -11 10 0 6 2
10 4 10 3 0 8 -4 11 -10z m800 0 c3 -5 1 -10 -4 -10 -6 0 -11 5 -11 10 0 6 2
10 4 10 3 0 8 -4 11 -10z m142 -6 c-3 -3 -12 -4 -19 -1 -8 3 -5 6 6 6 11 1 17
-2 13 -5z m-2185 -184 c-2 -22 -8 -40 -13 -40 -5 0 -9 18 -9 40 0 26 5 40 13
40 9 0 11 -12 9 -40z m86 20 c4 -13 3 -13 -10 -2 -24 19 -31 -2 -8 -23 22 -20
26 -35 10 -35 -5 0 -9 4 -7 9 1 5 -7 16 -17 24 -12 9 -17 20 -13 31 8 20 38
18 45 -4z m49 -1 l6 -21 11 21 c10 18 11 16 11 -20 0 -35 -1 -38 -12 -23 -12
16 -13 17 -13 1 0 -35 -18 -16 -22 23 -4 42 10 55 19 19z m100 5 c4 -10 -1
-22 -10 -29 -10 -7 -17 -17 -17 -24 0 -6 -4 -11 -10 -11 -5 0 -10 18 -10 40 0
34 3 40 20 40 11 0 23 -7 27 -16z m73 -35 c0 -16 -4 -29 -10 -29 -5 0 -10 14
-10 30 0 17 -5 30 -11 30 -6 0 -9 -9 -6 -19 2 -10 1 -25 -4 -32 -6 -10 -9 -4
-9 17 0 16 5 35 12 42 17 17 38 -4 38 -39z m76 9 c1 -21 -3 -38 -7 -38 -5 0
-9 7 -9 15 0 8 -4 15 -10 15 -5 0 -10 -7 -10 -15 0 -8 -3 -15 -7 -15 -5 0 -8
18 -8 40 0 38 2 41 25 38 21 -3 25 -8 26 -40z m54 11 c-5 -18 -7 -36 -4 -40 3
-5 0 -9 -5 -9 -6 0 -11 15 -11 34 0 19 -6 37 -12 39 -7 3 -1 6 14 6 25 1 26
-1 18 -30z m70 -31 c-21 -20 -22 -20 -7 -2 16 19 16 23 2 34 -8 7 -15 17 -15
23 0 6 10 1 22 -11 l22 -22 -24 -22z m125 17 c0 -19 -3 -35 -7 -35 -4 0 -8 19
-8 42 0 49 13 43 15 -7z m35 5 c0 -22 -3 -40 -8 -40 -4 0 -6 18 -4 40 2 22 6
40 8 40 2 0 4 -18 4 -40z m49 18 l15 -23 7 25 c6 20 7 16 8 -19 1 -43 1 -44
-19 -26 -18 16 -20 16 -20 2 0 -10 -4 -17 -10 -17 -5 0 -10 18 -10 40 0 45 9
50 29 18z m81 -18 c0 -22 -4 -40 -10 -40 -5 0 -10 18 -10 40 0 22 5 40 10 40
6 0 10 -18 10 -40z m90 25 c13 -16 5 -75 -11 -75 -5 0 -9 5 -9 10 0 6 -7 10
-15 10 -18 0 -20 41 -3 58 16 16 23 15 38 -3z m35 -31 c0 -19 -3 -34 -7 -34
-5 0 -8 19 -8 42 0 23 3 38 8 34 4 -4 7 -23 7 -42z m35 6 c0 -22 -3 -40 -8
-40 -4 0 -6 18 -4 40 2 22 6 40 8 40 2 0 4 -18 4 -40z m68 33 c-20 -5 -24 -33
-5 -34 10 0 10 -2 0 -6 -7 -2 -13 -11 -13 -19 0 -8 -4 -14 -10 -14 -5 0 -10
18 -10 40 0 37 2 40 28 39 16 -1 20 -3 10 -6z m62 -33 c0 -22 -4 -40 -10 -40
-5 0 -10 18 -10 40 0 22 5 40 10 40 6 0 10 -18 10 -40z m94 18 c14 -22 -2 -52
-30 -56 -16 -2 -19 4 -19 38 0 34 3 40 19 38 10 -2 24 -11 30 -20z m136 8 c18
-23 8 -61 -17 -64 -21 -3 -23 1 -23 37 0 43 17 54 40 27z m62 -26 c-2 -22 -7
-40 -11 -40 -3 0 -7 18 -8 40 -1 25 3 40 10 40 9 0 11 -13 9 -40z m86 20 c4
-13 3 -13 -10 -2 -24 19 -31 -2 -8 -23 22 -20 26 -35 10 -35 -5 0 -9 4 -7 9 1
5 -7 16 -17 24 -12 9 -17 20 -13 31 8 20 38 18 45 -4z m48 2 c3 -26 5 -26 19
-2 16 28 21 19 5 -10 -7 -13 -7 -21 0 -25 5 -3 10 -12 10 -18 0 -7 -7 -4 -14
6 -16 21 -27 22 -20 2 4 -8 2 -15 -4 -15 -5 0 -12 18 -14 40 -2 25 0 39 7 37
5 -2 11 -9 11 -15z m244 -24 c0 -49 -6 -47 -14 5 -3 22 -2 37 4 37 6 0 10 -19
10 -42z m150 -4 c0 -19 -4 -34 -10 -34 -5 0 -10 12 -10 27 0 21 -3 24 -12 15
-23 -23 -31 -12 -8 13 28 30 40 24 40 -21z m67 26 c3 -18 -35 -66 -44 -56 -3
3 1 14 10 24 19 21 22 42 7 42 -5 0 -10 -5 -10 -12 0 -6 -3 -9 -6 -5 -3 3 -3
11 1 17 9 15 39 8 42 -10z m73 6 c18 -23 8 -61 -16 -64 -19 -3 -22 3 -26 37
-3 33 0 41 13 41 9 0 22 -7 29 -14z m65 4 c9 -14 -4 -70 -15 -70 -5 0 -7 7 -4
15 4 8 2 15 -4 15 -12 0 -24 29 -16 41 7 12 31 11 39 -1z m87 -15 c13 -29 -3
-55 -33 -55 -15 0 -19 8 -19 40 0 33 3 40 20 40 12 0 25 -10 32 -25z m78 16
c0 -5 -9 -7 -20 -4 -14 4 -20 0 -20 -12 0 -11 5 -15 15 -11 8 3 15 1 15 -4 0
-6 -7 -10 -16 -10 -10 0 -14 -6 -10 -15 3 -8 0 -15 -7 -15 -7 0 -12 15 -12 40
0 37 2 40 28 40 15 0 27 -4 27 -9z m66 -9 c1 -7 0 -8 -3 -2 -2 5 -12 10 -20
10 -11 0 -14 -9 -11 -35 5 -40 -8 -47 -18 -10 -4 15 -1 32 6 41 15 17 42 15
46 -4z m64 4 c18 -23 8 -61 -17 -64 -21 -3 -23 1 -23 37 0 43 17 54 40 27z
m-730 -41 c0 -14 -4 -25 -9 -25 -5 0 -11 11 -13 25 -4 17 -1 25 8 25 8 0 14
-11 14 -25z m45 0 c0 -14 -3 -25 -7 -25 -10 0 -10 34 -1 43 3 4 7 7 7 7 1 0 1
-11 1 -25z m-1670 -15 c3 -5 1 -10 -4 -10 -6 0 -11 5 -11 10 0 6 2 10 4 10 3
0 8 -4 11 -10z m1380 0 c3 -5 1 -10 -4 -10 -6 0 -11 5 -11 10 0 6 2 10 4 10 3
0 8 -4 11 -10z m915 0 c0 -5 -5 -10 -11 -10 -5 0 -7 5 -4 10 3 6 8 10 11 10 2
0 4 -4 4 -10z m-2348 -190 c-2 -22 -8 -40 -13 -40 -5 0 -9 18 -9 40 0 26 5 40
13 40 9 0 11 -12 9 -40z m86 20 c5 -13 3 -13 -12 -1 -9 8 -20 11 -24 7 -4 -4
4 -15 17 -25 13 -10 21 -23 17 -30 -9 -14 -33 -14 -41 -1 -3 6 1 7 9 4 21 -8
20 13 -1 24 -10 6 -14 16 -10 27 8 20 38 17 45 -5z m49 4 c6 -15 7 -15 17 -2
9 13 11 8 11 -22 0 -30 -2 -35 -11 -22 -10 13 -11 13 -17 -2 -11 -29 -22 -17
-22 24 0 41 11 53 22 24z m102 -6 c-1 -17 -2 -19 -6 -5 -8 30 -23 18 -23 -18
0 -19 -4 -35 -10 -35 -5 0 -10 18 -10 40 0 36 3 40 25 40 20 0 25 -5 24 -22z
m59 10 c14 -14 16 -68 2 -68 -5 0 -10 14 -10 30 0 17 -5 30 -11 30 -6 0 -9 -6
-6 -12 2 -7 1 -22 -4 -33 -6 -16 -8 -12 -8 16 -1 48 12 62 37 37z m89 -33 c2
-35 0 -38 -11 -22 -16 21 -26 22 -26 2 0 -8 -3 -15 -7 -15 -5 0 -8 18 -8 40 0
37 2 41 25 38 21 -3 25 -9 27 -43z m53 20 c-5 -14 -7 -32 -4 -40 4 -9 0 -15
-8 -15 -11 0 -13 9 -10 31 3 20 0 34 -9 40 -10 6 -6 9 13 9 25 0 27 -2 18 -25z
m70 -37 l-24 -23 18 23 c19 21 19 23 0 45 l-18 22 24 -22 24 -23 -24 -22z
m200 27 c0 -47 18 -45 23 3 l4 37 1 -43 c2 -40 0 -43 -20 -40 -19 2 -24 10
-26 41 -2 21 1 37 7 37 6 0 11 -16 11 -35z m100 13 c0 13 4 20 10 17 9 -6 11
-51 2 -68 -2 -5 -11 2 -20 14 l-16 23 -7 -24 c-6 -20 -7 -16 -8 19 l-1 43 20
-23 19 -24 1 23z m65 -18 c0 -22 -4 -40 -10 -40 -5 0 -10 18 -10 40 0 22 5 40
10 40 6 0 10 -18 10 -40z m84 27 c14 -18 9 -77 -7 -77 -7 0 -11 4 -8 9 3 5 -3
11 -14 14 -22 6 -27 36 -8 55 15 15 23 15 37 -1z m41 -22 c0 -47 18 -45 23 3
l4 37 1 -43 c2 -40 0 -43 -20 -40 -19 2 -24 10 -26 41 -2 21 1 37 7 37 6 0 11
-16 11 -35z m103 28 c-18 -3 -23 -11 -23 -33 0 -22 5 -30 23 -33 17 -3 15 -5
-8 -6 -29 -1 -30 1 -30 39 0 38 1 40 30 39 23 -1 25 -3 8 -6z m62 -33 c0 -22
-4 -40 -10 -40 -5 0 -10 18 -10 40 0 22 5 40 10 40 6 0 10 -18 10 -40z m89 18
c14 -22 -2 -52 -30 -56 -16 -2 -19 4 -19 38 0 34 3 40 19 38 10 -2 24 -11 30
-20z m150 0 c14 -23 -3 -52 -32 -56 -18 -3 -21 2 -20 38 0 35 3 41 21 38 11
-2 25 -11 31 -20z m51 -18 c0 -22 -4 -40 -10 -40 -5 0 -10 18 -10 40 0 22 5
40 10 40 6 0 10 -18 10 -40z m81 22 c1 -7 0 -8 -3 -2 -2 5 -9 10 -14 10 -15 0
-10 -22 8 -35 17 -13 10 -35 -12 -35 -8 0 -17 5 -21 11 -4 8 1 9 17 4 l24 -7
-24 25 c-12 14 -20 31 -16 37 9 14 38 9 41 -8z m54 -22 c0 -22 -4 -40 -10 -40
-5 0 -10 18 -10 40 0 22 5 40 10 40 6 0 10 -18 10 -40z m27 -1 c0 -32 -2 -38
-9 -25 -9 15 -4 66 6 66 2 0 3 -19 3 -41z m-1477 -199 c0 -11 5 -17 13 -15 7
3 13 -4 13 -20 2 -23 1 -24 -10 -9 -12 15 -13 15 -19 0 -12 -30 -23 -16 -19
24 4 40 22 57 22 20z m152 -20 c2 -28 0 -40 -9 -40 -8 0 -13 14 -13 40 0 22 4
40 9 40 5 0 11 -18 13 -40z m82 34 c32 -12 13 -74 -23 -74 -12 0 -16 11 -16
40 0 40 7 46 39 34z m226 -34 c0 -22 -4 -40 -10 -40 -5 0 -10 14 -10 31 0 18
-4 28 -10 24 -6 -4 -8 -11 -5 -16 4 -5 1 -9 -4 -9 -16 0 -14 11 6 32 25 27 33
22 33 -22z m70 26 c0 -7 -7 -19 -15 -26 -8 -7 -15 -17 -15 -22 0 -6 7 -8 15
-4 8 3 15 1 15 -4 0 -6 -11 -10 -25 -10 -30 0 -32 11 -5 35 12 10 18 25 16 32
-3 7 -1 13 4 13 6 0 10 -6 10 -14z m78 -14 c4 -26 -13 -52 -34 -52 -10 0 -14
13 -14 41 0 36 2 40 23 37 14 -2 23 -11 25 -26z m67 17 c8 -13 -14 -69 -27
-69 -5 0 -6 9 -3 20 4 11 2 20 -4 20 -6 0 -11 9 -11 20 0 22 34 29 45 9z m79
-11 c14 -22 -2 -52 -30 -56 -16 -2 -19 4 -19 38 0 34 3 40 19 38 10 -2 24 -11
30 -20z m41 -9 c-1 -23 3 -33 19 -39 18 -8 17 -9 -9 -9 -28 -1 -30 1 -30 39 0
22 5 40 11 40 6 0 10 -14 9 -31z m67 2 c-4 -32 15 -52 29 -30 7 11 9 11 9 1 0
-19 -28 -26 -45 -12 -18 15 -19 42 -3 58 7 7 13 12 13 12 1 0 0 -13 -3 -29z
m38 19 c0 -5 -2 -10 -4 -10 -3 0 -8 5 -11 10 -3 6 -1 10 4 10 6 0 11 -4 11
-10z m70 -5 c17 -21 -2 -65 -28 -65 -14 0 -18 8 -17 40 0 43 21 54 45 25z
m-1098 -40 c4 -19 1 -25 -12 -25 -13 0 -16 6 -12 25 2 14 8 25 12 25 4 0 10
-11 12 -25z m48 15 c0 -5 -2 -10 -4 -10 -3 0 -8 5 -11 10 -3 6 -1 10 4 10 6 0
11 -4 11 -10z m25 -31 c-8 -12 -32 -12 -40 1 -3 6 1 7 9 4 9 -3 16 -1 16 6 0
6 5 8 10 5 6 -4 8 -11 5 -16z m355 11 c0 -5 -4 -10 -10 -10 -5 0 -10 5 -10 10
0 6 5 10 10 10 6 0 10 -4 10 -10z m-440 -200 c0 -22 -4 -40 -10 -40 -5 0 -10
18 -10 40 0 22 5 40 10 40 6 0 10 -18 10 -40z m57 33 c-4 -3 3 -17 15 -30 18
-20 20 -26 9 -33 -16 -10 -41 -2 -41 12 0 6 6 5 15 -2 12 -10 15 -10 15 3 0 8
-7 17 -15 21 -18 6 -20 36 -3 36 6 0 8 -3 5 -7z m33 -3 c0 -5 -4 -10 -10 -10
-5 0 -10 5 -10 10 0 6 5 10 10 10 6 0 10 -4 10 -10z m50 -7 c0 -16 1 -16 13 0
10 15 12 13 12 -18 0 -31 -2 -33 -12 -18 -12 15 -13 15 -13 1 0 -9 -4 -20 -10
-23 -6 -4 -10 10 -10 34 0 23 5 41 10 41 6 0 10 -8 10 -17z m70 2 c0 -21 18
-19 23 3 4 16 5 16 6 -1 0 -10 -6 -20 -14 -23 -8 -4 -15 -12 -15 -19 0 -8 -4
-17 -10 -20 -6 -4 -10 10 -10 34 0 23 5 41 10 41 6 0 10 -7 10 -15z m98 -23
c2 -18 -1 -32 -7 -32 -6 0 -11 5 -11 10 0 17 -18 11 -23 -7 -3 -10 -5 -2 -6
18 -1 40 6 51 29 47 9 -2 16 -16 18 -36z m46 23 c-4 -8 -1 -15 5 -15 6 0 11 7
11 15 0 8 4 15 9 15 4 0 8 -18 8 -40 0 -22 -4 -37 -8 -34 -5 3 -9 12 -9 20 0
23 -18 16 -23 -8 -2 -13 -5 -4 -6 20 0 23 3 42 9 42 5 0 7 -7 4 -15z m86 -10
c-5 -14 -7 -32 -3 -42 4 -11 3 -14 -5 -9 -18 11 -15 76 3 76 11 0 12 -5 5 -25z
m74 7 c15 -18 15 -20 -6 -38 -23 -19 -23 -19 -6 2 17 19 17 21 1 37 -10 9 -15
17 -12 17 3 0 13 -8 23 -18z"/>
<path d="M436 1221 c-4 -7 -5 -15 -2 -18 9 -9 19 4 14 18 -4 11 -6 11 -12 0z"/>
<path d="M1310 1200 c0 -16 5 -30 10 -30 6 0 10 14 10 30 0 17 -4 30 -10 30
-5 0 -10 -13 -10 -30z"/>
<path d="M282 990 c0 -14 2 -19 5 -12 2 6 2 18 0 25 -3 6 -5 1 -5 -13z"/>
<path d="M370 785 c0 -8 5 -15 10 -15 6 0 10 7 10 15 0 8 -4 15 -10 15 -5 0
-10 -7 -10 -15z"/>
<path d="M510 791 c0 -6 5 -13 10 -16 6 -3 10 1 10 9 0 9 -4 16 -10 16 -5 0
-10 -4 -10 -9z"/>
<path d="M1017 794 c-11 -11 -8 -44 3 -44 15 0 24 30 13 41 -5 5 -12 6 -16 3z"/>
<path d="M1310 771 c0 -17 5 -31 10 -31 6 0 10 11 10 24 0 14 -4 28 -10 31 -6
4 -10 -7 -10 -24z"/>
<path d="M1460 771 c0 -17 5 -31 10 -31 6 0 10 11 10 24 0 14 -4 28 -10 31 -6
4 -10 -7 -10 -24z"/>
<path d="M2180 770 c0 -30 13 -40 25 -20 8 13 -4 50 -16 50 -5 0 -9 -13 -9
-30z"/>
<path d="M2250 785 c0 -8 5 -15 10 -15 6 0 10 7 10 15 0 8 -4 15 -10 15 -5 0
-10 -7 -10 -15z"/>
<path d="M2330 771 c0 -17 5 -31 10 -31 6 0 10 11 10 24 0 14 -4 28 -10 31 -6
4 -10 -7 -10 -24z"/>
<path d="M2550 771 c0 -17 5 -31 10 -31 6 0 10 11 10 24 0 14 -4 28 -10 31 -6
4 -10 -7 -10 -24z"/>
<path d="M510 571 c0 -6 5 -13 10 -16 6 -3 10 1 10 9 0 9 -4 16 -10 16 -5 0
-10 -4 -10 -9z"/>
<path d="M1087 573 c-10 -9 -8 -43 2 -43 5 0 14 7 21 15 17 21 -4 48 -23 28z"/>
<path d="M1380 550 c0 -21 4 -30 13 -27 6 2 12 14 12 27 0 13 -6 25 -12 28 -9
2 -13 -7 -13 -28z"/>
<path d="M1530 550 c0 -16 5 -30 10 -30 6 0 10 14 10 30 0 17 -4 30 -10 30 -5
0 -10 -13 -10 -30z"/>
<path d="M510 331 c0 -17 5 -31 10 -31 6 0 10 9 10 20 0 11 0 23 1 27 0 4 -4
9 -10 11 -6 2 -11 -10 -11 -27z"/>
<path d="M880 330 c0 -18 4 -29 10 -25 6 3 10 15 10 25 0 10 -4 22 -10 25 -6
4 -10 -7 -10 -25z"/>
<path d="M940 350 c0 -5 5 -10 10 -10 6 0 10 5 10 10 0 6 -4 10 -10 10 -5 0
-10 -4 -10 -10z"/>
<path d="M1020 329 c0 -17 4 -28 10 -24 6 3 10 17 10 31 0 13 -4 24 -10 24 -5
0 -10 -14 -10 -31z"/>
<path d="M1240 329 c0 -17 4 -28 10 -24 6 3 10 17 10 31 0 13 -4 24 -10 24 -5
0 -10 -14 -10 -31z"/>
<path d="M430 125 c0 -8 5 -15 10 -15 6 0 10 7 10 15 0 8 -4 15 -10 15 -5 0
-10 -7 -10 -15z"/>
<path d="M52 1200 c0 -19 2 -27 5 -17 2 9 2 25 0 35 -3 9 -5 1 -5 -18z"/>
<path d="M80 1200 c0 -18 4 -29 10 -25 6 3 10 15 10 25 0 10 -4 22 -10 25 -6
4 -10 -7 -10 -25z"/>
<path d="M80 771 c0 -17 5 -31 10 -31 6 0 10 11 10 24 0 14 -4 28 -10 31 -6 4
-10 -7 -10 -24z"/>
<path d="M52 550 c0 -19 2 -27 5 -17 2 9 2 25 0 35 -3 9 -5 1 -5 -18z"/>
<path d="M80 550 c0 -18 4 -29 10 -25 6 3 10 15 10 25 0 10 -4 22 -10 25 -6 4
-10 -7 -10 -25z"/>
<path d="M52 330 c0 -19 2 -27 5 -17 2 9 2 25 0 35 -3 9 -5 1 -5 -18z"/>
<path d="M80 329 c0 -17 4 -28 10 -24 6 3 10 17 10 31 0 13 -4 24 -10 24 -5 0
-10 -14 -10 -31z"/>
</g>
</svg>
