<?xml version="1.0" standalone="no"?>
<!DOCTYPE svg PUBLIC "-//W3C//DTD SVG 20010904//EN"
 "http://www.w3.org/TR/2001/REC-SVG-20010904/DTD/svg10.dtd">
<svg version="1.0" xmlns="http://www.w3.org/2000/svg"
 width="449.000000pt" height="225.000000pt" viewBox="0 0 449.000000 225.000000"
 preserveAspectRatio="xMidYMid meet">
<metadata>
Created by potrace 1.13, written by Peter Selinger 2001-2015
</metadata>
<g transform="translate(0.000000,225.000000) scale(0.100000,-0.100000)"
fill="#000000" stroke="none">
<path d="M30 2209 c0 -31 3 -40 14 -36 10 4 12 0 9 -14 -3 -10 -2 -26 1 -35 5
-13 9 -14 21 -4 11 9 15 9 15 1 0 -18 -29 -25 -45 -11 -13 11 -15 2 -15 -68 0
-83 9 -99 45 -86 12 5 15 -2 14 -32 -1 -24 -3 -30 -6 -16 -5 27 -33 29 -33 2
0 -11 -4 -20 -10 -20 -6 0 -10 -34 -10 -81 0 -71 2 -80 15 -69 17 14 45 7 45
-12 0 -10 -2 -10 -9 1 -14 21 -33 2 -29 -29 3 -20 1 -27 -9 -23 -9 4 -13 -5
-13 -27 0 -28 2 -31 15 -20 21 18 47 -5 43 -39 -2 -22 -8 -26 -30 -24 l-28 2
0 -75 c0 -72 1 -74 25 -74 18 0 26 -7 31 -25 7 -29 -10 -55 -37 -55 -18 0 -19
-15 -19 -394 l0 -395 21 -3 c49 -7 49 -69 0 -76 -19 -3 -21 -9 -21 -73 0 -67
1 -69 25 -69 18 0 26 -7 31 -25 7 -29 -10 -55 -37 -55 -18 0 -19 -8 -17 -107
1 -60 3 -91 5 -70 5 47 23 49 23 1 0 -23 4 -33 11 -28 6 4 9 19 5 36 -3 18 -2
27 4 23 14 -9 12 -49 -2 -63 -7 -7 -20 -12 -30 -12 -10 0 -18 -4 -18 -10 0 -6
128 -10 365 -10 318 0 365 2 365 15 0 10 11 15 35 15 24 0 35 -5 35 -15 0 -13
210 -15 1830 -15 l1830 0 0 1084 0 1085 -23 35 -22 35 -2207 1 -2208 0 0 -41z
m60 -39 c0 -5 -2 -10 -4 -10 -3 0 -8 5 -11 10 -3 6 -1 10 4 10 6 0 11 -4 11
-10z m203 -8 c16 -17 15 -20 -10 -43 -25 -22 -26 -22 -9 -1 18 21 18 23 1 42
-10 11 -14 20 -8 20 5 0 17 -8 26 -18z m79 -22 c2 -22 0 -36 -3 -32 -11 11
-18 72 -9 72 4 0 10 -18 12 -40z m188 20 c0 -23 10 -25 30 -7 12 10 12 9 2 -5
-9 -11 -10 -18 -2 -23 5 -3 10 -12 10 -18 0 -7 -7 -4 -14 6 -16 21 -26 22 -26
2 0 -8 -3 -15 -7 -15 -5 0 -8 18 -8 40 0 22 3 40 8 40 4 0 7 -9 7 -20z m-415
0 c3 -5 -1 -10 -10 -10 -9 0 -13 5 -10 10 3 6 8 10 10 10 2 0 7 -4 10 -10z
m90 -48 c-7 -7 -55 39 -55 52 0 5 13 -3 30 -19 16 -16 28 -31 25 -33z m620 25
c0 -14 5 -21 15 -19 11 3 12 1 3 -8 -6 -7 -16 -10 -21 -6 -11 7 -22 53 -14 61
9 8 17 -5 17 -28z m-368 8 c0 -8 -4 -12 -9 -9 -5 3 -6 10 -3 15 9 13 12 11 12
-6z m183 -14 c0 -10 -11 -26 -25 -35 l-25 -16 0 35 c0 22 4 34 10 30 6 -3 10
-13 10 -21 0 -8 5 -14 11 -14 7 0 9 10 7 25 -3 13 -1 22 3 19 5 -3 9 -13 9
-23z m58 17 c7 -7 12 -21 12 -32 -1 -20 -1 -20 -14 -3 -7 9 -17 17 -21 17 -4
0 -4 -8 0 -17 5 -15 4 -16 -7 -5 -11 11 -10 16 5 27 13 10 15 14 5 18 -7 3 -8
6 -2 6 5 1 15 -4 22 -11z m52 3 c0 -5 9 -7 20 -4 12 3 20 0 20 -6 0 -7 -8 -11
-17 -9 -12 2 -18 -3 -17 -14 1 -10 -3 -18 -10 -18 -6 0 -11 14 -11 30 0 17 3
30 8 30 4 0 7 -4 7 -9z m-438 -25 c4 -17 1 -23 -9 -19 -14 5 -17 25 -6 36 9
10 10 9 15 -17z m100 -1 c4 -19 1 -25 -12 -25 -13 0 -16 6 -12 25 2 14 8 25
12 25 4 0 10 -11 12 -25z m-302 -5 c0 -5 -4 -10 -10 -10 -5 0 -10 5 -10 10 0
6 5 10 10 10 6 0 10 -4 10 -10z m375 -11 c-8 -12 -32 -12 -40 1 -3 6 1 7 9 4
9 -3 16 -1 16 6 0 6 5 8 10 5 6 -4 8 -11 5 -16z m63 -156 c-21 -5 -24 -23 -5
-23 9 0 8 -3 -2 -9 -7 -5 -10 -14 -7 -20 4 -6 3 -11 -3 -11 -12 0 -19 28 -13
53 3 10 13 17 26 16 17 -1 17 -2 4 -6z m202 -28 c0 -19 -4 -35 -8 -35 -4 0 -6
16 -4 35 2 19 6 35 8 35 2 0 4 -16 4 -35z m35 0 c0 -16 -4 -30 -10 -32 -5 -1
-10 13 -10 32 0 19 5 34 10 32 6 -2 10 -16 10 -32z m185 14 c0 -19 2 -20 17
-8 15 12 16 12 11 -2 -4 -9 -1 -22 5 -28 8 -8 8 -11 0 -11 -6 0 -14 6 -17 13
-5 10 -7 10 -12 0 -11 -25 -24 -13 -24 22 0 19 5 35 10 35 6 0 10 -10 10 -21z
m81 -9 c5 0 9 7 9 15 0 8 5 15 10 15 18 0 10 -32 -9 -37 -11 -3 -22 -12 -24
-22 -3 -9 -5 2 -5 24 0 22 2 32 5 23 2 -10 9 -18 14 -18z m934 19 c-4 -6 1
-16 10 -23 10 -7 15 -19 12 -27 -4 -10 -6 -9 -6 4 -1 22 -21 23 -21 0 0 -13
-3 -14 -11 -6 -13 13 -4 63 12 63 6 0 7 -5 4 -11z m145 7 c0 -3 -4 -8 -10 -11
-5 -3 -10 -1 -10 4 0 6 5 11 10 11 6 0 10 -2 10 -4z m30 -8 c-1 -16 -39 -63
-45 -56 -3 3 1 11 10 18 8 7 15 21 15 31 0 11 5 19 10 19 6 0 10 -6 10 -12z
m121 -18 c5 0 9 8 10 18 0 11 2 12 6 4 7 -18 -5 -62 -18 -62 -6 0 -7 5 -4 11
4 6 -1 16 -11 23 -11 9 -14 18 -8 27 7 11 9 11 12 -3 2 -10 8 -18 13 -18z m99
17 c0 -8 -11 -24 -25 -37 -14 -13 -25 -19 -25 -13 0 6 7 16 15 23 8 7 15 19
15 26 0 8 5 14 10 14 6 0 10 -6 10 -13z m33 -7 c-3 -11 0 -20 6 -20 5 0 8 -7
5 -15 -11 -27 -24 -16 -24 20 0 19 4 35 9 35 5 0 7 -9 4 -20z m47 -15 c0 -39
-15 -48 -22 -12 -5 27 0 47 13 47 5 0 9 -16 9 -35z m32 12 c5 -27 0 -47 -13
-47 -5 0 -9 16 -9 35 0 39 15 48 22 12z m38 -12 c0 -19 -4 -35 -9 -35 -5 0 -7
9 -4 20 3 11 0 20 -6 20 -5 0 -8 7 -5 15 11 27 24 16 24 -20z m-1910 15 c10
-6 11 -10 3 -10 -7 0 -13 -9 -13 -20 0 -11 -4 -20 -10 -20 -5 0 -10 14 -10 30
0 32 6 36 30 20z m658 -8 c-10 -2 -18 -13 -19 -25 0 -22 0 -21 -10 1 -12 31
-4 42 24 34 18 -5 19 -7 5 -10z m-1160 -20 c5 -31 -15 -27 -21 3 -3 16 0 24 7
22 6 -2 12 -13 14 -25z m78 17 c4 -8 0 -9 -15 -4 -17 5 -21 2 -22 -17 0 -13
-3 -17 -6 -10 -12 31 26 59 43 31z m45 4 c0 -5 2 -16 4 -25 2 -10 0 -18 -5
-18 -4 0 -10 11 -12 25 -3 14 -1 25 3 25 5 0 9 -3 10 -7z m39 -14 c0 -6 -4 -7
-10 -4 -5 3 -10 11 -10 16 0 6 5 7 10 4 6 -3 10 -11 10 -16z m57 -9 c1 -22 1
-22 -4 -2 -6 28 -23 29 -23 0 0 -16 -3 -19 -11 -11 -16 16 -3 45 18 41 11 -2
19 -13 20 -28z m68 20 c4 -6 -1 -7 -11 -3 -13 5 -15 3 -9 -7 5 -9 4 -11 -4 -6
-6 4 -9 12 -6 17 8 12 22 12 30 -1z m83 -18 c2 -12 -1 -22 -7 -22 -6 0 -11 9
-11 20 0 28 -20 25 -21 -2 0 -13 -3 -17 -6 -10 -8 21 6 44 24 40 10 -2 19 -13
21 -26z m351 1 c-1 -22 -2 -23 -6 -8 -3 11 -10 23 -17 27 -7 5 -5 8 7 8 12 0
17 -7 16 -27z m75 19 c2 -4 -4 -8 -15 -8 -10 0 -19 4 -19 8 0 4 6 8 14 8 8 0
17 -4 20 -8z m224 -22 c2 -19 1 -22 -7 -10 -5 8 -8 17 -5 21 2 4 -4 10 -13 13
-14 4 -14 4 2 3 13 -2 21 -11 23 -27z m52 5 c0 -14 -4 -25 -10 -25 -5 0 -10
11 -10 25 0 14 5 25 10 25 6 0 10 -11 10 -25z m30 4 c0 -6 -4 -7 -10 -4 -5 3
-10 11 -10 16 0 6 5 7 10 4 6 -3 10 -11 10 -16z m180 -5 c0 -23 18 -16 23 9
l4 22 2 -23 c1 -26 -27 -41 -40 -21 -12 19 -11 42 1 34 6 -3 10 -13 10 -21z
m98 9 c2 -7 -3 -13 -12 -13 -9 0 -16 -5 -16 -12 0 -8 -3 -9 -10 -2 -15 15 -1
46 18 42 8 -2 17 -9 20 -15z m54 5 c6 -15 -1 -38 -10 -38 -4 0 -7 11 -7 25 0
26 10 33 17 13z m35 -14 c-9 -9 -28 6 -21 18 4 6 10 6 17 -1 6 -6 8 -13 4 -17z
m58 16 c3 -6 -1 -7 -9 -4 -9 3 -16 1 -16 -6 0 -6 -5 -8 -10 -5 -6 4 -8 11 -5
16 8 12 32 12 40 -1z m67 -15 c3 -14 2 -25 -2 -25 -4 0 -10 11 -12 25 -3 14
-2 25 2 25 4 0 10 -11 12 -25z m85 9 c3 -8 1 -20 -6 -27 -8 -8 -11 -5 -11 11
0 12 -4 22 -10 22 -5 0 -10 -10 -10 -22 0 -17 -3 -19 -12 -10 -8 8 -8 15 2 27
16 19 39 19 47 -1z m71 -11 c2 -13 -1 -23 -7 -23 -6 0 -11 9 -11 20 0 27 -18
25 -23 -2 -4 -19 -4 -18 -6 5 -1 24 2 28 22 25 14 -2 23 -11 25 -25z m-762
-20 c-10 -10 -19 5 -10 18 6 11 8 11 12 0 2 -7 1 -15 -2 -18z m-186 7 c0 -5
-2 -10 -4 -10 -3 0 -8 5 -11 10 -3 6 -1 10 4 10 6 0 11 -4 11 -10z m725 0 c3
-5 1 -10 -4 -10 -6 0 -11 5 -11 10 0 6 2 10 4 10 3 0 8 -4 11 -10z m432 -6
c-3 -3 -12 -4 -19 -1 -8 3 -5 6 6 6 11 1 17 -2 13 -5z m-1672 -154 c3 -5 1
-10 -4 -10 -6 0 -11 5 -11 10 0 6 2 10 4 10 3 0 8 -4 11 -10z m128 -11 c3 -12
2 -31 -2 -42 -7 -18 -9 -14 -12 21 -5 44 5 57 14 21z m231 0 c-16 -18 -16 -23
-4 -42 12 -20 12 -21 -3 -8 -21 17 -22 35 -1 55 23 23 30 19 8 -5z m94 1 c4
-12 2 -13 -9 -2 -22 21 -31 13 -27 -23 4 -39 -15 -44 -20 -6 -6 42 44 70 56
31z m50 8 c17 -17 15 -43 -5 -59 -15 -13 -15 -12 -3 8 12 19 12 24 -4 42 -20
22 -9 30 12 9z m230 -13 c1 -11 -5 -29 -13 -40 -14 -16 -16 -17 -11 -3 3 10
-2 21 -11 26 -21 12 -9 45 14 40 10 -2 19 -12 21 -23z m71 11 c9 -10 9 -20 0
-40 -12 -26 -33 -38 -23 -13 3 8 -2 19 -10 26 -17 14 -11 41 9 41 7 0 18 -6
24 -14z m76 3 c8 -13 -14 -69 -27 -69 -5 0 -6 5 -3 10 4 6 1 17 -5 25 -7 8
-10 22 -6 30 6 17 32 20 41 4z m141 -3 c6 -16 -25 -65 -40 -66 -5 0 0 10 12
23 23 24 29 47 13 47 -5 0 -11 -6 -14 -12 -2 -7 -8 -10 -12 -6 -10 10 3 28 21
28 8 0 17 -7 20 -14z m81 -31 c1 -31 0 -34 -5 -15 l-8 24 -16 -22 -16 -23 -4
30 c-5 33 8 53 32 49 10 -2 16 -16 17 -43z m140 25 c3 -18 -35 -66 -44 -56 -4
3 3 15 15 26 22 21 29 40 14 40 -4 0 -13 -5 -20 -12 -7 -7 -12 -8 -12 -2 0 28
43 31 47 4z m138 10 c12 19 26 -1 23 -36 -2 -36 -18 -48 -18 -14 0 11 -7 20
-15 20 -8 0 -15 -9 -15 -20 0 -11 -4 -20 -10 -20 -11 0 -14 63 -3 73 3 4 12 2
19 -4 8 -7 14 -7 19 1z m511 -2 c5 -7 3 -8 -5 -3 -9 5 -12 1 -11 -11 4 -34 0
-54 -10 -54 -11 0 -14 63 -3 73 10 10 21 8 29 -5z m231 -8 c4 -12 3 -13 -5 -1
-15 21 -34 2 -30 -30 4 -23 2 -26 -9 -18 -7 7 -13 19 -13 28 0 37 48 54 57 21z
m-1477 -25 c0 -19 -4 -35 -9 -35 -4 0 -6 11 -3 25 3 17 0 25 -9 25 -11 0 -11
2 1 10 21 13 20 14 20 -25z m510 0 c0 -20 -5 -35 -12 -35 -6 0 -9 3 -5 6 3 3
2 17 -3 29 -8 22 -5 27 18 34 1 1 2 -15 2 -34z m-940 15 c10 -6 11 -10 3 -10
-7 0 -13 -6 -13 -14 0 -8 6 -17 13 -20 6 -3 3 -5 -8 -3 -14 1 -21 11 -23 30
-4 29 3 33 28 17z m1742 -8 c-16 -5 -15 -29 1 -35 7 -4 6 -6 -4 -6 -10 -1 -19
9 -21 24 -6 29 -1 36 20 27 10 -4 12 -7 4 -10z m653 8 c3 -5 1 -10 -4 -10 -18
0 -12 -28 7 -33 13 -4 13 -5 -4 -6 -16 -1 -23 6 -26 24 -7 33 12 50 27 25z
m-2888 -16 c3 -8 1 -20 -6 -27 -8 -8 -11 -5 -11 11 0 12 -4 22 -10 22 -5 0
-10 -10 -10 -22 0 -16 -3 -19 -11 -11 -17 17 -3 43 21 43 11 0 23 -7 27 -16z
m45 -24 c3 -17 0 -30 -6 -30 -6 0 -11 15 -11 34 0 41 11 38 17 -4z m35 24 c3
-8 1 -20 -4 -25 -7 -7 -12 -2 -15 15 -6 28 9 36 19 10z m55 -4 c6 15 12 20 15
12 7 -19 -25 -62 -45 -61 -16 1 -16 2 1 6 18 5 24 23 7 23 -5 0 -10 10 -9 23
0 21 1 21 11 -3 l10 -25 10 25z m58 -11 c0 -10 -4 -19 -10 -19 -5 0 -10 12
-10 26 0 14 4 23 10 19 6 -3 10 -15 10 -26z m25 21 c3 -5 1 -10 -4 -10 -6 0
-11 5 -11 10 0 6 2 10 4 10 3 0 8 -4 11 -10z m65 -15 c0 -14 -4 -25 -9 -25 -5
0 -11 11 -13 25 -4 17 -1 25 8 25 8 0 14 -11 14 -25z m46 5 c0 -11 -4 -20 -8
-20 -10 0 -11 24 -1 33 9 9 9 10 9 -13z m30 -36 c-3 -8 -16 -13 -28 -13 -17 1
-18 2 -5 6 10 3 17 14 17 27 0 12 3 26 8 30 9 10 16 -30 8 -50z m84 25 c0 -10
-4 -19 -10 -19 -5 0 -10 12 -10 26 0 14 4 23 10 19 6 -3 10 -15 10 -26z m1290
6 c0 -14 -5 -25 -11 -25 -6 0 -9 9 -6 20 3 10 0 21 -7 24 -6 2 -3 5 7 5 12 1
17 -7 17 -24z m46 1 c0 -15 -5 -21 -10 -16 -5 5 -6 16 -3 24 9 23 15 19 13 -8z
m84 -1 c0 -14 -4 -25 -10 -25 -5 0 -10 11 -10 25 0 14 5 25 10 25 6 0 10 -11
10 -25z m30 15 c0 -5 -4 -10 -10 -10 -5 0 -10 5 -10 10 0 6 5 10 10 10 6 0 10
-4 10 -10z m67 -6 c3 -8 1 -20 -6 -27 -8 -8 -11 -5 -11 11 0 12 -5 22 -11 22
-6 0 -9 -9 -6 -20 3 -11 1 -20 -4 -20 -5 0 -9 11 -9 25 0 18 5 25 20 25 11 0
23 -7 27 -16z m53 6 c-20 -13 -33 -13 -25 0 3 6 14 10 23 10 15 0 15 -2 2 -10z
m88 -18 c2 -12 -1 -22 -6 -22 -6 0 -8 9 -5 20 3 11 0 20 -6 20 -6 0 -11 -10
-11 -22 0 -16 -3 -19 -11 -11 -16 16 -3 45 18 41 10 -2 19 -13 21 -26z m369
12 c3 -8 1 -20 -6 -27 -8 -8 -11 -5 -11 11 0 12 -4 22 -10 22 -5 0 -10 -10
-10 -22 0 -16 -3 -19 -11 -11 -17 17 -3 43 21 43 11 0 23 -7 27 -16z m43 -9
c0 -14 -3 -25 -7 -25 -5 0 -8 11 -8 25 0 14 3 25 8 25 4 0 7 -11 7 -25z m35
15 c3 -5 2 -10 -4 -10 -5 0 -13 5 -16 10 -3 6 -2 10 4 10 5 0 13 -4 16 -10z
m40 -32 c5 -20 3 -28 -6 -28 -9 0 -14 12 -14 35 0 38 10 35 20 -7z m32 26 c3
-8 0 -21 -7 -27 -10 -9 -11 -9 -6 1 4 7 2 19 -4 27 -9 11 -9 15 -1 15 6 0 14
-7 18 -16z m61 -12 c2 -12 -1 -22 -6 -22 -6 0 -8 9 -5 20 3 11 0 20 -6 20 -6
0 -11 -10 -11 -22 0 -16 -3 -19 -11 -11 -16 16 -3 45 18 41 10 -2 19 -13 21
-26z m52 3 c0 -14 -4 -25 -10 -25 -5 0 -10 11 -10 25 0 14 5 25 10 25 6 0 10
-11 10 -25z m35 15 c3 -5 -1 -10 -9 -10 -9 0 -16 5 -16 10 0 6 4 10 9 10 6 0
13 -4 16 -10z m61 -5 c3 -8 4 -20 1 -27 -3 -9 -7 -6 -13 7 -4 11 -12 23 -18
27 -7 5 -4 8 7 8 10 0 20 -7 23 -15z m136 -10 c3 -14 2 -25 -2 -25 -4 0 -10
11 -12 25 -3 14 -2 25 2 25 4 0 10 -11 12 -25z m85 9 c3 -8 1 -20 -6 -27 -8
-8 -11 -5 -11 11 0 29 -17 28 -23 0 -4 -20 -4 -19 -6 5 -1 21 3 27 19 27 11 0
23 -7 27 -16z m71 -11 c2 -13 -1 -23 -7 -23 -6 0 -11 9 -11 20 0 27 -18 25
-23 -2 -4 -19 -4 -18 -6 5 -1 24 2 28 22 25 14 -2 23 -11 25 -25z m-321 -8 c0
-8 -4 -15 -9 -15 -4 0 -8 7 -8 15 0 8 4 15 8 15 5 0 9 -7 9 -15z m-2867 -5 c0
-5 -5 -10 -11 -10 -5 0 -7 5 -4 10 3 6 8 10 11 10 2 0 4 -4 4 -10z m800 0 c0
-5 -5 -10 -11 -10 -5 0 -7 5 -4 10 3 6 8 10 11 10 2 0 4 -4 4 -10z m1295 0 c3
-5 1 -10 -4 -10 -6 0 -11 5 -11 10 0 6 2 10 4 10 3 0 8 -4 11 -10z m375 0 c0
-5 -5 -10 -11 -10 -5 0 -7 5 -4 10 3 6 8 10 11 10 2 0 4 -4 4 -10z m-1529 -47
c0 -5 2 -23 3 -40 2 -18 0 -33 -5 -33 -5 0 -9 7 -9 15 0 8 -4 15 -10 15 -5 0
-10 -7 -10 -15 0 -8 -4 -15 -10 -15 -5 0 -10 18 -10 40 0 36 3 40 25 40 14 0
25 -3 26 -7z m61 0 c-19 -4 -22 -10 -19 -39 3 -20 0 -34 -7 -34 -6 0 -11 17
-11 40 0 38 1 40 30 39 24 -1 25 -3 7 -6z m74 -11 c1 -7 0 -8 -3 -2 -7 15 -23
12 -23 -4 0 -8 7 -16 15 -20 17 -6 21 -36 4 -36 -5 0 -8 4 -4 9 3 5 -4 16 -16
25 -14 9 -19 21 -15 31 7 19 38 17 42 -3z m81 -2 c4 -12 3 -13 -5 -1 -15 21
-34 2 -30 -30 4 -23 2 -26 -9 -18 -7 7 -13 19 -13 28 0 37 48 54 57 21z m35
-20 c2 -22 0 -40 -4 -40 -5 0 -8 18 -8 40 0 22 2 40 4 40 2 0 6 -18 8 -40z
m38 6 c0 -19 -4 -38 -10 -41 -6 -4 -10 10 -10 34 0 23 5 41 10 41 6 0 10 -15
10 -34z m63 27 c-17 -3 -21 -10 -19 -39 2 -20 -1 -34 -8 -34 -6 0 -11 17 -11
40 0 38 1 40 30 39 22 -1 24 -3 8 -6z m146 -10 c0 -11 -3 -13 -6 -5 -7 17 -23
15 -23 -4 0 -8 -4 -13 -10 -9 -15 9 0 35 21 35 12 0 19 -7 18 -17z m73 10
c-19 -4 -22 -10 -19 -39 3 -20 0 -34 -7 -34 -6 0 -11 17 -11 40 0 38 1 40 30
39 24 -1 25 -3 7 -6z m84 -35 c1 -21 -3 -38 -7 -38 -5 0 -8 5 -6 11 1 6 -4 14
-10 16 -7 3 -13 -2 -13 -11 0 -9 -3 -16 -7 -16 -5 0 -8 18 -8 40 0 38 2 41 25
38 21 -3 25 -8 26 -40z m34 5 c0 -43 16 -34 23 12 4 27 4 27 6 -7 1 -41 -12
-56 -34 -38 -17 14 -20 70 -5 70 6 0 10 -17 10 -37z m98 30 c-13 -3 -18 -15
-18 -39 0 -19 -4 -34 -10 -34 -5 0 -10 18 -10 40 0 37 2 40 28 39 16 -1 20 -3
10 -6z m88 -35 c1 -21 -3 -38 -7 -38 -5 0 -9 7 -9 15 0 8 -4 15 -10 15 -5 0
-10 -7 -10 -15 0 -8 -3 -15 -7 -15 -5 0 -8 18 -8 40 0 38 2 41 25 38 21 -3 25
-8 26 -40z m142 0 c2 -21 -1 -38 -6 -38 -6 0 -8 10 -4 22 3 14 2 19 -6 14 -16
-9 -15 7 0 22 9 9 8 12 -6 12 -12 0 -17 -7 -16 -22 3 -38 1 -50 -10 -43 -11 7
-14 58 -3 69 4 4 16 6 28 4 15 -2 21 -12 23 -40z m-1398 12 c10 -6 11 -10 3
-10 -7 0 -13 -6 -13 -14 0 -8 6 -17 13 -20 6 -3 3 -5 -8 -3 -14 1 -21 11 -23
30 -4 29 3 33 28 17z m220 0 c0 -5 -4 -10 -10 -10 -5 0 -10 5 -10 10 0 6 5 10
10 10 6 0 10 -4 10 -10z m-712 -27 c2 -13 -1 -23 -7 -23 -6 0 -11 9 -11 20 0
11 -4 20 -10 20 -5 0 -10 -9 -10 -20 0 -11 -4 -20 -10 -20 -5 0 -10 12 -10 26
0 22 4 25 28 22 19 -2 28 -9 30 -25z m119 20 c-13 -3 -17 -11 -13 -25 3 -15 2
-18 -6 -10 -15 15 -2 42 19 41 17 -1 17 -2 0 -6z m93 -18 c0 -14 -4 -25 -9
-25 -5 0 -7 9 -4 20 3 11 0 20 -6 20 -6 0 -11 -10 -11 -22 0 -16 -3 -19 -11
-11 -16 16 -3 43 21 43 15 0 20 -7 20 -25z m87 9 c3 -8 1 -20 -6 -27 -8 -8
-11 -6 -11 9 0 12 -7 21 -15 21 -8 0 -15 -9 -15 -19 0 -10 -4 -18 -10 -18 -5
0 -10 11 -10 25 0 21 5 25 30 25 19 0 33 -6 37 -16z m37 -26 c3 -18 0 -28 -7
-28 -7 0 -12 15 -12 35 0 38 11 34 19 -7z m33 26 c3 -8 1 -20 -4 -25 -7 -7
-12 -2 -15 15 -6 28 9 36 19 10z m31 -8 c-1 -14 -6 -22 -10 -20 -12 7 -10 44
2 44 5 0 9 -11 8 -24z m34 -1 c3 -14 1 -25 -3 -25 -5 0 -9 11 -9 25 0 14 2 25
4 25 2 0 6 -11 8 -25z m144 14 c4 -8 -1 -9 -15 -4 -36 11 -22 -38 24 -85 28
-29 34 -40 22 -40 -9 0 -17 -4 -17 -9 0 -20 13 -41 24 -41 8 0 11 -12 8 -35
-4 -36 5 -44 26 -23 9 9 12 8 12 -5 0 -12 -8 -17 -28 -17 -26 0 -28 2 -24 35
4 30 1 35 -16 35 -12 0 -28 10 -36 22 -13 18 -18 19 -31 8 -13 -11 -15 -4 -15
59 0 40 5 81 10 92 12 21 45 26 56 8z m45 4 c0 -5 2 -16 4 -25 2 -10 -2 -18
-8 -18 -7 0 -12 11 -12 25 0 22 14 37 16 18z m34 -3 c3 -5 2 -10 -4 -10 -5 0
-13 5 -16 10 -3 6 -2 10 4 10 5 0 13 -4 16 -10z m1015 0 c0 -5 -5 -10 -11 -10
-5 0 -7 5 -4 10 3 6 8 10 11 10 2 0 4 -4 4 -10z m-301 -14 c7 -8 8 -17 3 -20
-6 -3 -12 3 -15 14 -6 24 -4 25 12 6z m-389 -16 c0 -5 -2 -10 -4 -10 -3 0 -8
5 -11 10 -3 6 -1 10 4 10 6 0 11 -4 11 -10z m110 0 c0 -5 -5 -10 -11 -10 -5 0
-7 5 -4 10 3 6 8 10 11 10 2 0 4 -4 4 -10z m255 0 c3 -5 2 -10 -4 -10 -5 0
-13 5 -16 10 -3 6 -2 10 4 10 5 0 13 -4 16 -10z m-1365 -190 c0 -22 -4 -40
-10 -40 -5 0 -10 18 -10 40 0 22 5 40 10 40 6 0 10 -18 10 -40z m86 29 c4 -8
0 -9 -15 -4 -26 8 -27 -6 -1 -30 22 -20 18 -35 -11 -35 -11 0 -19 7 -19 18 0
14 2 15 10 2 5 -8 13 -11 17 -6 4 4 0 13 -10 20 -23 18 -22 46 2 46 11 0 23
-5 27 -11z m44 -4 c0 -8 5 -15 10 -15 6 0 10 7 10 15 0 8 5 15 10 15 13 0 13
-17 0 -25 -7 -4 -6 -13 1 -26 6 -12 8 -23 5 -26 -3 -3 -8 2 -12 11 -8 20 -24
21 -24 1 0 -8 -3 -15 -7 -15 -5 0 -8 18 -8 40 0 22 3 40 8 40 4 0 7 -7 7 -15z
m80 -25 c0 -22 -4 -40 -10 -40 -5 0 -10 18 -10 40 0 22 5 40 10 40 6 0 10 -18
10 -40z m30 14 c0 -8 -4 -14 -8 -14 -4 0 -8 9 -8 19 0 11 4 17 8 15 4 -3 8
-12 8 -20z m58 14 c14 -14 16 -68 2 -68 -5 0 -10 14 -10 30 0 17 -4 30 -10 30
-5 0 -10 -13 -10 -30 0 -16 -4 -30 -10 -30 -13 0 -13 36 0 61 12 22 21 24 38
7z m56 -10 c-1 -13 -3 -31 -3 -40 -2 -36 -16 -16 -16 22 0 22 5 40 11 40 6 0
10 -10 8 -22z m33 -24 c2 -35 -13 -48 -19 -16 -5 23 3 64 10 57 4 -3 7 -22 9
-41z m54 37 c-9 -6 -12 -20 -9 -40 3 -19 0 -31 -7 -31 -7 0 -10 12 -7 31 3 20
0 34 -9 40 -10 6 -5 9 16 9 21 0 26 -3 16 -9z m74 -51 c-10 -11 -23 -20 -28
-20 -6 0 -2 9 8 20 14 16 16 23 7 32 -7 7 -12 17 -12 22 0 6 10 1 22 -11 21
-22 21 -23 3 -43z m210 20 c0 -22 -4 -40 -10 -40 -5 0 -10 18 -10 40 0 22 5
40 10 40 6 0 10 -18 10 -40z m85 30 c0 -5 -7 -7 -15 -4 -10 4 -15 0 -15 -12 0
-13 -3 -15 -11 -7 -6 6 -8 16 -5 22 9 14 46 15 46 1z m71 1 c-9 -6 -12 -20 -9
-40 3 -20 0 -31 -8 -31 -7 0 -14 17 -16 40 -3 37 -2 40 22 40 18 0 21 -3 11
-9z m155 -16 c7 -29 -10 -55 -35 -55 -13 0 -16 8 -13 40 3 31 8 40 23 40 12 0
21 -9 25 -25z m54 -15 c0 -22 -4 -40 -10 -40 -5 0 -10 18 -10 40 0 22 5 40 10
40 6 0 10 -18 10 -40z m86 29 c4 -8 0 -9 -15 -4 -27 8 -27 -6 -1 -30 13 -12
17 -22 11 -28 -12 -12 -41 -2 -41 15 0 9 3 9 10 -2 5 -8 13 -11 17 -6 4 4 0
13 -10 20 -23 18 -22 46 2 46 11 0 23 -5 27 -11z m44 -4 c0 -19 10 -19 24 0 9
13 11 8 11 -25 0 -33 -2 -38 -11 -25 -14 19 -24 19 -24 0 0 -8 -3 -15 -7 -15
-5 0 -8 18 -8 40 0 22 3 40 8 40 4 0 7 -7 7 -15z m-410 -51 c0 -16 -36 -19
-46 -3 -4 8 1 9 16 4 19 -6 22 -4 17 9 -4 10 -3 15 3 11 6 -3 10 -13 10 -21z
m-716 -176 c14 -22 -2 -52 -30 -56 -16 -2 -19 4 -20 38 -1 36 1 41 19 38 11
-2 25 -11 31 -20z m186 2 c0 -11 5 -17 13 -15 7 3 13 -5 14 -22 1 -23 0 -24
-9 -9 -9 17 -10 17 -24 -1 -12 -16 -13 -14 -14 25 0 23 5 42 10 42 6 0 10 -9
10 -20z m171 -10 c7 -33 0 -57 -12 -38 -7 11 -11 10 -19 -2 -10 -16 -12 -11
-12 35 0 34 0 33 20 31 9 0 19 -12 23 -26z m50 3 l1 -28 7 30 c7 34 20 22 16
-15 -2 -14 -4 -29 -4 -35 -1 -5 -5 -4 -10 4 -6 10 -10 10 -16 1 -12 -19 -22 6
-17 40 5 38 22 39 23 3z m70 0 l2 -28 4 28 c6 39 23 33 23 -9 0 -28 -3 -35
-15 -30 -8 3 -15 1 -15 -5 0 -6 -4 -7 -10 -4 -5 3 -10 22 -10 41 0 40 19 46
21 7z m227 -16 c10 -12 12 -21 5 -28 -11 -11 -43 -2 -43 12 0 14 18 11 23 -3
2 -7 8 -9 13 -5 5 5 -2 16 -15 26 -16 12 -21 23 -16 32 7 11 9 10 13 -1 3 -8
12 -23 20 -33z m12 33 c0 -5 -2 -10 -4 -10 -3 0 -8 5 -11 10 -3 6 -1 10 4 10
6 0 11 -4 11 -10z m1078 -33 c10 -12 12 -21 5 -28 -11 -11 -43 -2 -43 12 0 14
18 11 23 -3 2 -7 8 -9 13 -5 5 5 -2 16 -15 26 -16 12 -21 23 -16 32 7 11 9 10
13 -1 3 -8 12 -23 20 -33z m12 33 c0 -5 -2 -10 -4 -10 -3 0 -8 5 -11 10 -3 6
-1 10 4 10 6 0 11 -4 11 -10z m630 -5 c0 -8 7 -15 15 -15 8 0 15 -4 15 -10 0
-5 -7 -7 -15 -4 -10 4 -15 0 -15 -15 0 -12 -4 -21 -8 -21 -4 0 -8 18 -7 40 0
22 3 40 8 40 4 0 7 -7 7 -15z m40 5 c0 -5 -2 -10 -4 -10 -3 0 -8 5 -11 10 -3
6 -1 10 4 10 6 0 11 -4 11 -10z m648 -18 c4 -26 -13 -52 -34 -52 -10 0 -14 13
-14 41 0 36 2 40 23 37 14 -2 23 -11 25 -26z m327 -4 c0 -18 6 -33 14 -36 10
-3 12 0 8 12 -4 9 -2 16 3 16 6 0 10 -9 10 -20 0 -24 -22 -26 -44 -4 -19 19
-20 36 -4 52 7 7 12 12 13 12 0 0 0 -14 0 -32z m-2674 -33 c5 4 9 1 9 -5 0
-15 -21 -8 -33 12 -6 9 -7 23 -2 34 8 16 10 14 13 -14 2 -18 8 -30 13 -27z
m138 38 c-3 -34 1 -44 14 -37 9 5 9 4 0 -6 -6 -7 -16 -9 -22 -6 -14 9 -14 66
0 66 5 0 9 -8 8 -17z m2683 -19 c-4 -24 -2 -26 14 -20 14 5 16 4 7 -5 -6 -6
-16 -9 -21 -5 -11 6 -22 53 -14 60 11 12 19 -5 14 -30z m-3540 -9 c3 -15 1
-25 -6 -25 -6 0 -11 11 -11 25 0 14 3 25 6 25 4 0 9 -11 11 -25z m808 6 c0
-23 -29 -36 -44 -21 -8 8 -6 15 8 26 27 19 36 18 36 -5z m112 -6 c4 -20 3 -23
-8 -14 -16 13 -19 39 -5 39 5 0 11 -11 13 -25z m34 0 c1 -14 -2 -22 -7 -19
-11 6 -12 44 -1 44 4 0 8 -11 8 -25z m39 15 c3 -5 1 -10 -4 -10 -6 0 -11 5
-11 10 0 6 2 10 4 10 3 0 8 -4 11 -10z m827 -15 c4 -19 1 -25 -12 -25 -13 0
-16 6 -12 25 2 14 8 25 12 25 4 0 10 -11 12 -25z m78 21 c0 -3 -4 -8 -10 -11
-5 -3 -10 -1 -10 4 0 6 5 11 10 11 6 0 10 -2 10 -4z m70 -7 c0 -5 -7 -9 -15
-9 -8 0 -15 -5 -15 -11 0 -6 7 -8 18 -4 13 5 14 3 5 -6 -16 -16 -43 -4 -43 19
0 14 7 20 25 20 14 0 25 -4 25 -9z m485 -19 c1 -11 -4 -20 -10 -20 -8 0 -10
10 -7 25 5 29 15 25 17 -5z m35 20 c0 -5 -4 -10 -10 -10 -5 0 -10 5 -10 10 0
6 5 10 10 10 6 0 10 -4 10 -10z m60 -2 c0 -4 -7 -8 -15 -8 -8 0 -15 -5 -15
-11 0 -6 7 -8 16 -5 8 3 12 2 9 -4 -15 -24 -52 -3 -42 23 5 14 47 18 47 5z
m76 -1 c4 -4 -2 -7 -14 -7 -12 0 -22 -5 -22 -11 0 -6 7 -9 15 -5 8 3 15 1 15
-4 0 -17 -29 -11 -39 9 -6 10 -8 20 -6 23 7 7 43 3 51 -5z m484 -2 c0 -21 18
-19 23 3 4 13 5 13 6 -4 0 -12 -7 -28 -16 -35 -9 -8 -14 -9 -10 -3 4 7 0 14
-8 18 -17 6 -21 36 -5 36 6 0 10 -7 10 -15z m57 -22 c-3 -10 -5 -4 -5 12 0 17
2 24 5 18 2 -7 2 -21 0 -30z m43 11 c0 -8 -4 -14 -10 -14 -5 0 -10 9 -10 21 0
11 5 17 10 14 6 -3 10 -13 10 -21z m260 6 c0 -11 0 -23 1 -27 0 -4 -3 -9 -8
-10 -4 -2 -8 11 -8 27 0 17 3 30 8 30 4 0 7 -9 7 -20z m40 -6 c0 -8 -4 -14
-10 -14 -5 0 -10 9 -10 21 0 11 5 17 10 14 6 -3 10 -13 10 -21z m-3435 -3 c3
-5 2 -12 -3 -15 -5 -3 -9 1 -9 9 0 17 3 19 12 6z m950 -12 c-8 -12 -32 -12
-40 1 -3 6 1 7 9 4 9 -3 16 -1 16 6 0 6 5 8 10 5 6 -4 8 -11 5 -16z m841 -6
c-10 -10 -19 5 -10 18 6 11 8 11 12 0 2 -7 1 -15 -2 -18z m-1933 -70 c-7 -2
-21 -2 -30 0 -10 3 -4 5 12 5 17 0 24 -2 18 -5z m75 0 c-10 -2 -26 -2 -35 0
-10 3 -2 5 17 5 19 0 27 -2 18 -5z m70 0 c-10 -2 -26 -2 -35 0 -10 3 -2 5 17
5 19 0 27 -2 18 -5z m75 0 c-7 -2 -21 -2 -30 0 -10 3 -4 5 12 5 17 0 24 -2 18
-5z m70 0 c-7 -2 -21 -2 -30 0 -10 3 -4 5 12 5 17 0 24 -2 18 -5z m75 0 c-10
-2 -26 -2 -35 0 -10 3 -2 5 17 5 19 0 27 -2 18 -5z m70 0 c-10 -2 -26 -2 -35
0 -10 3 -2 5 17 5 19 0 27 -2 18 -5z m75 0 c-7 -2 -21 -2 -30 0 -10 3 -4 5 12
5 17 0 24 -2 18 -5z m220 0 c-7 -2 -21 -2 -30 0 -10 3 -4 5 12 5 17 0 24 -2
18 -5z m70 0 c-7 -2 -21 -2 -30 0 -10 3 -4 5 12 5 17 0 24 -2 18 -5z m70 0
c-7 -2 -21 -2 -30 0 -10 3 -4 5 12 5 17 0 24 -2 18 -5z m75 0 c-10 -2 -26 -2
-35 0 -10 3 -2 5 17 5 19 0 27 -2 18 -5z m75 0 c-7 -2 -21 -2 -30 0 -10 3 -4
5 12 5 17 0 24 -2 18 -5z m70 0 c-7 -2 -21 -2 -30 0 -10 3 -4 5 12 5 17 0 24
-2 18 -5z m75 0 c-10 -2 -26 -2 -35 0 -10 3 -2 5 17 5 19 0 27 -2 18 -5z m70
0 c-10 -2 -26 -2 -35 0 -10 3 -2 5 17 5 19 0 27 -2 18 -5z m75 0 c-7 -2 -21
-2 -30 0 -10 3 -4 5 12 5 17 0 24 -2 18 -5z m70 0 c-7 -2 -21 -2 -30 0 -10 3
-4 5 12 5 17 0 24 -2 18 -5z m75 0 c-10 -2 -26 -2 -35 0 -10 3 -2 5 17 5 19 0
27 -2 18 -5z m70 0 c-10 -2 -26 -2 -35 0 -10 3 -2 5 17 5 19 0 27 -2 18 -5z
m75 0 c-7 -2 -21 -2 -30 0 -10 3 -4 5 12 5 17 0 24 -2 18 -5z m220 0 c-7 -2
-21 -2 -30 0 -10 3 -4 5 12 5 17 0 24 -2 18 -5z m70 0 c-7 -2 -21 -2 -30 0
-10 3 -4 5 12 5 17 0 24 -2 18 -5z m70 0 c-7 -2 -21 -2 -30 0 -10 3 -4 5 12 5
17 0 24 -2 18 -5z m75 0 c-10 -2 -26 -2 -35 0 -10 3 -2 5 17 5 19 0 27 -2 18
-5z m75 0 c-7 -2 -21 -2 -30 0 -10 3 -4 5 12 5 17 0 24 -2 18 -5z m70 0 c-7
-2 -21 -2 -30 0 -10 3 -4 5 12 5 17 0 24 -2 18 -5z m70 0 c-7 -2 -21 -2 -30 0
-10 3 -4 5 12 5 17 0 24 -2 18 -5z m220 0 c-7 -2 -21 -2 -30 0 -10 3 -4 5 12
5 17 0 24 -2 18 -5z m75 0 c-10 -2 -26 -2 -35 0 -10 3 -2 5 17 5 19 0 27 -2
18 -5z m70 0 c-10 -2 -26 -2 -35 0 -10 3 -2 5 17 5 19 0 27 -2 18 -5z m75 0
c-7 -2 -21 -2 -30 0 -10 3 -4 5 12 5 17 0 24 -2 18 -5z m70 0 c-7 -2 -21 -2
-30 0 -10 3 -4 5 12 5 17 0 24 -2 18 -5z m75 0 c-10 -2 -26 -2 -35 0 -10 3 -2
5 17 5 19 0 27 -2 18 -5z m75 0 c-7 -2 -21 -2 -30 0 -10 3 -4 5 12 5 17 0 24
-2 18 -5z m215 0 c-10 -2 -26 -2 -35 0 -10 3 -2 5 17 5 19 0 27 -2 18 -5z m70
0 c-10 -2 -26 -2 -35 0 -10 3 -2 5 17 5 19 0 27 -2 18 -5z m75 0 c-7 -2 -21
-2 -30 0 -10 3 -4 5 12 5 17 0 24 -2 18 -5z m220 0 c-7 -2 -21 -2 -30 0 -10 3
-4 5 12 5 17 0 24 -2 18 -5z m70 0 c-7 -2 -21 -2 -30 0 -10 3 -4 5 12 5 17 0
24 -2 18 -5z m75 0 c-10 -2 -26 -2 -35 0 -10 3 -2 5 17 5 19 0 27 -2 18 -5z
m-3658 -108 c0 -19 -3 -35 -7 -35 -5 0 -8 16 -8 35 0 19 3 35 7 35 4 0 8 -16
8 -35z m34 19 c7 -18 -1 -54 -12 -54 -4 0 -7 16 -7 35 0 37 9 46 19 19z m186
-5 c0 -19 2 -20 17 -8 15 12 16 12 11 -2 -4 -9 -1 -22 5 -28 6 -6 7 -11 1 -11
-5 0 -15 5 -22 12 -9 9 -12 9 -12 0 0 -7 -4 -12 -10 -12 -5 0 -10 16 -10 35 0
19 5 35 10 35 6 0 10 -10 10 -21z m134 7 c-3 -8 -1 -17 5 -20 12 -7 4 -36 -10
-36 -5 0 -9 16 -9 35 0 19 4 35 10 35 5 0 7 -6 4 -14z m46 -21 c0 -19 -5 -35
-11 -35 -6 0 -9 7 -6 15 4 8 2 17 -3 20 -11 7 -2 35 11 35 5 0 9 -16 9 -35z
m325 1 c0 -26 -3 -32 -12 -24 -16 13 -16 31 -1 46 7 7 12 12 13 12 0 0 0 -15
0 -34z m35 -1 c0 -13 -3 -26 -7 -28 -5 -3 -8 10 -8 28 0 18 3 31 8 28 4 -2 7
-15 7 -28z m130 0 c0 -19 -3 -35 -7 -35 -5 0 -8 16 -8 35 0 19 3 35 8 35 4 0
7 -16 7 -35z m1102 11 c6 -28 -10 -60 -19 -38 -2 6 -11 12 -19 12 -18 0 -18 9
3 32 22 24 30 23 35 -6z m40 -33 c-2 -7 -8 -13 -13 -13 -11 0 -12 54 -2 64 9
9 22 -34 15 -51z m38 22 c0 -19 -4 -35 -9 -35 -5 0 -7 9 -4 20 3 11 0 20 -6
20 -5 0 -8 7 -5 15 11 27 24 16 24 -20z m105 1 c0 -19 -3 -32 -7 -29 -14 8 -8
63 6 63 1 0 1 -15 1 -34z m40 24 c3 -5 1 -10 -4 -10 -6 0 -11 5 -11 10 0 6 2
10 4 10 3 0 8 -4 11 -10z m39 -5 c-4 -8 -1 -15 5 -15 6 0 11 7 11 15 0 8 4 15
9 15 5 0 9 -16 9 -35 0 -19 -4 -35 -9 -35 -5 0 -9 7 -9 15 0 21 -18 19 -22 -2
-3 -10 -6 -1 -9 20 -4 26 -1 37 8 37 7 0 10 -7 7 -15z m498 -7 c-3 -14 -2 -19
6 -14 14 8 15 4 6 -18 -11 -28 -24 -17 -24 19 0 19 4 35 9 35 5 0 7 -10 3 -22z
m48 -13 c0 -13 -4 -26 -9 -29 -10 -6 -20 33 -13 52 6 19 22 3 22 -23z m110 20
c0 -21 18 -19 23 3 2 9 4 -1 4 -23 0 -22 -2 -32 -4 -22 -5 21 -23 23 -23 2 0
-8 -4 -15 -10 -15 -5 0 -10 16 -10 35 0 19 5 35 10 35 6 0 10 -7 10 -15z
m-2820 -30 c0 -14 -4 -25 -10 -25 -5 0 -7 7 -3 16 3 9 0 20 -8 25 -11 7 -11 9
4 9 12 0 17 -8 17 -25z m75 15 c3 -6 -1 -7 -9 -4 -9 3 -16 1 -16 -6 0 -6 -5
-8 -10 -5 -6 4 -8 11 -5 16 8 12 32 12 40 -1z m663 -17 c2 -13 -1 -23 -7 -23
-6 0 -11 9 -11 20 0 27 -18 25 -23 -2 -4 -19 -4 -18 -6 5 -1 24 2 28 22 25 14
-2 23 -11 25 -25z m134 2 c3 -14 1 -25 -3 -25 -5 0 -9 9 -9 19 0 11 -6 22 -12
24 -8 4 -7 6 3 6 10 1 19 -9 21 -24z m79 -2 c5 -14 5 -23 -1 -23 -6 0 -10 9
-10 20 0 11 -4 20 -10 20 -5 0 -10 -9 -10 -20 0 -11 -4 -20 -10 -20 -11 0 -14
33 -3 44 13 12 36 1 44 -21z m77 10 c2 -8 -5 -13 -16 -13 -11 0 -23 -6 -25
-12 -3 -7 -6 -4 -6 8 -1 11 2 24 6 28 10 10 36 3 41 -11z m1102 -18 c0 -8 -4
-15 -10 -15 -5 0 -10 7 -10 15 0 8 5 15 10 15 6 0 10 -7 10 -15z m-2050 -5 c0
-5 -2 -10 -4 -10 -3 0 -8 5 -11 10 -3 6 -1 10 4 10 6 0 11 -4 11 -10z m50 -72
c0 -18 2 -19 17 -7 12 10 15 11 9 1 -4 -7 -2 -19 4 -27 15 -18 -1 -20 -18 -3
-9 9 -12 9 -12 0 0 -7 -4 -12 -10 -12 -5 0 -10 18 -10 41 0 24 4 38 10 34 6
-3 10 -15 10 -27z m1962 20 c-15 -15 -16 -54 -2 -61 6 -3 5 -4 -2 -3 -26 5
-16 76 10 76 3 0 1 -5 -6 -12z m79 -28 c5 0 9 7 9 15 0 8 4 15 9 15 12 0 11
-59 -1 -66 -4 -3 -8 2 -8 10 0 9 -5 16 -11 16 -6 0 -9 -7 -5 -15 3 -8 0 -15
-7 -15 -9 0 -11 13 -8 43 3 26 6 33 9 20 2 -13 8 -23 13 -23z m-2261 0 c0 -16
5 -30 11 -30 7 0 10 12 7 30 -5 32 14 38 20 6 5 -22 -15 -46 -37 -46 -13 0
-17 8 -17 35 1 43 16 47 16 5z m372 -5 c2 -22 0 -35 -8 -35 -7 0 -9 10 -6 25
3 17 0 25 -9 25 -11 0 -11 2 1 10 8 5 16 10 16 10 1 0 4 -16 6 -35z m350 5
c-3 -23 -1 -30 13 -30 14 0 16 7 13 30 -3 19 -1 27 5 21 16 -16 4 -56 -17 -56
-23 0 -41 27 -33 49 11 27 24 18 19 -14z m168 -5 c0 -19 -3 -35 -7 -35 -5 0
-8 16 -8 35 0 19 3 35 8 35 4 0 7 -16 7 -35z m1102 11 c6 -28 -10 -60 -19 -38
-2 6 -11 12 -19 12 -18 0 -18 9 3 32 22 24 30 23 35 -6z m40 1 c6 -28 -1 -49
-13 -41 -12 7 -12 64 0 64 5 0 11 -10 13 -23z m38 -12 c0 -19 -4 -35 -9 -35
-5 0 -7 9 -4 20 3 11 0 20 -6 20 -5 0 -8 7 -5 15 11 27 24 16 24 -20z m150 25
c0 -5 -4 -10 -10 -10 -5 0 -10 5 -10 10 0 6 5 10 10 10 6 0 10 -4 10 -10z
m541 -25 c11 7 11 3 3 -19 -11 -29 -24 -17 -23 22 1 23 3 29 6 14 2 -12 9 -20
14 -17z m39 6 c0 -39 -16 -48 -23 -13 -6 29 -1 42 14 42 5 0 9 -13 9 -29z
m110 14 c0 -21 18 -19 23 3 3 9 5 0 6 -20 0 -21 -3 -38 -9 -38 -5 0 -7 7 -4
15 4 8 1 15 -5 15 -6 0 -11 -7 -11 -15 0 -8 -4 -15 -10 -15 -5 0 -10 16 -10
35 0 19 5 35 10 35 6 0 10 -7 10 -15z m-2818 -30 c4 -17 1 -25 -8 -25 -8 0
-11 6 -7 16 3 9 0 20 -8 25 -11 7 -11 9 2 9 10 0 19 -10 21 -25z m73 15 c3 -6
-1 -7 -9 -4 -9 3 -16 1 -16 -6 0 -6 -5 -8 -10 -5 -6 4 -8 11 -5 16 8 12 32 12
40 -1z m663 -17 c2 -13 -1 -23 -7 -23 -6 0 -11 9 -11 20 0 27 -18 25 -23 -2
-4 -19 -4 -18 -6 5 -1 24 2 28 22 25 14 -2 23 -11 25 -25z m134 2 c4 -17 1
-25 -8 -25 -8 0 -11 6 -7 16 3 9 0 20 -8 25 -11 7 -11 9 2 9 10 0 19 -10 21
-25z m75 13 c11 -19 12 -38 2 -38 -5 0 -9 9 -9 20 0 11 -4 20 -10 20 -5 0 -10
-9 -10 -20 0 -11 -4 -20 -10 -20 -5 0 -10 11 -10 25 0 18 5 25 19 25 11 0 23
-6 28 -12z m81 -5 c2 -8 -5 -13 -18 -13 -12 0 -18 -4 -15 -10 3 -5 1 -10 -4
-10 -12 0 -15 33 -4 44 10 10 36 3 41 -11z m1102 -18 c0 -8 -4 -15 -9 -15 -5
0 -11 7 -15 15 -3 9 0 15 9 15 8 0 15 -7 15 -15z m-2050 -5 c0 -5 -4 -10 -10
-10 -5 0 -10 5 -10 10 0 6 5 10 10 10 6 0 10 -4 10 -10z m-136 -62 c14 -22 -2
-52 -30 -56 -16 -2 -19 4 -21 38 -2 37 0 41 19 38 11 -2 26 -11 32 -20z m186
-4 c0 -24 2 -25 17 -13 12 10 15 11 9 1 -4 -7 -2 -19 4 -27 8 -9 8 -15 2 -15
-6 0 -13 6 -16 13 -5 10 -7 10 -12 0 -12 -26 -24 -12 -24 27 0 22 5 40 10 40
6 0 10 -12 10 -26z m167 6 c3 -17 -34 -66 -43 -57 -3 3 4 15 15 26 21 21 28
41 13 41 -4 0 -13 -5 -20 -12 -7 -7 -12 -8 -12 -2 0 28 43 31 47 4z m361 8
c17 -17 15 -58 -3 -64 -19 -8 -45 13 -45 35 0 17 18 41 30 41 3 0 11 -5 18
-12z m78 0 c5 -8 2 -9 -9 -5 -11 4 -17 1 -17 -8 0 -8 6 -15 13 -16 10 0 10 -2
0 -6 -7 -2 -13 -11 -13 -19 0 -8 -4 -14 -10 -14 -14 0 -12 54 2 68 15 15 25
15 34 0z m69 2 c3 -6 -1 -7 -9 -4 -11 4 -16 0 -16 -10 0 -9 6 -16 13 -16 9 0
8 -3 -2 -9 -7 -5 -10 -14 -7 -20 4 -6 1 -11 -7 -11 -10 0 -13 9 -11 31 6 46
23 64 39 39z m67 -30 c2 -23 -1 -40 -7 -40 -5 0 -10 18 -10 40 0 22 3 40 6 40
4 0 9 -18 11 -40z m964 15 c3 -14 3 -33 -2 -42 -7 -16 -8 -15 -12 5 -3 19 -6
21 -18 11 -7 -6 -11 -15 -8 -20 3 -5 0 -9 -5 -9 -12 0 -15 62 -4 73 15 16 43
6 49 -18z m61 5 c3 -18 -35 -66 -44 -56 -3 3 1 14 10 24 19 21 22 42 7 42 -5
0 -10 -5 -10 -12 0 -6 -3 -9 -6 -5 -3 3 -3 11 1 17 9 15 39 8 42 -10z m76 -22
c3 -27 1 -38 -8 -38 -9 0 -12 9 -9 25 2 14 0 25 -6 25 -5 0 -10 -4 -10 -10 0
-5 -5 -10 -12 -10 -6 0 -1 11 12 25 13 14 24 24 26 22 1 -1 4 -19 7 -39z m132
32 c3 6 11 8 16 5 12 -8 12 -75 -1 -75 -5 0 -10 9 -10 20 0 27 -28 25 -33 -2
-2 -13 -5 -3 -6 21 -1 36 1 42 13 32 10 -8 16 -9 21 -1z m92 -27 c1 -18 -3
-35 -8 -39 -5 -3 -9 2 -9 10 0 9 -5 16 -11 16 -6 0 -9 -7 -5 -15 3 -8 0 -15
-7 -15 -7 0 -12 15 -12 40 0 38 2 41 25 38 21 -2 25 -9 27 -35z m280 21 c7
-19 -13 -64 -29 -64 -9 0 -9 3 0 12 9 9 7 14 -5 23 -19 14 -11 45 12 45 9 0
18 -7 22 -16z m52 0 c-11 -13 -10 -17 4 -25 18 -11 24 -39 7 -39 -5 0 -7 7 -4
15 4 8 1 15 -5 15 -6 0 -11 -7 -11 -16 0 -8 -4 -12 -10 -9 -14 9 -13 48 2 63
18 18 33 15 17 -4z m98 -1 c12 -26 10 -56 -4 -60 -7 -3 -9 4 -6 18 4 15 3 20
-5 15 -16 -9 -15 7 0 22 9 9 8 12 -6 12 -14 0 -17 -6 -13 -35 3 -24 1 -35 -7
-32 -9 3 -12 28 -7 67 2 17 40 11 48 -7z m113 -5 l1 -23 19 24 c22 25 26 21
10 -9 -7 -13 -7 -21 0 -25 5 -3 10 -12 10 -18 0 -7 -7 -4 -14 6 -7 9 -16 17
-19 17 -3 0 -7 -8 -9 -17 -3 -10 -6 1 -9 25 -2 23 -1 42 3 42 5 0 8 -10 8 -22z
m107 -20 c1 -21 -2 -38 -7 -38 -5 0 -7 7 -4 15 4 8 1 15 -5 15 -6 0 -11 -7
-11 -15 0 -8 -4 -15 -10 -15 -5 0 -10 18 -10 41 0 36 2 40 23 37 18 -2 22 -10
24 -40z m-1107 -3 c0 -19 -4 -35 -9 -35 -10 0 -21 57 -13 65 14 13 22 2 22
-30z m-1738 -10 c4 -17 1 -25 -8 -25 -8 0 -11 6 -7 16 3 9 0 20 -8 25 -11 7
-11 9 2 9 10 0 19 -10 21 -25z m78 18 c0 -5 -11 -9 -25 -9 -14 -1 -22 2 -19 7
6 11 44 12 44 2z m868 -21 c2 -13 -2 -22 -10 -22 -7 0 -13 11 -13 25 0 30 19
27 23 -3z m80 1 c2 -13 -1 -23 -7 -23 -6 0 -11 9 -11 20 0 27 -18 25 -23 -2
-4 -19 -4 -18 -6 5 -1 24 2 28 22 25 14 -2 23 -11 25 -25z m68 15 c5 -8 2 -9
-9 -5 -15 6 -22 -3 -18 -25 0 -5 -3 -8 -9 -8 -11 0 -14 33 -3 43 10 11 31 8
39 -5z m-1016 -28 c0 -5 -4 -10 -10 -10 -5 0 -10 5 -10 10 0 6 5 10 10 10 6 0
10 -4 10 -10z m-230 -190 c0 -22 -4 -40 -10 -40 -5 0 -10 18 -10 40 0 22 5 40
10 40 6 0 10 -18 10 -40z m88 20 c5 -13 3 -13 -12 -1 -26 22 -32 4 -7 -23 14
-15 19 -26 12 -31 -6 -3 -11 1 -11 10 0 8 -7 18 -15 21 -8 4 -15 15 -15 26 0
14 6 19 22 16 12 -2 24 -10 26 -18z m42 5 c0 -19 10 -19 24 0 9 13 11 8 11
-25 0 -33 -2 -38 -11 -25 -14 19 -24 19 -24 0 0 -8 -3 -15 -7 -15 -5 0 -8 18
-8 40 0 22 3 40 8 40 4 0 7 -7 7 -15z m108 -7 c2 -10 -1 -18 -7 -18 -6 0 -8 7
-5 15 4 8 1 15 -5 15 -6 0 -11 -16 -11 -35 0 -19 -4 -35 -10 -35 -5 0 -10 18
-10 41 0 36 2 40 22 37 13 -2 24 -11 26 -20z m60 10 c14 -14 16 -68 2 -68 -5
0 -10 14 -10 30 0 17 -4 30 -10 30 -5 0 -10 -13 -10 -30 0 -16 -4 -30 -10 -30
-13 0 -13 36 0 61 12 22 21 24 38 7z m88 -30 c0 -21 -3 -38 -8 -38 -8 0 -12
21 -9 53 1 9 -3 17 -8 17 -6 0 -11 -16 -11 -35 0 -19 -3 -35 -7 -35 -5 0 -8
18 -8 40 0 38 2 41 25 38 21 -3 24 -9 26 -40z m55 33 c-9 -6 -12 -20 -9 -40 3
-19 0 -31 -7 -31 -7 0 -10 12 -7 31 3 20 0 34 -9 40 -10 6 -5 9 16 9 21 0 26
-3 16 -9z m74 -11 c17 -19 17 -21 0 -40 -21 -23 -34 -18 -15 5 11 13 10 19 -5
35 -10 11 -14 20 -8 20 5 0 18 -9 28 -20z m153 0 c5 -13 3 -13 -12 -1 -25 21
-33 4 -8 -20 13 -11 19 -25 15 -32 -5 -8 -8 -7 -11 3 -2 8 -11 20 -19 27 -9 7
-13 19 -9 28 7 20 37 16 44 -5z m65 13 c-17 -3 -21 -10 -19 -39 2 -20 -1 -34
-8 -34 -6 0 -11 17 -11 40 0 38 1 40 30 39 22 -1 24 -3 8 -6z m57 -28 c0 -34
13 -47 23 -22 3 7 6 5 6 -5 1 -13 -7 -18 -24 -18 -22 0 -25 4 -25 40 0 22 5
40 10 40 6 0 10 -16 10 -35z m92 28 c-21 -4 -23 -9 -20 -39 3 -23 0 -34 -9
-34 -8 0 -13 14 -13 40 0 39 1 40 33 39 25 -1 27 -3 9 -6z m86 -13 c4 -13 3
-13 -11 -2 -31 26 -52 -17 -24 -48 10 -12 9 -12 -5 -1 -10 7 -18 21 -18 30 0
37 47 54 58 21z m53 11 c-9 -6 -12 -20 -9 -40 3 -19 0 -31 -7 -31 -7 0 -10 12
-7 31 3 20 0 34 -9 40 -10 6 -5 9 16 9 21 0 26 -3 16 -9z m163 -13 c14 -22 -2
-52 -30 -56 -16 -2 -19 4 -20 38 0 35 3 40 19 38 11 -2 25 -11 31 -20z m51
-18 c0 -22 -4 -40 -10 -40 -5 0 -10 18 -10 40 0 22 5 40 10 40 6 0 10 -18 10
-40z m81 22 c1 -7 0 -8 -3 -2 -7 15 -23 12 -23 -4 0 -8 7 -16 15 -20 17 -6 21
-36 4 -36 -5 0 -7 5 -4 10 4 6 -4 19 -16 29 -13 10 -19 23 -15 30 10 15 38 10
42 -7z m54 -22 c0 -22 -4 -40 -10 -40 -5 0 -10 18 -10 40 0 22 5 40 10 40 6 0
10 -18 10 -40z m27 -1 c0 -32 -2 -38 -9 -25 -9 15 -4 66 6 66 2 0 3 -19 3 -41z
m148 2 c0 -22 -5 -36 -15 -39 -12 -4 -13 -2 -2 9 14 15 16 29 3 29 -5 0 -13
-9 -16 -20 -9 -28 -25 -15 -25 19 0 34 8 43 35 39 16 -2 20 -10 20 -37z
m-1490 -31 c3 -5 1 -10 -4 -10 -6 0 -11 5 -11 10 0 6 2 10 4 10 3 0 8 -4 11
-10z m915 6 c0 -3 -4 -8 -10 -11 -5 -3 -10 -1 -10 4 0 6 5 11 10 11 6 0 10 -2
10 -4z m320 -6 c0 -5 -2 -10 -4 -10 -3 0 -8 5 -11 10 -3 6 -1 10 4 10 6 0 11
-4 11 -10z m-1160 -171 c0 -15 5 -19 16 -15 8 3 12 2 9 -3 -3 -5 -1 -12 5 -16
5 -3 10 -11 10 -17 0 -6 -9 -3 -20 7 -18 16 -20 16 -20 2 0 -10 -3 -17 -7 -17
-5 0 -8 18 -8 40 0 22 3 40 8 40 4 0 7 -9 7 -21z m142 -1 c-3 -14 -2 -19 6
-14 16 9 15 -7 0 -22 -9 -9 -8 -12 6 -12 14 0 17 6 13 35 -3 24 -1 35 7 32 17
-6 13 -58 -6 -70 -12 -8 -21 -7 -32 2 -24 20 -20 71 5 71 4 0 5 -10 1 -22z
m734 -12 c-2 -50 -13 -54 -18 -7 -2 27 0 41 8 41 8 0 12 -13 10 -34z m386 -6
c3 -31 0 -40 -12 -40 -11 0 -15 11 -15 40 0 23 5 40 11 40 7 0 14 -18 16 -40z
m370 0 c2 -22 0 -40 -4 -40 -5 0 -8 1 -8 3 -10 61 -10 77 -2 77 6 0 12 -18 14
-40z m140 0 c2 -22 0 -36 -3 -32 -11 11 -18 72 -9 72 4 0 10 -18 12 -40z m190
16 c-2 -13 2 -16 15 -12 14 5 18 0 20 -21 1 -23 0 -24 -9 -9 -9 17 -10 17 -23
0 -11 -16 -13 -13 -17 24 -2 26 0 41 7 39 5 -2 9 -12 7 -21z m-1160 -22 c-4
-24 -2 -26 14 -20 14 5 16 4 7 -5 -6 -6 -16 -9 -21 -5 -11 6 -22 53 -14 60 11
12 19 -5 14 -30z m671 -18 c9 5 9 4 0 -6 -15 -17 -33 -4 -33 24 0 36 15 41 18
7 2 -21 7 -29 15 -25z m-1591 9 c4 -19 1 -25 -12 -25 -13 0 -16 6 -12 25 2 14
8 25 12 25 4 0 10 -11 12 -25z m43 15 c3 -5 1 -10 -4 -10 -6 0 -11 5 -11 10 0
6 2 10 4 10 3 0 8 -4 11 -10z m387 -15 c4 -20 1 -25 -16 -24 -11 0 -15 3 -8 6
6 2 12 13 12 24 0 27 7 24 12 -6z m190 0 c-2 -14 -6 -25 -8 -25 -2 0 -4 11 -4
25 0 14 4 25 9 25 4 0 6 -11 3 -25z m38 -1 c0 -14 -4 -23 -10 -19 -5 3 -10 15
-10 26 0 10 5 19 10 19 6 0 10 -12 10 -26z m40 6 c0 -11 5 -20 11 -20 6 0 9 9
6 20 -3 11 -1 20 5 20 5 0 8 -10 6 -22 -2 -15 -10 -23 -23 -23 -13 0 -21 8
-23 23 -2 12 1 22 7 22 6 0 11 -9 11 -20z m73 -2 c4 -12 4 -24 1 -27 -6 -7
-24 20 -24 37 0 21 17 13 23 -10z m26 -22 c-9 -8 -10 -7 -5 7 3 10 7 24 7 30
1 7 3 4 6 -7 3 -10 -1 -23 -8 -30z m231 19 c0 -14 -2 -25 -4 -25 -2 0 -6 11
-8 25 -3 14 -1 25 3 25 5 0 9 -11 9 -25z m60 13 c0 -4 -7 -8 -15 -8 -8 0 -15
-5 -15 -11 0 -6 7 -8 16 -5 8 3 12 2 9 -4 -15 -24 -52 -3 -42 23 5 14 47 18
47 5z m120 2 c0 -5 -2 -10 -4 -10 -3 0 -8 5 -11 10 -3 6 -1 10 4 10 6 0 11 -4
11 -10z m86 -26 c9 3 12 1 9 -4 -8 -13 -32 -13 -40 0 -4 6 -3 19 1 28 6 14 8
13 12 -6 2 -16 8 -22 18 -18z m14 26 c0 -5 -5 -10 -11 -10 -5 0 -7 5 -4 10 3
6 8 10 11 10 2 0 4 -4 4 -10z m113 -16 c-5 -13 -1 -15 18 -9 19 6 22 5 12 -5
-16 -18 -43 -5 -43 20 0 12 4 19 10 15 5 -3 6 -13 3 -21z m37 16 c0 -5 -4 -10
-10 -10 -5 0 -10 5 -10 10 0 6 5 10 10 10 6 0 10 -4 10 -10z m35 -14 c0 -13
-3 -22 -7 -19 -5 2 -8 13 -8 24 0 10 3 19 8 19 4 0 7 -11 7 -24z m148 -3 c-5
-12 -2 -15 10 -10 9 3 17 2 17 -3 0 -15 -26 -12 -40 5 -6 8 -9 19 -5 25 10 16
25 2 18 -17z m32 17 c3 -5 1 -10 -4 -10 -6 0 -11 5 -11 10 0 6 2 10 4 10 3 0
8 -4 11 -10z m38 -6 c-3 -9 0 -20 8 -26 12 -8 11 -9 -1 -5 -17 4 -27 47 -11
47 6 0 8 -7 4 -16z m150 -33 c-9 -12 -25 20 -18 36 7 16 9 15 15 -7 4 -14 5
-27 3 -29z m99 24 c4 -19 1 -25 -12 -25 -13 0 -16 6 -12 25 2 14 8 25 12 25 4
0 10 -11 12 -25z m48 15 c0 -5 -2 -10 -4 -10 -3 0 -8 5 -11 10 -3 6 -1 10 4
10 6 0 11 -4 11 -10z m-1935 -31 c-8 -12 -32 -12 -40 1 -3 6 1 7 9 4 9 -3 16
-1 16 6 0 6 5 8 10 5 6 -4 8 -11 5 -16z m430 0 c-8 -12 -35 -12 -35 1 0 5 7 6
17 3 12 -5 14 -3 8 7 -5 9 -4 11 4 6 6 -4 9 -12 6 -17z m730 12 c3 -5 1 -12
-5 -16 -5 -3 -10 1 -10 9 0 18 6 21 15 7z m800 -12 c-8 -12 -32 -12 -40 1 -3
6 1 7 9 4 9 -3 16 -1 16 6 0 6 5 8 10 5 6 -4 8 -11 5 -16z m135 1 c0 -5 -4
-10 -10 -10 -5 0 -10 5 -10 10 0 6 5 10 10 10 6 0 10 -4 10 -10z m-2180 -190
c0 -22 -4 -40 -10 -40 -5 0 -10 18 -10 40 0 22 5 40 10 40 6 0 10 -18 10 -40z
m74 -1 c16 -14 18 -20 9 -30 -14 -14 -43 -5 -43 13 0 9 3 9 10 -2 5 -8 13 -11
17 -6 4 4 0 13 -10 20 -9 7 -17 22 -16 32 0 14 2 15 6 4 4 -8 16 -22 27 -31z
m11 31 c3 -5 1 -10 -4 -10 -6 0 -11 5 -11 10 0 6 2 10 4 10 3 0 8 -4 11 -10z
m60 -7 c4 9 11 17 16 17 6 0 6 -7 0 -18 -6 -11 -6 -24 0 -33 17 -27 9 -34 -11
-9 l-20 25 0 -22 c0 -13 -3 -23 -8 -23 -4 0 -6 19 -3 43 3 32 6 37 11 22 7
-18 8 -19 15 -2z m65 2 c0 -8 5 -15 11 -15 6 0 9 7 5 15 -3 8 -1 15 4 15 16 0
11 -30 -5 -36 -8 -4 -15 -15 -15 -25 0 -10 -4 -19 -10 -19 -5 0 -10 18 -10 40
0 22 5 40 10 40 6 0 10 -7 10 -15z m88 3 c15 -15 16 -58 2 -58 -5 0 -10 5 -10
10 0 6 -4 10 -10 10 -5 0 -10 -7 -10 -16 0 -8 -4 -12 -10 -9 -21 13 -5 75 20
75 3 0 11 -5 18 -12z m52 -3 c0 -8 5 -15 10 -15 6 0 10 7 10 17 0 28 15 3 16
-28 2 -33 -3 -36 -22 -11 -12 16 -13 15 -14 -5 0 -13 -4 -23 -8 -23 -4 0 -8
18 -7 40 0 22 3 40 8 40 4 0 7 -7 7 -15z m91 6 c-9 -6 -12 -20 -9 -40 3 -19 0
-31 -6 -31 -7 0 -10 15 -8 40 3 29 9 40 21 40 13 0 13 -2 2 -9z m73 -9 c15
-18 15 -20 -6 -38 -23 -19 -23 -19 -6 2 17 19 17 21 1 37 -10 9 -15 17 -12 17
3 0 13 -8 23 -18z"/>
<path d="M1140 1725 c0 -8 5 -15 10 -15 6 0 10 7 10 15 0 8 -4 15 -10 15 -5 0
-10 -7 -10 -15z"/>
<path d="M1210 1725 c0 -8 5 -15 10 -15 6 0 10 7 10 15 0 8 -4 15 -10 15 -5 0
-10 -7 -10 -15z"/>
<path d="M1280 1725 c0 -8 5 -15 10 -15 6 0 10 7 10 15 0 8 -4 15 -10 15 -5 0
-10 -7 -10 -15z"/>
<path d="M1500 1718 c0 -12 1 -19 3 -17 1 2 9 12 16 22 12 14 11 17 -3 17 -10
0 -16 -8 -16 -22z"/>
<path d="M1000 1615 c0 -8 5 -15 10 -15 6 0 10 7 10 15 0 8 -4 15 -10 15 -5 0
-10 -7 -10 -15z"/>
<path d="M1652 1621 c2 -7 7 -12 11 -12 12 1 9 15 -3 20 -7 2 -11 -2 -8 -8z"/>
<path d="M1870 1615 c0 -8 5 -15 10 -15 6 0 10 7 10 15 0 8 -4 15 -10 15 -5 0
-10 -7 -10 -15z"/>
<path d="M680 1506 c0 -50 2 -57 15 -46 12 10 17 7 26 -14 12 -25 36 -38 26
-13 -3 6 -8 19 -12 29 -4 11 -1 17 10 20 12 2 6 12 -24 43 l-41 39 0 -58z"/>
<path d="M1143 1386 c1 -15 7 -26 13 -26 14 0 11 43 -4 48 -9 3 -12 -4 -9 -22z"/>
<path d="M200 1159 c0 -17 4 -28 10 -24 6 3 10 17 10 31 0 13 -4 24 -10 24 -5
0 -10 -14 -10 -31z"/>
<path d="M560 1160 c0 -5 5 -10 10 -10 6 0 10 5 10 10 0 6 -4 10 -10 10 -5 0
-10 -4 -10 -10z"/>
<path d="M3322 1166 c2 -15 8 -26 13 -26 15 0 12 43 -3 48 -10 3 -13 -4 -10
-22z"/>
<path d="M1065 1140 c3 -5 8 -10 11 -10 2 0 4 5 4 10 0 6 -5 10 -11 10 -5 0
-7 -4 -4 -10z"/>
<path d="M2155 950 c-3 -5 -1 -10 4 -10 6 0 11 5 11 10 0 6 -2 10 -4 10 -3 0
-8 -4 -11 -10z"/>
<path d="M200 731 c0 -17 5 -31 10 -31 6 0 10 11 10 24 0 14 -4 28 -10 31 -6
4 -10 -7 -10 -24z"/>
<path d="M927 754 c-4 -4 -7 -18 -7 -31 0 -28 23 -27 28 1 4 20 -11 40 -21 30z"/>
<path d="M2080 738 c0 -12 1 -19 3 -17 1 2 9 12 16 22 12 14 11 17 -3 17 -10
0 -16 -8 -16 -22z"/>
<path d="M2450 745 c0 -8 5 -15 10 -15 6 0 10 7 10 15 0 8 -4 15 -10 15 -5 0
-10 -7 -10 -15z"/>
<path d="M2732 748 c6 -18 28 -21 28 -4 0 9 -7 16 -16 16 -9 0 -14 -5 -12 -12z"/>
<path d="M3110 745 c0 -8 5 -15 10 -15 6 0 10 7 10 15 0 8 -4 15 -10 15 -5 0
-10 -7 -10 -15z"/>
<path d="M1290 511 c0 -17 5 -31 10 -31 6 0 10 11 10 24 0 14 -4 28 -10 31 -6
4 -10 -7 -10 -24z"/>
<path d="M1640 524 c0 -17 22 -14 28 4 2 7 -3 12 -12 12 -9 0 -16 -7 -16 -16z"/>
<path d="M410 85 c0 -8 5 -15 10 -15 6 0 10 7 10 15 0 8 -4 15 -10 15 -5 0
-10 -7 -10 -15z"/>
<path d="M4470 2241 c0 -6 5 -13 10 -16 6 -3 10 1 10 9 0 9 -4 16 -10 16 -5 0
-10 -4 -10 -9z"/>
<path d="M50 1600 c0 -21 4 -30 13 -27 6 2 12 14 12 27 0 13 -6 25 -12 28 -9
2 -13 -7 -13 -28z"/>
<path d="M32 1380 c0 -19 2 -27 5 -17 2 9 2 25 0 35 -3 9 -5 1 -5 -18z"/>
<path d="M60 1380 c0 -18 4 -29 10 -25 6 3 10 15 10 25 0 10 -4 22 -10 25 -6
4 -10 -7 -10 -25z"/>
<path d="M32 510 c0 -19 2 -27 5 -17 2 9 2 25 0 35 -3 9 -5 1 -5 -18z"/>
<path d="M60 510 c0 -18 4 -29 10 -25 6 3 10 15 10 25 0 10 -4 22 -10 25 -6 4
-10 -7 -10 -25z"/>
<path d="M32 290 c0 -19 2 -27 5 -17 2 9 2 25 0 35 -3 9 -5 1 -5 -18z"/>
<path d="M60 290 c0 -18 4 -29 10 -25 6 3 10 15 10 25 0 10 -4 22 -10 25 -6 4
-10 -7 -10 -25z"/>
</g>
</svg>
