<?xml version="1.0" standalone="no"?>
<!DOCTYPE svg PUBLIC "-//W3C//DTD SVG 20010904//EN"
 "http://www.w3.org/TR/2001/REC-SVG-20010904/DTD/svg10.dtd">
<svg version="1.0" xmlns="http://www.w3.org/2000/svg"
 width="396.000000pt" height="74.000000pt" viewBox="0 0 396.000000 74.000000"
 preserveAspectRatio="xMidYMid meet">
<metadata>
Created by potrace 1.13, written by Peter Selinger 2001-2015
</metadata>
<g transform="translate(0.000000,74.000000) scale(0.100000,-0.100000)"
fill="#000000" stroke="none">
<path d="M0 670 c0 -57 1 -60 24 -60 32 0 50 -24 42 -55 -9 -35 -24 -32 -18 4
2 16 -1 32 -7 35 -22 14 -12 -66 11 -91 19 -21 20 -23 4 -23 -14 0 -17 -5 -12
-25 7 -29 -20 -48 -35 -24 -6 10 -9 7 -9 -13 0 -21 5 -27 26 -30 57 -7 57 -69
0 -76 l-26 -3 1 -100 c2 -96 14 -133 22 -67 l4 33 1 -32 c1 -18 7 -33 13 -33
7 0 10 12 7 30 -3 19 -1 29 6 27 6 -2 11 -17 11 -33 0 -24 -5 -30 -30 -34 -17
-3 -30 -10 -30 -15 0 -6 132 -11 363 -13 318 -2 362 0 362 13 0 21 66 21 74 0
5 -13 189 -15 1571 -15 l1565 0 0 330 0 330 -1970 0 -1970 0 0 -60z m115 -100
c0 -22 -3 -40 -6 -40 -4 0 -9 18 -11 40 -2 23 1 40 7 40 5 0 10 -18 10 -40z
m81 22 c1 -7 0 -8 -3 -2 -7 14 -23 13 -23 -3 0 -7 9 -18 20 -25 12 -7 18 -17
15 -22 -3 -6 -17 2 -30 18 -17 20 -20 30 -13 40 13 15 31 11 34 -6z m54 -4 l1
-23 13 24 c7 13 16 20 19 14 3 -5 2 -15 -3 -23 -5 -8 -5 -22 1 -32 12 -23 0
-23 -17 0 -13 16 -13 16 -14 0 0 -38 -20 -16 -20 22 0 22 5 40 10 40 6 0 10
-10 10 -22z m99 13 c18 -11 7 -41 -15 -41 -10 0 -14 -5 -10 -15 3 -8 0 -15 -7
-15 -7 0 -12 15 -12 40 0 41 13 50 44 31z m71 -45 c0 -21 -3 -27 -9 -17 -5 7
-6 22 -4 32 3 10 0 19 -6 19 -6 0 -11 -13 -11 -30 0 -16 -4 -30 -10 -30 -14 0
-13 53 2 68 18 18 38 -5 38 -42z m78 9 c3 -38 2 -39 -12 -20 -14 18 -15 18
-16 3 0 -38 -20 -16 -20 23 0 36 2 40 23 37 18 -2 23 -10 25 -43z m68 33 c4
-7 3 -8 -4 -4 -8 5 -12 -4 -12 -28 0 -49 -17 -46 -22 4 -3 33 0 40 14 40 9 0
20 -5 24 -12z m67 -50 c-9 -10 -21 -18 -26 -18 -6 0 -2 9 8 20 17 19 17 21 -1
43 -17 20 -16 20 9 -2 25 -23 26 -26 10 -43z m117 21 c0 -24 -4 -38 -10 -34
-17 10 -11 75 7 75 2 0 3 -18 3 -41z m32 5 c2 -19 0 -37 -4 -40 -4 -3 -8 13
-8 35 0 51 6 53 12 5z m68 9 c0 33 20 17 20 -18 0 -36 -13 -47 -24 -20 -7 20
-24 19 -29 -2 -3 -10 -5 2 -6 26 l-1 43 20 -23 c16 -20 19 -21 20 -6z m65 -13
c0 -22 -4 -40 -10 -40 -5 0 -10 18 -10 40 0 22 5 40 10 40 6 0 10 -18 10 -40z
m84 26 c15 -18 10 -76 -6 -76 -16 0 -17 22 -2 37 14 14 4 47 -11 38 -5 -3 -10
-17 -10 -31 0 -14 -4 -22 -10 -19 -14 8 -13 38 2 53 15 15 23 15 37 -2z m41
-27 c0 -24 -4 -38 -10 -34 -17 10 -11 75 7 75 2 0 3 -18 3 -41z m34 0 c1 -17
-2 -33 -6 -36 -5 -2 -8 15 -8 38 0 48 13 46 14 -2z m80 32 c4 -5 -3 -7 -14 -4
-14 4 -20 0 -20 -12 0 -11 5 -15 15 -11 8 3 15 1 15 -4 0 -6 -7 -10 -15 -10
-8 0 -15 -7 -15 -15 0 -8 -3 -15 -7 -15 -5 0 -8 18 -8 40 -1 35 2 40 21 40 13
0 25 -4 28 -9z m51 -31 c0 -22 -4 -40 -10 -40 -5 0 -10 18 -10 40 0 22 5 40
10 40 6 0 10 -18 10 -40z m85 26 c18 -23 8 -61 -17 -64 -21 -3 -23 1 -23 37 0
43 17 54 40 27z m141 4 c22 -12 25 -42 6 -59 -11 -8 -13 -5 -9 18 2 16 -1 32
-7 35 -7 5 -11 -5 -11 -28 0 -20 -3 -36 -7 -36 -5 0 -8 18 -8 40 -1 42 4 46
36 30z m64 -30 c0 -22 -4 -40 -10 -40 -5 0 -10 18 -10 40 0 22 5 40 10 40 6 0
10 -18 10 -40z m81 22 c1 -7 0 -8 -3 -2 -7 15 -23 12 -23 -4 0 -8 7 -16 15
-20 17 -6 21 -36 4 -36 -5 0 -7 4 -4 10 3 5 -3 15 -15 22 -23 14 -26 34 -7 41
17 7 30 3 33 -11z m54 -10 c1 -13 4 -11 14 7 13 24 13 23 12 -16 0 -34 -2 -38
-13 -24 -11 15 -12 15 -13 -1 0 -38 -20 -16 -20 23 0 24 4 38 10 34 6 -3 10
-14 10 -23z m-1460 -42 c0 -5 -2 -10 -4 -10 -3 0 -8 5 -11 10 -3 6 -1 10 4 10
6 0 11 -4 11 -10z m1380 0 c0 -5 -2 -10 -4 -10 -3 0 -8 5 -11 10 -3 6 -1 10 4
10 6 0 11 -4 11 -10z m-1300 -171 c0 -13 5 -19 13 -16 7 3 13 -5 13 -20 2 -22
1 -23 -12 -6 -13 17 -13 17 -14 1 0 -36 -17 -16 -18 22 -1 22 3 40 8 40 6 0
10 -9 10 -21z m155 -19 c1 -22 -4 -40 -10 -40 -5 0 -10 18 -10 40 0 22 5 40
10 40 6 0 10 -18 10 -40z m90 0 c0 -29 -4 -36 -22 -38 -21 -3 -23 1 -23 38 0
37 2 41 23 38 18 -2 22 -9 22 -38z m218 -3 c3 -25 0 -37 -8 -37 -7 0 -11 10
-10 25 2 14 -1 25 -6 25 -5 0 -9 -4 -9 -10 0 -5 -5 -10 -12 -10 -6 0 -1 11 12
25 13 14 25 24 26 22 2 -1 5 -19 7 -40z m70 31 c2 -7 -5 -24 -17 -37 -18 -20
-18 -23 -3 -18 9 4 17 2 17 -3 0 -6 -11 -10 -25 -10 -30 0 -31 4 -5 30 26 26
26 43 -1 35 -15 -5 -19 -4 -15 4 10 15 43 14 49 -1z m81 -10 c14 -22 -2 -52
-30 -56 -16 -2 -19 4 -19 38 0 34 3 40 19 38 10 -2 24 -11 30 -20z m61 11 c9
-13 -14 -69 -28 -69 -7 0 -7 4 1 12 9 9 8 16 -4 29 -9 10 -13 23 -9 28 8 14
32 14 40 0z m79 -11 c14 -22 -2 -52 -30 -56 -16 -2 -19 4 -19 38 0 34 3 40 19
38 10 -2 24 -11 30 -20z m64 15 c-12 -3 -18 -14 -18 -33 0 -19 6 -30 18 -33
10 -3 6 -5 -10 -6 -26 -1 -28 2 -28 39 0 37 2 40 28 39 16 -1 20 -3 10 -6z
m87 -3 c4 -6 -3 -9 -17 -7 -15 1 -23 -4 -26 -17 -5 -22 18 -48 25 -28 3 6 9
10 14 6 14 -8 0 -24 -21 -24 -21 0 -37 39 -26 65 6 17 42 20 51 5z m69 -12
c14 -22 -2 -52 -30 -56 -16 -2 -19 4 -19 38 0 34 3 40 19 38 10 -2 24 -11 30
-20z m-667 -4 c-3 -3 -12 -4 -19 -1 -8 3 -5 6 6 6 11 1 17 -2 13 -5z m-437
-23 c0 -11 6 -22 13 -24 6 -3 -1 -6 -18 -6 -21 -1 -26 2 -16 8 8 5 11 16 8 25
-4 9 -2 16 3 16 6 0 10 -9 10 -19z m75 -22 c-8 -12 -35 -12 -35 1 0 5 7 6 17
3 12 -5 14 -3 8 7 -5 9 -4 11 4 6 6 -4 9 -12 6 -17z m360 11 c3 -5 -1 -10 -10
-10 -9 0 -13 5 -10 10 3 6 8 10 10 10 2 0 7 -4 10 -10z m-235 -176 c0 -8 5
-14 10 -14 6 0 10 7 10 15 0 8 5 15 10 15 19 0 10 -32 -11 -37 -12 -3 -18 -11
-15 -19 3 -8 0 -14 -7 -14 -7 0 -12 15 -12 39 0 22 3 37 8 34 4 -2 7 -11 7
-19z m230 -20 c0 -47 -17 -43 -22 5 -2 28 0 37 9 34 7 -3 13 -20 13 -39z m83
-16 c-9 -10 -21 -18 -26 -18 -6 0 -3 8 7 19 15 16 15 19 1 31 -8 7 -15 17 -15
23 0 6 11 0 25 -13 23 -22 24 -25 8 -42z m-518 17 c0 -19 -3 -35 -7 -35 -5 0
-8 16 -8 35 0 19 3 35 8 35 4 0 7 -16 7 -35z m77 -3 c10 -7 16 -18 13 -23 -4
-5 -17 3 -30 17 -14 15 -22 31 -18 37 4 7 8 6 11 -3 3 -8 14 -21 24 -28z m58
21 c1 -17 1 -17 14 0 17 22 30 22 17 0 -6 -11 -6 -24 0 -35 12 -23 0 -23 -17
0 -13 16 -13 16 -14 0 0 -34 -20 -18 -20 17 0 35 20 51 20 18z m168 -23 c2
-28 0 -32 -8 -20 -9 11 -13 12 -17 3 -9 -23 -23 -14 -23 15 0 33 8 44 30 40 9
-2 16 -16 18 -38z m52 25 c0 -21 18 -19 23 3 3 9 5 -1 6 -22 1 -37 0 -38 -14
-20 -13 17 -14 17 -15 2 0 -34 -20 -18 -20 17 0 19 5 35 10 35 6 0 10 -7 10
-15z m-300 -45 c0 -5 -2 -10 -4 -10 -3 0 -8 5 -11 10 -3 6 -1 10 4 10 6 0 11
-4 11 -10z"/>
<path d="M320 585 c0 -8 5 -15 10 -15 6 0 10 7 10 15 0 8 -4 15 -10 15 -5 0
-10 -7 -10 -15z"/>
<path d="M470 585 c0 -8 5 -15 10 -15 6 0 10 7 10 15 0 8 -4 15 -10 15 -5 0
-10 -7 -10 -15z"/>
<path d="M1268 594 c-3 -2 -3 -16 0 -29 5 -28 22 -24 22 5 0 19 -13 34 -22 24z"/>
<path d="M470 350 c0 -18 4 -29 10 -25 6 3 10 15 10 25 0 10 -4 22 -10 25 -6
4 -10 -7 -10 -25z"/>
<path d="M830 349 c0 -17 4 -28 10 -24 6 3 10 17 10 31 0 13 -4 24 -10 24 -5
0 -10 -14 -10 -31z"/>
<path d="M892 369 c2 -6 8 -10 13 -10 5 0 11 4 13 10 2 6 -4 11 -13 11 -9 0
-15 -5 -13 -11z"/>
<path d="M974 353 c2 -15 7 -27 12 -25 13 3 11 45 -3 49 -8 3 -11 -6 -9 -24z"/>
<path d="M1190 350 c0 -16 5 -30 10 -30 6 0 10 14 10 30 0 17 -4 30 -10 30 -5
0 -10 -13 -10 -30z"/>
<path d="M390 145 c0 -8 5 -15 10 -15 6 0 10 7 10 15 0 8 -4 15 -10 15 -5 0
-10 -7 -10 -15z"/>
<path d="M2 543 c-1 -60 13 -113 30 -113 6 0 7 7 4 15 -3 8 -9 22 -12 30 -4
10 0 15 11 15 17 0 17 1 -1 21 -12 13 -17 32 -15 55 1 19 -2 34 -7 34 -5 0
-10 -26 -10 -57z"/>
<path d="M0 350 c0 -16 5 -30 10 -30 6 0 10 14 10 30 0 17 -4 30 -10 30 -5 0
-10 -13 -10 -30z"/>
<path d="M30 350 c0 -16 5 -30 10 -30 6 0 10 14 10 30 0 17 -4 30 -10 30 -5 0
-10 -13 -10 -30z"/>
</g>
</svg>
