<?xml version="1.0" standalone="no"?>
<!DOCTYPE svg PUBLIC "-//W3C//DTD SVG 20010904//EN"
 "http://www.w3.org/TR/2001/REC-SVG-20010904/DTD/svg10.dtd">
<svg version="1.0" xmlns="http://www.w3.org/2000/svg"
 width="444.000000pt" height="95.000000pt" viewBox="0 0 444.000000 95.000000"
 preserveAspectRatio="xMidYMid meet">
<metadata>
Created by potrace 1.13, written by Peter Selinger 2001-2015
</metadata>
<g transform="translate(0.000000,95.000000) scale(0.100000,-0.100000)"
fill="#000000" stroke="none">
<path d="M12 896 c2 -43 7 -61 18 -63 12 -4 12 -3 1 5 -9 7 -10 12 -2 16 6 4
16 -4 23 -18 11 -26 35 -38 25 -13 -3 6 -8 19 -12 29 -4 11 -1 17 10 20 12 2
6 13 -25 43 l-41 40 3 -59z"/>
<path d="M80 922 c0 -10 7 -28 16 -40 11 -17 12 -22 2 -22 -10 0 -14 -30 -16
-124 l-3 -125 27 -3 c55 -6 57 -65 3 -78 -22 -5 -24 -11 -27 -72 -3 -66 -3
-67 24 -70 57 -7 57 -69 0 -76 -27 -3 -27 -4 -24 -70 3 -66 4 -67 33 -72 22
-4 31 -11 33 -28 4 -25 -14 -53 -32 -51 -24 3 -37 -2 -31 -11 4 -6 137 -10
366 -10 312 0 359 2 359 15 0 10 10 15 34 15 21 0 36 -6 40 -15 5 -13 212 -15
1781 -15 l1775 0 0 435 0 435 -2180 0 c-2082 0 -2180 -1 -2180 -18z m65 -136
c0 -16 -5 -31 -11 -33 -7 -2 -9 8 -6 27 2 17 0 30 -6 30 -6 0 -13 -15 -15 -32
-4 -32 -4 -32 -5 5 -2 34 0 38 21 35 17 -2 22 -10 22 -32z m50 -1 c0 -19 -3
-35 -7 -35 -5 0 -8 16 -8 35 0 19 3 35 8 35 4 0 7 -16 7 -35z m74 -10 c6 -3
11 -10 11 -15 0 -5 -12 2 -26 15 -16 14 -23 29 -18 36 5 9 10 6 15 -8 4 -12
12 -24 18 -28z m61 28 c1 -17 1 -17 14 0 17 22 30 22 17 0 -6 -11 -6 -24 0
-35 13 -24 -6 -24 -20 0 -10 16 -10 16 -11 0 0 -10 -5 -18 -10 -18 -6 0 -10
16 -8 35 2 35 18 50 18 18z m74 2 c-4 -8 -1 -15 5 -15 6 0 11 7 11 15 0 8 5
15 10 15 18 0 10 -32 -9 -37 -11 -3 -22 -12 -24 -22 -2 -9 -5 1 -8 22 -4 26
-1 37 8 37 7 0 10 -7 7 -15z m94 -25 c2 -28 0 -32 -8 -20 -9 11 -13 12 -17 3
-9 -23 -23 -14 -23 15 0 33 8 44 30 40 9 -2 16 -16 18 -38z m52 25 c0 -21 18
-19 23 3 3 9 5 -3 5 -28 1 -41 0 -43 -10 -20 -9 21 -12 22 -15 8 -8 -31 -23
-19 -23 17 0 19 5 35 10 35 6 0 10 -7 10 -15z m80 -19 c0 -49 -17 -54 -22 -6
-2 28 0 40 9 40 8 0 13 -13 13 -34z m84 16 c15 -18 15 -20 -6 -38 -19 -16 -20
-16 -9 -1 12 15 11 20 -4 37 -10 11 -14 20 -8 20 5 0 17 -8 27 -18z m118 -21
c3 -31 1 -37 -9 -29 -15 12 -18 68 -4 68 5 0 11 -18 13 -39z m36 9 c-1 -44
-18 -48 -18 -6 0 20 4 36 9 36 5 0 9 -14 9 -30z m62 13 c0 10 5 17 10 17 6 0
10 -16 10 -35 0 -39 -4 -42 -28 -18 -15 15 -17 14 -23 -8 -5 -18 -7 -13 -8 20
-1 43 -1 44 19 26 18 -16 20 -16 20 -2z m62 -18 c-2 -19 -5 -35 -7 -35 -2 0
-5 16 -7 35 -2 21 0 35 7 35 7 0 9 -14 7 -35z m94 -8 c1 -20 0 -37 -2 -37 -1
0 -14 4 -28 10 -44 16 -32 73 14 67 10 -2 15 -15 16 -40z m36 4 c3 -31 1 -37
-9 -29 -15 12 -18 68 -4 68 5 0 11 -18 13 -39z m38 10 c0 -17 -4 -33 -10 -36
-6 -4 -10 8 -10 29 0 20 5 36 10 36 6 0 10 -13 10 -29z m40 14 c0 -8 8 -16 18
-16 16 -1 16 -2 0 -6 -10 -2 -18 -11 -18 -18 0 -8 -4 -16 -8 -19 -4 -2 -8 13
-7 35 0 21 3 39 8 39 4 0 7 -7 7 -15z m85 -20 c0 -19 -3 -35 -6 -35 -4 0 -9
16 -11 35 -2 20 0 35 7 35 5 0 10 -16 10 -35z m93 6 c2 -13 0 -27 -5 -32 -6
-6 -8 2 -5 21 3 18 0 30 -7 30 -6 0 -11 -16 -11 -35 0 -19 -4 -35 -10 -35 -5
0 -10 18 -10 41 0 36 2 40 23 37 14 -2 23 -11 25 -27z m140 20 c16 -9 13 -53
-4 -58 -7 -2 -9 8 -6 27 3 18 0 30 -7 30 -6 0 -11 -13 -11 -30 0 -16 -3 -30
-7 -30 -5 0 -8 16 -8 35 0 36 14 45 43 26z m57 -26 c0 -19 -3 -35 -7 -35 -5 0
-8 16 -8 35 0 19 3 35 8 35 4 0 7 -16 7 -35z m74 -10 c6 -3 11 -10 11 -15 0
-5 -12 2 -26 15 -16 14 -23 29 -18 36 5 9 10 6 15 -8 4 -12 12 -24 18 -28z
m61 28 c1 -17 1 -17 11 0 15 25 32 22 19 -4 -9 -15 -8 -24 1 -35 7 -9 8 -14 1
-14 -6 0 -16 8 -21 18 -10 16 -10 16 -11 0 0 -10 -5 -18 -10 -18 -6 0 -10 16
-8 35 2 35 18 50 18 18z m243 -26 c3 -22 2 -35 -4 -32 -5 4 -9 15 -9 26 0 10
-5 19 -11 19 -7 0 -9 -10 -7 -25 4 -20 3 -23 -8 -14 -20 17 -17 40 6 46 11 3
20 10 20 16 0 21 7 1 13 -36z m110 23 c-3 -11 0 -20 6 -20 5 0 8 -7 5 -15 -11
-27 -24 -16 -24 20 0 19 4 35 9 35 5 0 7 -9 4 -20z m47 -21 c0 -16 -4 -29 -9
-29 -10 0 -19 40 -13 58 7 21 22 2 22 -29z m32 -16 c-2 -7 -8 -13 -13 -13 -11
0 -12 54 -2 64 9 9 22 -34 15 -51z m36 20 c-2 -20 -9 -38 -16 -41 -11 -3 -11
0 0 18 10 17 10 24 1 27 -13 5 -6 33 9 33 5 0 8 -17 6 -37z m32 27 c0 -5 -5
-10 -11 -10 -5 0 -7 5 -4 10 3 6 8 10 11 10 2 0 4 -4 4 -10z m10 -42 c-12 -11
-23 -18 -26 -16 -2 3 5 13 16 23 11 10 21 25 21 34 1 12 2 12 6 -2 3 -11 -4
-27 -17 -39z m76 2 c-15 -18 -26 -25 -26 -17 0 8 7 20 15 27 8 7 15 20 15 28
0 12 3 13 11 5 9 -9 5 -20 -15 -43z m57 30 c-3 -11 0 -20 6 -20 5 0 8 -7 5
-15 -11 -27 -24 -16 -24 20 0 19 4 35 9 35 5 0 7 -9 4 -20z m47 -21 c0 -16 -4
-29 -9 -29 -10 0 -19 40 -13 58 7 21 22 2 22 -29z m32 -16 c-2 -7 -8 -13 -13
-13 -11 0 -12 54 -2 64 9 9 22 -34 15 -51z m36 20 c-2 -20 -9 -38 -16 -41 -11
-3 -11 0 0 18 10 17 10 24 1 27 -13 5 -6 33 9 33 5 0 8 -17 6 -37z m32 27 c0
-5 -5 -10 -11 -10 -5 0 -7 5 -4 10 3 6 8 10 11 10 2 0 4 -4 4 -10z m35 1 c6
-10 -42 -67 -50 -59 -3 3 4 13 15 23 11 10 20 24 20 32 0 15 6 17 15 4z m45 5
c0 -3 -4 -8 -10 -11 -5 -3 -10 -1 -10 4 0 6 5 11 10 11 6 0 10 -2 10 -4z m7
-43 c-15 -15 -27 -23 -27 -16 0 6 7 16 15 23 8 7 15 20 15 28 0 13 3 13 12 4
10 -10 6 -18 -15 -39z m-718 0 c-1 -22 -2 -23 -6 -8 -3 11 -10 23 -17 27 -7 5
-5 8 7 8 12 0 17 -7 16 -27z m154 20 c-7 -2 -19 -2 -25 0 -7 3 -2 5 12 5 14 0
19 -2 13 -5z m-1769 -39 c5 -14 4 -15 -9 -4 -17 14 -19 20 -6 20 5 0 12 -7 15
-16z m1376 6 c0 -5 -2 -10 -4 -10 -3 0 -8 5 -11 10 -3 6 -1 10 4 10 6 0 11 -4
11 -10z m910 -4 c0 -3 -4 -8 -10 -11 -5 -3 -10 -1 -10 4 0 6 5 11 10 11 6 0
10 -2 10 -4z m-2345 -186 c0 -22 -4 -40 -10 -40 -5 0 -10 18 -10 40 0 22 5 40
10 40 6 0 10 -18 10 -40z m81 22 c1 -7 0 -8 -3 -2 -7 15 -23 12 -23 -4 0 -8 7
-16 15 -20 18 -6 20 -36 3 -36 -6 0 -8 3 -5 7 4 3 -3 17 -15 30 -19 20 -20 25
-8 33 18 12 33 8 36 -8z m54 -4 l1 -23 12 23 c7 12 16 20 20 16 4 -4 2 -13 -4
-20 -7 -9 -7 -19 1 -33 13 -26 2 -28 -16 -3 -13 16 -13 16 -14 0 0 -10 -4 -18
-10 -18 -5 0 -9 18 -8 40 1 42 18 57 18 18z m108 0 c2 -10 -1 -18 -7 -18 -6 0
-11 7 -11 15 0 8 -5 15 -10 15 -6 0 -9 -15 -7 -35 3 -21 0 -35 -7 -35 -6 0
-11 17 -11 40 0 38 2 41 25 38 14 -2 26 -10 28 -20z m62 -32 c0 -21 -3 -27 -9
-17 -5 7 -6 22 -4 32 3 10 0 19 -6 19 -6 0 -11 -13 -11 -30 0 -16 -4 -30 -10
-30 -14 0 -13 53 2 68 18 18 38 -5 38 -42z m77 10 c2 -36 1 -37 -12 -20 -13
17 -14 18 -15 2 0 -38 -20 -16 -20 23 0 36 2 40 23 37 18 -2 22 -10 24 -42z
m73 33 c0 -5 -4 -7 -10 -4 -6 4 -10 -8 -10 -29 0 -49 -17 -46 -22 4 -3 36 -1
40 19 40 13 0 23 -5 23 -11z m63 -51 c-9 -10 -21 -18 -26 -18 -6 0 -2 9 8 20
17 19 17 21 -1 43 -17 20 -16 20 9 -2 25 -23 26 -26 10 -43z m189 22 c2 -22 0
-40 -4 -40 -5 0 -8 18 -8 40 0 22 2 40 4 40 2 0 6 -18 8 -40z m103 21 c7 21 9
20 12 -15 5 -43 -4 -59 -18 -33 -13 22 -26 22 -32 0 -3 -10 -5 2 -6 27 l-1 45
19 -24 18 -24 8 24z m60 -21 c0 -52 -12 -52 -17 0 -2 24 1 40 7 40 6 0 11 -18
10 -40z m83 28 c14 -14 16 -78 3 -78 -14 0 -20 27 -9 38 13 13 2 46 -12 37 -5
-3 -10 -17 -10 -31 0 -14 -4 -22 -10 -19 -20 12 -4 65 20 65 3 0 11 -5 18 -12z
m44 -28 c2 -22 0 -40 -4 -40 -5 0 -8 18 -8 40 0 22 2 40 4 40 2 0 6 -18 8 -40z
m38 6 c0 -19 -4 -38 -10 -41 -6 -4 -10 10 -10 34 0 23 5 41 10 41 6 0 10 -15
10 -34z m80 25 c0 -5 -9 -7 -19 -4 -17 4 -19 0 -17 -31 2 -21 -1 -36 -8 -36
-6 0 -11 17 -11 40 0 37 2 40 28 40 15 0 27 -4 27 -9z m50 -31 c0 -22 -4 -40
-10 -40 -5 0 -10 18 -10 40 0 22 5 40 10 40 6 0 10 -18 10 -40z m86 19 c22
-24 10 -52 -25 -57 -18 -3 -21 1 -21 37 0 46 16 53 46 20z m144 7 c20 -25 8
-61 -20 -64 -23 -3 -25 0 -25 38 0 43 20 55 45 26z m58 -26 c-1 -22 -5 -40
-10 -40 -4 0 -8 18 -8 40 0 22 4 40 10 40 5 0 9 -18 8 -40z m87 31 c3 -5 1
-12 -5 -16 -5 -3 -10 -1 -10 4 0 6 -4 11 -10 11 -17 0 -11 -21 12 -39 15 -12
18 -20 10 -25 -7 -4 -12 -1 -12 6 0 7 -9 19 -21 26 -16 11 -18 16 -9 28 14 16
36 19 45 5z m45 -13 l0 -23 20 25 c20 25 28 18 11 -9 -6 -9 -6 -22 0 -33 12
-23 0 -23 -17 0 -13 16 -13 16 -14 0 0 -37 -15 -16 -15 22 0 22 3 40 8 40 4 0
7 -10 7 -22z m-840 -17 c0 -17 -4 -33 -10 -36 -6 -4 -10 8 -10 29 0 20 5 36
10 36 6 0 10 -13 10 -29z m-690 -31 c0 -5 -2 -10 -4 -10 -3 0 -8 5 -11 10 -3
6 -1 10 4 10 6 0 11 -4 11 -10z m1455 0 c3 -5 2 -10 -4 -10 -5 0 -13 5 -16 10
-3 6 -2 10 4 10 5 0 13 -4 16 -10z m-1375 -171 c0 -13 5 -19 13 -16 7 3 13 -5
13 -20 2 -22 1 -23 -12 -6 -13 17 -13 17 -14 1 0 -38 -20 -16 -20 22 0 22 5
40 10 40 6 0 10 -9 10 -21z m155 -19 c0 -22 -4 -40 -10 -40 -5 0 -10 18 -10
40 0 22 5 40 10 40 6 0 10 -18 10 -40z m90 0 c0 -29 -4 -36 -22 -38 -21 -3
-23 1 -23 38 0 37 2 41 23 38 18 -2 22 -9 22 -38z m223 6 c2 -16 -1 -33 -7
-39 -7 -7 -8 -3 -4 12 3 13 1 21 -7 21 -7 0 -10 7 -6 15 3 8 1 15 -4 15 -6 0
-8 -16 -6 -36 5 -39 -17 -44 -22 -5 -5 35 6 53 30 49 17 -2 24 -11 26 -32z
m70 -3 c-3 -33 -6 -38 -28 -38 -19 0 -26 6 -28 23 -5 36 5 52 33 52 24 0 26
-3 23 -37z m67 26 c4 -6 -4 -22 -16 -36 -18 -20 -20 -25 -7 -20 10 3 20 2 23
-3 4 -6 -5 -10 -19 -10 -29 0 -33 12 -11 30 8 7 15 19 15 27 0 9 -6 13 -15 9
-8 -3 -15 -1 -15 4 0 13 37 13 45 -1z m70 1 c7 -11 -25 -70 -37 -70 -14 0 -8
16 12 35 26 24 26 38 -1 30 -15 -5 -19 -4 -15 4 9 14 33 14 41 1z m83 -24 c2
-16 -1 -33 -6 -38 -6 -6 -8 0 -4 18 4 21 2 25 -9 19 -12 -8 -12 -6 0 8 12 15
11 17 -3 17 -13 0 -15 -8 -12 -36 5 -39 -17 -44 -22 -5 -5 35 6 53 30 49 17
-2 24 -11 26 -32z m70 -3 c-3 -33 -6 -38 -28 -38 -19 0 -26 6 -28 23 -5 36 5
52 33 52 24 0 26 -3 23 -37z m67 26 c4 -6 -2 -21 -14 -33 -12 -12 -18 -26 -14
-29 3 -4 1 -7 -5 -7 -17 0 -15 15 3 30 20 17 20 44 -1 36 -8 -3 -12 -2 -9 4 8
13 32 13 40 -1z m72 -9 c3 -18 -35 -66 -44 -56 -4 3 3 16 15 29 28 29 28 40 1
32 -15 -5 -19 -4 -14 4 9 16 39 9 42 -9z m-660 -6 c-3 -3 -12 -4 -19 -1 -8 3
-5 6 6 6 11 1 17 -2 13 -5z m-437 -23 c0 -11 6 -22 13 -24 6 -3 -1 -6 -18 -6
-21 -1 -26 2 -16 8 8 5 11 16 8 25 -4 9 -2 16 3 16 6 0 10 -9 10 -19z m435
-11 c3 -5 -1 -10 -10 -10 -9 0 -13 5 -10 10 3 6 8 10 10 10 2 0 7 -4 10 -10z
m-355 -12 c0 -4 -9 -8 -20 -8 -11 0 -20 4 -20 8 0 4 9 8 20 8 11 0 20 -4 20
-8z m730 2 c0 -5 -5 -10 -11 -10 -5 0 -7 5 -4 10 3 6 8 10 11 10 2 0 4 -4 4
-10z m220 0 c0 -5 -4 -10 -10 -10 -5 0 -10 5 -10 10 0 6 5 10 10 10 6 0 10 -4
10 -10z m70 0 c0 -5 -5 -10 -11 -10 -5 0 -7 5 -4 10 3 6 8 10 11 10 2 0 4 -4
4 -10z m-1105 -190 c1 -22 -4 -40 -10 -40 -6 0 -9 16 -7 40 5 52 17 52 17 0z
m74 -5 c6 -3 11 -10 11 -15 0 -5 -12 2 -26 15 -16 14 -23 29 -18 36 5 9 10 6
15 -8 4 -12 12 -24 18 -28z m61 28 c1 -17 1 -17 14 0 17 22 30 22 17 0 -6 -11
-6 -24 0 -35 13 -24 -6 -24 -20 0 -9 15 -10 15 -11 -5 0 -13 -5 -23 -10 -23
-6 0 -10 17 -8 40 2 39 18 58 18 23z m74 2 c-4 -8 -1 -15 5 -15 6 0 11 7 11
15 0 8 5 15 10 15 19 0 10 -32 -10 -37 -11 -3 -20 -11 -20 -19 0 -7 -3 -15 -7
-17 -5 -3 -8 12 -8 34 0 24 5 39 12 39 7 0 10 -7 7 -15z m93 -30 c1 -22 -1
-32 -4 -22 -5 18 -23 24 -23 7 0 -5 -4 -10 -10 -10 -11 0 -14 53 -3 64 19 18
38 -1 40 -39z m53 30 c0 -21 18 -19 23 3 3 9 5 -3 5 -28 1 -40 0 -42 -10 -20
l-10 25 -9 -22 c-13 -34 -19 -28 -19 17 0 22 5 40 10 40 6 0 10 -7 10 -15z
m80 -25 c0 -22 -4 -40 -9 -40 -5 0 -11 18 -13 40 -2 28 0 40 9 40 8 0 13 -14
13 -40z m83 22 c16 -17 15 -20 -10 -43 -25 -22 -26 -22 -9 -1 18 21 18 23 1
42 -10 11 -14 20 -8 20 5 0 17 -8 26 -18z m-459 -48 c5 -14 4 -15 -9 -4 -17
14 -19 20 -6 20 5 0 12 -7 15 -16z"/>
<path d="M470 795 c0 -8 5 -15 10 -15 6 0 10 7 10 15 0 8 -4 15 -10 15 -5 0
-10 -7 -10 -15z"/>
<path d="M1050 784 c0 -22 2 -25 15 -14 8 7 15 19 15 26 0 8 -7 14 -15 14 -10
0 -15 -10 -15 -26z"/>
<path d="M550 585 c0 -8 5 -15 10 -15 6 0 10 7 10 15 0 8 -4 15 -10 15 -5 0
-10 -7 -10 -15z"/>
<path d="M1420 571 c0 -17 5 -31 10 -31 6 0 10 11 10 24 0 14 -4 28 -10 31 -6
4 -10 -7 -10 -24z"/>
<path d="M1567 594 c-4 -4 -7 -18 -7 -31 0 -28 23 -27 28 1 4 20 -11 40 -21
30z"/>
<path d="M550 350 c0 -18 4 -29 10 -25 6 3 10 15 10 25 0 10 -4 22 -10 25 -6
4 -10 -7 -10 -25z"/>
<path d="M830 364 c0 -14 3 -14 15 -4 8 7 15 14 15 16 0 2 -7 4 -15 4 -8 0
-15 -7 -15 -16z"/>
<path d="M840 335 c-10 -12 -10 -15 4 -15 9 0 16 7 16 15 0 8 -2 15 -4 15 -2
0 -9 -7 -16 -15z"/>
<path d="M1120 364 c0 -8 5 -12 10 -9 14 9 13 -8 -2 -23 -9 -9 -8 -12 5 -12
13 0 17 7 15 30 -2 30 -28 43 -28 14z"/>
<path d="M470 145 c0 -8 5 -15 10 -15 6 0 10 7 10 15 0 8 -4 15 -10 15 -5 0
-10 -7 -10 -15z"/>
<path d="M1 804 c0 -11 3 -14 6 -6 3 7 2 16 -1 19 -3 4 -6 -2 -5 -13z"/>
<path d="M80 570 c0 -16 5 -30 10 -30 6 0 10 14 10 30 0 17 -4 30 -10 30 -5 0
-10 -13 -10 -30z"/>
<path d="M110 571 c0 -17 5 -31 10 -31 6 0 10 11 10 24 0 14 -4 28 -10 31 -6
4 -10 -7 -10 -24z"/>
<path d="M80 350 c0 -16 5 -30 10 -30 6 0 10 14 10 30 0 17 -4 30 -10 30 -5 0
-10 -13 -10 -30z"/>
<path d="M110 350 c0 -16 5 -30 10 -30 6 0 10 14 10 30 0 17 -4 30 -10 30 -5
0 -10 -13 -10 -30z"/>
<path d="M80 130 c0 -16 5 -30 10 -30 6 0 10 14 10 30 0 17 -4 30 -10 30 -5 0
-10 -13 -10 -30z"/>
<path d="M110 129 c0 -17 4 -28 10 -24 6 3 10 17 10 31 0 13 -4 24 -10 24 -5
0 -10 -14 -10 -31z"/>
</g>
</svg>
