<?xml version="1.0" encoding="UTF-8"?>
<!DOCTYPE svg PUBLIC "-//W3C//DTD SVG 1.1//EN" "http://www.w3.org/Graphics/SVG/1.1/DTD/svg11.dtd">
<svg width="160mm" height="90mm" viewBox="0 0 16000 9000" version="1.1" xmlns="http://www.w3.org/2000/svg" stroke-width="28.222" stroke-linejoin="round" xml:space="preserve">
 <path fill="rgb(255,255,255)" stroke="none" d="M 8000,8999 L 0,8999 0,0 15999,0 15999,8999 8000,8999 Z"/>
 <path fill="none" stroke="rgb(179,179,179)" stroke-linejoin="round" d="M 7283,7191 L 1952,7191 1952,1474 12613,1474 12613,7191 7283,7191 Z"/>
 <path fill="none" stroke="rgb(179,179,179)" stroke-linejoin="round" d="M 12613,7190 L 1952,7190"/>
 <path fill="none" stroke="rgb(179,179,179)" stroke-linejoin="round" d="M 12613,6373 L 1952,6373"/>
 <path fill="none" stroke="rgb(179,179,179)" stroke-linejoin="round" d="M 12613,5556 L 1952,5556"/>
 <path fill="none" stroke="rgb(179,179,179)" stroke-linejoin="round" d="M 12613,4739 L 1952,4739"/>
 <path fill="none" stroke="rgb(179,179,179)" stroke-linejoin="round" d="M 12613,3923 L 1952,3923"/>
 <path fill="none" stroke="rgb(179,179,179)" stroke-linejoin="round" d="M 12613,3106 L 1952,3106"/>
 <path fill="none" stroke="rgb(179,179,179)" stroke-linejoin="round" d="M 12613,2289 L 1952,2289"/>
 <path fill="none" stroke="rgb(179,179,179)" stroke-linejoin="round" d="M 12613,1473 L 1952,1473"/>
 <path fill="none" stroke="rgb(179,179,179)" stroke-linejoin="round" d="M 1952,7340 L 1952,7190"/>
 <path fill="none" stroke="rgb(179,179,179)" stroke-linejoin="round" d="M 1952,7340 L 1952,7190"/>
 <path fill="none" stroke="rgb(179,179,179)" stroke-linejoin="round" d="M 3136,7340 L 3136,7190"/>
 <path fill="none" stroke="rgb(179,179,179)" stroke-linejoin="round" d="M 3136,7340 L 3136,7190"/>
 <path fill="none" stroke="rgb(179,179,179)" stroke-linejoin="round" d="M 4321,7340 L 4321,7190"/>
 <path fill="none" stroke="rgb(179,179,179)" stroke-linejoin="round" d="M 4321,7340 L 4321,7190"/>
 <path fill="none" stroke="rgb(179,179,179)" stroke-linejoin="round" d="M 5506,7340 L 5506,7190"/>
 <path fill="none" stroke="rgb(179,179,179)" stroke-linejoin="round" d="M 5506,7340 L 5506,7190"/>
 <path fill="none" stroke="rgb(179,179,179)" stroke-linejoin="round" d="M 6690,7340 L 6690,7190"/>
 <path fill="none" stroke="rgb(179,179,179)" stroke-linejoin="round" d="M 6690,7340 L 6690,7190"/>
 <path fill="none" stroke="rgb(179,179,179)" stroke-linejoin="round" d="M 7875,7340 L 7875,7190"/>
 <path fill="none" stroke="rgb(179,179,179)" stroke-linejoin="round" d="M 7875,7340 L 7875,7190"/>
 <path fill="none" stroke="rgb(179,179,179)" stroke-linejoin="round" d="M 9059,7340 L 9059,7190"/>
 <path fill="none" stroke="rgb(179,179,179)" stroke-linejoin="round" d="M 9059,7340 L 9059,7190"/>
 <path fill="none" stroke="rgb(179,179,179)" stroke-linejoin="round" d="M 10243,7340 L 10243,7190"/>
 <path fill="none" stroke="rgb(179,179,179)" stroke-linejoin="round" d="M 10243,7340 L 10243,7190"/>
 <path fill="none" stroke="rgb(179,179,179)" stroke-linejoin="round" d="M 11428,7340 L 11428,7190"/>
 <path fill="none" stroke="rgb(179,179,179)" stroke-linejoin="round" d="M 11428,7340 L 11428,7190"/>
 <path fill="none" stroke="rgb(179,179,179)" stroke-linejoin="round" d="M 12613,7340 L 12613,7190"/>
 <path fill="none" stroke="rgb(179,179,179)" stroke-linejoin="round" d="M 12613,7340 L 12613,7190"/>
 <path fill="none" stroke="rgb(179,179,179)" stroke-linejoin="round" d="M 1952,7190 L 12613,7190"/>
 <path fill="none" stroke="rgb(179,179,179)" stroke-linejoin="round" d="M 1802,7190 L 1952,7190"/>
 <path fill="none" stroke="rgb(179,179,179)" stroke-linejoin="round" d="M 1802,7190 L 1952,7190"/>
 <path fill="none" stroke="rgb(179,179,179)" stroke-linejoin="round" d="M 1802,6373 L 1952,6373"/>
 <path fill="none" stroke="rgb(179,179,179)" stroke-linejoin="round" d="M 1802,6373 L 1952,6373"/>
 <path fill="none" stroke="rgb(179,179,179)" stroke-linejoin="round" d="M 1802,5556 L 1952,5556"/>
 <path fill="none" stroke="rgb(179,179,179)" stroke-linejoin="round" d="M 1802,5556 L 1952,5556"/>
 <path fill="none" stroke="rgb(179,179,179)" stroke-linejoin="round" d="M 1802,4739 L 1952,4739"/>
 <path fill="none" stroke="rgb(179,179,179)" stroke-linejoin="round" d="M 1802,4739 L 1952,4739"/>
 <path fill="none" stroke="rgb(179,179,179)" stroke-linejoin="round" d="M 1802,3923 L 1952,3923"/>
 <path fill="none" stroke="rgb(179,179,179)" stroke-linejoin="round" d="M 1802,3923 L 1952,3923"/>
 <path fill="none" stroke="rgb(179,179,179)" stroke-linejoin="round" d="M 1802,3106 L 1952,3106"/>
 <path fill="none" stroke="rgb(179,179,179)" stroke-linejoin="round" d="M 1802,3106 L 1952,3106"/>
 <path fill="none" stroke="rgb(179,179,179)" stroke-linejoin="round" d="M 1802,2289 L 1952,2289"/>
 <path fill="none" stroke="rgb(179,179,179)" stroke-linejoin="round" d="M 1802,2289 L 1952,2289"/>
 <path fill="none" stroke="rgb(179,179,179)" stroke-linejoin="round" d="M 1802,1473 L 1952,1473"/>
 <path fill="none" stroke="rgb(179,179,179)" stroke-linejoin="round" d="M 1802,1473 L 1952,1473"/>
 <path fill="none" stroke="rgb(179,179,179)" stroke-linejoin="round" d="M 1952,7190 L 1952,1473"/>
 <path fill="none" stroke="rgb(0,69,134)" stroke-width="80" stroke-linejoin="round" d="M 1952,2367 L 3136,6430 4321,6777 5506,7019 6690,7042 7875,7074 9059,7083 10243,7052 11428,7087 12613,7071"/>
 <path fill="rgb(0,69,134)" stroke="none" d="M 1827,2242 L 1827,2492 2077,2492 2077,2242 1827,2242 Z"/>
 <path fill="none" stroke="rgb(0,69,134)" stroke-linejoin="round" d="M 1827,2242 L 1827,2492 2077,2492 2077,2242 1827,2242 Z"/>
 <path fill="rgb(0,69,134)" stroke="none" d="M 3011,6305 L 3011,6555 3261,6555 3261,6305 3011,6305 Z"/>
 <path fill="none" stroke="rgb(0,69,134)" stroke-linejoin="round" d="M 3011,6305 L 3011,6555 3261,6555 3261,6305 3011,6305 Z"/>
 <path fill="rgb(0,69,134)" stroke="none" d="M 4196,6652 L 4196,6902 4446,6902 4446,6652 4196,6652 Z"/>
 <path fill="none" stroke="rgb(0,69,134)" stroke-linejoin="round" d="M 4196,6652 L 4196,6902 4446,6902 4446,6652 4196,6652 Z"/>
 <path fill="rgb(0,69,134)" stroke="none" d="M 5381,6894 L 5381,7144 5631,7144 5631,6894 5381,6894 Z"/>
 <path fill="none" stroke="rgb(0,69,134)" stroke-linejoin="round" d="M 5381,6894 L 5381,7144 5631,7144 5631,6894 5381,6894 Z"/>
 <path fill="rgb(0,69,134)" stroke="none" d="M 6565,6917 L 6565,7167 6815,7167 6815,6917 6565,6917 Z"/>
 <path fill="none" stroke="rgb(0,69,134)" stroke-linejoin="round" d="M 6565,6917 L 6565,7167 6815,7167 6815,6917 6565,6917 Z"/>
 <path fill="rgb(0,69,134)" stroke="none" d="M 7750,6949 L 7750,7199 8000,7199 8000,6949 7750,6949 Z"/>
 <path fill="none" stroke="rgb(0,69,134)" stroke-linejoin="round" d="M 7750,6949 L 7750,7199 8000,7199 8000,6949 7750,6949 Z"/>
 <path fill="rgb(0,69,134)" stroke="none" d="M 8934,6958 L 8934,7208 9184,7208 9184,6958 8934,6958 Z"/>
 <path fill="none" stroke="rgb(0,69,134)" stroke-linejoin="round" d="M 8934,6958 L 8934,7208 9184,7208 9184,6958 8934,6958 Z"/>
 <path fill="rgb(0,69,134)" stroke="none" d="M 10118,6927 L 10118,7177 10368,7177 10368,6927 10118,6927 Z"/>
 <path fill="none" stroke="rgb(0,69,134)" stroke-linejoin="round" d="M 10118,6927 L 10118,7177 10368,7177 10368,6927 10118,6927 Z"/>
 <path fill="rgb(0,69,134)" stroke="none" d="M 11303,6962 L 11303,7212 11553,7212 11553,6962 11303,6962 Z"/>
 <path fill="none" stroke="rgb(0,69,134)" stroke-linejoin="round" d="M 11303,6962 L 11303,7212 11553,7212 11553,6962 11303,6962 Z"/>
 <path fill="rgb(0,69,134)" stroke="none" d="M 12488,6946 L 12488,7196 12738,7196 12738,6946 12488,6946 Z"/>
 <path fill="none" stroke="rgb(0,69,134)" stroke-linejoin="round" d="M 12488,6946 L 12488,7196 12738,7196 12738,6946 12488,6946 Z"/>
 <path fill="none" stroke="rgb(255,66,14)" stroke-width="80" stroke-linejoin="round" d="M 1952,2012 L 3136,5847 4321,6947 5506,7026 6690,7026 7875,7068 9059,7082 10243,7069 11428,7073 12613,7075"/>
 <path fill="rgb(255,66,14)" stroke="none" d="M 1827,2012 L 1952,2137 2077,2012 1952,1887 1827,2012 Z"/>
 <path fill="none" stroke="rgb(255,66,14)" stroke-linejoin="round" d="M 1827,2012 L 1952,2137 2077,2012 1952,1887 1827,2012 Z"/>
 <path fill="rgb(255,66,14)" stroke="none" d="M 3011,5847 L 3136,5972 3261,5847 3136,5722 3011,5847 Z"/>
 <path fill="none" stroke="rgb(255,66,14)" stroke-linejoin="round" d="M 3011,5847 L 3136,5972 3261,5847 3136,5722 3011,5847 Z"/>
 <path fill="rgb(255,66,14)" stroke="none" d="M 4196,6947 L 4321,7072 4446,6947 4321,6822 4196,6947 Z"/>
 <path fill="none" stroke="rgb(255,66,14)" stroke-linejoin="round" d="M 4196,6947 L 4321,7072 4446,6947 4321,6822 4196,6947 Z"/>
 <path fill="rgb(255,66,14)" stroke="none" d="M 5381,7026 L 5506,7151 5631,7026 5506,6901 5381,7026 Z"/>
 <path fill="none" stroke="rgb(255,66,14)" stroke-linejoin="round" d="M 5381,7026 L 5506,7151 5631,7026 5506,6901 5381,7026 Z"/>
 <path fill="rgb(255,66,14)" stroke="none" d="M 6565,7026 L 6690,7151 6815,7026 6690,6901 6565,7026 Z"/>
 <path fill="none" stroke="rgb(255,66,14)" stroke-linejoin="round" d="M 6565,7026 L 6690,7151 6815,7026 6690,6901 6565,7026 Z"/>
 <path fill="rgb(255,66,14)" stroke="none" d="M 7750,7068 L 7875,7193 8000,7068 7875,6943 7750,7068 Z"/>
 <path fill="none" stroke="rgb(255,66,14)" stroke-linejoin="round" d="M 7750,7068 L 7875,7193 8000,7068 7875,6943 7750,7068 Z"/>
 <path fill="rgb(255,66,14)" stroke="none" d="M 8934,7082 L 9059,7207 9184,7082 9059,6957 8934,7082 Z"/>
 <path fill="none" stroke="rgb(255,66,14)" stroke-linejoin="round" d="M 8934,7082 L 9059,7207 9184,7082 9059,6957 8934,7082 Z"/>
 <path fill="rgb(255,66,14)" stroke="none" d="M 10118,7069 L 10243,7194 10368,7069 10243,6944 10118,7069 Z"/>
 <path fill="none" stroke="rgb(255,66,14)" stroke-linejoin="round" d="M 10118,7069 L 10243,7194 10368,7069 10243,6944 10118,7069 Z"/>
 <path fill="rgb(255,66,14)" stroke="none" d="M 11303,7073 L 11428,7198 11553,7073 11428,6948 11303,7073 Z"/>
 <path fill="none" stroke="rgb(255,66,14)" stroke-linejoin="round" d="M 11303,7073 L 11428,7198 11553,7073 11428,6948 11303,7073 Z"/>
 <path fill="rgb(255,66,14)" stroke="none" d="M 12488,7075 L 12613,7200 12738,7075 12613,6950 12488,7075 Z"/>
 <path fill="none" stroke="rgb(255,66,14)" stroke-linejoin="round" d="M 12488,7075 L 12613,7200 12738,7075 12613,6950 12488,7075 Z"/>
 <text class="TextShape"><tspan class="TextParagraph" font-family="Liberation Sans, sans-serif" font-size="353px" font-weight="400"><tspan class="TextPosition" x="1674" y="7758"><tspan fill="rgb(0,0,0)" stroke="none">100</tspan></tspan></tspan></text>
 <text class="TextShape"><tspan class="TextParagraph" font-family="Liberation Sans, sans-serif" font-size="353px" font-weight="400"><tspan class="TextPosition" x="2858" y="7758"><tspan fill="rgb(0,0,0)" stroke="none">200</tspan></tspan></tspan></text>
 <text class="TextShape"><tspan class="TextParagraph" font-family="Liberation Sans, sans-serif" font-size="353px" font-weight="400"><tspan class="TextPosition" x="4043" y="7758"><tspan fill="rgb(0,0,0)" stroke="none">300</tspan></tspan></tspan></text>
 <text class="TextShape"><tspan class="TextParagraph" font-family="Liberation Sans, sans-serif" font-size="353px" font-weight="400"><tspan class="TextPosition" x="5228" y="7758"><tspan fill="rgb(0,0,0)" stroke="none">400</tspan></tspan></tspan></text>
 <text class="TextShape"><tspan class="TextParagraph" font-family="Liberation Sans, sans-serif" font-size="353px" font-weight="400"><tspan class="TextPosition" x="6412" y="7758"><tspan fill="rgb(0,0,0)" stroke="none">500</tspan></tspan></tspan></text>
 <text class="TextShape"><tspan class="TextParagraph" font-family="Liberation Sans, sans-serif" font-size="353px" font-weight="400"><tspan class="TextPosition" x="7597" y="7758"><tspan fill="rgb(0,0,0)" stroke="none">600</tspan></tspan></tspan></text>
 <text class="TextShape"><tspan class="TextParagraph" font-family="Liberation Sans, sans-serif" font-size="353px" font-weight="400"><tspan class="TextPosition" x="8782" y="7758"><tspan fill="rgb(0,0,0)" stroke="none">700</tspan></tspan></tspan></text>
 <text class="TextShape"><tspan class="TextParagraph" font-family="Liberation Sans, sans-serif" font-size="353px" font-weight="400"><tspan class="TextPosition" x="9966" y="7758"><tspan fill="rgb(0,0,0)" stroke="none">800</tspan></tspan></tspan></text>
 <text class="TextShape"><tspan class="TextParagraph" font-family="Liberation Sans, sans-serif" font-size="353px" font-weight="400"><tspan class="TextPosition" x="11151" y="7758"><tspan fill="rgb(0,0,0)" stroke="none">900</tspan></tspan></tspan></text>
 <text class="TextShape"><tspan class="TextParagraph" font-family="Liberation Sans, sans-serif" font-size="353px" font-weight="400"><tspan class="TextPosition" x="12243" y="7758"><tspan fill="rgb(0,0,0)" stroke="none">1000</tspan></tspan></tspan></text>
 <text class="TextShape"><tspan class="TextParagraph" font-family="Liberation Sans, sans-serif" font-size="353px" font-weight="400"><tspan class="TextPosition" x="1517" y="7311"><tspan fill="rgb(0,0,0)" stroke="none">0</tspan></tspan></tspan></text>
 <text class="TextShape"><tspan class="TextParagraph" font-family="Liberation Sans, sans-serif" font-size="353px" font-weight="400"><tspan class="TextPosition" x="1332" y="6494"><tspan fill="rgb(0,0,0)" stroke="none">20</tspan></tspan></tspan></text>
 <text class="TextShape"><tspan class="TextParagraph" font-family="Liberation Sans, sans-serif" font-size="353px" font-weight="400"><tspan class="TextPosition" x="1332" y="5677"><tspan fill="rgb(0,0,0)" stroke="none">40</tspan></tspan></tspan></text>
 <text class="TextShape"><tspan class="TextParagraph" font-family="Liberation Sans, sans-serif" font-size="353px" font-weight="400"><tspan class="TextPosition" x="1332" y="4860"><tspan fill="rgb(0,0,0)" stroke="none">60</tspan></tspan></tspan></text>
 <text class="TextShape"><tspan class="TextParagraph" font-family="Liberation Sans, sans-serif" font-size="353px" font-weight="400"><tspan class="TextPosition" x="1332" y="4043"><tspan fill="rgb(0,0,0)" stroke="none">80</tspan></tspan></tspan></text>
 <text class="TextShape"><tspan class="TextParagraph" font-family="Liberation Sans, sans-serif" font-size="353px" font-weight="400"><tspan class="TextPosition" x="1146" y="3226"><tspan fill="rgb(0,0,0)" stroke="none">100</tspan></tspan></tspan></text>
 <text class="TextShape"><tspan class="TextParagraph" font-family="Liberation Sans, sans-serif" font-size="353px" font-weight="400"><tspan class="TextPosition" x="1146" y="2409"><tspan fill="rgb(0,0,0)" stroke="none">120</tspan></tspan></tspan></text>
 <text class="TextShape"><tspan class="TextParagraph" font-family="Liberation Sans, sans-serif" font-size="353px" font-weight="400"><tspan class="TextPosition" x="1146" y="1593"><tspan fill="rgb(0,0,0)" stroke="none">140</tspan></tspan></tspan></text>
 <text class="TextShape"><tspan class="TextParagraph" font-family="Liberation Sans, sans-serif" font-size="459px" font-weight="400"><tspan class="TextPosition" x="5671" y="851"><tspan fill="rgb(0,0,0)" stroke="none">Stock Apache vs NGINX</tspan></tspan></tspan></text>
 <path fill="none" stroke="rgb(0,69,134)" stroke-width="80" stroke-linejoin="round" d="M 13607,4250 L 14407,4250"/>
 <path fill="rgb(0,69,134)" stroke="none" d="M 13901,4145 L 13901,4356 14112,4356 14112,4145 13901,4145 Z"/>
 <path fill="none" stroke="rgb(0,69,134)" stroke-linejoin="round" d="M 13901,4145 L 13901,4356 14112,4356 14112,4145 13901,4145 Z"/>
 <path fill="none" stroke="rgb(255,66,14)" stroke-width="80" stroke-linejoin="round" d="M 13607,4747 L 14407,4747"/>
 <path fill="rgb(255,66,14)" stroke="none" d="M 13901,4747 L 14007,4853 14112,4747 14007,4642 13901,4747 Z"/>
 <path fill="none" stroke="rgb(255,66,14)" stroke-linejoin="round" d="M 13901,4747 L 14007,4853 14112,4747 14007,4642 13901,4747 Z"/>
 <text class="TextShape"><tspan class="TextParagraph" font-family="Liberation Sans, sans-serif" font-size="353px" font-weight="400"><tspan class="TextPosition" x="14507" y="4370"><tspan fill="rgb(0,0,0)" stroke="none">Apache</tspan></tspan></tspan></text>
 <text class="TextShape"><tspan class="TextParagraph" font-family="Liberation Sans, sans-serif" font-size="353px" font-weight="400"><tspan class="TextPosition" x="14507" y="4867"><tspan fill="rgb(0,0,0)" stroke="none">Nginx</tspan></tspan></tspan></text>
 <text class="TextShape"><tspan class="TextParagraph" font-family="Liberation Sans, sans-serif" font-size="318px" font-weight="400"><tspan class="TextPosition" x="5478" y="8405"><tspan fill="rgb(0,0,0)" stroke="none">Concurrent Connections</tspan></tspan></tspan></text>
 <text class="TextShape" transform="translate(837,6369) rotate(-90) translate(-837,-6369)"><tspan class="TextParagraph" font-family="Liberation Sans, sans-serif" font-size="318px" font-weight="400"><tspan class="TextPosition" x="837" y="6369"><tspan fill="rgb(0,0,0)" stroke="none">Transactions per Second</tspan></tspan></tspan></text>
</svg>