<?xml version="1.0" encoding="UTF-8"?>
<!DOCTYPE svg PUBLIC "-//W3C//DTD SVG 1.1//EN" "http://www.w3.org/Graphics/SVG/1.1/DTD/svg11.dtd">
<svg width="160mm" height="90mm" viewBox="0 0 16000 9000" version="1.1" xmlns="http://www.w3.org/2000/svg" stroke-width="28.222" stroke-linejoin="round" xml:space="preserve">
 <path fill="rgb(255,255,255)" stroke="none" d="M 7995,8999 L 0,8999 0,0 15989,0 15989,8999 7995,8999 Z"/>
 <path fill="none" stroke="rgb(179,179,179)" stroke-linejoin="round" d="M 7324,7191 L 1951,7191 1951,1474 12696,1474 12696,7191 7324,7191 Z"/>
 <path fill="none" stroke="rgb(179,179,179)" stroke-linejoin="round" d="M 12696,7190 L 1951,7190"/>
 <path fill="none" stroke="rgb(179,179,179)" stroke-linejoin="round" d="M 12696,6373 L 1951,6373"/>
 <path fill="none" stroke="rgb(179,179,179)" stroke-linejoin="round" d="M 12696,5556 L 1951,5556"/>
 <path fill="none" stroke="rgb(179,179,179)" stroke-linejoin="round" d="M 12696,4739 L 1951,4739"/>
 <path fill="none" stroke="rgb(179,179,179)" stroke-linejoin="round" d="M 12696,3923 L 1951,3923"/>
 <path fill="none" stroke="rgb(179,179,179)" stroke-linejoin="round" d="M 12696,3106 L 1951,3106"/>
 <path fill="none" stroke="rgb(179,179,179)" stroke-linejoin="round" d="M 12696,2289 L 1951,2289"/>
 <path fill="none" stroke="rgb(179,179,179)" stroke-linejoin="round" d="M 12696,1473 L 1951,1473"/>
 <path fill="none" stroke="rgb(179,179,179)" stroke-linejoin="round" d="M 1951,7340 L 1951,7190"/>
 <path fill="none" stroke="rgb(179,179,179)" stroke-linejoin="round" d="M 1951,7340 L 1951,7190"/>
 <path fill="none" stroke="rgb(179,179,179)" stroke-linejoin="round" d="M 3145,7340 L 3145,7190"/>
 <path fill="none" stroke="rgb(179,179,179)" stroke-linejoin="round" d="M 3145,7340 L 3145,7190"/>
 <path fill="none" stroke="rgb(179,179,179)" stroke-linejoin="round" d="M 4339,7340 L 4339,7190"/>
 <path fill="none" stroke="rgb(179,179,179)" stroke-linejoin="round" d="M 4339,7340 L 4339,7190"/>
 <path fill="none" stroke="rgb(179,179,179)" stroke-linejoin="round" d="M 5533,7340 L 5533,7190"/>
 <path fill="none" stroke="rgb(179,179,179)" stroke-linejoin="round" d="M 5533,7340 L 5533,7190"/>
 <path fill="none" stroke="rgb(179,179,179)" stroke-linejoin="round" d="M 6727,7340 L 6727,7190"/>
 <path fill="none" stroke="rgb(179,179,179)" stroke-linejoin="round" d="M 6727,7340 L 6727,7190"/>
 <path fill="none" stroke="rgb(179,179,179)" stroke-linejoin="round" d="M 7921,7340 L 7921,7190"/>
 <path fill="none" stroke="rgb(179,179,179)" stroke-linejoin="round" d="M 7921,7340 L 7921,7190"/>
 <path fill="none" stroke="rgb(179,179,179)" stroke-linejoin="round" d="M 9114,7340 L 9114,7190"/>
 <path fill="none" stroke="rgb(179,179,179)" stroke-linejoin="round" d="M 9114,7340 L 9114,7190"/>
 <path fill="none" stroke="rgb(179,179,179)" stroke-linejoin="round" d="M 10307,7340 L 10307,7190"/>
 <path fill="none" stroke="rgb(179,179,179)" stroke-linejoin="round" d="M 10307,7340 L 10307,7190"/>
 <path fill="none" stroke="rgb(179,179,179)" stroke-linejoin="round" d="M 11502,7340 L 11502,7190"/>
 <path fill="none" stroke="rgb(179,179,179)" stroke-linejoin="round" d="M 11502,7340 L 11502,7190"/>
 <path fill="none" stroke="rgb(179,179,179)" stroke-linejoin="round" d="M 12696,7340 L 12696,7190"/>
 <path fill="none" stroke="rgb(179,179,179)" stroke-linejoin="round" d="M 12696,7340 L 12696,7190"/>
 <path fill="none" stroke="rgb(179,179,179)" stroke-linejoin="round" d="M 1951,7190 L 12696,7190"/>
 <path fill="none" stroke="rgb(179,179,179)" stroke-linejoin="round" d="M 1801,7190 L 1951,7190"/>
 <path fill="none" stroke="rgb(179,179,179)" stroke-linejoin="round" d="M 1801,7190 L 1951,7190"/>
 <path fill="none" stroke="rgb(179,179,179)" stroke-linejoin="round" d="M 1801,6373 L 1951,6373"/>
 <path fill="none" stroke="rgb(179,179,179)" stroke-linejoin="round" d="M 1801,6373 L 1951,6373"/>
 <path fill="none" stroke="rgb(179,179,179)" stroke-linejoin="round" d="M 1801,5556 L 1951,5556"/>
 <path fill="none" stroke="rgb(179,179,179)" stroke-linejoin="round" d="M 1801,5556 L 1951,5556"/>
 <path fill="none" stroke="rgb(179,179,179)" stroke-linejoin="round" d="M 1801,4739 L 1951,4739"/>
 <path fill="none" stroke="rgb(179,179,179)" stroke-linejoin="round" d="M 1801,4739 L 1951,4739"/>
 <path fill="none" stroke="rgb(179,179,179)" stroke-linejoin="round" d="M 1801,3923 L 1951,3923"/>
 <path fill="none" stroke="rgb(179,179,179)" stroke-linejoin="round" d="M 1801,3923 L 1951,3923"/>
 <path fill="none" stroke="rgb(179,179,179)" stroke-linejoin="round" d="M 1801,3106 L 1951,3106"/>
 <path fill="none" stroke="rgb(179,179,179)" stroke-linejoin="round" d="M 1801,3106 L 1951,3106"/>
 <path fill="none" stroke="rgb(179,179,179)" stroke-linejoin="round" d="M 1801,2289 L 1951,2289"/>
 <path fill="none" stroke="rgb(179,179,179)" stroke-linejoin="round" d="M 1801,2289 L 1951,2289"/>
 <path fill="none" stroke="rgb(179,179,179)" stroke-linejoin="round" d="M 1801,1473 L 1951,1473"/>
 <path fill="none" stroke="rgb(179,179,179)" stroke-linejoin="round" d="M 1801,1473 L 1951,1473"/>
 <path fill="none" stroke="rgb(179,179,179)" stroke-linejoin="round" d="M 1951,7190 L 1951,1473"/>
 <path fill="none" stroke="rgb(0,69,134)" stroke-width="80" stroke-linejoin="round" d="M 1951,6425 L 3145,5668 4339,4956 5533,4222 6727,3611 7921,3046 9114,2669 10308,2412 11502,2353 12696,2401"/>
 <path fill="rgb(0,69,134)" stroke="none" d="M 1826,6300 L 1826,6550 2076,6550 2076,6300 1826,6300 Z"/>
 <path fill="none" stroke="rgb(0,69,134)" stroke-linejoin="round" d="M 1826,6300 L 1826,6550 2076,6550 2076,6300 1826,6300 Z"/>
 <path fill="rgb(0,69,134)" stroke="none" d="M 3020,5543 L 3020,5793 3270,5793 3270,5543 3020,5543 Z"/>
 <path fill="none" stroke="rgb(0,69,134)" stroke-linejoin="round" d="M 3020,5543 L 3020,5793 3270,5793 3270,5543 3020,5543 Z"/>
 <path fill="rgb(0,69,134)" stroke="none" d="M 4214,4831 L 4214,5081 4464,5081 4464,4831 4214,4831 Z"/>
 <path fill="none" stroke="rgb(0,69,134)" stroke-linejoin="round" d="M 4214,4831 L 4214,5081 4464,5081 4464,4831 4214,4831 Z"/>
 <path fill="rgb(0,69,134)" stroke="none" d="M 5408,4097 L 5408,4347 5658,4347 5658,4097 5408,4097 Z"/>
 <path fill="none" stroke="rgb(0,69,134)" stroke-linejoin="round" d="M 5408,4097 L 5408,4347 5658,4347 5658,4097 5408,4097 Z"/>
 <path fill="rgb(0,69,134)" stroke="none" d="M 6602,3486 L 6602,3736 6852,3736 6852,3486 6602,3486 Z"/>
 <path fill="none" stroke="rgb(0,69,134)" stroke-linejoin="round" d="M 6602,3486 L 6602,3736 6852,3736 6852,3486 6602,3486 Z"/>
 <path fill="rgb(0,69,134)" stroke="none" d="M 7796,2921 L 7796,3171 8045,3171 8045,2921 7796,2921 Z"/>
 <path fill="none" stroke="rgb(0,69,134)" stroke-linejoin="round" d="M 7796,2921 L 7796,3171 8045,3171 8045,2921 7796,2921 Z"/>
 <path fill="rgb(0,69,134)" stroke="none" d="M 8989,2544 L 8989,2794 9239,2794 9239,2544 8989,2544 Z"/>
 <path fill="none" stroke="rgb(0,69,134)" stroke-linejoin="round" d="M 8989,2544 L 8989,2794 9239,2794 9239,2544 8989,2544 Z"/>
 <path fill="rgb(0,69,134)" stroke="none" d="M 10183,2287 L 10183,2537 10433,2537 10433,2287 10183,2287 Z"/>
 <path fill="none" stroke="rgb(0,69,134)" stroke-linejoin="round" d="M 10183,2287 L 10183,2537 10433,2537 10433,2287 10183,2287 Z"/>
 <path fill="rgb(0,69,134)" stroke="none" d="M 11377,2228 L 11377,2478 11627,2478 11627,2228 11377,2228 Z"/>
 <path fill="none" stroke="rgb(0,69,134)" stroke-linejoin="round" d="M 11377,2228 L 11377,2478 11627,2478 11627,2228 11377,2228 Z"/>
 <path fill="rgb(0,69,134)" stroke="none" d="M 12571,2276 L 12571,2526 12821,2526 12821,2276 12571,2276 Z"/>
 <path fill="none" stroke="rgb(0,69,134)" stroke-linejoin="round" d="M 12571,2276 L 12571,2526 12821,2526 12821,2276 12571,2276 Z"/>
 <path fill="none" stroke="rgb(255,66,14)" stroke-width="80" stroke-linejoin="round" d="M 1951,6427 L 3145,5666 4339,4933 5533,4249 6727,3553 7921,3035 9114,2601 10308,2275 11502,2129 12696,2260"/>
 <path fill="rgb(255,66,14)" stroke="none" d="M 1826,6427 L 1951,6552 2076,6427 1951,6302 1826,6427 Z"/>
 <path fill="none" stroke="rgb(255,66,14)" stroke-linejoin="round" d="M 1826,6427 L 1951,6552 2076,6427 1951,6302 1826,6427 Z"/>
 <path fill="rgb(255,66,14)" stroke="none" d="M 3020,5666 L 3145,5791 3270,5666 3145,5541 3020,5666 Z"/>
 <path fill="none" stroke="rgb(255,66,14)" stroke-linejoin="round" d="M 3020,5666 L 3145,5791 3270,5666 3145,5541 3020,5666 Z"/>
 <path fill="rgb(255,66,14)" stroke="none" d="M 4214,4933 L 4339,5058 4464,4933 4339,4808 4214,4933 Z"/>
 <path fill="none" stroke="rgb(255,66,14)" stroke-linejoin="round" d="M 4214,4933 L 4339,5058 4464,4933 4339,4808 4214,4933 Z"/>
 <path fill="rgb(255,66,14)" stroke="none" d="M 5408,4249 L 5533,4374 5658,4249 5533,4124 5408,4249 Z"/>
 <path fill="none" stroke="rgb(255,66,14)" stroke-linejoin="round" d="M 5408,4249 L 5533,4374 5658,4249 5533,4124 5408,4249 Z"/>
 <path fill="rgb(255,66,14)" stroke="none" d="M 6602,3553 L 6727,3678 6852,3553 6727,3428 6602,3553 Z"/>
 <path fill="none" stroke="rgb(255,66,14)" stroke-linejoin="round" d="M 6602,3553 L 6727,3678 6852,3553 6727,3428 6602,3553 Z"/>
 <path fill="rgb(255,66,14)" stroke="none" d="M 7796,3035 L 7921,3160 8045,3035 7921,2910 7796,3035 Z"/>
 <path fill="none" stroke="rgb(255,66,14)" stroke-linejoin="round" d="M 7796,3035 L 7921,3160 8045,3035 7921,2910 7796,3035 Z"/>
 <path fill="rgb(255,66,14)" stroke="none" d="M 8989,2601 L 9114,2726 9239,2601 9114,2476 8989,2601 Z"/>
 <path fill="none" stroke="rgb(255,66,14)" stroke-linejoin="round" d="M 8989,2601 L 9114,2726 9239,2601 9114,2476 8989,2601 Z"/>
 <path fill="rgb(255,66,14)" stroke="none" d="M 10183,2275 L 10308,2400 10433,2275 10308,2150 10183,2275 Z"/>
 <path fill="none" stroke="rgb(255,66,14)" stroke-linejoin="round" d="M 10183,2275 L 10308,2400 10433,2275 10308,2150 10183,2275 Z"/>
 <path fill="rgb(255,66,14)" stroke="none" d="M 11377,2129 L 11502,2254 11627,2129 11502,2004 11377,2129 Z"/>
 <path fill="none" stroke="rgb(255,66,14)" stroke-linejoin="round" d="M 11377,2129 L 11502,2254 11627,2129 11502,2004 11377,2129 Z"/>
 <path fill="rgb(255,66,14)" stroke="none" d="M 12571,2260 L 12696,2385 12821,2260 12696,2135 12571,2260 Z"/>
 <path fill="none" stroke="rgb(255,66,14)" stroke-linejoin="round" d="M 12571,2260 L 12696,2385 12821,2260 12696,2135 12571,2260 Z"/>
 <text class="TextShape"><tspan class="TextParagraph" font-family="Liberation Sans" font-size="353px" font-weight="400"><tspan class="TextPosition" x="1766" y="7758"><tspan fill="rgb(0,0,0)" stroke="none">10</tspan></tspan></tspan></text>
 <text class="TextShape"><tspan class="TextParagraph" font-family="Liberation Sans" font-size="353px" font-weight="400"><tspan class="TextPosition" x="2960" y="7758"><tspan fill="rgb(0,0,0)" stroke="none">20</tspan></tspan></tspan></text>
 <text class="TextShape"><tspan class="TextParagraph" font-family="Liberation Sans" font-size="353px" font-weight="400"><tspan class="TextPosition" x="4154" y="7758"><tspan fill="rgb(0,0,0)" stroke="none">30</tspan></tspan></tspan></text>
 <text class="TextShape"><tspan class="TextParagraph" font-family="Liberation Sans" font-size="353px" font-weight="400"><tspan class="TextPosition" x="5348" y="7758"><tspan fill="rgb(0,0,0)" stroke="none">40</tspan></tspan></tspan></text>
 <text class="TextShape"><tspan class="TextParagraph" font-family="Liberation Sans" font-size="353px" font-weight="400"><tspan class="TextPosition" x="6542" y="7758"><tspan fill="rgb(0,0,0)" stroke="none">50</tspan></tspan></tspan></text>
 <text class="TextShape"><tspan class="TextParagraph" font-family="Liberation Sans" font-size="353px" font-weight="400"><tspan class="TextPosition" x="7736" y="7758"><tspan fill="rgb(0,0,0)" stroke="none">60</tspan></tspan></tspan></text>
 <text class="TextShape"><tspan class="TextParagraph" font-family="Liberation Sans" font-size="353px" font-weight="400"><tspan class="TextPosition" x="8930" y="7758"><tspan fill="rgb(0,0,0)" stroke="none">70</tspan></tspan></tspan></text>
 <text class="TextShape"><tspan class="TextParagraph" font-family="Liberation Sans" font-size="353px" font-weight="400"><tspan class="TextPosition" x="10123" y="7758"><tspan fill="rgb(0,0,0)" stroke="none">80</tspan></tspan></tspan></text>
 <text class="TextShape"><tspan class="TextParagraph" font-family="Liberation Sans" font-size="353px" font-weight="400"><tspan class="TextPosition" x="11318" y="7758"><tspan fill="rgb(0,0,0)" stroke="none">90</tspan></tspan></tspan></text>
 <text class="TextShape"><tspan class="TextParagraph" font-family="Liberation Sans" font-size="353px" font-weight="400"><tspan class="TextPosition" x="12419" y="7758"><tspan fill="rgb(0,0,0)" stroke="none">100</tspan></tspan></tspan></text>
 <text class="TextShape"><tspan class="TextParagraph" font-family="Liberation Sans" font-size="353px" font-weight="400"><tspan class="TextPosition" x="1516" y="7311"><tspan fill="rgb(0,0,0)" stroke="none">0</tspan></tspan></tspan></text>
 <text class="TextShape"><tspan class="TextParagraph" font-family="Liberation Sans" font-size="353px" font-weight="400"><tspan class="TextPosition" x="1331" y="6494"><tspan fill="rgb(0,0,0)" stroke="none">20</tspan></tspan></tspan></text>
 <text class="TextShape"><tspan class="TextParagraph" font-family="Liberation Sans" font-size="353px" font-weight="400"><tspan class="TextPosition" x="1331" y="5677"><tspan fill="rgb(0,0,0)" stroke="none">40</tspan></tspan></tspan></text>
 <text class="TextShape"><tspan class="TextParagraph" font-family="Liberation Sans" font-size="353px" font-weight="400"><tspan class="TextPosition" x="1331" y="4860"><tspan fill="rgb(0,0,0)" stroke="none">60</tspan></tspan></tspan></text>
 <text class="TextShape"><tspan class="TextParagraph" font-family="Liberation Sans" font-size="353px" font-weight="400"><tspan class="TextPosition" x="1331" y="4043"><tspan fill="rgb(0,0,0)" stroke="none">80</tspan></tspan></tspan></text>
 <text class="TextShape"><tspan class="TextParagraph" font-family="Liberation Sans" font-size="353px" font-weight="400"><tspan class="TextPosition" x="1145" y="3226"><tspan fill="rgb(0,0,0)" stroke="none">100</tspan></tspan></tspan></text>
 <text class="TextShape"><tspan class="TextParagraph" font-family="Liberation Sans" font-size="353px" font-weight="400"><tspan class="TextPosition" x="1145" y="2409"><tspan fill="rgb(0,0,0)" stroke="none">120</tspan></tspan></tspan></text>
 <text class="TextShape"><tspan class="TextParagraph" font-family="Liberation Sans" font-size="353px" font-weight="400"><tspan class="TextPosition" x="1145" y="1593"><tspan fill="rgb(0,0,0)" stroke="none">140</tspan></tspan></tspan></text>
 <text class="TextShape"><tspan class="TextParagraph" font-family="Liberation Sans" font-size="459px" font-weight="400"><tspan class="TextPosition" x="5759" y="851"><tspan fill="rgb(0,0,0)" stroke="none">Tuned Apache vs Nginx</tspan></tspan></tspan></text>
 <path fill="none" stroke="rgb(0,69,134)" stroke-width="80" stroke-linejoin="round" d="M 13597,4250 L 14397,4250"/>
 <path fill="rgb(0,69,134)" stroke="none" d="M 13891,4145 L 13891,4356 14102,4356 14102,4145 13891,4145 Z"/>
 <path fill="none" stroke="rgb(0,69,134)" stroke-linejoin="round" d="M 13891,4145 L 13891,4356 14102,4356 14102,4145 13891,4145 Z"/>
 <path fill="none" stroke="rgb(255,66,14)" stroke-width="80" stroke-linejoin="round" d="M 13597,4747 L 14397,4747"/>
 <path fill="rgb(255,66,14)" stroke="none" d="M 13891,4747 L 13997,4853 14102,4747 13997,4642 13891,4747 Z"/>
 <path fill="none" stroke="rgb(255,66,14)" stroke-linejoin="round" d="M 13891,4747 L 13997,4853 14102,4747 13997,4642 13891,4747 Z"/>
 <text class="TextShape"><tspan class="TextParagraph" font-family="Liberation Sans" font-size="353px" font-weight="400"><tspan class="TextPosition" x="14497" y="4370"><tspan fill="rgb(0,0,0)" stroke="none">Apache</tspan></tspan></tspan></text>
 <text class="TextShape"><tspan class="TextParagraph" font-family="Liberation Sans" font-size="353px" font-weight="400"><tspan class="TextPosition" x="14497" y="4867"><tspan fill="rgb(0,0,0)" stroke="none">NGINX</tspan></tspan></tspan></text>
 <text class="TextShape"><tspan class="TextParagraph" font-family="Liberation Sans" font-size="318px" font-weight="400"><tspan class="TextPosition" x="5473" y="8405"><tspan fill="rgb(0,0,0)" stroke="none">Concurrent Connections</tspan></tspan></tspan></text>
 <text class="TextShape" transform="translate(837,6369) rotate(-90) translate(-837,-6369)"><tspan class="TextParagraph" font-family="Liberation Sans" font-size="318px" font-weight="400"><tspan class="TextPosition" x="837" y="6369"><tspan fill="rgb(0,0,0)" stroke="none">Transactions per Second</tspan></tspan></tspan></text>
</svg>