<?xml version="1.0" encoding="UTF-8"?>
<!DOCTYPE svg PUBLIC "-//W3C//DTD SVG 1.1//EN" "http://www.w3.org/Graphics/SVG/1.1/DTD/svg11.dtd">
<svg width="160mm" height="90mm" viewBox="0 0 16000 9000" version="1.1" xmlns="http://www.w3.org/2000/svg" stroke-width="28.222" stroke-linejoin="round" xml:space="preserve">
 <path fill="rgb(255,255,255)" stroke="none" d="M 7995,8999 L 0,8999 0,0 15990,0 15990,8999 7995,8999 Z"/>
 <path fill="none" stroke="rgb(179,179,179)" stroke-linejoin="round" d="M 7464,7192 L 2137,7192 2137,1475 12791,1475 12791,7192 7464,7192 Z"/>
 <path fill="none" stroke="rgb(179,179,179)" stroke-linejoin="round" d="M 12790,7191 L 2137,7191"/>
 <path fill="none" stroke="rgb(179,179,179)" stroke-linejoin="round" d="M 12790,6619 L 2137,6619"/>
 <path fill="none" stroke="rgb(179,179,179)" stroke-linejoin="round" d="M 12790,6047 L 2137,6047"/>
 <path fill="none" stroke="rgb(179,179,179)" stroke-linejoin="round" d="M 12790,5475 L 2137,5475"/>
 <path fill="none" stroke="rgb(179,179,179)" stroke-linejoin="round" d="M 12790,4903 L 2137,4903"/>
 <path fill="none" stroke="rgb(179,179,179)" stroke-linejoin="round" d="M 12790,4333 L 2137,4333"/>
 <path fill="none" stroke="rgb(179,179,179)" stroke-linejoin="round" d="M 12790,3761 L 2137,3761"/>
 <path fill="none" stroke="rgb(179,179,179)" stroke-linejoin="round" d="M 12790,3189 L 2137,3189"/>
 <path fill="none" stroke="rgb(179,179,179)" stroke-linejoin="round" d="M 12790,2617 L 2137,2617"/>
 <path fill="none" stroke="rgb(179,179,179)" stroke-linejoin="round" d="M 12790,2045 L 2137,2045"/>
 <path fill="none" stroke="rgb(179,179,179)" stroke-linejoin="round" d="M 12790,1474 L 2137,1474"/>
 <path fill="none" stroke="rgb(179,179,179)" stroke-linejoin="round" d="M 2137,7341 L 2137,7191"/>
 <path fill="none" stroke="rgb(179,179,179)" stroke-linejoin="round" d="M 2137,7341 L 2137,7191"/>
 <path fill="none" stroke="rgb(179,179,179)" stroke-linejoin="round" d="M 3320,7341 L 3320,7191"/>
 <path fill="none" stroke="rgb(179,179,179)" stroke-linejoin="round" d="M 3320,7341 L 3320,7191"/>
 <path fill="none" stroke="rgb(179,179,179)" stroke-linejoin="round" d="M 4504,7341 L 4504,7191"/>
 <path fill="none" stroke="rgb(179,179,179)" stroke-linejoin="round" d="M 4504,7341 L 4504,7191"/>
 <path fill="none" stroke="rgb(179,179,179)" stroke-linejoin="round" d="M 5688,7341 L 5688,7191"/>
 <path fill="none" stroke="rgb(179,179,179)" stroke-linejoin="round" d="M 5688,7341 L 5688,7191"/>
 <path fill="none" stroke="rgb(179,179,179)" stroke-linejoin="round" d="M 6872,7341 L 6872,7191"/>
 <path fill="none" stroke="rgb(179,179,179)" stroke-linejoin="round" d="M 6872,7341 L 6872,7191"/>
 <path fill="none" stroke="rgb(179,179,179)" stroke-linejoin="round" d="M 8055,7341 L 8055,7191"/>
 <path fill="none" stroke="rgb(179,179,179)" stroke-linejoin="round" d="M 8055,7341 L 8055,7191"/>
 <path fill="none" stroke="rgb(179,179,179)" stroke-linejoin="round" d="M 9239,7341 L 9239,7191"/>
 <path fill="none" stroke="rgb(179,179,179)" stroke-linejoin="round" d="M 9239,7341 L 9239,7191"/>
 <path fill="none" stroke="rgb(179,179,179)" stroke-linejoin="round" d="M 10423,7341 L 10423,7191"/>
 <path fill="none" stroke="rgb(179,179,179)" stroke-linejoin="round" d="M 10423,7341 L 10423,7191"/>
 <path fill="none" stroke="rgb(179,179,179)" stroke-linejoin="round" d="M 11607,7341 L 11607,7191"/>
 <path fill="none" stroke="rgb(179,179,179)" stroke-linejoin="round" d="M 11607,7341 L 11607,7191"/>
 <path fill="none" stroke="rgb(179,179,179)" stroke-linejoin="round" d="M 12790,7341 L 12790,7191"/>
 <path fill="none" stroke="rgb(179,179,179)" stroke-linejoin="round" d="M 12790,7341 L 12790,7191"/>
 <path fill="none" stroke="rgb(179,179,179)" stroke-linejoin="round" d="M 2137,7191 L 12790,7191"/>
 <path fill="none" stroke="rgb(179,179,179)" stroke-linejoin="round" d="M 1987,7191 L 2137,7191"/>
 <path fill="none" stroke="rgb(179,179,179)" stroke-linejoin="round" d="M 1987,7191 L 2137,7191"/>
 <path fill="none" stroke="rgb(179,179,179)" stroke-linejoin="round" d="M 1987,6619 L 2137,6619"/>
 <path fill="none" stroke="rgb(179,179,179)" stroke-linejoin="round" d="M 1987,6619 L 2137,6619"/>
 <path fill="none" stroke="rgb(179,179,179)" stroke-linejoin="round" d="M 1987,6047 L 2137,6047"/>
 <path fill="none" stroke="rgb(179,179,179)" stroke-linejoin="round" d="M 1987,6047 L 2137,6047"/>
 <path fill="none" stroke="rgb(179,179,179)" stroke-linejoin="round" d="M 1987,5475 L 2137,5475"/>
 <path fill="none" stroke="rgb(179,179,179)" stroke-linejoin="round" d="M 1987,5475 L 2137,5475"/>
 <path fill="none" stroke="rgb(179,179,179)" stroke-linejoin="round" d="M 1987,4903 L 2137,4903"/>
 <path fill="none" stroke="rgb(179,179,179)" stroke-linejoin="round" d="M 1987,4903 L 2137,4903"/>
 <path fill="none" stroke="rgb(179,179,179)" stroke-linejoin="round" d="M 1987,4333 L 2137,4333"/>
 <path fill="none" stroke="rgb(179,179,179)" stroke-linejoin="round" d="M 1987,4333 L 2137,4333"/>
 <path fill="none" stroke="rgb(179,179,179)" stroke-linejoin="round" d="M 1987,3761 L 2137,3761"/>
 <path fill="none" stroke="rgb(179,179,179)" stroke-linejoin="round" d="M 1987,3761 L 2137,3761"/>
 <path fill="none" stroke="rgb(179,179,179)" stroke-linejoin="round" d="M 1987,3189 L 2137,3189"/>
 <path fill="none" stroke="rgb(179,179,179)" stroke-linejoin="round" d="M 1987,3189 L 2137,3189"/>
 <path fill="none" stroke="rgb(179,179,179)" stroke-linejoin="round" d="M 1987,2617 L 2137,2617"/>
 <path fill="none" stroke="rgb(179,179,179)" stroke-linejoin="round" d="M 1987,2617 L 2137,2617"/>
 <path fill="none" stroke="rgb(179,179,179)" stroke-linejoin="round" d="M 1987,2045 L 2137,2045"/>
 <path fill="none" stroke="rgb(179,179,179)" stroke-linejoin="round" d="M 1987,2045 L 2137,2045"/>
 <path fill="none" stroke="rgb(179,179,179)" stroke-linejoin="round" d="M 1987,1474 L 2137,1474"/>
 <path fill="none" stroke="rgb(179,179,179)" stroke-linejoin="round" d="M 1987,1474 L 2137,1474"/>
 <path fill="none" stroke="rgb(179,179,179)" stroke-linejoin="round" d="M 2137,7191 L 2137,1474"/>
 <path fill="none" stroke="rgb(0,69,134)" stroke-width="80" stroke-linejoin="round" d="M 2137,3029 L 3320,4600 4504,4849 5688,4889 6872,4715 8055,4210 9239,4315 10423,4695 11607,5232 12790,4632"/>
 <path fill="rgb(0,69,134)" stroke="none" d="M 2012,2904 L 2012,3154 2262,3154 2262,2904 2012,2904 Z"/>
 <path fill="none" stroke="rgb(0,69,134)" stroke-linejoin="round" d="M 2012,2904 L 2012,3154 2262,3154 2262,2904 2012,2904 Z"/>
 <path fill="rgb(0,69,134)" stroke="none" d="M 3195,4476 L 3195,4725 3445,4725 3445,4476 3195,4476 Z"/>
 <path fill="none" stroke="rgb(0,69,134)" stroke-linejoin="round" d="M 3195,4476 L 3195,4725 3445,4725 3445,4476 3195,4476 Z"/>
 <path fill="rgb(0,69,134)" stroke="none" d="M 4379,4724 L 4379,4974 4629,4974 4629,4724 4379,4724 Z"/>
 <path fill="none" stroke="rgb(0,69,134)" stroke-linejoin="round" d="M 4379,4724 L 4379,4974 4629,4974 4629,4724 4379,4724 Z"/>
 <path fill="rgb(0,69,134)" stroke="none" d="M 5563,4764 L 5563,5014 5813,5014 5813,4764 5563,4764 Z"/>
 <path fill="none" stroke="rgb(0,69,134)" stroke-linejoin="round" d="M 5563,4764 L 5563,5014 5813,5014 5813,4764 5563,4764 Z"/>
 <path fill="rgb(0,69,134)" stroke="none" d="M 6747,4590 L 6747,4840 6997,4840 6997,4590 6747,4590 Z"/>
 <path fill="none" stroke="rgb(0,69,134)" stroke-linejoin="round" d="M 6747,4590 L 6747,4840 6997,4840 6997,4590 6747,4590 Z"/>
 <path fill="rgb(0,69,134)" stroke="none" d="M 7931,4085 L 7931,4335 8180,4335 8180,4085 7931,4085 Z"/>
 <path fill="none" stroke="rgb(0,69,134)" stroke-linejoin="round" d="M 7931,4085 L 7931,4335 8180,4335 8180,4085 7931,4085 Z"/>
 <path fill="rgb(0,69,134)" stroke="none" d="M 9114,4190 L 9114,4440 9364,4440 9364,4190 9114,4190 Z"/>
 <path fill="none" stroke="rgb(0,69,134)" stroke-linejoin="round" d="M 9114,4190 L 9114,4440 9364,4440 9364,4190 9114,4190 Z"/>
 <path fill="rgb(0,69,134)" stroke="none" d="M 10298,4570 L 10298,4820 10548,4820 10548,4570 10298,4570 Z"/>
 <path fill="none" stroke="rgb(0,69,134)" stroke-linejoin="round" d="M 10298,4570 L 10298,4820 10548,4820 10548,4570 10298,4570 Z"/>
 <path fill="rgb(0,69,134)" stroke="none" d="M 11482,5107 L 11482,5357 11732,5357 11732,5107 11482,5107 Z"/>
 <path fill="none" stroke="rgb(0,69,134)" stroke-linejoin="round" d="M 11482,5107 L 11482,5357 11732,5357 11732,5107 11482,5107 Z"/>
 <path fill="rgb(0,69,134)" stroke="none" d="M 12665,4507 L 12665,4757 12915,4757 12915,4507 12665,4507 Z"/>
 <path fill="none" stroke="rgb(0,69,134)" stroke-linejoin="round" d="M 12665,4507 L 12665,4757 12915,4757 12915,4507 12665,4507 Z"/>
 <path fill="none" stroke="rgb(255,66,14)" stroke-width="80" stroke-linejoin="round" d="M 2137,2586 L 3320,3781 4504,2997 5688,2860 6872,2606 8055,2368 9239,2171 10423,3097 11607,2488 12790,1748"/>
 <path fill="rgb(255,66,14)" stroke="none" d="M 2012,2586 L 2137,2711 2262,2586 2137,2461 2012,2586 Z"/>
 <path fill="none" stroke="rgb(255,66,14)" stroke-linejoin="round" d="M 2012,2586 L 2137,2711 2262,2586 2137,2461 2012,2586 Z"/>
 <path fill="rgb(255,66,14)" stroke="none" d="M 3195,3781 L 3320,3906 3445,3781 3320,3656 3195,3781 Z"/>
 <path fill="none" stroke="rgb(255,66,14)" stroke-linejoin="round" d="M 3195,3781 L 3320,3906 3445,3781 3320,3656 3195,3781 Z"/>
 <path fill="rgb(255,66,14)" stroke="none" d="M 4379,2997 L 4504,3122 4629,2997 4504,2872 4379,2997 Z"/>
 <path fill="none" stroke="rgb(255,66,14)" stroke-linejoin="round" d="M 4379,2997 L 4504,3122 4629,2997 4504,2872 4379,2997 Z"/>
 <path fill="rgb(255,66,14)" stroke="none" d="M 5563,2860 L 5688,2985 5813,2860 5688,2735 5563,2860 Z"/>
 <path fill="none" stroke="rgb(255,66,14)" stroke-linejoin="round" d="M 5563,2860 L 5688,2985 5813,2860 5688,2735 5563,2860 Z"/>
 <path fill="rgb(255,66,14)" stroke="none" d="M 6747,2606 L 6872,2731 6997,2606 6872,2481 6747,2606 Z"/>
 <path fill="none" stroke="rgb(255,66,14)" stroke-linejoin="round" d="M 6747,2606 L 6872,2731 6997,2606 6872,2481 6747,2606 Z"/>
 <path fill="rgb(255,66,14)" stroke="none" d="M 7931,2368 L 8055,2493 8180,2368 8055,2243 7931,2368 Z"/>
 <path fill="none" stroke="rgb(255,66,14)" stroke-linejoin="round" d="M 7931,2368 L 8055,2493 8180,2368 8055,2243 7931,2368 Z"/>
 <path fill="rgb(255,66,14)" stroke="none" d="M 9114,2171 L 9239,2296 9364,2171 9239,2046 9114,2171 Z"/>
 <path fill="none" stroke="rgb(255,66,14)" stroke-linejoin="round" d="M 9114,2171 L 9239,2296 9364,2171 9239,2046 9114,2171 Z"/>
 <path fill="rgb(255,66,14)" stroke="none" d="M 10298,3097 L 10423,3222 10548,3097 10423,2972 10298,3097 Z"/>
 <path fill="none" stroke="rgb(255,66,14)" stroke-linejoin="round" d="M 10298,3097 L 10423,3222 10548,3097 10423,2972 10298,3097 Z"/>
 <path fill="rgb(255,66,14)" stroke="none" d="M 11482,2488 L 11607,2613 11732,2488 11607,2363 11482,2488 Z"/>
 <path fill="none" stroke="rgb(255,66,14)" stroke-linejoin="round" d="M 11482,2488 L 11607,2613 11732,2488 11607,2363 11482,2488 Z"/>
 <path fill="rgb(255,66,14)" stroke="none" d="M 12665,1748 L 12790,1873 12915,1748 12790,1623 12665,1748 Z"/>
 <path fill="none" stroke="rgb(255,66,14)" stroke-linejoin="round" d="M 12665,1748 L 12790,1873 12915,1748 12790,1623 12665,1748 Z"/>
 <text class="TextShape"><tspan class="TextParagraph" font-family="Liberation Sans" font-size="353px" font-weight="400"><tspan class="TextPosition" x="1859" y="7759"><tspan fill="rgb(0,0,0)" stroke="none">100</tspan></tspan></tspan></text>
 <text class="TextShape"><tspan class="TextParagraph" font-family="Liberation Sans" font-size="353px" font-weight="400"><tspan class="TextPosition" x="3042" y="7759"><tspan fill="rgb(0,0,0)" stroke="none">200</tspan></tspan></tspan></text>
 <text class="TextShape"><tspan class="TextParagraph" font-family="Liberation Sans" font-size="353px" font-weight="400"><tspan class="TextPosition" x="4226" y="7759"><tspan fill="rgb(0,0,0)" stroke="none">300</tspan></tspan></tspan></text>
 <text class="TextShape"><tspan class="TextParagraph" font-family="Liberation Sans" font-size="353px" font-weight="400"><tspan class="TextPosition" x="5410" y="7759"><tspan fill="rgb(0,0,0)" stroke="none">400</tspan></tspan></tspan></text>
 <text class="TextShape"><tspan class="TextParagraph" font-family="Liberation Sans" font-size="353px" font-weight="400"><tspan class="TextPosition" x="6594" y="7759"><tspan fill="rgb(0,0,0)" stroke="none">500</tspan></tspan></tspan></text>
 <text class="TextShape"><tspan class="TextParagraph" font-family="Liberation Sans" font-size="353px" font-weight="400"><tspan class="TextPosition" x="7778" y="7759"><tspan fill="rgb(0,0,0)" stroke="none">600</tspan></tspan></tspan></text>
 <text class="TextShape"><tspan class="TextParagraph" font-family="Liberation Sans" font-size="353px" font-weight="400"><tspan class="TextPosition" x="8962" y="7759"><tspan fill="rgb(0,0,0)" stroke="none">700</tspan></tspan></tspan></text>
 <text class="TextShape"><tspan class="TextParagraph" font-family="Liberation Sans" font-size="353px" font-weight="400"><tspan class="TextPosition" x="10146" y="7759"><tspan fill="rgb(0,0,0)" stroke="none">800</tspan></tspan></tspan></text>
 <text class="TextShape"><tspan class="TextParagraph" font-family="Liberation Sans" font-size="353px" font-weight="400"><tspan class="TextPosition" x="11330" y="7759"><tspan fill="rgb(0,0,0)" stroke="none">900</tspan></tspan></tspan></text>
 <text class="TextShape"><tspan class="TextParagraph" font-family="Liberation Sans" font-size="353px" font-weight="400"><tspan class="TextPosition" x="12420" y="7759"><tspan fill="rgb(0,0,0)" stroke="none">1000</tspan></tspan></tspan></text>
 <text class="TextShape"><tspan class="TextParagraph" font-family="Liberation Sans" font-size="353px" font-weight="400"><tspan class="TextPosition" x="1331" y="7312"><tspan fill="rgb(0,0,0)" stroke="none">102</tspan></tspan></tspan></text>
 <text class="TextShape"><tspan class="TextParagraph" font-family="Liberation Sans" font-size="353px" font-weight="400"><tspan class="TextPosition" x="1331" y="6740"><tspan fill="rgb(0,0,0)" stroke="none">104</tspan></tspan></tspan></text>
 <text class="TextShape"><tspan class="TextParagraph" font-family="Liberation Sans" font-size="353px" font-weight="400"><tspan class="TextPosition" x="1331" y="6168"><tspan fill="rgb(0,0,0)" stroke="none">106</tspan></tspan></tspan></text>
 <text class="TextShape"><tspan class="TextParagraph" font-family="Liberation Sans" font-size="353px" font-weight="400"><tspan class="TextPosition" x="1331" y="5596"><tspan fill="rgb(0,0,0)" stroke="none">108</tspan></tspan></tspan></text>
 <text class="TextShape"><tspan class="TextParagraph" font-family="Liberation Sans" font-size="353px" font-weight="400"><tspan class="TextPosition" x="1331" y="5024"><tspan fill="rgb(0,0,0)" stroke="none">110</tspan></tspan></tspan></text>
 <text class="TextShape"><tspan class="TextParagraph" font-family="Liberation Sans" font-size="353px" font-weight="400"><tspan class="TextPosition" x="1331" y="4453"><tspan fill="rgb(0,0,0)" stroke="none">112</tspan></tspan></tspan></text>
 <text class="TextShape"><tspan class="TextParagraph" font-family="Liberation Sans" font-size="353px" font-weight="400"><tspan class="TextPosition" x="1331" y="3881"><tspan fill="rgb(0,0,0)" stroke="none">114</tspan></tspan></tspan></text>
 <text class="TextShape"><tspan class="TextParagraph" font-family="Liberation Sans" font-size="353px" font-weight="400"><tspan class="TextPosition" x="1331" y="3309"><tspan fill="rgb(0,0,0)" stroke="none">116</tspan></tspan></tspan></text>
 <text class="TextShape"><tspan class="TextParagraph" font-family="Liberation Sans" font-size="353px" font-weight="400"><tspan class="TextPosition" x="1331" y="2737"><tspan fill="rgb(0,0,0)" stroke="none">118</tspan></tspan></tspan></text>
 <text class="TextShape"><tspan class="TextParagraph" font-family="Liberation Sans" font-size="353px" font-weight="400"><tspan class="TextPosition" x="1331" y="2165"><tspan fill="rgb(0,0,0)" stroke="none">120</tspan></tspan></tspan></text>
 <text class="TextShape"><tspan class="TextParagraph" font-family="Liberation Sans" font-size="353px" font-weight="400"><tspan class="TextPosition" x="1331" y="1594"><tspan fill="rgb(0,0,0)" stroke="none">122</tspan></tspan></tspan></text>
 <text class="TextShape"><tspan class="TextParagraph" font-family="Liberation Sans" font-size="459px" font-weight="400"><tspan class="TextPosition" x="5627" y="851"><tspan fill="rgb(0,0,0)" stroke="none">Tuned Apache vs NGINX</tspan></tspan></tspan></text>
 <path fill="none" stroke="rgb(0,69,134)" stroke-width="80" stroke-linejoin="round" d="M 13598,4250 L 14398,4250"/>
 <path fill="rgb(0,69,134)" stroke="none" d="M 13892,4145 L 13892,4356 14103,4356 14103,4145 13892,4145 Z"/>
 <path fill="none" stroke="rgb(0,69,134)" stroke-linejoin="round" d="M 13892,4145 L 13892,4356 14103,4356 14103,4145 13892,4145 Z"/>
 <path fill="none" stroke="rgb(255,66,14)" stroke-width="80" stroke-linejoin="round" d="M 13598,4747 L 14398,4747"/>
 <path fill="rgb(255,66,14)" stroke="none" d="M 13892,4747 L 13998,4853 14103,4747 13998,4642 13892,4747 Z"/>
 <path fill="none" stroke="rgb(255,66,14)" stroke-linejoin="round" d="M 13892,4747 L 13998,4853 14103,4747 13998,4642 13892,4747 Z"/>
 <text class="TextShape"><tspan class="TextParagraph" font-family="Liberation Sans" font-size="353px" font-weight="400"><tspan class="TextPosition" x="14498" y="4370"><tspan fill="rgb(0,0,0)" stroke="none">Apache</tspan></tspan></tspan></text>
 <text class="TextShape"><tspan class="TextParagraph" font-family="Liberation Sans" font-size="353px" font-weight="400"><tspan class="TextPosition" x="14498" y="4867"><tspan fill="rgb(0,0,0)" stroke="none">NGINX</tspan></tspan></tspan></text>
 <text class="TextShape"><tspan class="TextParagraph" font-family="Liberation Sans" font-size="318px" font-weight="400"><tspan class="TextPosition" x="5474" y="8405"><tspan fill="rgb(0,0,0)" stroke="none">Concurrent Connections</tspan></tspan></tspan></text>
 <text class="TextShape" transform="translate(837,6369) rotate(-90) translate(-837,-6369)"><tspan class="TextParagraph" font-family="Liberation Sans" font-size="318px" font-weight="400"><tspan class="TextPosition" x="837" y="6369"><tspan fill="rgb(0,0,0)" stroke="none">Transactions per Second</tspan></tspan></tspan></text>
</svg>