<?xml version="1.0" encoding="utf-8"?><!DOCTYPE svg PUBLIC "-//W3C//DTD SVG 1.1//EN" "http://www.w3.org/Graphics/SVG/1.1/DTD/svg11.dtd"><svg xmlns="http://www.w3.org/2000/svg" xmlns:xlink="http://www.w3.org/1999/xlink"><symbol viewBox="0 0 1573.1 314.9" id="Rackspace_Logo_wt" xmlns="http://www.w3.org/2000/svg"><path d="M802.3 190c0 17.7-5.9 32.4-17.5 44-15.4 15.3-40.5 23.7-70.6 23.5-21.6-.4-43.5-5.6-55.8-13.2l8.2-43.3c13.1 7.4 36 15 53 15 14.1 0 23.5-6.5 23.5-16.9 0-9.4-6.7-16-23.7-24.3-26.9-13.4-40.3-30.5-40.3-50.6 0-39.5 33.7-66.2 84.2-66.2 26.7 0 44.1 6.3 53.8 12.5l-8.2 43.2c-7.6-5.7-27.1-13.8-48.3-13.8-14.7 0-24.3 6.2-24.3 16.5 0 7.4 7.3 14 22.9 21.6 20.2 10 43.1 25 43.1 52zm770.7 40.2c1.2-13.2-8.5-23.9-21.7-23.9s-24.8 10.7-26 23.9c-1.3 12.1 7.6 23.8 21.7 23.8 13.2.1 24.8-10.6 26-23.8zm-3.4-.3c-1 11.4-11.2 20.7-22.6 20.7-11.2 0-19.3-9-18.3-20.1 1-11.3 11.1-20.7 22.6-20.7 11.1 0 19.3 9 18.3 20.1zm-16.5 3.2l3.8 11.1h-3.7l-3.7-10.8h-5.3l-2 10.8h-3.5l5.3-28.1h9.2c4.2 0 7.4 3.1 7.5 7.1.1 3.7-2.5 8.5-7.6 9.9zm.1-13.6h-6.4l-2 10.5h5.8c3.1 0 5.8-2.4 6.6-5.6.6-2.5-1.4-4.9-4-4.9zm-103.2-6.3c23.8 0 44.3-5.8 66.7-18.8l-9.1 47.8c-27.1 13.8-58.9 15.3-71.3 15.3-52.8 0-83-29.4-83-80.7 0-29.6 10.9-59.2 29.8-81.3 20.3-24 50.3-37.8 81.7-37.6 40 0 66.6 23.2 66.6 57.7 0 15.9-5.2 29-15.4 39-19.1 18.6-66.1 29-109 20.6-1.9 24 16.3 38 43 38zm-36.7-75c33.3.3 52.1-3.1 60.3-11.2 8.9-8.8 6.1-27.7-15.8-27.7-24.5.1-40.2 20.2-44.5 38.9zm-222.8 8.2L1170 253.5h-54.2l7-36.9c-7.6 23-26.1 41.2-57.2 41.2-37.7 0-54.8-33.5-54.8-67 0-38.1 14.9-75.8 40-100.9 21-21 48.1-32.1 78.4-32.1 53.4.2 71.1 36.3 61.3 88.6zm-52.3-24.7c-.7-13.5-7.7-20.8-20.3-20.8-26.7 0-49.9 46.1-49.8 78.2 0 20 7.4 32.5 20.3 32.5 20.7 0 38.5-21.6 44.6-53.2 2.1-10.8 5.6-28.3 5.2-36.7zM318 146.4l-20.5 107.2h-54.2l7-36.9c-7.6 23-26.1 41.2-57.2 41.2-37.7 0-54.8-33.5-54.8-67 0-38.1 14.9-75.8 40-100.9 21-21 48.1-32.1 78.4-32.1 53.4.1 71.1 36.2 61.3 88.5zm-52.2-24.7c-.7-13.5-7.7-20.8-20.3-20.8-26.7 0-49.9 46.1-49.8 78.2 0 20 7.4 32.5 20.4 32.5 20.7 0 38.5-21.6 44.6-53.2 1.9-10.8 5.4-28.3 5.1-36.7zm741.2 9c0 46.6-22.4 94.3-62.7 115.8-14.8 7.9-29 11.2-41.3 11.3-20.2 0-31.5-7.5-37.9-19.2l-14.4 76.2h-56.8l48.2-253.6h50L886.3 92c14.1-20.6 35.1-34.3 58.7-34.3 37.6.1 62 28.6 62 73zm-59.1 4.3c0-9-2.1-30.9-22.9-30.9-21.2 0-39 24.1-45.9 60.6-2.4 12.5-9 50 17.1 50 29.8 0 51.7-42.3 51.7-79.7zM79.1 104l8.1-42.6h-50L0 256.9h56.8l15.3-80.6c9-47.5 36.3-66.6 75.1-60.7l11.1-58.3C124.7 54.2 92.7 73 79.1 104zm455.5 149.5l19.6-102.9 40.3 102.9h61.1l-41.7-103.7 75.8-88.5h-62l-73.2 87.5L582.8 0h-56.4l-48.2 253.5zm790-195.3c-71.2 0-124.8 52-124.8 120.9 0 47.6 31.6 78.3 80.7 78.3 21 0 41.4-3.8 54.5-10.2l9-47.5c-17.6 8.7-31.3 12.3-47.5 12.3-17.9 0-37.2-10.3-37.2-39.1 0-34 24.1-69.2 64.5-69.2 12.2 0 22.5 2.4 31.3 7.5l8.8-46.2c-10.1-4.3-24.8-6.8-39.3-6.8zm-872.5 0c-71.2 0-124.8 52-124.8 120.9 0 47.6 31.6 78.3 80.7 78.3 21 0 41.4-3.8 54.5-10.2l9-47.5c-17.6 8.7-31.3 12.3-47.5 12.3-17.9 0-37.2-10.3-37.2-39.1 0-34 24.1-69.2 64.5-69.2 12.2 0 22.5 2.4 31.3 7.5l8.8-46.2c-10.2-4.3-24.9-6.8-39.3-6.8z" fill="#fff"/></symbol><symbol viewBox="0 0 400 124" id="Rackspace_Technology_Logo_RGB_BLK" xmlns="http://www.w3.org/2000/svg"><path d="M209.544 49.633a15.558 15.558 0 01-4.572 11.481c-4.033 4.004-10.575 6.186-18.44 6.126-5.646-.093-11.35-1.466-14.577-3.448l2.15-11.309a32.471 32.471 0 0013.854 3.906c3.671 0 6.144-1.694 6.144-4.411 0-2.463-1.738-4.185-6.179-6.357-7.024-3.513-10.538-7.965-10.538-13.213 0-10.325 8.795-17.303 21.99-17.303 6.982 0 11.527 1.645 14.048 3.263l-2.146 11.285c-1.998-1.5-7.075-3.595-12.613-3.595-3.845 0-6.35 1.61-6.35 4.307 0 1.935 1.917 3.668 5.974 5.645 5.285 2.641 11.255 6.551 11.255 13.623zm-91.461-34.425c-18.588 0-32.594 13.574-32.594 31.574 0 12.431 8.26 20.458 21.073 20.458 5.48 0 10.808-1.004 14.238-2.674l2.348-12.401a26.236 26.236 0 01-12.406 3.207c-4.686 0-9.712-2.696-9.712-10.222 0-8.868 6.29-18.072 16.847-18.072a16.143 16.143 0 018.186 1.949l2.298-12.058a28.619 28.619 0 00-10.278-1.76zm260.64 40.469a33.063 33.063 0 0017.425-4.918l-2.376 12.484c-7.069 3.609-15.373 4-18.617 4-13.8 0-21.688-7.674-21.688-21.073a33.098 33.098 0 017.781-21.24 27.695 27.695 0 0121.348-9.824c10.44 0 17.404 6.066 17.404 15.059a13.633 13.633 0 01-4.019 10.177c-4.986 4.86-17.274 7.582-28.466 5.385-.533 6.306 4.214 9.95 11.208 9.95zm-9.586-19.573c8.704.072 13.6-.809 15.737-2.925 2.314-2.298 1.59-7.223-4.113-7.223-6.417 0-10.501 5.26-11.624 10.148zm-23.175-20.896c-18.588 0-32.594 13.574-32.594 31.574 0 12.431 8.26 20.458 21.074 20.458 5.48 0 10.807-1.004 14.237-2.674l2.348-12.401a26.235 26.235 0 01-12.406 3.207c-4.686 0-9.712-2.696-9.712-10.222 0-8.868 6.29-18.072 16.847-18.072a16.144 16.144 0 018.186 1.949l2.298-12.058a28.619 28.619 0 00-10.278-1.76zM310.928 38.23l-5.35 27.992h-14.166l1.841-9.635c-1.987 6.005-6.827 10.757-14.948 10.757-9.856 0-14.31-8.75-14.315-17.506-.007-9.947 3.901-19.798 10.446-26.348a28.322 28.322 0 0120.47-8.385c6.019.024 10.471 1.766 13.261 5.147 4.13 5.004 3.791 12.516 2.76 17.978zm-13.64-6.44c-.173-3.53-2.01-5.433-5.304-5.433-6.977 0-13.02 12.042-13.015 20.415.002 5.232 1.94 8.49 5.315 8.49 5.396 0 10.043-5.643 11.642-13.907.545-2.793 1.462-7.377 1.362-9.565zm-214.24 6.44L77.7 66.222H63.533l1.841-9.635c-1.987 6.005-6.827 10.757-14.948 10.757-9.856 0-14.31-8.75-14.315-17.506-.007-9.947 3.901-19.798 10.446-26.348a28.322 28.322 0 0120.47-8.385c6.02.024 10.471 1.766 13.261 5.147 4.13 5.004 3.791 12.516 2.76 17.978zM69.41 31.79c-.173-3.53-2.01-5.433-5.305-5.433-6.976 0-13.02 12.042-13.015 20.415.002 5.232 1.941 8.49 5.315 8.49 5.396 0 10.044-5.643 11.643-13.907.544-2.793 1.46-7.377 1.362-9.565zM263 34.14c0 12.161-5.839 24.63-16.363 30.241a23.611 23.611 0 01-10.782 2.963c-5.269 0-8.222-1.97-9.906-5.006L222.18 82.25h-14.832l12.591-66.224h13.063l-1.527 8.04c3.69-5.37 9.157-8.96 15.343-8.96C256.635 15.104 263 22.543 263 34.14zm-15.425 1.123c0-2.357-.556-8.082-5.989-8.082-5.524 0-10.188 6.294-11.995 15.84-.62 3.263-2.351 13.064 4.473 13.064 7.79 0 13.51-11.059 13.51-20.822zM20.663 27.154l2.114-11.128H9.715L0 67.106h14.834l4.006-21.06c2.362-12.42 9.486-17.389 19.626-15.854l2.897-15.236a20.55 20.55 0 00-20.7 12.198zm118.975 39.068l5.109-26.877 10.516 26.877h15.95l-10.88-27.09 19.802-23.106h-16.192L144.836 38.88 152.226 0h-14.73l-12.59 66.222zm249.469 44.137l-.112.586h-1.292l-.633 3.33h-.638l.633-3.33h-1.298l.112-.586zm4.778 0l-.746 3.915h-.637l.521-2.741-1.59 1.857h-.38l-.882-1.863-.523 2.747h-.637l.745-3.915h.575l1.062 2.242 1.914-2.242zm-83.576-9.023c0 7.235-5.01 13.415-12.24 13.415-5.354 0-8.665-3.703-8.665-8.75 0-7.188 5.009-13.415 12.24-13.415 5.702 0 8.665 4.094 8.665 8.75zm-15.679 4.533c0 2.915 1.524 4.966 4.137 4.966 3.792 0 6.315-5.226 6.315-9.456 0-2.175-1-4.877-4.051-4.877-4.048 0-6.401 5.405-6.401 9.367zm50.194-4.533c0 7.235-5.01 13.415-12.24 13.415-5.354 0-8.665-3.703-8.665-8.75 0-7.188 5.009-13.415 12.24-13.415 5.702 0 8.665 4.094 8.665 8.75zm-15.679 4.533c0 2.915 1.524 4.966 4.137 4.966 3.792 0 6.315-5.226 6.315-9.456 0-2.175-1-4.877-4.051-4.877-4.048 0-6.401 5.405-6.401 9.367zm-11.247-19.747l-5.355 28.152h5.056l5.393-28.152zm-81.756 6.507a13.365 13.365 0 00-13.457 13.631c0 5.052 3.264 8.448 8.58 8.448a14.268 14.268 0 006.253-1.294l.837-4.402a11.438 11.438 0 01-5.699 1.602c-2.83 0-4.66-1.787-4.66-4.962 0-4.443 3.094-8.929 7.972-8.929a7.677 7.677 0 013.907.989l.802-4.218a11.683 11.683 0 00-4.535-.865zm-28.974 15.942a5.835 5.835 0 01-.566-3.009c8.188.175 13.89-1.57 13.89-7.009 0-3.575-2.655-5.967-6.838-5.967-7.316 0-12.019 6.967-12.019 13.368 0 5.183 2.83 8.797 8.712 8.797a16.518 16.518 0 008.016-1.989l.868-4.566a12.771 12.771 0 01-7.71 2.55 4.686 4.686 0 01-4.353-2.175zm5.835-12.197c1.613 0 2.698.826 2.698 2.179 0 2.566-3.354 3.264-8.58 3.217.613-2.566 2.702-5.396 5.882-5.396zm72.902 2.043c0-4.005-2.353-5.83-5.4-5.83a9.18 9.18 0 00-7.747 4.447l.785-4.099h-4.573l-4.059 21.34h5.056l1.877-9.798c.915-4.97 3.826-7.754 6.133-7.754 2.004 0 2.66 1.26 2.66 3.047a14.16 14.16 0 01-.25 2.528l-2.278 11.976h5.056l2.37-12.368a19.874 19.874 0 00.37-3.49zm-29.37-5.83a8.942 8.942 0 00-7.055 3.508l1.911-9.973h-5.094l-5.355 28.152h5.056l1.877-9.797c.915-4.97 3.826-7.754 6.132-7.754 2.005 0 2.66 1.26 2.66 3.047a14.162 14.162 0 01-.25 2.528l-2.277 11.976h5.055l2.37-12.368a19.883 19.883 0 00.371-3.49c0-4.004-2.353-5.83-5.4-5.83zm-58.869-4.983h-4.932l-1.083 5.459h-2.83l-.74 3.92h2.834l-1.83 9.452a19.77 19.77 0 00-.439 3.92c0 2.439 1.528 4.354 5.01 4.354a10.12 10.12 0 003.31-.434l.766-4.021a10.016 10.016 0 01-2.03.19 1.675 1.675 0 01-1.872-1.919 15.018 15.018 0 01.392-3.005l1.655-8.537h4.75l.783-3.92h-4.75zM368.053 122.2c3.885 1.797 7.715 1.002 10.491-3.965v-.009l14.19-25.292h-5.401l-8.058 15.79-1.957-15.79h-5.316l3.78 20.77-1.654 3.315c-1.487 2.54-4.081 1.711-5.288 1.042zm-6.903-29.615c-9.02 0-13.639 7.975-13.639 14.686 0 3.79 1.874 7.495 6.406 7.495a8.542 8.542 0 007.05-3.787l-.406 1.856c-1.043 4.924-3.57 6.49-6.882 6.49a12.262 12.262 0 01-5.575-1.264l-.787 4.139a15.067 15.067 0 006.257 1.176 12.462 12.462 0 007.92-2.353c2.42-2 3.612-5.312 4.403-9.448l1.92-9.62a17.519 17.519 0 00.435-3.66c.002-3.835-2.657-5.71-7.102-5.71zm1.613 9.108l-.392 1.96c-.872 4.272-3.574 6.973-6.188 6.973-2.353 0-3.356-1.96-3.356-4.27 0-4.183 2.92-9.892 7.364-9.892a2.534 2.534 0 012.833 2.702 10.822 10.822 0 01-.261 2.527z"/></symbol><symbol viewBox="0 0 400 124" id="Rackspace_Technology_Logo_RGB_RED" xmlns="http://www.w3.org/2000/svg"><path d="M209.544 49.633a15.558 15.558 0 01-4.572 11.481c-4.033 4.004-10.575 6.186-18.44 6.126-5.646-.093-11.35-1.466-14.577-3.448l2.15-11.309a32.471 32.471 0 0013.854 3.906c3.671 0 6.144-1.694 6.144-4.411 0-2.463-1.738-4.185-6.179-6.357-7.024-3.513-10.538-7.965-10.538-13.213 0-10.325 8.795-17.303 21.99-17.303 6.982 0 11.527 1.645 14.048 3.263l-2.146 11.285c-1.998-1.5-7.075-3.595-12.613-3.595-3.845 0-6.35 1.61-6.35 4.307 0 1.935 1.917 3.668 5.974 5.645 5.285 2.641 11.255 6.551 11.255 13.623zm-91.461-34.425c-18.588 0-32.594 13.574-32.594 31.574 0 12.431 8.26 20.458 21.073 20.458 5.48 0 10.808-1.004 14.238-2.674l2.348-12.401a26.236 26.236 0 01-12.406 3.207c-4.686 0-9.712-2.696-9.712-10.222 0-8.868 6.29-18.072 16.847-18.072a16.143 16.143 0 018.186 1.949l2.298-12.058a28.619 28.619 0 00-10.278-1.76zm260.64 40.469a33.063 33.063 0 0017.425-4.918l-2.376 12.484c-7.069 3.609-15.373 4-18.617 4-13.8 0-21.688-7.674-21.688-21.073a33.098 33.098 0 017.781-21.24 27.695 27.695 0 0121.348-9.824c10.44 0 17.404 6.066 17.404 15.059a13.633 13.633 0 01-4.019 10.177c-4.986 4.86-17.274 7.582-28.466 5.385-.533 6.306 4.214 9.95 11.208 9.95zm-9.586-19.573c8.704.072 13.6-.809 15.737-2.925 2.314-2.298 1.59-7.223-4.113-7.223-6.417 0-10.501 5.26-11.624 10.148zm-23.175-20.896c-18.588 0-32.594 13.574-32.594 31.574 0 12.431 8.26 20.458 21.074 20.458 5.48 0 10.807-1.004 14.237-2.674l2.348-12.401a26.235 26.235 0 01-12.406 3.207c-4.686 0-9.712-2.696-9.712-10.222 0-8.868 6.29-18.072 16.847-18.072a16.144 16.144 0 018.186 1.949l2.298-12.058a28.619 28.619 0 00-10.278-1.76zM310.928 38.23l-5.35 27.992h-14.166l1.841-9.635c-1.987 6.005-6.827 10.757-14.948 10.757-9.856 0-14.31-8.75-14.315-17.506-.007-9.947 3.901-19.798 10.446-26.348a28.322 28.322 0 0120.47-8.385c6.019.024 10.471 1.766 13.261 5.147 4.13 5.004 3.791 12.516 2.76 17.978zm-13.64-6.44c-.173-3.53-2.01-5.433-5.304-5.433-6.977 0-13.02 12.042-13.015 20.415.002 5.232 1.94 8.49 5.315 8.49 5.396 0 10.043-5.643 11.642-13.907.545-2.793 1.462-7.377 1.362-9.565zm-214.24 6.44L77.7 66.222H63.533l1.841-9.635c-1.987 6.005-6.827 10.757-14.948 10.757-9.856 0-14.31-8.75-14.315-17.506-.007-9.947 3.901-19.798 10.446-26.348a28.322 28.322 0 0120.47-8.385c6.02.024 10.471 1.766 13.261 5.147 4.13 5.004 3.791 12.516 2.76 17.978zM69.41 31.79c-.173-3.53-2.01-5.433-5.305-5.433-6.976 0-13.02 12.042-13.015 20.415.002 5.232 1.941 8.49 5.315 8.49 5.396 0 10.044-5.643 11.643-13.907.544-2.793 1.46-7.377 1.362-9.565zM263 34.14c0 12.161-5.839 24.63-16.363 30.241a23.611 23.611 0 01-10.782 2.963c-5.269 0-8.222-1.97-9.906-5.006L222.18 82.25h-14.832l12.591-66.224h13.063l-1.527 8.04c3.69-5.37 9.157-8.96 15.343-8.96C256.635 15.104 263 22.543 263 34.14zm-15.425 1.123c0-2.357-.556-8.082-5.989-8.082-5.524 0-10.188 6.294-11.995 15.84-.62 3.263-2.351 13.064 4.473 13.064 7.79 0 13.51-11.059 13.51-20.822zM20.663 27.154l2.114-11.128H9.715L0 67.106h14.834l4.006-21.06c2.362-12.42 9.486-17.389 19.626-15.854l2.897-15.236a20.55 20.55 0 00-20.7 12.198zm118.975 39.068l5.109-26.877 10.516 26.877h15.95l-10.88-27.09 19.802-23.106h-16.192L144.836 38.88 152.226 0h-14.73l-12.59 66.222zm249.469 44.137l-.112.586h-1.292l-.633 3.33h-.638l.633-3.33h-1.298l.112-.586zm4.778 0l-.746 3.915h-.637l.521-2.741-1.59 1.857h-.38l-.882-1.863-.523 2.747h-.637l.745-3.915h.575l1.062 2.242 1.914-2.242zm-83.576-9.023c0 7.235-5.01 13.415-12.24 13.415-5.354 0-8.665-3.703-8.665-8.75 0-7.188 5.009-13.415 12.24-13.415 5.702 0 8.665 4.094 8.665 8.75zm-15.679 4.533c0 2.915 1.524 4.966 4.137 4.966 3.792 0 6.315-5.226 6.315-9.456 0-2.175-1-4.877-4.051-4.877-4.048 0-6.401 5.405-6.401 9.367zm50.194-4.533c0 7.235-5.01 13.415-12.24 13.415-5.354 0-8.665-3.703-8.665-8.75 0-7.188 5.009-13.415 12.24-13.415 5.702 0 8.665 4.094 8.665 8.75zm-15.679 4.533c0 2.915 1.524 4.966 4.137 4.966 3.792 0 6.315-5.226 6.315-9.456 0-2.175-1-4.877-4.051-4.877-4.048 0-6.401 5.405-6.401 9.367zm-11.247-19.747l-5.355 28.152h5.056l5.393-28.152zm-81.756 6.507a13.365 13.365 0 00-13.457 13.631c0 5.052 3.264 8.448 8.58 8.448a14.268 14.268 0 006.253-1.294l.837-4.402a11.438 11.438 0 01-5.699 1.602c-2.83 0-4.66-1.787-4.66-4.962 0-4.443 3.094-8.929 7.972-8.929a7.677 7.677 0 013.907.989l.802-4.218a11.683 11.683 0 00-4.535-.865zm-28.974 15.942a5.835 5.835 0 01-.566-3.009c8.188.175 13.89-1.57 13.89-7.009 0-3.575-2.655-5.967-6.838-5.967-7.316 0-12.019 6.967-12.019 13.368 0 5.183 2.83 8.797 8.712 8.797a16.518 16.518 0 008.016-1.989l.868-4.566a12.771 12.771 0 01-7.71 2.55 4.686 4.686 0 01-4.353-2.175zm5.835-12.197c1.613 0 2.698.826 2.698 2.179 0 2.566-3.354 3.264-8.58 3.217.613-2.566 2.702-5.396 5.882-5.396zm72.902 2.043c0-4.005-2.353-5.83-5.4-5.83a9.18 9.18 0 00-7.747 4.447l.785-4.099h-4.573l-4.059 21.34h5.056l1.877-9.798c.915-4.97 3.826-7.754 6.133-7.754 2.004 0 2.66 1.26 2.66 3.047a14.16 14.16 0 01-.25 2.528l-2.278 11.976h5.056l2.37-12.368a19.874 19.874 0 00.37-3.49zm-29.37-5.83a8.942 8.942 0 00-7.055 3.508l1.911-9.973h-5.094l-5.355 28.152h5.056l1.877-9.797c.915-4.97 3.826-7.754 6.132-7.754 2.005 0 2.66 1.26 2.66 3.047a14.162 14.162 0 01-.25 2.528l-2.277 11.976h5.055l2.37-12.368a19.883 19.883 0 00.371-3.49c0-4.004-2.353-5.83-5.4-5.83zm-58.869-4.983h-4.932l-1.083 5.459h-2.83l-.74 3.92h2.834l-1.83 9.452a19.77 19.77 0 00-.439 3.92c0 2.439 1.528 4.354 5.01 4.354a10.12 10.12 0 003.31-.434l.766-4.021a10.016 10.016 0 01-2.03.19 1.675 1.675 0 01-1.872-1.919 15.018 15.018 0 01.392-3.005l1.655-8.537h4.75l.783-3.92h-4.75zM368.053 122.2c3.885 1.797 7.715 1.002 10.491-3.965v-.009l14.19-25.292h-5.401l-8.058 15.79-1.957-15.79h-5.316l3.78 20.77-1.654 3.315c-1.487 2.54-4.081 1.711-5.288 1.042zm-6.903-29.615c-9.02 0-13.639 7.975-13.639 14.686 0 3.79 1.874 7.495 6.406 7.495a8.542 8.542 0 007.05-3.787l-.406 1.856c-1.043 4.924-3.57 6.49-6.882 6.49a12.262 12.262 0 01-5.575-1.264l-.787 4.139a15.067 15.067 0 006.257 1.176 12.462 12.462 0 007.92-2.353c2.42-2 3.612-5.312 4.403-9.448l1.92-9.62a17.519 17.519 0 00.435-3.66c.002-3.835-2.657-5.71-7.102-5.71zm1.613 9.108l-.392 1.96c-.872 4.272-3.574 6.973-6.188 6.973-2.353 0-3.356-1.96-3.356-4.27 0-4.183 2.92-9.892 7.364-9.892a2.534 2.534 0 012.833 2.702 10.822 10.822 0 01-.261 2.527z" fill="#eb0000"/></symbol><symbol viewBox="0 0 400 124" id="Rackspace_Technology_Logo_RGB_WHT" xmlns="http://www.w3.org/2000/svg"><path d="M209.544 49.633a15.558 15.558 0 01-4.572 11.481c-4.033 4.004-10.575 6.186-18.44 6.126-5.646-.093-11.35-1.466-14.577-3.448l2.15-11.309a32.471 32.471 0 0013.854 3.906c3.671 0 6.144-1.694 6.144-4.411 0-2.463-1.738-4.185-6.179-6.357-7.024-3.513-10.538-7.965-10.538-13.213 0-10.325 8.795-17.303 21.99-17.303 6.982 0 11.527 1.645 14.048 3.263l-2.146 11.285c-1.998-1.5-7.075-3.595-12.613-3.595-3.845 0-6.35 1.61-6.35 4.307 0 1.935 1.917 3.668 5.974 5.645 5.285 2.641 11.255 6.551 11.255 13.623zm-91.461-34.425c-18.588 0-32.594 13.574-32.594 31.574 0 12.431 8.26 20.458 21.073 20.458 5.48 0 10.808-1.004 14.238-2.674l2.348-12.401a26.236 26.236 0 01-12.406 3.207c-4.686 0-9.712-2.696-9.712-10.222 0-8.868 6.29-18.072 16.847-18.072a16.143 16.143 0 018.186 1.949l2.298-12.058a28.619 28.619 0 00-10.278-1.76zm260.64 40.469a33.063 33.063 0 0017.425-4.918l-2.376 12.484c-7.069 3.609-15.373 4-18.617 4-13.8 0-21.688-7.674-21.688-21.073a33.098 33.098 0 017.781-21.24 27.695 27.695 0 0121.348-9.824c10.44 0 17.404 6.066 17.404 15.059a13.633 13.633 0 01-4.019 10.177c-4.986 4.86-17.274 7.582-28.466 5.385-.533 6.306 4.214 9.95 11.208 9.95zm-9.586-19.573c8.704.072 13.6-.809 15.737-2.925 2.314-2.298 1.59-7.223-4.113-7.223-6.417 0-10.501 5.26-11.624 10.148zm-23.175-20.896c-18.588 0-32.594 13.574-32.594 31.574 0 12.431 8.26 20.458 21.074 20.458 5.48 0 10.807-1.004 14.237-2.674l2.348-12.401a26.235 26.235 0 01-12.406 3.207c-4.686 0-9.712-2.696-9.712-10.222 0-8.868 6.29-18.072 16.847-18.072a16.144 16.144 0 018.186 1.949l2.298-12.058a28.619 28.619 0 00-10.278-1.76zM310.928 38.23l-5.35 27.992h-14.166l1.841-9.635c-1.987 6.005-6.827 10.757-14.948 10.757-9.856 0-14.31-8.75-14.315-17.506-.007-9.947 3.901-19.798 10.446-26.348a28.322 28.322 0 0120.47-8.385c6.019.024 10.471 1.766 13.261 5.147 4.13 5.004 3.791 12.516 2.76 17.978zm-13.64-6.44c-.173-3.53-2.01-5.433-5.304-5.433-6.977 0-13.02 12.042-13.015 20.415.002 5.232 1.94 8.49 5.315 8.49 5.396 0 10.043-5.643 11.642-13.907.545-2.793 1.462-7.377 1.362-9.565zm-214.24 6.44L77.7 66.222H63.533l1.841-9.635c-1.987 6.005-6.827 10.757-14.948 10.757-9.856 0-14.31-8.75-14.315-17.506-.007-9.947 3.901-19.798 10.446-26.348a28.322 28.322 0 0120.47-8.385c6.02.024 10.471 1.766 13.261 5.147 4.13 5.004 3.791 12.516 2.76 17.978zM69.41 31.79c-.173-3.53-2.01-5.433-5.305-5.433-6.976 0-13.02 12.042-13.015 20.415.002 5.232 1.941 8.49 5.315 8.49 5.396 0 10.044-5.643 11.643-13.907.544-2.793 1.46-7.377 1.362-9.565zM263 34.14c0 12.161-5.839 24.63-16.363 30.241a23.611 23.611 0 01-10.782 2.963c-5.269 0-8.222-1.97-9.906-5.006L222.18 82.25h-14.832l12.591-66.224h13.063l-1.527 8.04c3.69-5.37 9.157-8.96 15.343-8.96C256.635 15.104 263 22.543 263 34.14zm-15.425 1.123c0-2.357-.556-8.082-5.989-8.082-5.524 0-10.188 6.294-11.995 15.84-.62 3.263-2.351 13.064 4.473 13.064 7.79 0 13.51-11.059 13.51-20.822zM20.663 27.154l2.114-11.128H9.715L0 67.106h14.834l4.006-21.06c2.362-12.42 9.486-17.389 19.626-15.854l2.897-15.236a20.55 20.55 0 00-20.7 12.198zm118.975 39.068l5.109-26.877 10.516 26.877h15.95l-10.88-27.09 19.802-23.106h-16.192L144.836 38.88 152.226 0h-14.73l-12.59 66.222zm249.469 44.137l-.112.586h-1.292l-.633 3.33h-.638l.633-3.33h-1.298l.112-.586zm4.778 0l-.746 3.915h-.637l.521-2.741-1.59 1.857h-.38l-.882-1.863-.523 2.747h-.637l.745-3.915h.575l1.062 2.242 1.914-2.242zm-83.576-9.023c0 7.235-5.01 13.415-12.24 13.415-5.354 0-8.665-3.703-8.665-8.75 0-7.188 5.009-13.415 12.24-13.415 5.702 0 8.665 4.094 8.665 8.75zm-15.679 4.533c0 2.915 1.524 4.966 4.137 4.966 3.792 0 6.315-5.226 6.315-9.456 0-2.175-1-4.877-4.051-4.877-4.048 0-6.401 5.405-6.401 9.367zm50.194-4.533c0 7.235-5.01 13.415-12.24 13.415-5.354 0-8.665-3.703-8.665-8.75 0-7.188 5.009-13.415 12.24-13.415 5.702 0 8.665 4.094 8.665 8.75zm-15.679 4.533c0 2.915 1.524 4.966 4.137 4.966 3.792 0 6.315-5.226 6.315-9.456 0-2.175-1-4.877-4.051-4.877-4.048 0-6.401 5.405-6.401 9.367zm-11.247-19.747l-5.355 28.152h5.056l5.393-28.152zm-81.756 6.507a13.365 13.365 0 00-13.457 13.631c0 5.052 3.264 8.448 8.58 8.448a14.268 14.268 0 006.253-1.294l.837-4.402a11.438 11.438 0 01-5.699 1.602c-2.83 0-4.66-1.787-4.66-4.962 0-4.443 3.094-8.929 7.972-8.929a7.677 7.677 0 013.907.989l.802-4.218a11.683 11.683 0 00-4.535-.865zm-28.974 15.942a5.835 5.835 0 01-.566-3.009c8.188.175 13.89-1.57 13.89-7.009 0-3.575-2.655-5.967-6.838-5.967-7.316 0-12.019 6.967-12.019 13.368 0 5.183 2.83 8.797 8.712 8.797a16.518 16.518 0 008.016-1.989l.868-4.566a12.771 12.771 0 01-7.71 2.55 4.686 4.686 0 01-4.353-2.175zm5.835-12.197c1.613 0 2.698.826 2.698 2.179 0 2.566-3.354 3.264-8.58 3.217.613-2.566 2.702-5.396 5.882-5.396zm72.902 2.043c0-4.005-2.353-5.83-5.4-5.83a9.18 9.18 0 00-7.747 4.447l.785-4.099h-4.573l-4.059 21.34h5.056l1.877-9.798c.915-4.97 3.826-7.754 6.133-7.754 2.004 0 2.66 1.26 2.66 3.047a14.16 14.16 0 01-.25 2.528l-2.278 11.976h5.056l2.37-12.368a19.874 19.874 0 00.37-3.49zm-29.37-5.83a8.942 8.942 0 00-7.055 3.508l1.911-9.973h-5.094l-5.355 28.152h5.056l1.877-9.797c.915-4.97 3.826-7.754 6.132-7.754 2.005 0 2.66 1.26 2.66 3.047a14.162 14.162 0 01-.25 2.528l-2.277 11.976h5.055l2.37-12.368a19.883 19.883 0 00.371-3.49c0-4.004-2.353-5.83-5.4-5.83zm-58.869-4.983h-4.932l-1.083 5.459h-2.83l-.74 3.92h2.834l-1.83 9.452a19.77 19.77 0 00-.439 3.92c0 2.439 1.528 4.354 5.01 4.354a10.12 10.12 0 003.31-.434l.766-4.021a10.016 10.016 0 01-2.03.19 1.675 1.675 0 01-1.872-1.919 15.018 15.018 0 01.392-3.005l1.655-8.537h4.75l.783-3.92h-4.75zM368.053 122.2c3.885 1.797 7.715 1.002 10.491-3.965v-.009l14.19-25.292h-5.401l-8.058 15.79-1.957-15.79h-5.316l3.78 20.77-1.654 3.315c-1.487 2.54-4.081 1.711-5.288 1.042zm-6.903-29.615c-9.02 0-13.639 7.975-13.639 14.686 0 3.79 1.874 7.495 6.406 7.495a8.542 8.542 0 007.05-3.787l-.406 1.856c-1.043 4.924-3.57 6.49-6.882 6.49a12.262 12.262 0 01-5.575-1.264l-.787 4.139a15.067 15.067 0 006.257 1.176 12.462 12.462 0 007.92-2.353c2.42-2 3.612-5.312 4.403-9.448l1.92-9.62a17.519 17.519 0 00.435-3.66c.002-3.835-2.657-5.71-7.102-5.71zm1.613 9.108l-.392 1.96c-.872 4.272-3.574 6.973-6.188 6.973-2.353 0-3.356-1.96-3.356-4.27 0-4.183 2.92-9.892 7.364-9.892a2.534 2.534 0 012.833 2.702 10.822 10.822 0 01-.261 2.527z" fill="#fff"/></symbol><symbol viewBox="0 0 36 36" id="apis" xmlns="http://www.w3.org/2000/svg"><path d="M27.043 25.394H9.09V12.246h17.953v13.148zm-17.282-.67h16.611V12.917H9.761v11.807z" fill="#f27466"/><path d="M12.84 17.404l-1.879 1.256v-.463l1.456-.962v-.02l-1.456-.962v-.464l1.879 1.256v.359zM15.253 18.664v.404H12.86v-.404h2.393zM9.359 12.581v1.662H26.64v-1.662H9.359zm1.07 1.296a.45.45 0 110-.902.45.45 0 010 .902zm1.239 0a.45.45 0 110-.902.45.45 0 010 .902zm1.295 0a.45.45 0 110-.902.45.45 0 010 .902z" fill="#f27466"/><g><path d="M27.001 33.589H9L0 18 9 2.411h18.001L36 18l-8.999 15.589zM9.774 32.247h16.451L34.451 18 26.225 3.753H9.774L1.549 18l8.225 14.247z" fill="#f27466"/></g></symbol><symbol fill="inherit" viewBox="0 0 15 14" id="arrow" xmlns="http://www.w3.org/2000/svg"><path d="M13 7.707H0v-2h13v2z"/><path d="M7.293 12l5.288-5.288-5.288-5.298L8.707 0l5.288 5.288a2.01 2.01 0 010 2.838l-5.288 5.288L7.293 12z"/></symbol><symbol viewBox="0 0 64 64" id="avatar-default" xmlns="http://www.w3.org/2000/svg"><path fill="#C0BFBF" d="M0 0h64v64H0z"/><path fill="#F3F3F3" d="M59.6 59.3s.4.1-.6 0V59c0-9.2-7-16.7-16.3-16.7h-.1c-1.4 0-2.7-.6-4-.8 0-.6 0-1.2.1-1.7 3.3-1.3 4.1-5.4 4.7-10 2.4-.4 2.4-.4 2.4-3.8 0-1.7 1.4-3.2-2-3.7v-.2c0-8.3-.7-17.7-7-15 0 0 .1-2.7-6.8-2.7-9.1 0-9.8 7.4-9.8 17.7v.2c-3.2.4-2 2-2 3.7 0 3.4 0 3.4 2.4 3.8.6 4.6 1.6 9.2 4.7 10 .1.5.1 1.1.1 1.7-1.4.2-2.7.8-4 .8h-.1C12 42.3 5 49.8 5 59v.3c-1 .2-.6 0-.6 0H5v2h54v-2h.6z"/></symbol><symbol viewBox="0 0 256 512" id="chevron-left" xmlns="http://www.w3.org/2000/svg"><path d="M231.3 473.9l19.8-19.8c4.7-4.7 4.7-12.3 0-17L70.4 256 251.1 74.9c4.7-4.7 4.7-12.3 0-17l-19.8-19.8c-4.7-4.7-12.3-4.7-17 0L4.9 247.5c-4.7 4.7-4.7 12.3 0 17l209.4 209.4c4.7 4.7 12.3 4.7 17 0z" fill="#20c997"/></symbol><symbol viewBox="0 0 256 512" id="chevron-right" xmlns="http://www.w3.org/2000/svg"><path d="M24.7 38.1L4.9 57.9c-4.7 4.7-4.7 12.3 0 17L185.6 256 4.9 437.1c-4.7 4.7-4.7 12.3 0 17l19.8 19.8c4.7 4.7 12.3 4.7 17 0l209.4-209.4c4.7-4.7 4.7-12.3 0-17L41.7 38.1c-4.7-4.7-12.3-4.7-17 0z" fill="#20c997"/></symbol><symbol viewBox="0 0 16 16" id="navtoggle-close" xmlns="http://www.w3.org/2000/svg"><g fill="#212529"><path d="M1.636 15.778L15.778 1.636 14.364.222.222 14.364z"/><path d="M15.778 14.364L1.636.222.222 1.636l14.142 14.142z"/></g></symbol><symbol viewBox="0 0 16 16" id="navtoggle-light-close" xmlns="http://www.w3.org/2000/svg"><g fill="#fff"><path d="M1.636 15.778L15.778 1.636 14.364.222.222 14.364z"/><path d="M15.778 14.364L1.636.222.222 1.636l14.142 14.142z"/></g></symbol><symbol viewBox="0 0 20 14" id="navtoggle-light-open" xmlns="http://www.w3.org/2000/svg"><g fill="#fff"><path d="M0 2h20V0H0zM0 8h20V6H0zM0 14h20v-2H0z"/></g></symbol><symbol viewBox="0 0 20 14" id="navtoggle-open" xmlns="http://www.w3.org/2000/svg"><g fill="#212529"><path d="M0 2h20V0H0zM0 8h20V6H0zM0 14h20v-2H0z"/></g></symbol><symbol viewBox="0 0 28 35" id="popup" xmlns="http://www.w3.org/2000/svg"><g fill-rule="evenodd"><path d="M12.657 16.658l-1.314-1.316 15-15 1.314 1.316z"/><path d="M28 10h-2V2h-8V0h10zM23 28H3c-1.654 0-3-1.346-3-3V5c0-1.654 1.346-3 3-3h11v2H3c-.552 0-1 .449-1 1v20c0 .551.448 1 1 1h20c.552 0 1-.449 1-1V14h2v11c0 1.654-1.346 3-3 3"/></g><g font-family="'Helvetica Neue', Helvetica, Arial-Unicode, Arial, Sans-serif" font-size="5" font-weight="bold"><text y="43">Created by Bluetip Design</text><text y="48">from the Noun Project</text></g></symbol><symbol viewBox="0 0 36 36" id="sdks" xmlns="http://www.w3.org/2000/svg"><path d="M27 33.589H9L0 18 9 2.411h18L36 18l-9 15.589zM9.559 32.62H26.44L34.882 18 26.44 3.38H9.559L1.118 18z" fill="#eec65d"/><path d="M17.251 23.89c-.288 0-.558-.112-.761-.315l-3.227-3.227a1.072 1.072 0 01-.316-.762c0-.288.112-.558.316-.762.162-.191 4.339-5.06 6.865-6.86 1.446-1.03 5.255-.947 5.417-.94l.265.007.004.265c.002.16.036 3.928-.935 5.405-1.458 2.217-6.66 6.697-6.881 6.888a1.058 1.058 0 01-.747.301zm8.006-12.318c-.892 0-3.72.063-4.81.841-2.472 1.76-6.739 6.735-6.781 6.785a.524.524 0 00-.015.76l3.227 3.227a.536.536 0 00.745 0c.069-.06 5.379-4.633 6.795-6.786.74-1.125.833-3.942.843-4.826l-.004-.001z" fill="#eec65d"/><path d="M16.252 23.219c-.208.226-.501.375-.785.493a7.496 7.496 0 01-.886.298c-.603.163-1.21.284-1.835.373h-.002l-.338.045.048-.336c.089-.626.21-1.233.373-1.836.082-.301.179-.598.298-.887.119-.285.265-.574.493-.785-.193.242-.289.536-.363.829a7.335 7.335 0 00-.158.896 14.743 14.743 0 00-.093 1.815l-.291-.29h.002c.599.005 1.212-.024 1.814-.094.302-.036.601-.086.895-.159.293-.075.584-.167.828-.362zM17.77 18.679l.389.39-2.769 2.762-.39-.39zM19.984 26.912l-.47-.32c-.266-.181-2.595-1.799-2.541-2.99l.55.025c-.025.562.979 1.52 1.838 2.175-.054-1.256-.077-4.036.725-4.839l.39.39c-.61.61-.651 3.386-.533 4.991l.041.568zM13.194 19.863c-1.187.001-2.779-2.286-2.959-2.549l-.321-.471.569.042c1.607.118 4.382.078 4.991-.532l.389.389c-.801.802-3.581.781-4.838.725.66.862 1.603 1.891 2.185 1.846l.025.55h-.041zM21.646 16.664a1.452 1.452 0 111.025-2.476 1.452 1.452 0 01-1.025 2.476zm0-2.625a1.175 1.175 0 10-.002 2.35 1.175 1.175 0 00.002-2.35z" fill="#eec65d"/></symbol><symbol viewBox="0 0 512 512" id="search" xmlns="http://www.w3.org/2000/svg"><path d="M508.5 468.9L387.1 347.5c-2.3-2.3-5.3-3.5-8.5-3.5h-13.2c31.5-36.5 50.6-84 50.6-136C416 93.1 322.9 0 208 0S0 93.1 0 208s93.1 208 208 208c52 0 99.5-19.1 136-50.6v13.2c0 3.2 1.3 6.2 3.5 8.5l121.4 121.4c4.7 4.7 12.3 4.7 17 0l22.6-22.6c4.7-4.7 4.7-12.3 0-17zM208 368c-88.4 0-160-71.6-160-160S119.6 48 208 48s160 71.6 160 160-71.6 160-160 160z"/></symbol><symbol viewBox="0 0 130 21" id="search-by-algolia" xmlns="http://www.w3.org/2000/svg"><path d="M96.667 15.57c0 1.719-.44 2.974-1.327 3.773-.887.799-2.24 1.197-4.066 1.197-.666 0-2.051-.129-3.159-.373l.408-1.997c.925.193 2.15.245 2.79.245 1.017 0 1.741-.206 2.175-.618.433-.412.647-1.023.647-1.835v-.413a7.533 7.533 0 01-.99.374c-.408.123-.88.186-1.411.186-.7 0-1.333-.11-1.91-.328a4 4 0 01-1.482-.966 4.424 4.424 0 01-.958-1.596c-.227-.637-.343-1.778-.343-2.615 0-.785.123-1.77.363-2.427a4.638 4.638 0 011.068-1.694c.466-.47 1.035-.83 1.703-1.094a6.276 6.276 0 012.299-.431c.822 0 1.58.103 2.317.225a18.7 18.7 0 011.877.393v9.993h-.001zm-7.037-4.971c0 1.055.233 2.227.7 2.717.466.489 1.068.733 1.806.733.402 0 .783-.057 1.139-.167.356-.11.64-.24.867-.393V7.237c-.18-.039-.938-.192-1.67-.212-.919-.026-1.617.347-2.11.946-.486.6-.732 1.649-.732 2.628zm19.051 0a6.07 6.07 0 01-.376 2.195 5.186 5.186 0 01-1.068 1.797c-.46.496-1.01.881-1.657 1.152-.648.27-1.644.425-2.143.425-.498-.005-1.489-.147-2.13-.425a4.831 4.831 0 01-1.65-1.152 5.302 5.302 0 01-1.074-1.797 5.953 5.953 0 01-.39-2.195c0-.85.118-1.668.377-2.363a5.233 5.233 0 011.087-1.783 4.855 4.855 0 011.657-1.147c.64-.27 1.346-.4 2.11-.4.764 0 1.47.136 2.117.4.648.271 1.204.65 1.657 1.147.46.496.815 1.088 1.074 1.783.272.695.408 1.513.408 2.363h.001zm-2.59.005c0-1.088-.24-1.996-.705-2.627-.465-.637-1.12-.952-1.954-.952-.836 0-1.49.315-1.955.952-.466.637-.693 1.539-.693 2.627 0 1.102.233 1.842.7 2.48.466.644 1.12.96 1.955.96s1.489-.322 1.954-.96c.466-.644.7-1.378.7-2.48h-.001zm8.229 5.563c-4.15.02-4.15-3.335-4.15-3.869L110.164.399 112.696 0v11.822c0 .302 0 2.222 1.625 2.227v2.118h-.001zm4.46 0h-2.545V5.3l2.545-.4v11.268zM117.505 3.71c.848 0 1.54-.684 1.54-1.526a1.53 1.53 0 00-1.54-1.526 1.53 1.53 0 00-1.541 1.526c0 .844.692 1.526 1.54 1.526zm7.6 1.197c.835 0 1.541.103 2.11.31.57.205 1.03.496 1.367.862.337.368.575.869.718 1.397.15.528.22 1.107.22 1.744v6.478c-.389.084-.977.18-1.767.297-.79.115-1.677.173-2.66.173a8.07 8.07 0 01-1.793-.186 3.797 3.797 0 01-1.392-.6 2.901 2.901 0 01-.9-1.068c-.213-.437-.323-1.055-.323-1.7 0-.618.123-1.01.363-1.435.246-.426.575-.773.99-1.044.42-.27.9-.463 1.45-.579a8.359 8.359 0 011.722-.174c.279 0 .57.02.88.052.311.032.635.09.985.174v-.412c0-.29-.032-.567-.104-.824a1.756 1.756 0 00-.363-.69 1.694 1.694 0 00-.686-.462 2.997 2.997 0 00-1.082-.193c-.582 0-1.113.07-1.599.155a7.43 7.43 0 00-1.191.29l-.304-2.068c.317-.11.79-.218 1.398-.328.609-.11 1.262-.168 1.962-.168l-.001-.001zm.214 9.136c.776 0 1.353-.045 1.754-.123v-2.562a6.024 6.024 0 00-1.49-.187c-.278 0-.563.02-.848.064a2.561 2.561 0 00-.77.226 1.38 1.38 0 00-.551.463c-.143.2-.207.316-.207.618 0 .593.207.934.583 1.16.381.231.886.341 1.528.341zM75.33 4.971c.836 0 1.542.103 2.111.31.57.205 1.03.496 1.366.862.343.374.576.869.719 1.397a6.4 6.4 0 01.22 1.744v6.478c-.39.084-.978.18-1.767.297-.79.115-1.677.173-2.66.173a8.07 8.07 0 01-1.793-.186 3.797 3.797 0 01-1.392-.6 2.901 2.901 0 01-.9-1.068c-.214-.437-.324-1.055-.324-1.7 0-.618.123-1.01.363-1.435.246-.426.576-.773.99-1.044.421-.27.9-.463 1.45-.579a8.359 8.359 0 011.723-.174c.279 0 .57.02.88.052.304.032.635.09.985.174V9.26c0-.29-.032-.567-.104-.824a1.756 1.756 0 00-.363-.69 1.694 1.694 0 00-.687-.462 2.997 2.997 0 00-1.081-.193 9.17 9.17 0 00-1.6.155 7.43 7.43 0 00-1.19.29l-.304-2.068c.316-.11.79-.218 1.398-.328a10.507 10.507 0 011.962-.168l-.002-.001zm.22 9.142c.777 0 1.353-.045 1.754-.123v-2.562a6.024 6.024 0 00-1.49-.187c-.278 0-.563.02-.848.064a2.561 2.561 0 00-.77.226 1.38 1.38 0 00-.55.463c-.144.2-.208.316-.208.618 0 .592.207.934.583 1.16.376.225.886.341 1.528.341h.001zm10.26 2.054c-4.149.02-4.149-3.335-4.149-3.869L81.657.399 84.188 0v11.822c0 .302 0 2.222 1.625 2.227v2.118h-.001zM6.524 12.713c0 .906-.328 1.617-.984 2.133-.654.515-1.558.774-2.71.774-1.153 0-2.096-.178-2.83-.536v-1.576c.464.219.958.39 1.48.515.523.126 1.01.188 1.462.188.659 0 1.146-.125 1.46-.375.313-.251.47-.588.47-1.01a1.27 1.27 0 00-.432-.97c-.288-.265-.883-.578-1.784-.94-.93-.377-1.585-.807-1.966-1.29C.31 9.143.118 8.562.118 7.884c0-.851.303-1.52.907-2.008.604-.488 1.414-.732 2.432-.732.976 0 1.946.214 2.913.642l-.53 1.36c-.906-.381-1.714-.573-2.425-.573-.538 0-.947.117-1.226.352-.28.236-.419.545-.419.93 0 .265.056.492.168.68.111.188.296.366.55.533.256.168.716.388 1.381.662.748.31 1.297.601 1.645.87.349.27.604.575.767.914.163.34.244.74.244 1.199h-.001zm5.164 2.906c-1.198 0-2.137-.35-2.813-1.05-.676-.7-1.014-1.662-1.014-2.89 0-1.259.314-2.248.941-2.968.628-.72 1.49-1.08 2.586-1.08 1.018 0 1.821.308 2.412.927.59.618.885 1.467.885 2.551v.885H9.548c.024.748.226 1.324.606 1.726.38.402.918.602 1.61.602.455 0 .88-.042 1.271-.128a6.69 6.69 0 001.265-.43v1.331c-.4.19-.804.325-1.213.405a7.42 7.42 0 01-1.4.118h.001zm-.3-6.747c-.52 0-.937.165-1.252.495-.313.33-.5.81-.56 1.443h3.498c-.009-.637-.163-1.12-.46-1.446-.297-.328-.706-.492-1.226-.492zm9.98 6.607l-.327-1.073h-.055c-.373.47-.746.789-1.123.959-.376.17-.86.254-1.45.254-.758 0-1.349-.205-1.774-.613-.426-.41-.638-.987-.638-1.735 0-.795.295-1.395.885-1.8.59-.403 1.489-.624 2.697-.66l1.33-.042v-.412c0-.492-.114-.86-.345-1.105-.23-.243-.586-.366-1.07-.366a3.7 3.7 0 00-1.135.174 8.434 8.434 0 00-1.046.411l-.53-1.171a5.723 5.723 0 011.374-.499c.498-.113.967-.17 1.408-.17.98 0 1.72.214 2.219.642.5.428.75 1.099.75 2.014v5.192h-1.172.002zm-2.439-1.115c.595 0 1.072-.167 1.433-.499.36-.332.54-.798.54-1.397V11.8l-.99.042c-.771.028-1.331.157-1.682.386-.351.23-.526.582-.526 1.055 0 .344.101.61.306.798.204.188.51.283.92.283zm9.807-6.733c.33 0 .601.024.815.07l-.16 1.527a3.109 3.109 0 00-.725-.084c-.655 0-1.186.214-1.593.641-.406.428-.61.984-.61 1.667v4.029h-1.638V7.77h1.283l.216 1.36h.084c.255-.46.588-.825 1-1.095.41-.27.853-.404 1.327-.404V7.63zm5.352 7.988c-1.166 0-2.052-.34-2.659-1.021-.606-.68-.91-1.658-.91-2.931 0-1.297.317-2.293.952-2.99.634-.697 1.55-1.046 2.75-1.046.813 0 1.544.151 2.196.453L35.92 9.4c-.692-.27-1.263-.404-1.714-.404-1.334 0-2.001.885-2.001 2.656 0 .864.166 1.514.498 1.947.333.435.82.652 1.461.652.73 0 1.42-.181 2.07-.544v1.429a3.259 3.259 0 01-.936.37 5.618 5.618 0 01-1.21.11v.002zm10.74-.14h-1.644V10.74c0-.594-.12-1.038-.36-1.33-.238-.293-.619-.44-1.139-.44-.688 0-1.192.206-1.516.617-.323.411-.485 1.1-.485 2.067v3.827h-1.638V4.635h1.638V7.39c0 .442-.028.913-.084 1.414h.104c.224-.372.533-.66.93-.864.398-.204.86-.306 1.391-.306 1.869 0 2.803.941 2.803 2.824v5.025-.003zm9.926-7.848c.962 0 1.71.349 2.247 1.046.537.697.805 1.675.805 2.934 0 1.264-.272 2.248-.815 2.953-.544.704-1.299 1.055-2.266 1.055-.976 0-1.733-.351-2.272-1.053h-.111l-.3.913h-1.227V4.634h1.638v2.579c0 .19-.01.474-.029.85l-.041.718h.07c.52-.767 1.287-1.15 2.3-1.15zm-.426 1.338c-.66 0-1.134.194-1.425.581-.29.388-.44 1.038-.45 1.948v.111c0 .938.15 1.618.446 2.039.298.42.783.63 1.458.63.58 0 1.02-.23 1.32-.69.301-.46.45-1.123.45-1.993 0-1.752-.6-2.627-1.799-2.627zm4.21-1.199h1.784l1.569 4.37c.237.624.394 1.209.474 1.757h.055c.041-.255.118-.566.23-.93.112-.365.703-2.097 1.77-5.197h1.771l-3.297 8.734c-.6 1.603-1.599 2.405-2.997 2.405a4.71 4.71 0 01-1.059-.118v-1.297c.246.056.527.084.844.084.79 0 1.345-.457 1.666-1.373l.286-.724-3.095-7.71h-.001z" fill="#4D9ABF" fill-rule="evenodd"/></symbol></svg>