<svg viewBox="0 0 400 124" xmlns="http://www.w3.org/2000/svg"><path d="m209.5437 49.6326a15.5582 15.5582 0 0 1 -4.5717 11.4819c-4.0327 4.0033-10.5748 6.186-18.4409 6.1255-5.6452-.0934-11.3489-1.4655-14.5758-3.4483l2.15-11.3082a32.4715 32.4715 0 0 0 13.8536 3.9055c3.6713 0 6.1444-1.694 6.1444-4.4112 0-2.4631-1.7384-4.1844-6.1791-6.357-7.0241-3.5123-10.5384-7.9649-10.5384-13.2126 0-10.3256 8.7947-17.3033 21.99-17.3033 6.982 0 11.5274 1.6454 14.0477 3.2627l-2.1456 11.2858c-1.9977-1.5012-7.0749-3.5955-12.6125-3.5955-3.8459 0-6.35 1.6108-6.35 4.3074 0 1.9343 1.9165 3.6675 5.9734 5.6451 5.2848 2.6409 11.2549 6.5507 11.2549 13.6222zm-91.461-34.4241c-18.588 0-32.5937 13.5735-32.5937 31.5736 0 12.431 8.26 20.4579 21.0732 20.4579 5.48 0 10.8076-1.0042 14.2375-2.6735l2.3482-12.4017a26.2356 26.2356 0 0 1 -12.4061 3.2076c-4.6858 0-9.7122-2.6962-9.7122-10.2222 0-8.8686 6.29-18.0723 16.8473-18.0723a16.1434 16.1434 0 0 1 8.1859 1.9487l2.2982-12.0578a28.6188 28.6188 0 0 0 -10.2783-1.7603zm260.64 40.4682a33.0633 33.0633 0 0 0 17.4252-4.9175l-2.3754 12.4836c-7.069 3.6091-15.3737 4.001-18.6171 4.001-13.8 0-21.6888-7.6745-21.6888-21.0736a33.0978 33.0978 0 0 1 7.7817-21.2409 27.6947 27.6947 0 0 1 21.348-9.8228c10.44 0 17.4038 6.0653 17.4038 15.0583a13.6329 13.6329 0 0 1 -4.0186 10.1771c-4.986 4.8593-17.2748 7.5826-28.4667 5.3847-.5332 6.3061 4.214 9.9501 11.2078 9.9501zm-9.5859-19.5726c8.7045.0715 13.6009-.809 15.7376-2.9248 2.3134-2.2986 1.589-7.2233-4.1137-7.2233-6.4163 0-10.5007 5.2602-11.624 10.1481zm-23.1749-20.8956c-18.588 0-32.5936 13.5735-32.5936 31.5736 0 12.431 8.26 20.4579 21.0732 20.4579 5.4805 0 10.8076-1.0042 14.2374-2.6735l2.3483-12.4017a26.2348 26.2348 0 0 1 -12.4062 3.2076c-4.6857 0-9.7121-2.6961-9.7121-10.2222 0-8.8686 6.29-18.0723 16.8473-18.0723a16.1437 16.1437 0 0 1 8.1859 1.9487l2.2979-12.0577a28.6189 28.6189 0 0 0 -10.2781-1.7604zm-35.0344 23.0215-5.3487 27.9921h-14.1665l1.8409-9.6346c-1.987 6.0046-6.8276 10.7565-14.9483 10.7565-9.8558 0-14.31-8.7494-14.3152-17.5055-.0068-9.9475 3.9013-19.7985 10.4467-26.3485a28.322 28.322 0 0 1 20.47-8.3847c6.0186.0241 10.4708 1.7662 13.2607 5.1472 4.1297 5.0036 3.7909 12.5153 2.7604 17.9775zm-13.639-6.44c-.173-3.53-2.01-5.4326-5.3047-5.4326-6.9765 0-13.02 12.0413-13.0151 20.415.0019 5.2318 1.941 8.49 5.3149 8.49 5.3962 0 10.0439-5.6432 11.6427-13.9071.5445-2.7932 1.4615-7.3774 1.3622-9.5653zm-214.24 6.44-5.3485 27.9919h-14.1666l1.8409-9.6346c-1.9869 6.0046-6.8276 10.7565-14.9483 10.7565-9.8559 0-14.31-8.7494-14.3152-17.5055-.0068-9.9473 3.9012-19.7983 10.4467-26.3483a28.322 28.322 0 0 1 20.47-8.3847c6.0186.0241 10.4708 1.7662 13.2606 5.1472 4.1298 5.0036 3.791 12.5153 2.7605 17.9775zm-13.6385-6.44c-.173-3.53-2.01-5.4326-5.3047-5.4326-6.9765 0-13.02 12.0413-13.0151 20.415.0019 5.2318 1.941 8.49 5.3149 8.49 5.3962 0 10.0439-5.6432 11.6427-13.9071.5441-2.7932 1.4611-7.3774 1.3622-9.5653zm193.59 2.35c0 12.1614-5.8389 24.6308-16.3634 30.2412a23.611 23.611 0 0 1 -10.7817 2.9629c-5.2686 0-8.2223-1.97-9.9063-5.0063l-3.768 19.9122h-14.8317l12.5911-66.2236h13.0634l-1.5273 8.0387c3.6906-5.3688 9.1565-8.96 15.3432-8.96 9.816-.0001 16.1807 7.4391 16.1807 19.0349zm-15.4247 1.1234c0-2.3573-.5567-8.0821-5.9893-8.0821-5.524 0-10.1875 6.2935-11.9955 15.8394-.6186 3.2638-2.3505 13.0639 4.4733 13.0639 7.7899.0001 13.511-11.0584 13.511-20.8211zm-226.9127-8.1092 2.1142-11.1278h-13.062l-9.7148 51.0789h14.8341l4.0057-21.06c2.3618-12.4188 9.4867-17.3883 19.6264-15.8531l2.8969-15.2358a20.5494 20.5494 0 0 0 -20.7005 12.1978zm118.9752 39.0677 5.1092-26.8764 10.5163 26.8764h15.9506l-10.8808-27.09 19.8018-23.1057h-16.1923l-19.1068 22.8525 7.3907-38.8787h-14.73l-12.59 66.2219zm249.4687 44.1368-.1116.5867h-1.2918l-.6334 3.3287h-.6377l.6334-3.3287h-1.2981l.1116-.5867zm4.7781 0-.7451 3.9154h-.6377l.5216-2.7411-1.59 1.8575h-.3808l-.8817-1.863-.5226 2.7466h-.6377l.745-3.9154h.5758l1.0617 2.2428 1.9144-2.2428zm-83.576-9.0224c0 7.235-5.0092 13.4145-12.24 13.4145-5.3539 0-8.6649-3.7026-8.6649-8.75 0-7.1881 5.0091-13.4144 12.24-13.4144 5.7028-.0001 8.6649 4.0936 8.6649 8.7499zm-15.6786 4.5325c0 2.9152 1.5236 4.9666 4.1367 4.9666 3.7919 0 6.3157-5.2262 6.3157-9.4565 0-2.1748-1-4.8773-4.0516-4.8773-4.0473 0-6.4008 5.405-6.4008 9.3672zm50.1936-4.5325c0 7.235-5.0092 13.4145-12.24 13.4145-5.3539 0-8.6649-3.7026-8.6649-8.75 0-7.1881 5.0091-13.4144 12.24-13.4144 5.7028-.0001 8.6649 4.0936 8.6649 8.7499zm-15.6786 4.5325c0 2.9152 1.5236 4.9666 4.1367 4.9666 3.7919 0 6.3157-5.2262 6.3157-9.4565 0-2.1748-1-4.8773-4.0516-4.8773-4.0473 0-6.4008 5.405-6.4008 9.3672zm-11.2474-19.7467-5.3546 28.152h5.0558l5.3934-28.152zm-81.7559 6.5067a13.3649 13.3649 0 0 0 -13.457 13.6316c0 5.0516 3.2642 8.4478 8.58 8.4478a14.2683 14.2683 0 0 0 6.2536-1.2944l.8368-4.4013a11.438 11.438 0 0 1 -5.6987 1.6016c-2.83 0-4.66-1.7875-4.66-4.9623 0-4.4432 3.094-8.9288 7.9712-8.9288a7.6768 7.6768 0 0 1 3.9077.9889l.8021-4.2183a11.683 11.683 0 0 0 -4.5357-.8648zm-28.9739 15.9425a5.835 5.835 0 0 1 -.566-3.0089c8.1882.1745 13.8911-1.57 13.8911-7.0094 0-3.5749-2.6556-5.9667-6.8391-5.9667-7.3159 0-12.0186 6.9668-12.0186 13.3676 0 5.1836 2.83 8.7968 8.7118 8.7968a16.518 16.518 0 0 0 8.0162-1.9882l.8682-4.5663a12.7715 12.7715 0 0 1 -7.71 2.55 4.6865 4.6865 0 0 1 -4.3536-2.1749zm5.8348-12.1973c1.613 0 2.6982.8257 2.6982 2.179 0 2.5663-3.3536 3.2642-8.58 3.2174.6131-2.5663 2.7027-5.3964 5.8818-5.3964zm72.9029 2.0427c0-4.0047-2.3535-5.8305-5.4007-5.8305a9.18 9.18 0 0 0 -7.7468 4.4481l.7853-4.0992h-4.5733l-4.0587 21.339h5.0558l1.8769-9.797c.915-4.9708 3.8261-7.7542 6.1328-7.7542 2.0045 0 2.66 1.26 2.66 3.0472a14.1609 14.1609 0 0 1 -.25 2.528l-2.2778 11.976h5.0557l2.3694-12.3676a19.8737 19.8737 0 0 0 .3714-3.4898zm-29.37-5.8305a8.9416 8.9416 0 0 0 -7.055 3.5088l1.9107-9.9729h-5.0946l-5.3546 28.152h5.0558l1.8769-9.797c.915-4.9708 3.8261-7.7542 6.1328-7.7542 2.0045 0 2.66 1.26 2.66 3.0472a14.1618 14.1618 0 0 1 -.25 2.528l-2.2779 11.976h5.0558l2.3694-12.3676a19.8828 19.8828 0 0 0 .3715-3.49c.0001-4.0045-2.3533-5.8303-5.4005-5.8303zm-58.8692-4.9824h-4.932l-1.0835 5.4591h-2.83l-.7406 3.92h2.8346l-1.83 9.4523a19.77 19.77 0 0 0 -.4383 3.92c0 2.4387 1.528 4.3539 5.0093 4.3539a10.1206 10.1206 0 0 0 3.3111-.4342v-.0006l.7648-4.0207a10.0158 10.0158 0 0 1 -2.029.191 1.6746 1.6746 0 0 1 -1.8725-1.9194 15.0179 15.0179 0 0 1 .3914-3.0047l1.6557-8.5372h4.7495l.783-3.92h-4.75zm170.3867 34.5971c3.8855 1.7974 7.7147 1.0018 10.4913-3.9651v-.0083l14.1891-25.2924h-5.4004l-8.0583 15.7891-1.9567-15.7891h-5.3156l3.78 20.7695-1.6547 3.3154c-1.4867 2.54-4.0809 1.7112-5.2877 1.0418zm-6.9028-29.6147c-9.02 0-13.6389 7.9749-13.6389 14.6855 0 3.7911 1.8738 7.4951 6.4059 7.4951a8.5417 8.5417 0 0 0 7.05-3.7871l-.4062 1.8559c-1.0427 4.9241-3.5707 6.49-6.8817 6.49a12.262 12.262 0 0 1 -5.5752-1.264l-.7869 4.1391a15.0672 15.0672 0 0 0 6.2566 1.1765 12.4619 12.4619 0 0 0 7.92-2.3535c2.4209-2 3.612-5.3113 4.4031-9.448l1.92-9.62a17.5188 17.5188 0 0 0 .4354-3.66c.0015-3.8349-2.6568-5.7095-7.1018-5.7095zm1.6125 9.1077-.3918 1.9609c-.8716 4.2708-3.5734 6.9726-6.1881 6.9726-2.3527 0-3.3558-1.9608-3.3558-4.2708 0-4.1829 2.92-9.8913 7.3645-9.8913a2.5344 2.5344 0 0 1 2.8325 2.7018 10.8221 10.8221 0 0 1 -.261 2.5268z" fill="#fff"/></svg>