<svg version="1.1" id="Layer_1" xmlns="http://www.w3.org/2000/svg"
                                    xmlns:xlink="http://www.w3.org/1999/xlink" x="0px" y="0px" viewBox="0 0 36 36"
                                    style="enable-background:new 0 0 36 36;" xml:space="preserve">
                                    <g>
                                        <g>
                                            <g>
                                                <path style="fill:#EEC65D;" d="M27,33.589H9L0,18L9,2.411h18L36,18L27,33.589z M9.559,32.62H26.44L34.882,18L26.44,3.38H9.559L1.118,18z
            L9.559,32.62z"></path>
                                            </g>
                                        </g>
                                        <g>
                                            <g>
                                                <path style="fill:#EEC65D;" d="M17.251,23.89c-0.288,0-0.558-0.112-0.761-0.315l-3.227-3.227c-0.203-0.203-0.316-0.474-0.316-0.762
            c0-0.288,0.112-0.558,0.316-0.762c0.162-0.191,4.339-5.06,6.865-6.86c1.446-1.03,5.255-0.947,5.417-0.94l0.265,0.007l0.004,0.265
            c0.002,0.16,0.036,3.928-0.935,5.405c-1.458,2.217-6.66,6.697-6.881,6.888C17.809,23.778,17.539,23.89,17.251,23.89z
             M25.257,11.572c-0.892,0-3.72,0.063-4.81,0.841c-2.472,1.76-6.739,6.735-6.781,6.785c-0.114,0.115-0.169,0.247-0.169,0.388
            c0,0.14,0.055,0.273,0.154,0.372l3.227,3.227c0.199,0.201,0.545,0.201,0.745,0c0.069-0.06,5.379-4.633,6.795-6.786
            c0.74-1.125,0.833-3.942,0.843-4.826C25.259,11.572,25.258,11.572,25.257,11.572z"></path>
                                                <path style="fill:#EEC65D;"
                                                    d="M16.252,23.219c-0.208,0.226-0.501,0.375-0.785,0.493c-0.288,0.119-0.586,0.216-0.886,0.298
            c-0.603,0.163-1.21,0.284-1.835,0.373l-0.002,0l-0.338,0.045l0.048-0.336c0.089-0.626,0.21-1.233,0.373-1.836
            c0.082-0.301,0.179-0.598,0.298-0.887c0.119-0.285,0.265-0.574,0.493-0.785c-0.193,0.242-0.289,0.536-0.363,0.829
            c-0.072,0.295-0.123,0.594-0.158,0.896c-0.069,0.602-0.099,1.216-0.093,1.815l-0.291-0.29l0.002,0
            c0.599,0.005,1.212-0.024,1.814-0.094c0.302-0.036,0.601-0.086,0.895-0.159C15.717,23.506,16.008,23.414,16.252,23.219z"></path>

                                                <rect x="16.306" y="18.3"
                                                    transform="matrix(0.7062 0.708 -0.708 0.7062 19.211 -5.7891)"
                                                    style="fill:#EEC65D;" width="0.551" height="3.911"></rect>
                                                <g>
                                                    <path style="fill:#EEC65D;" d="M19.984,26.912l-0.47-0.32c-0.266-0.181-2.595-1.799-2.541-2.99l0.55,0.025
              c-0.025,0.562,0.979,1.52,1.838,2.175c-0.054-1.256-0.077-4.036,0.725-4.839l0.39,0.39c-0.61,0.61-0.651,3.386-0.533,4.991
              L19.984,26.912z"></path>
                                                </g>
                                                <path style="fill:#EEC65D;" d="M13.194,19.863c-1.187,0.001-2.779-2.286-2.959-2.549l-0.321-0.471l0.569,0.042
            c1.607,0.118,4.382,0.078,4.991-0.532l0.389,0.389c-0.801,0.802-3.581,0.781-4.838,0.725c0.66,0.862,1.603,1.891,2.185,1.846
            l0.025,0.55C13.221,19.863,13.207,19.863,13.194,19.863z"></path>
                                            </g>
                                            <path style="fill:#EEC65D;" d="M21.646,16.664c-0.372,0-0.744-0.141-1.027-0.424c-0.566-0.566-0.566-1.486,0-2.052
          c0.565-0.565,1.486-0.566,2.052,0c0.566,0.566,0.566,1.486,0,2.052C22.389,16.523,22.017,16.664,21.646,16.664z M21.646,14.039
          c-0.302,0-0.603,0.114-0.832,0.344c-0.459,0.458-0.459,1.204,0,1.662c0.457,0.458,1.204,0.459,1.663,0
          c0.459-0.458,0.459-1.204,0-1.662C22.248,14.154,21.947,14.039,21.646,14.039z"></path>
                                        </g>
                                    </g>
                                </svg>